<svg width="281" height="20" viewBox="0 0 281 20" fill="none" xmlns="http://www.w3.org/2000/svg">
<path d="M1.968 13.52C2.992 12.6347 3.79733 11.9093 4.384 11.344C4.98133 10.768 5.47733 10.1707 5.872 9.552C6.26667 8.93333 6.464 8.31467 6.464 7.696C6.464 7.056 6.30933 6.55467 6 6.192C5.70133 5.82933 5.22667 5.648 4.576 5.648C3.94667 5.648 3.456 5.85067 3.104 6.256C2.76267 6.65067 2.58133 7.184 2.56 7.856H0.8C0.832 6.64 1.19467 5.712 1.888 5.072C2.592 4.42133 3.48267 4.096 4.56 4.096C5.72267 4.096 6.62933 4.416 7.28 5.056C7.94133 5.696 8.272 6.54933 8.272 7.616C8.272 8.384 8.07467 9.12533 7.68 9.84C7.296 10.544 6.832 11.1787 6.288 11.744C5.75467 12.2987 5.072 12.944 4.24 13.68L3.52 14.32H8.592V15.84H0.816V14.512L1.968 13.52Z" fill="#1694CA"/>
<path d="M24.6667 10C24.6667 12.9455 27.0545 15.3333 30 15.3333C32.9455 15.3333 35.3333 12.9455 35.3333 10C35.3333 7.05448 32.9455 4.66667 30 4.66667C27.0545 4.66667 24.6667 7.05448 24.6667 10ZM280 11C280.552 11 281 10.5523 281 10C281 9.44772 280.552 9 280 9V11ZM30 11L280 11V9L30 9V11Z" fill="#1694CA"/>
</svg>
