<svg width="281" height="20" viewBox="0 0 281 20" fill="none" xmlns="http://www.w3.org/2000/svg">
<path d="M0.928 7.216C0.992 6.224 1.37067 5.45067 2.064 4.896C2.768 4.34133 3.664 4.064 4.752 4.064C5.49867 4.064 6.144 4.19733 6.688 4.464C7.232 4.73067 7.64267 5.09333 7.92 5.552C8.19733 6.01067 8.336 6.528 8.336 7.104C8.336 7.76533 8.16 8.33067 7.808 8.8C7.456 9.26933 7.03467 9.584 6.544 9.744V9.808C7.17333 10 7.664 10.352 8.016 10.864C8.368 11.3653 8.544 12.0107 8.544 12.8C8.544 13.4293 8.4 13.9893 8.112 14.48C7.824 14.9707 7.39733 15.36 6.832 15.648C6.26667 15.9253 5.58933 16.064 4.8 16.064C3.648 16.064 2.69867 15.7707 1.952 15.184C1.216 14.5867 0.821333 13.7333 0.768 12.624H2.528C2.57067 13.1893 2.78933 13.6533 3.184 14.016C3.57867 14.368 4.112 14.544 4.784 14.544C5.43467 14.544 5.936 14.368 6.288 14.016C6.64 13.6533 6.816 13.1893 6.816 12.624C6.816 11.8773 6.576 11.3493 6.096 11.04C5.62667 10.72 4.90133 10.56 3.92 10.56H3.504V9.056H3.936C4.8 9.04533 5.456 8.90133 5.904 8.624C6.36267 8.34667 6.592 7.90933 6.592 7.312C6.592 6.8 6.42667 6.39467 6.096 6.096C5.76533 5.78667 5.296 5.632 4.688 5.632C4.09067 5.632 3.62667 5.78667 3.296 6.096C2.96533 6.39467 2.768 6.768 2.704 7.216H0.928Z" fill="#1694CA"/>
<path d="M24.6667 10C24.6667 12.9455 27.0545 15.3333 30 15.3333C32.9455 15.3333 35.3333 12.9455 35.3333 10C35.3333 7.05448 32.9455 4.66667 30 4.66667C27.0545 4.66667 24.6667 7.05448 24.6667 10ZM280 11C280.552 11 281 10.5523 281 10C281 9.44772 280.552 9 280 9V11ZM30 11L280 11V9L30 9V11Z" fill="#1694CA"/>
</svg>
