<svg width="95" height="65" viewBox="0 0 95 65" fill="none" xmlns="http://www.w3.org/2000/svg">
<g clip-path="url(#clip0_1_420)">
<path d="M32.8486 15.8007C32.8486 8.264 27.0736 2.1543 19.9497 2.1543C12.8258 2.1543 7.05078 8.264 7.05078 15.8007V51.3532C7.05078 58.8899 12.8258 64.9996 19.9497 64.9996C27.0736 64.9996 32.8486 58.8899 32.8486 51.3532V15.8007Z" fill="#ECFCFC"/>
<path d="M88.1299 15.8007C88.1299 8.264 82.3548 2.1543 75.2309 2.1543C68.1071 2.1543 62.332 8.264 62.332 15.8007V51.3532C62.332 58.8899 68.1071 64.9996 75.2309 64.9996C82.3548 64.9996 88.1299 58.8899 88.1299 51.3532V15.8007Z" fill="#ECFCFC"/>
<path fill-rule="evenodd" clip-rule="evenodd" d="M31.8714 40.5802C33.6702 31.6023 59.9 29.2022 62.9389 40.5802L63.0681 19.0332C61.8474 28.0111 38.4789 31.6023 31.7422 19.0332L31.8714 40.5802Z" fill="#ECFCFC"/>
</g>
<defs>
<clipPath id="clip0_1_420">
<rect width="95" height="65" fill="white"/>
</clipPath>
</defs>
</svg>
