<svg width="58" height="16" viewBox="0 0 58 16" fill="none" xmlns="http://www.w3.org/2000/svg">
<path d="M7.87991 15.14C6.55991 15.14 5.34658 14.8333 4.23991 14.22C3.14658 13.6067 2.27325 12.7533 1.61991 11.66C0.979912 10.5533 0.659912 9.31334 0.659912 7.94001C0.659912 6.56668 0.979912 5.33334 1.61991 4.24001C2.27325 3.14668 3.14658 2.29334 4.23991 1.68001C5.34658 1.06668 6.55991 0.76001 7.87991 0.76001C9.19991 0.76001 10.4066 1.06668 11.4999 1.68001C12.6066 2.29334 13.4732 3.14668 14.0999 4.24001C14.7399 5.33334 15.0599 6.56668 15.0599 7.94001C15.0599 9.31334 14.7399 10.5533 14.0999 11.66C13.4599 12.7533 12.5932 13.6067 11.4999 14.22C10.4066 14.8333 9.19991 15.14 7.87991 15.14ZM7.87991 12.02C8.99991 12.02 9.89325 11.6467 10.5599 10.9C11.2399 10.1533 11.5799 9.16668 11.5799 7.94001C11.5799 6.70001 11.2399 5.71334 10.5599 4.98001C9.89325 4.23334 8.99991 3.86001 7.87991 3.86001C6.74658 3.86001 5.83991 4.22668 5.15991 4.96001C4.49325 5.69334 4.15991 6.68668 4.15991 7.94001C4.15991 9.18001 4.49325 10.1733 5.15991 10.92C5.83991 11.6533 6.74658 12.02 7.87991 12.02Z" fill="#000099"/>
<path d="M22.0426 15.14C21.0159 15.14 20.0959 14.9733 19.2826 14.64C18.4692 14.3067 17.8159 13.8133 17.3226 13.16C16.8787 12.5559 16.6287 11.8378 16.5725 11.0057C16.5649 10.8933 16.6557 10.8 16.7684 10.8H20.022C20.1246 10.8 20.2096 10.8778 20.2267 10.9789C20.3001 11.4127 20.4721 11.753 20.7426 12C21.0492 12.2667 21.4492 12.4 21.9426 12.4C22.4492 12.4 22.8492 12.2867 23.1426 12.06C23.4359 11.82 23.5826 11.4933 23.5826 11.08C23.5826 10.7333 23.4626 10.4467 23.2226 10.22C22.9959 9.99334 22.7092 9.80668 22.3626 9.66001C22.0292 9.51334 21.5492 9.34668 20.9226 9.16001C20.0159 8.88001 19.2759 8.60001 18.7026 8.32001C18.1292 8.04001 17.6359 7.62668 17.2226 7.08001C16.8092 6.53334 16.6026 5.82001 16.6026 4.94001C16.6026 3.63334 17.0759 2.61334 18.0226 1.88001C18.9692 1.13334 20.2026 0.76001 21.7226 0.76001C23.2692 0.76001 24.5159 1.13334 25.4626 1.88001C26.3584 2.57399 26.8603 3.53065 26.968 4.75001C26.9781 4.86399 26.8866 4.96001 26.7722 4.96001H23.4711C23.3653 4.96001 23.2791 4.87712 23.2627 4.7725C23.2056 4.40811 23.0456 4.11728 22.7826 3.90001C22.4759 3.63334 22.0826 3.50001 21.6026 3.50001C21.1892 3.50001 20.8559 3.61334 20.6026 3.84001C20.3492 4.05334 20.2226 4.36668 20.2226 4.78001C20.2226 5.23334 20.4359 5.58668 20.8626 5.84001C21.2892 6.09334 21.9559 6.36668 22.8626 6.66001C23.7692 6.96668 24.5026 7.26001 25.0626 7.54001C25.6359 7.82001 26.1292 8.22668 26.5426 8.76001C26.9559 9.29334 27.1626 9.98001 27.1626 10.82C27.1626 11.62 26.9559 12.3467 26.5426 13C26.1426 13.6533 25.5559 14.1733 24.7826 14.56C24.0092 14.9467 23.0959 15.14 22.0426 15.14Z" fill="#000099"/>
<path d="M35.9073 15.14C34.5873 15.14 33.3739 14.8333 32.2673 14.22C31.1739 13.6067 30.3006 12.7533 29.6473 11.66C29.0073 10.5533 28.6873 9.31334 28.6873 7.94001C28.6873 6.56668 29.0073 5.33334 29.6473 4.24001C30.3006 3.14668 31.1739 2.29334 32.2673 1.68001C33.3739 1.06668 34.5873 0.76001 35.9073 0.76001C37.2273 0.76001 38.4339 1.06668 39.5273 1.68001C40.6339 2.29334 41.5006 3.14668 42.1273 4.24001C42.7673 5.33334 43.0873 6.56668 43.0873 7.94001C43.0873 9.31334 42.7673 10.5533 42.1273 11.66C41.4873 12.7533 40.6206 13.6067 39.5273 14.22C38.4339 14.8333 37.2273 15.14 35.9073 15.14ZM35.9073 12.02C37.0273 12.02 37.9206 11.6467 38.5873 10.9C39.2673 10.1533 39.6073 9.16668 39.6073 7.94001C39.6073 6.70001 39.2673 5.71334 38.5873 4.98001C37.9206 4.23334 37.0273 3.86001 35.9073 3.86001C34.7739 3.86001 33.8673 4.22668 33.1873 4.96001C32.5206 5.69334 32.1873 6.68668 32.1873 7.94001C32.1873 9.18001 32.5206 10.1733 33.1873 10.92C33.8673 11.6533 34.7739 12.02 35.9073 12.02Z" fill="#000099"/>
<path d="M57.5499 14.8C57.5499 14.9105 57.4604 15 57.3499 15H54.2375C54.1703 15 54.1076 14.9663 54.0706 14.9102L48.7768 6.89546C48.6675 6.72998 48.4099 6.80737 48.4099 7.00569V14.8C48.4099 14.9105 48.3204 15 48.2099 15H45.1899C45.0795 15 44.9899 14.9105 44.9899 14.8V1.16001C44.9899 1.04955 45.0795 0.96001 45.1899 0.96001H48.3021C48.3694 0.96001 48.4322 0.993881 48.4692 1.05014L53.7628 9.10163C53.8719 9.26753 54.1299 9.1903 54.1299 8.99176V1.16001C54.1299 1.04955 54.2195 0.96001 54.3299 0.96001H57.3499C57.4604 0.96001 57.5499 1.04955 57.5499 1.16001V14.8Z" fill="#000099"/>
</svg>
