<svg width="38" height="39" viewBox="0 0 38 39" fill="none" xmlns="http://www.w3.org/2000/svg">
<mask id="path-1-inside-1_1_1079" fill="white">
<path d="M9.5 29C4.2533 23.7533 4.2533 15.2467 9.5 10C14.7467 4.7533 23.2533 4.7533 28.5 10C33.7467 15.2467 33.7467 23.7533 28.5 29L19.5588 37.9412C19.2502 38.2498 18.7498 38.2498 18.4412 37.9412L9.5 29Z"/>
</mask>
<path d="M9.5 29C4.2533 23.7533 4.2533 15.2467 9.5 10C14.7467 4.7533 23.2533 4.7533 28.5 10C33.7467 15.2467 33.7467 23.7533 28.5 29L19.5588 37.9412C19.2502 38.2498 18.7498 38.2498 18.4412 37.9412L9.5 29Z" stroke="#00004C" stroke-width="4" mask="url(#path-1-inside-1_1_1079)"/>
<path d="M13.3433 25.1576C10.2187 22.033 10.2187 16.967 13.3433 13.8424C16.468 10.7177 21.534 10.7177 24.6586 13.8424C27.7833 16.967 27.7833 22.033 24.6586 25.1576C21.534 28.2823 16.468 28.2823 13.3433 25.1576Z" stroke="#00004C" stroke-width="2"/>
</svg>
