<svg width="555" height="219" viewBox="0 0 555 219" fill="none" xmlns="http://www.w3.org/2000/svg">
<rect x="22.4941" width="544" height="109" rx="54.5" transform="rotate(11.9094 22.4941 0)" fill="white"/>
<path d="M71.8464 55.5809L68.3795 72.0193L65.6789 71.4497L68.1504 59.7315L61.405 66.9428L61.0763 66.8734L57.8226 57.5288L55.3462 69.2705L52.6456 68.701L56.1126 52.2626L59.0245 52.8767L62.246 62.1409L68.958 54.9717L71.8464 55.5809ZM83.2685 62.8955L85.8047 63.4304L83.3284 75.1721L80.7922 74.6372L81.1488 72.9464C79.9131 74.0757 78.4029 74.4521 76.6182 74.0757C75.0057 73.7356 73.7534 72.8502 72.8615 71.4193C71.9729 69.9728 71.7102 68.3885 72.0734 66.6664C72.4399 64.9286 73.32 63.5853 74.7138 62.6365C76.1076 61.6877 77.6108 61.3834 79.2233 61.7235C81.0081 62.0999 82.2392 63.0463 82.9169 64.5628L83.2685 62.8955ZM75.0968 70.1247C75.6527 70.9778 76.4629 71.5166 77.5275 71.7411C78.5921 71.9657 79.5509 71.8 80.404 71.244C81.2604 70.6725 81.8025 69.8466 82.0303 68.7663C82.2582 67.6861 82.0941 66.7194 81.5382 65.8663C80.9856 64.9976 80.177 64.451 79.1124 64.2264C78.0478 64.0019 77.0873 64.1754 76.231 64.747C75.3779 65.3029 74.8374 66.121 74.6096 67.2013C74.3818 68.2815 74.5442 69.256 75.0968 70.1247ZM95.0014 65.0511C96.3478 65.3351 97.3451 65.9951 97.9932 67.0311C98.6414 68.0672 98.8069 69.3367 98.49 70.8396L96.9695 78.049L94.4333 77.5141L95.8993 70.563C96.0842 69.6863 95.9913 68.9636 95.6207 68.3949C95.2501 67.8262 94.6577 67.456 93.8437 67.2843C92.9513 67.0961 92.1717 67.226 91.5049 67.674C90.8414 68.1064 90.3891 68.894 90.1481 70.0369L88.8207 76.3304L86.2845 75.7955L89.7514 59.3571L92.2876 59.892L90.9801 66.0917C92.0015 65.048 93.3419 64.7011 95.0014 65.0511ZM111.476 68.8446L114.012 69.3795L111.536 81.1212L109 80.5863L109.356 78.8955C108.121 80.0248 106.611 80.4012 104.826 80.0248C103.213 79.6847 101.961 78.7993 101.069 77.3684C100.18 75.9219 99.9178 74.3376 100.281 72.6154C100.647 70.8777 101.528 69.5344 102.921 68.5856C104.315 67.6368 105.818 67.3325 107.431 67.6725C109.216 68.049 110.447 68.9954 111.124 70.5119L111.476 68.8446ZM103.304 76.0738C103.86 76.9269 104.671 77.4657 105.735 77.6902C106.8 77.9147 107.759 77.749 108.612 77.1931C109.468 76.6216 110.01 75.7956 110.238 74.7154C110.466 73.6352 110.302 72.6685 109.746 71.8154C109.193 70.9467 108.385 70.4001 107.32 70.1755C106.255 69.951 105.295 70.1245 104.439 70.6961C103.585 71.252 103.045 72.0701 102.817 73.1503C102.589 74.2306 102.752 75.2051 103.304 76.0738ZM114.492 81.7446L118.108 64.6017L120.644 65.1366L117.028 82.2795L114.492 81.7446ZM119.973 82.9006L123.589 65.7577L126.125 66.2926L122.509 83.4355L119.973 82.9006ZM130.796 70.5891C130.417 70.8362 130.008 70.9135 129.57 70.821C129.132 70.7286 128.781 70.4911 128.518 70.1087C128.275 69.7139 128.199 69.2973 128.291 68.8589C128.384 68.4206 128.62 68.0779 128.999 67.8308C129.381 67.5681 129.8 67.4846 130.254 67.5803C130.708 67.6761 131.056 67.9213 131.3 68.3162C131.547 68.6953 131.625 69.1041 131.532 69.5424C131.44 69.9808 131.194 70.3297 130.796 70.5891ZM125.454 84.0565L127.93 72.3148L130.467 72.8497L127.99 84.5914L125.454 84.0565ZM141.325 75.1399L144.026 75.7094L136.962 86.8759C135.194 89.6754 132.98 90.7129 130.32 89.9884L130.821 87.6166C131.609 87.832 132.287 87.7951 132.855 87.5061C133.42 87.2327 133.944 86.722 134.429 85.9739L134.596 85.7639L132.049 73.1835L134.82 73.768L136.522 83.0304L141.325 75.1399ZM159.444 78.9611L162.215 79.5455L155.159 90.3214L152.224 89.7023L150.121 76.9948L152.892 77.5792L154.297 87.1963L159.444 78.9611ZM172.661 81.7487L175.198 82.2836L172.721 94.0253L170.185 93.4905L170.542 91.7996C169.306 92.929 167.796 93.3054 166.011 92.929C164.399 92.5889 163.146 91.7034 162.254 90.2726C161.366 88.8261 161.103 87.2418 161.466 85.5196C161.833 83.7819 162.713 82.4386 164.107 81.4898C165.501 80.541 167.004 80.2366 168.616 80.5767C170.401 80.9531 171.632 81.8996 172.31 83.4161L172.661 81.7487ZM164.49 88.978C165.046 89.8311 165.856 90.3699 166.92 90.5944C167.985 90.8189 168.944 90.6532 169.797 90.0973C170.653 89.5257 171.195 88.6998 171.423 87.6196C171.651 86.5394 171.487 85.5727 170.931 84.7196C170.378 83.8509 169.57 83.3042 168.505 83.0797C167.441 82.8552 166.48 83.0287 165.624 83.6003C164.771 84.1562 164.23 84.9743 164.002 86.0545C163.775 87.1348 163.937 88.1093 164.49 88.978ZM192.045 98.1009L189.11 97.4818L187.045 92.852L183.263 96.2485L180.304 95.6245L185.991 90.5204L183.015 83.9323L185.95 84.5514L187.868 88.8314L191.351 85.6905L194.31 86.3146L188.922 91.163L192.045 98.1009ZM198.378 99.7553C196.656 99.3921 195.317 98.4884 194.363 97.0444C193.408 95.6003 193.114 94.0094 193.481 92.2716C193.847 90.5338 194.759 89.1972 196.215 88.2616C197.672 87.326 199.261 87.0398 200.983 87.403C202.721 87.7695 204.059 88.6731 204.998 90.1139C205.952 91.558 206.246 93.1489 205.88 94.8867C205.513 96.6244 204.602 97.9611 203.146 98.8967C201.705 99.8356 200.116 100.122 198.378 99.7553ZM196.514 95.683C197.07 96.5361 197.865 97.0716 198.898 97.2895C199.931 97.5074 200.874 97.3384 201.727 96.7825C202.58 96.2266 203.119 95.4163 203.344 94.3518C203.568 93.2872 203.403 92.3283 202.847 91.4753C202.291 90.6222 201.496 90.0867 200.463 89.8688C199.43 89.6508 198.486 89.8198 197.633 90.3758C196.78 90.9317 196.241 91.7419 196.017 92.8065C195.792 93.8711 195.958 94.8299 196.514 95.683ZM211.532 92.007C212.481 90.6864 213.84 90.2126 215.609 90.5857L215.029 93.3333C214.072 93.066 213.177 93.1225 212.344 93.5029C211.515 93.8676 210.974 94.6528 210.719 95.8582L209.471 101.776L206.935 101.241L209.411 89.4995L211.948 90.0344L211.532 92.007ZM220.304 89.4665C219.925 89.7136 219.516 89.7909 219.078 89.6985C218.639 89.606 218.289 89.3686 218.026 88.9861C217.782 88.5913 217.707 88.1747 217.799 87.7364C217.891 87.298 218.127 86.9553 218.506 86.7082C218.889 86.4455 219.307 86.362 219.761 86.4578C220.215 86.5535 220.564 86.7988 220.808 87.1936C221.055 87.5728 221.132 87.9815 221.04 88.4199C220.947 88.8582 220.702 89.2071 220.304 89.4665ZM214.962 102.934L217.438 91.1923L219.974 91.7272L217.498 103.469L214.962 102.934ZM226.002 90.6682C225.623 90.9153 225.214 90.9926 224.775 90.9002C224.337 90.8077 223.987 90.5703 223.724 90.1878C223.48 89.793 223.404 89.3764 223.497 88.9381C223.589 88.4997 223.825 88.157 224.204 87.9099C224.602 87.6505 225.021 87.567 225.459 87.6595C225.897 87.7519 226.238 87.9956 226.482 88.3904C226.745 88.7728 226.83 89.1832 226.738 89.6216C226.645 90.0599 226.4 90.4088 226.002 90.6682ZM220.56 104.605L223.136 92.394L225.672 92.9289L223.097 105.14C222.41 108.397 220.487 109.569 217.327 108.657L217.842 106.215C218.608 106.458 219.206 106.454 219.635 106.201C220.08 105.951 220.389 105.419 220.56 104.605ZM231.495 91.8268C231.116 92.0739 230.707 92.1512 230.269 92.0588C229.831 91.9663 229.48 91.7289 229.217 91.3464C228.973 90.9516 228.898 90.535 228.99 90.0967C229.083 89.6583 229.319 89.3156 229.698 89.0685C230.08 88.8058 230.498 88.7223 230.952 88.8181C231.406 88.9138 231.755 89.1591 231.999 89.5539C232.246 89.933 232.323 90.3418 232.231 90.7802C232.139 91.2185 231.893 91.5674 231.495 91.8268ZM226.153 105.294L228.629 93.5526L231.166 94.0875L228.689 105.829L226.153 105.294ZM242.024 96.3776L244.725 96.9472L237.66 108.114C235.893 110.913 233.679 111.951 231.019 111.226L231.519 108.854C232.308 109.07 232.986 109.033 233.554 108.744C234.119 108.47 234.643 107.96 235.128 107.212L235.295 107.002L232.748 94.4213L235.519 95.0057L237.221 104.268L242.024 96.3776ZM260.095 100.189L262.632 100.724L260.155 112.465L257.619 111.931L257.936 110.428C256.915 111.471 255.574 111.818 253.915 111.468C252.568 111.184 251.571 110.524 250.923 109.488C250.275 108.452 250.109 107.183 250.426 105.68L251.947 98.4703L254.483 99.0052L253.017 105.956C252.832 106.833 252.925 107.556 253.295 108.124C253.666 108.693 254.258 109.063 255.073 109.235C255.965 109.423 256.743 109.301 257.406 108.869C258.073 108.421 258.527 107.625 258.768 106.482L260.095 100.189ZM273.511 103.018L276.212 103.588L269.147 114.754C267.38 117.554 265.166 118.591 262.506 117.867L263.006 115.495C263.795 115.71 264.473 115.674 265.041 115.385C265.606 115.111 266.13 114.6 266.615 113.852L266.782 113.642L264.235 101.062L267.006 101.646L268.708 110.909L273.511 103.018ZM286.638 105.787L289.175 106.322L286.698 118.064L284.162 117.529L284.519 115.838C283.283 116.967 281.773 117.344 279.988 116.967C278.376 116.627 277.123 115.742 276.231 114.311C275.343 112.864 275.08 111.28 275.443 109.558C275.81 107.82 276.69 106.477 278.084 105.528C279.478 104.579 280.981 104.275 282.593 104.615C284.378 104.991 285.609 105.938 286.287 107.454L286.638 105.787ZM278.467 113.016C279.023 113.869 279.833 114.408 280.897 114.633C281.962 114.857 282.921 114.691 283.774 114.135C284.63 113.564 285.172 112.738 285.4 111.658C285.628 110.578 285.464 109.611 284.908 108.758C284.356 107.889 283.547 107.342 282.482 107.118C281.418 106.893 280.457 107.067 279.601 107.638C278.748 108.194 278.207 109.012 277.98 110.093C277.752 111.173 277.914 112.147 278.467 113.016ZM289.654 118.687L293.27 101.544L295.806 102.079L292.191 119.222L289.654 118.687ZM300.478 106.375C300.099 106.623 299.69 106.7 299.251 106.607C298.813 106.515 298.463 106.278 298.2 105.895C297.956 105.5 297.88 105.084 297.973 104.645C298.065 104.207 298.301 103.864 298.68 103.617C299.063 103.354 299.481 103.271 299.935 103.367C300.389 103.462 300.738 103.708 300.982 104.103C301.229 104.482 301.306 104.89 301.214 105.329C301.121 105.767 300.876 106.116 300.478 106.375ZM295.135 119.843L297.612 108.101L300.148 108.636L297.672 120.378L295.135 119.843ZM318.263 112.457L320.799 112.992L318.323 124.733L315.787 124.198L316.143 122.508C314.908 123.637 313.398 124.013 311.613 123.637C310 123.297 308.748 122.411 307.856 120.981C306.967 119.534 306.705 117.95 307.068 116.228C307.434 114.49 308.315 113.146 309.708 112.198C311.102 111.249 312.605 110.945 314.218 111.285C316.003 111.661 317.234 112.608 317.911 114.124L318.263 112.457ZM310.091 119.686C310.647 120.539 311.458 121.078 312.522 121.302C313.587 121.527 314.546 121.361 315.399 120.805C316.255 120.234 316.797 119.408 317.025 118.328C317.253 117.247 317.089 116.281 316.533 115.428C315.98 114.559 315.172 114.012 314.107 113.788C313.042 113.563 312.082 113.737 311.226 114.308C310.372 114.864 309.832 115.682 309.604 116.762C309.376 117.843 309.539 118.817 310.091 119.686ZM321.279 125.357L324.895 108.214L327.431 108.749L323.815 125.892L321.279 125.357ZM332.238 127.987C330.516 127.624 329.177 126.72 328.223 125.276C327.268 123.832 326.974 122.241 327.341 120.503C327.707 118.765 328.619 117.429 330.075 116.493C331.532 115.558 333.121 115.271 334.843 115.635C336.581 116.001 337.919 116.905 338.858 118.345C339.812 119.79 340.107 121.38 339.74 123.118C339.373 124.856 338.462 126.193 337.006 127.128C335.565 128.067 333.976 128.353 332.238 127.987ZM330.374 123.915C330.93 124.768 331.725 125.303 332.758 125.521C333.791 125.739 334.734 125.57 335.587 125.014C336.44 124.458 336.979 123.648 337.204 122.583C337.428 121.519 337.263 120.56 336.707 119.707C336.151 118.854 335.356 118.318 334.323 118.1C333.29 117.882 332.346 118.051 331.493 118.607C330.64 119.163 330.101 119.973 329.877 121.038C329.652 122.103 329.818 123.061 330.374 123.915ZM352.571 119.692L355.107 120.227L351.64 136.666L349.104 136.131L350.446 129.767C349.214 130.88 347.705 131.249 345.921 130.873C344.308 130.532 343.056 129.647 342.164 128.216C341.272 126.785 341.009 125.201 341.376 123.463C341.739 121.741 342.617 120.406 344.011 119.457C345.408 118.492 346.913 118.18 348.526 118.52C350.31 118.897 351.54 119.851 352.214 121.383L352.571 119.692ZM344.399 126.922C344.955 127.775 345.765 128.313 346.83 128.538C347.894 128.762 348.853 128.597 349.706 128.041C350.563 127.469 351.105 126.643 351.333 125.563C351.561 124.483 351.397 123.516 350.841 122.663C350.288 121.794 349.479 121.248 348.415 121.023C347.35 120.799 346.39 120.972 345.533 121.544C344.68 122.1 344.14 122.918 343.912 123.998C343.684 125.078 343.847 126.053 344.399 126.922ZM367.363 122.812L369.899 123.347L367.423 135.089L364.886 134.554L365.243 132.863C364.007 133.992 362.497 134.369 360.712 133.992C359.1 133.652 357.848 132.767 356.956 131.336C356.067 129.889 355.804 128.305 356.168 126.583C356.534 124.845 357.414 123.502 358.808 122.553C360.202 121.604 361.705 121.3 363.317 121.64C365.102 122.016 366.333 122.963 367.011 124.479L367.363 122.812ZM359.191 130.041C359.747 130.894 360.557 131.433 361.622 131.658C362.686 131.882 363.645 131.716 364.498 131.161C365.355 130.589 365.897 129.763 366.125 128.683C366.352 127.603 366.188 126.636 365.632 125.783C365.08 124.914 364.271 124.367 363.207 124.143C362.142 123.918 361.182 124.092 360.325 124.663C359.472 125.219 358.932 126.037 358.704 127.118C358.476 128.198 358.638 129.172 359.191 130.041ZM386.64 126.878L389.176 127.412L386.7 139.154L384.163 138.619L384.48 137.116C383.459 138.16 382.119 138.507 380.459 138.157C379.113 137.873 378.116 137.213 377.467 136.177C376.819 135.141 376.654 133.871 376.971 132.368L378.491 125.159L381.027 125.694L379.561 132.645C379.376 133.522 379.469 134.244 379.84 134.813C380.21 135.382 380.803 135.752 381.617 135.924C382.509 136.112 383.287 135.99 383.951 135.557C384.618 135.109 385.071 134.314 385.312 133.171L386.64 126.878ZM395.143 141.254C393.374 140.881 392.02 139.974 391.081 138.533C390.158 137.095 389.88 135.508 390.246 133.77C390.616 132.017 391.512 130.677 392.933 129.75C394.374 128.811 395.979 128.528 397.748 128.901C398.891 129.143 399.874 129.636 400.698 130.382C401.522 131.128 402.071 132.013 402.346 133.035L399.895 133.843C399.747 133.223 399.433 132.699 398.951 132.27C398.488 131.829 397.904 131.534 397.2 131.386C396.166 131.168 395.223 131.337 394.37 131.893C393.533 132.452 393.003 133.256 392.782 134.305C392.561 135.354 392.721 136.303 393.261 137.153C393.817 138.006 394.611 138.542 395.645 138.76C396.333 138.905 396.986 138.871 397.604 138.658C398.237 138.448 398.752 138.099 399.149 137.61L401.071 139.315C400.372 140.149 399.495 140.741 398.44 141.091C397.385 141.44 396.286 141.495 395.143 141.254ZM411.041 131.705C412.388 131.989 413.385 132.649 414.033 133.685C414.681 134.721 414.847 135.991 414.53 137.494L413.009 144.703L410.473 144.168L411.939 137.217C412.124 136.34 412.031 135.618 411.661 135.049C411.29 134.48 410.698 134.11 409.884 133.938C408.991 133.75 408.212 133.88 407.545 134.328C406.881 134.76 406.429 135.548 406.188 136.691L404.861 142.984L402.324 142.449L405.791 126.011L408.328 126.546L407.02 132.746C408.041 131.702 409.382 131.355 411.041 131.705ZM426.13 135.206L428.667 135.741L426.19 147.483L423.654 146.948L423.971 145.445C422.95 146.489 421.609 146.836 419.95 146.486C418.603 146.202 417.606 145.542 416.958 144.506C416.31 143.47 416.144 142.2 416.461 140.697L417.982 133.488L420.518 134.023L419.052 140.974C418.867 141.85 418.96 142.573 419.331 143.142C419.701 143.711 420.293 144.081 421.108 144.252C422 144.441 422.778 144.319 423.441 143.886C424.108 143.438 424.562 142.643 424.803 141.5L426.13 135.206ZM437.873 137.364C439.219 137.648 440.217 138.308 440.865 139.344C441.513 140.38 441.678 141.649 441.361 143.152L439.841 150.362L437.305 149.827L438.771 142.876C438.956 141.999 438.863 141.276 438.492 140.708C438.122 140.139 437.529 139.769 436.715 139.597C435.823 139.409 435.043 139.539 434.376 139.987C433.713 140.419 433.261 141.207 433.02 142.35L431.692 148.643L429.156 148.108L431.632 136.367L434.169 136.902L433.852 138.404C434.873 137.361 436.213 137.014 437.873 137.364ZM456.956 144.258L454.044 143.644L452.855 149.28C452.753 149.766 452.788 150.141 452.961 150.406C453.137 150.656 453.434 150.841 453.85 150.962C454.285 151.07 454.826 151.176 455.475 151.28L454.995 153.558C453.004 153.383 451.645 152.925 450.919 152.183C450.195 151.425 449.995 150.28 450.319 148.745L451.508 143.109L449.347 142.654L449.862 140.211L452.023 140.667L452.558 138.131L455.252 137.914L454.559 141.202L457.471 141.816L456.956 144.258ZM462.291 155.415C460.569 155.052 459.23 154.149 458.276 152.705C457.321 151.261 457.027 149.67 457.394 147.932C457.76 146.194 458.672 144.857 460.128 143.922C461.585 142.986 463.174 142.7 464.896 143.063C466.634 143.43 467.972 144.333 468.911 145.774C469.866 147.218 470.16 148.809 469.793 150.547C469.427 152.285 468.515 153.621 467.059 154.557C465.618 155.496 464.029 155.782 462.291 155.415ZM460.427 151.343C460.983 152.196 461.778 152.732 462.811 152.95C463.844 153.168 464.787 152.999 465.641 152.443C466.494 151.887 467.032 151.077 467.257 150.012C467.481 148.947 467.316 147.989 466.76 147.135C466.204 146.282 465.409 145.747 464.376 145.529C463.343 145.311 462.4 145.48 461.547 146.036C460.693 146.592 460.155 147.402 459.93 148.467C459.706 149.531 459.871 150.49 460.427 151.343ZM470.848 156.901L474.464 139.758L477 140.293L473.384 157.436L470.848 156.901ZM481.807 159.531C480.085 159.168 478.746 158.265 477.792 156.821C476.837 155.377 476.543 153.786 476.91 152.048C477.276 150.31 478.188 148.973 479.644 148.038C481.101 147.102 482.69 146.816 484.412 147.179C486.15 147.546 487.488 148.449 488.427 149.89C489.382 151.334 489.676 152.925 489.309 154.663C488.943 156.401 488.031 157.737 486.575 158.673C485.134 159.612 483.545 159.898 481.807 159.531ZM479.943 155.459C480.499 156.312 481.294 156.848 482.327 157.066C483.36 157.284 484.303 157.115 485.156 156.559C486.01 156.003 486.548 155.193 486.773 154.128C486.997 153.063 486.832 152.105 486.276 151.251C485.72 150.398 484.925 149.863 483.892 149.645C482.859 149.427 481.916 149.596 481.062 150.152C480.209 150.708 479.671 151.518 479.446 152.583C479.222 153.647 479.387 154.606 479.943 155.459ZM500.343 150.858L503.114 151.442L496.058 162.218L493.123 161.599L491.02 148.892L493.791 149.476L495.197 159.093L500.343 150.858Z" fill="#009EFF"/>
</svg>
