<svg width="373" height="406" viewBox="0 0 373 406" fill="none" xmlns="http://www.w3.org/2000/svg">
<rect x="56.6875" width="457" height="109" rx="54.5" transform="rotate(46.211 56.6875 0)" fill="white"/>
<path d="M54.1885 82.352C51.8131 82.3018 49.784 81.3989 48.101 79.6432C46.4181 77.8876 45.5962 75.8163 45.6353 73.4294C45.6971 71.043 46.6058 69.0083 48.3614 67.3253C50.1171 65.6424 52.1826 64.826 54.5579 64.8762C56.9559 64.9269 58.9963 65.8301 60.6793 67.5857C62.3622 69.3414 63.1728 71.4124 63.1111 73.7988C63.0719 76.1857 62.1746 78.2206 60.4189 79.9036C58.6633 81.5866 56.5865 82.4027 54.1885 82.352ZM48.3319 73.5373C48.3091 75.1551 48.8789 76.5703 50.0415 77.7831C51.204 78.9959 52.5884 79.6193 54.1946 79.6532C55.8234 79.6876 57.2615 79.107 58.509 77.9112C59.7564 76.7154 60.3916 75.3086 60.4144 73.6909C60.4599 72.0736 59.9014 70.6586 58.7388 69.4458C57.5763 68.2331 56.1806 67.6095 54.5518 67.575C52.9456 67.5411 51.5188 68.122 50.2713 69.3178C49.0239 70.5136 48.3775 71.9201 48.3319 73.5373ZM70.4377 78.2165L64.7706 81.3218L63.2758 79.7626L68.4448 76.1375L70.4377 78.2165ZM74.4737 89.3631L76.3836 91.3556L64.2549 96.5989C61.217 97.9152 58.8036 97.5247 57.0147 95.4274L58.7646 93.7499C59.2946 94.3722 59.8756 94.724 60.5076 94.8052C61.128 94.8976 61.8493 94.7714 62.6713 94.4266L62.9276 94.3472L67.9135 82.5196L69.8732 84.564L66.0587 93.1742L74.4737 89.3631ZM80.8451 92.715C80.3927 92.7054 80.0115 92.5389 79.7014 92.2155C79.3914 91.8921 79.2357 91.4984 79.2341 91.0344C79.2553 90.5709 79.4275 90.1841 79.7509 89.8741C80.0743 89.5641 80.4623 89.4139 80.9147 89.4234C81.3787 89.4219 81.7713 89.5887 82.0923 89.9236C82.4134 90.2586 82.5634 90.6578 82.5423 91.1213C82.5327 91.5738 82.3663 91.955 82.0429 92.265C81.7194 92.575 81.3202 92.725 80.8451 92.715ZM68.8425 100.83L77.5052 92.5256L79.2989 94.3967L70.6362 102.701L68.8425 100.83ZM85.9747 100.91C86.9269 101.903 87.3787 103.011 87.3303 104.232C87.2819 105.453 86.7032 106.595 85.5944 107.658L80.2755 112.756L78.4818 110.885L83.6101 105.969C84.2569 105.349 84.5875 104.7 84.6019 104.021C84.6162 103.343 84.3355 102.703 83.7598 102.102C83.1287 101.444 82.4114 101.112 81.6081 101.106C80.8163 101.09 79.9989 101.485 79.1557 102.294L74.5125 106.745L72.7188 104.873L81.3815 96.5693L83.1752 98.4404L82.0664 99.5034C83.4983 99.2168 84.801 99.6856 85.9747 100.91ZM100.652 116.672L102.611 118.716L90.7102 123.642L88.6342 121.476L94.0583 109.794L96.0181 111.838L91.7595 120.575L100.652 116.672ZM110 126.424L111.793 128.295L103.131 136.599L101.337 134.728L102.584 133.532C100.927 133.768 99.4676 133.228 98.2054 131.912C97.065 130.722 96.5295 129.285 96.5991 127.6C96.6802 125.904 97.356 124.448 98.6266 123.23C99.9086 122.001 101.393 121.387 103.079 121.389C104.765 121.39 106.178 121.986 107.319 123.176C108.581 124.492 109.064 125.968 108.77 127.603L110 126.424ZM99.1752 127.79C99.1537 128.808 99.5193 129.71 100.272 130.495C101.025 131.281 101.911 131.684 102.929 131.706C103.958 131.716 104.871 131.34 105.668 130.576C106.465 129.812 106.875 128.921 106.896 127.903C106.929 126.874 106.569 125.966 105.816 125.181C105.063 124.395 104.172 123.998 103.143 123.987C102.125 123.966 101.217 124.337 100.42 125.101C99.6233 125.865 99.2082 126.761 99.1752 127.79ZM130.054 140.408C131.151 141.551 131.683 142.87 131.651 144.363C131.631 145.867 131.055 147.162 129.923 148.247C128.802 149.321 127.484 149.842 125.969 149.81C124.475 149.779 123.181 149.191 122.085 148.048L119.71 145.57L115.552 149.556L113.642 147.564L125.77 135.938L130.054 140.408ZM123.956 146.254C124.521 146.843 125.182 147.14 125.94 147.145C126.71 147.138 127.401 146.842 128.013 146.255C128.625 145.668 128.945 144.996 128.972 144.238C129.011 143.47 128.748 142.791 128.183 142.202L125.808 139.724L121.581 143.777L123.956 146.254ZM137.977 155.609L139.771 157.481L131.108 165.785L129.315 163.914L130.562 162.718C128.905 162.954 127.445 162.414 126.183 161.097C125.043 159.908 124.507 158.471 124.577 156.786C124.658 155.09 125.334 153.633 126.604 152.416C127.886 151.187 129.37 150.573 131.056 150.575C132.742 150.576 134.156 151.172 135.296 152.362C136.558 153.678 137.042 155.154 136.747 156.789L137.977 155.609ZM127.153 156.976C127.131 157.994 127.497 158.896 128.25 159.681C129.003 160.467 129.888 160.87 130.906 160.892C131.936 160.902 132.849 160.525 133.646 159.761C134.443 158.998 134.852 158.107 134.874 157.089C134.907 156.059 134.547 155.152 133.794 154.367C133.041 153.581 132.15 153.183 131.12 153.173C130.102 153.151 129.195 153.523 128.398 154.287C127.601 155.051 127.186 155.947 127.153 156.976ZM144.693 166.223L142.634 164.074L138.476 168.06C138.118 168.403 137.936 168.733 137.929 169.05C137.934 169.356 138.074 169.676 138.35 170.01C138.648 170.344 139.036 170.737 139.513 171.188L137.833 172.799C136.286 171.533 135.422 170.389 135.24 169.367C135.07 168.333 135.55 167.274 136.682 166.189L140.84 162.203L139.312 160.609L141.114 158.882L142.642 160.476L144.513 158.682L146.861 160.022L144.436 162.347L146.495 164.495L144.693 166.223ZM153.924 168.465C152.745 166.98 151.52 166.846 150.249 168.064L150.076 168.23L152.036 170.275L150.234 172.002L148.274 169.958L141.413 176.535L139.619 174.663L146.48 168.087L145.218 166.77L147.02 165.043L148.282 166.359L148.455 166.193C149.645 165.053 150.862 164.518 152.105 164.59C153.371 164.662 154.578 165.378 155.726 166.737L153.924 168.465ZM147.727 183.572C146.51 182.302 145.913 180.801 145.938 179.07C145.964 177.34 146.617 175.86 147.899 174.631C149.182 173.402 150.688 172.811 152.418 172.859C154.149 172.907 155.623 173.566 156.841 174.837C158.07 176.119 158.666 177.619 158.63 179.339C158.604 181.07 157.951 182.549 156.669 183.778C155.386 185.007 153.88 185.598 152.15 185.55C150.431 185.514 148.956 184.855 147.727 183.572ZM148.483 179.158C148.461 180.176 148.816 181.066 149.547 181.829C150.277 182.591 151.152 182.983 152.17 183.004C153.188 183.026 154.089 182.66 154.875 181.907C155.66 181.154 156.064 180.269 156.085 179.251C156.107 178.233 155.752 177.343 155.021 176.58C154.291 175.818 153.416 175.426 152.398 175.405C151.38 175.383 150.479 175.749 149.693 176.502C148.908 177.255 148.504 178.14 148.483 179.158ZM162.96 184.585C164.488 184.028 165.878 184.403 167.129 185.708L165.102 187.651C164.462 186.891 163.691 186.433 162.789 186.278C161.898 186.112 161.008 186.456 160.119 187.308L155.753 191.494L153.959 189.622L162.622 181.318L164.415 183.19L162.96 184.585ZM177.592 196.484C178.533 197.466 178.974 198.561 178.914 199.771C178.855 200.981 178.288 202.1 177.214 203.13L171.843 208.278L170.049 206.407L175.299 201.375C175.899 200.799 176.217 200.206 176.253 199.596C176.3 198.974 176.074 198.404 175.576 197.884C175.022 197.307 174.389 197.027 173.676 197.046C172.973 197.077 172.241 197.457 171.479 198.188L166.628 202.838L164.834 200.967L170.084 195.935C170.684 195.359 171.008 194.772 171.054 194.173C171.124 193.575 170.909 193.016 170.411 192.496C169.868 191.93 169.229 191.656 168.493 191.675C167.769 191.682 167.031 192.045 166.28 192.765L161.429 197.415L159.636 195.544L168.298 187.24L170.092 189.111L169.053 190.108C170.427 189.854 171.64 190.276 172.692 191.373C173.755 192.482 174.085 193.739 173.682 195.145C175.148 194.848 176.451 195.294 177.592 196.484ZM189.002 208.838L190.796 210.709L182.133 219.013L180.339 217.142L181.587 215.946C179.929 216.183 178.47 215.643 177.207 214.326C176.067 213.136 175.532 211.699 175.601 210.014C175.682 208.319 176.358 206.862 177.629 205.644C178.911 204.415 180.395 203.801 182.081 203.803C183.767 203.805 185.18 204.4 186.321 205.59C187.583 206.907 188.067 208.382 187.772 210.017L189.002 208.838ZM178.177 210.205C178.156 211.223 178.521 212.124 179.274 212.91C180.027 213.695 180.913 214.099 181.931 214.12C182.96 214.131 183.874 213.754 184.671 212.99C185.467 212.226 185.877 211.335 185.898 210.317C185.931 209.288 185.571 208.381 184.818 207.595C184.066 206.81 183.174 206.412 182.145 206.401C181.127 206.38 180.219 206.751 179.422 207.515C178.625 208.279 178.21 209.175 178.177 210.205ZM184.223 221.194L196.871 209.07L198.665 210.941L186.017 223.065L184.223 221.194ZM203.339 223.794L205.133 225.666L196.47 233.97L194.677 232.099L195.924 230.903C194.267 231.139 192.807 230.599 191.545 229.283C190.405 228.093 189.869 226.656 189.939 224.971C190.02 223.275 190.696 221.818 191.966 220.601C193.248 219.372 194.732 218.758 196.418 218.76C198.104 218.761 199.518 219.357 200.658 220.547C201.92 221.863 202.404 223.339 202.109 224.974L203.339 223.794ZM192.515 225.161C192.493 226.179 192.859 227.081 193.612 227.866C194.365 228.652 195.25 229.055 196.268 229.077C197.298 229.087 198.211 228.71 199.008 227.947C199.805 227.183 200.214 226.292 200.236 225.274C200.269 224.244 199.909 223.337 199.156 222.552C198.403 221.766 197.512 221.368 196.482 221.358C195.464 221.336 194.557 221.708 193.76 222.472C192.963 223.236 192.548 224.132 192.515 225.161ZM207.562 231.113C209.09 230.557 210.48 230.931 211.731 232.236L209.704 234.18C209.064 233.419 208.292 232.962 207.39 232.807C206.5 232.641 205.61 232.984 204.721 233.837L200.355 238.022L198.561 236.151L207.224 227.847L209.017 229.718L207.562 231.113ZM222.649 243.938L224.443 245.81L215.78 254.114L213.987 252.242L215.095 251.18C213.663 251.466 212.361 250.997 211.187 249.773C210.235 248.78 209.783 247.672 209.831 246.451C209.88 245.23 210.459 244.088 211.567 243.025L216.886 237.926L218.68 239.798L213.552 244.714C212.905 245.334 212.574 245.983 212.56 246.662C212.546 247.34 212.826 247.98 213.402 248.581C214.033 249.239 214.745 249.577 215.536 249.593C216.34 249.599 217.163 249.198 218.006 248.389L222.649 243.938ZM221.572 260.606C220.321 259.301 219.713 257.789 219.75 256.07C219.797 254.362 220.462 252.893 221.744 251.664C223.038 250.424 224.533 249.822 226.229 249.858C227.949 249.895 229.434 250.565 230.685 251.87C231.493 252.714 232.028 253.675 232.288 254.756C232.548 255.837 232.503 256.877 232.154 257.876L229.674 257.162C229.901 256.567 229.937 255.957 229.78 255.331C229.646 254.706 229.33 254.133 228.832 253.614C228.101 252.851 227.227 252.459 226.209 252.438C225.202 252.428 224.312 252.794 223.538 253.536C222.764 254.277 222.361 255.152 222.328 256.158C222.306 257.176 222.661 258.066 223.392 258.829C223.879 259.337 224.438 259.677 225.068 259.848C225.709 260.032 226.331 260.034 226.935 259.854L227.561 262.345C226.514 262.64 225.456 262.635 224.387 262.329C223.319 262.024 222.38 261.449 221.572 260.606ZM240.086 261.678C241.039 262.671 241.49 263.778 241.442 264.999C241.394 266.221 240.815 267.363 239.706 268.425L234.387 273.524L232.593 271.653L237.722 266.737C238.369 266.117 238.699 265.468 238.714 264.789C238.728 264.11 238.447 263.471 237.871 262.87C237.24 262.212 236.523 261.88 235.72 261.874C234.928 261.857 234.111 262.253 233.267 263.061L228.624 267.512L226.83 265.641L238.958 254.015L240.752 255.887L236.178 260.271C237.61 259.985 238.913 260.453 240.086 261.678ZM250.578 273.074L252.372 274.945L243.709 283.249L241.915 281.378L243.024 280.315C241.592 280.601 240.29 280.132 239.116 278.908C238.164 277.915 237.712 276.808 237.76 275.586C237.809 274.365 238.387 273.223 239.496 272.16L244.815 267.062L246.609 268.933L241.48 273.849C240.834 274.469 240.503 275.118 240.489 275.797C240.474 276.475 240.755 277.115 241.331 277.716C241.962 278.374 242.673 278.712 243.465 278.728C244.269 278.734 245.092 278.333 245.935 277.525L250.578 273.074ZM259.062 281.473C260.015 282.467 260.466 283.574 260.418 284.795C260.37 286.016 259.791 287.158 258.682 288.221L253.363 293.32L251.57 291.449L256.698 286.533C257.345 285.913 257.675 285.263 257.69 284.585C257.704 283.906 257.423 283.266 256.848 282.666C256.216 282.007 255.499 281.675 254.696 281.67C253.904 281.653 253.087 282.049 252.243 282.857L247.6 287.308L245.807 285.437L254.469 277.133L256.263 279.004L255.154 280.067C256.586 279.78 257.889 280.249 259.062 281.473ZM270.941 297.923L268.882 295.775L264.724 299.761C264.366 300.104 264.183 300.434 264.176 300.75C264.181 301.056 264.322 301.376 264.598 301.71C264.896 302.044 265.284 302.437 265.761 302.889L264.08 304.5C262.534 303.234 261.67 302.089 261.488 301.067C261.317 300.034 261.798 298.974 262.93 297.889L267.088 293.903L265.56 292.309L267.362 290.582L268.89 292.176L270.761 290.382L273.109 291.722L270.684 294.047L272.743 296.196L270.941 297.923ZM269.061 310.146C267.843 308.876 267.247 307.375 267.272 305.644C267.297 303.913 267.951 302.433 269.233 301.204C270.515 299.975 272.021 299.385 273.751 299.433C275.482 299.481 276.956 300.14 278.174 301.41C279.403 302.692 279.999 304.193 279.963 305.912C279.938 307.643 279.284 309.123 278.002 310.352C276.72 311.581 275.214 312.172 273.483 312.124C271.764 312.088 270.29 311.428 269.061 310.146ZM269.816 305.732C269.795 306.75 270.149 307.64 270.88 308.402C271.611 309.165 272.485 309.557 273.503 309.578C274.521 309.6 275.423 309.234 276.208 308.481C276.994 307.728 277.397 306.843 277.419 305.825C277.44 304.807 277.086 303.917 276.355 303.154C275.624 302.392 274.75 302 273.732 301.978C272.714 301.957 271.812 302.323 271.026 303.076C270.241 303.828 269.838 304.714 269.816 305.732ZM288.744 305.951L283.077 309.056L281.582 307.497L286.751 303.872L288.744 305.951ZM278.52 319.563L291.168 307.439L292.961 309.31L280.314 321.434L278.52 319.563ZM286.091 327.912C284.873 326.641 284.276 325.14 284.302 323.409C284.327 321.679 284.981 320.199 286.263 318.97C287.545 317.741 289.051 317.15 290.781 317.198C292.512 317.246 293.986 317.905 295.204 319.176C296.433 320.458 297.029 321.958 296.993 323.678C296.967 325.409 296.314 326.889 295.032 328.118C293.75 329.347 292.243 329.937 290.513 329.889C288.794 329.853 287.32 329.194 286.091 327.912ZM286.846 323.497C286.824 324.515 287.179 325.405 287.91 326.168C288.641 326.93 289.515 327.322 290.533 327.343C291.551 327.365 292.453 326.999 293.238 326.246C294.023 325.493 294.427 324.608 294.448 323.59C294.47 322.572 294.115 321.682 293.385 320.92C292.654 320.157 291.779 319.765 290.761 319.744C289.743 319.722 288.842 320.088 288.056 320.841C287.271 321.594 286.867 322.479 286.846 323.497ZM306.291 331.192L308.25 333.237L296.349 338.162L294.273 335.997L299.697 324.314L301.657 326.359L297.399 335.095L306.291 331.192Z" fill="#009EFF"/>
</svg>
