<svg width="298" height="371" viewBox="0 0 298 371" fill="none" xmlns="http://www.w3.org/2000/svg">
<rect y="310.539" width="373" height="109" rx="54.5" transform="rotate(-56.3609 0 310.539)" fill="#009EFF"/>
<path d="M80.9213 295.053C81.3893 297.382 80.9497 299.559 79.6025 301.584C78.2552 303.609 76.4125 304.862 74.0743 305.343C71.7317 305.802 69.548 305.358 67.5232 304.011C65.4985 302.664 64.2521 300.825 63.7841 298.496C63.3116 296.145 63.749 293.956 65.0962 291.932C66.4435 289.907 68.2884 288.665 70.631 288.206C72.9692 287.725 75.1507 288.157 77.1754 289.505C79.2002 290.852 80.4488 292.701 80.9213 295.053ZM73.5927 302.688C75.1766 302.358 76.4339 301.494 77.3646 300.095C78.2952 298.696 78.6023 297.209 78.2859 295.634C77.9649 294.037 77.0851 292.76 75.6465 291.803C74.2079 290.845 72.6966 290.532 71.1127 290.861C69.5243 291.169 68.2648 292.022 67.3341 293.421C66.4034 294.819 66.0986 296.317 66.4195 297.915C66.736 299.49 67.6135 300.756 69.0522 301.713C70.4908 302.67 72.0043 302.995 73.5927 302.688ZM78.7167 280.126C79.4789 278.981 80.4613 278.299 81.6637 278.08C82.866 277.862 84.1066 278.178 85.3854 279.029L91.5196 283.11L90.0837 285.268L84.1694 281.333C83.4234 280.837 82.7177 280.655 82.0521 280.789C81.3866 280.923 80.8234 281.336 80.3625 282.029C79.8573 282.788 79.6894 283.56 79.8587 284.346C80.0147 285.122 80.5789 285.834 81.5513 286.481L86.9062 290.044L85.4704 292.202L75.4798 285.554L76.9157 283.396L78.1945 284.247C77.6031 282.912 77.7772 281.538 78.7167 280.126ZM93.0657 280.787L78.4795 271.082L79.9154 268.924L94.5015 278.629L93.0657 280.787ZM85.6361 266.175C85.7252 266.618 85.6457 267.027 85.3975 267.4C85.1494 267.773 84.799 268.01 84.3465 268.113C83.8895 268.193 83.4745 268.109 83.1015 267.861C82.7285 267.613 82.4974 267.267 82.4083 266.823C82.3058 266.371 82.3831 265.951 82.6402 265.565C82.8972 265.179 83.2542 264.945 83.7112 264.865C84.1549 264.776 84.5632 264.856 84.9362 265.104C85.3092 265.352 85.5425 265.709 85.6361 266.175ZM96.1687 276.123L86.1782 269.476L87.6141 267.318L97.6046 273.965L96.1687 276.123ZM92.5181 259.384C93.2803 258.239 94.2626 257.557 95.465 257.338C96.6674 257.12 97.908 257.436 99.1868 258.287L105.321 262.368L103.885 264.526L97.9707 260.591C97.2248 260.095 96.519 259.913 95.8535 260.047C95.188 260.181 94.6248 260.594 94.1639 261.287C93.6587 262.046 93.4907 262.818 93.6601 263.604C93.8161 264.38 94.3803 265.092 95.3527 265.739L100.708 269.302L99.2718 271.46L89.2812 264.812L90.7171 262.654L91.9959 263.505C91.4045 262.17 91.5786 260.796 92.5181 259.384ZM103.921 255.634C104.787 255.98 105.616 256.003 106.411 255.705C107.191 255.398 107.856 254.832 108.406 254.006C109.168 252.861 109.327 251.727 108.882 250.604L111.104 249.517C111.901 251.469 111.656 253.411 110.371 255.342C109.289 256.967 107.924 257.952 106.273 258.295C104.609 258.629 103.018 258.291 101.5 257.281C100.008 256.288 99.0901 254.966 98.7469 253.316C98.3904 251.656 98.7263 250.054 99.7544 248.509C100.729 247.044 102.04 246.186 103.686 245.936C105.341 245.673 106.901 246.029 108.366 247.004C108.593 247.154 108.875 247.38 109.212 247.682L103.921 255.634ZM102.149 254.484L106.058 248.61C105.148 248.216 104.309 248.148 103.542 248.406C102.783 248.65 102.169 249.126 101.699 249.832C101.167 250.631 100.944 251.443 101.029 252.269C101.114 253.094 101.488 253.833 102.149 254.484ZM107.691 228.479C108.968 226.561 110.7 225.416 112.887 225.046C115.083 224.663 117.167 225.127 119.139 226.438C121.097 227.741 122.33 229.484 122.838 231.667C123.341 233.828 122.954 235.867 121.678 237.785L118.022 243.28L104.035 233.974L107.691 228.479ZM119.48 236.323C120.358 235.004 120.618 233.63 120.262 232.202C119.915 230.76 119.048 229.578 117.663 228.656C116.264 227.726 114.839 227.383 113.389 227.628C111.933 227.852 110.767 228.623 109.889 229.941L107.762 233.138L117.353 239.52L119.48 236.323ZM130.83 224.594C129.855 226.059 128.52 226.968 126.825 227.32C125.131 227.672 123.544 227.356 122.065 226.372C120.587 225.389 119.682 224.047 119.353 222.348C119.023 220.648 119.345 219.066 120.32 217.601C121.304 216.122 122.639 215.214 124.325 214.875C126.02 214.523 127.606 214.839 129.085 215.822C130.564 216.806 131.468 218.148 131.798 219.847C132.137 221.533 131.814 223.115 130.83 224.594ZM126.357 224.818C127.356 224.617 128.147 224.077 128.732 223.198C129.317 222.319 129.509 221.38 129.309 220.382C129.108 219.384 128.555 218.583 127.649 217.98C126.743 217.378 125.791 217.177 124.793 217.377C123.795 217.578 123.003 218.118 122.418 218.997C121.833 219.876 121.641 220.815 121.842 221.813C122.042 222.811 122.595 223.612 123.501 224.214C124.407 224.817 125.359 225.018 126.357 224.818ZM141.255 208.363L139.54 210.941L132.199 211.966L136.815 215.037L135.379 217.195L121.392 207.888L122.828 205.73L131.24 211.328L129.403 204.513L131.158 201.876L133.129 209.529L141.255 208.363ZM145.086 203.169C144.111 204.634 142.776 205.543 141.081 205.895C139.386 206.247 137.8 205.931 136.321 204.947C134.842 203.964 133.938 202.622 133.608 200.923C133.278 199.223 133.601 197.641 134.576 196.176C135.56 194.697 136.895 193.789 138.581 193.45C140.276 193.098 141.862 193.414 143.341 194.397C144.819 195.381 145.724 196.723 146.054 198.422C146.392 200.108 146.07 201.69 145.086 203.169ZM140.613 203.393C141.611 203.192 142.403 202.652 142.988 201.773C143.573 200.894 143.765 199.955 143.565 198.957C143.364 197.959 142.811 197.158 141.905 196.555C140.999 195.953 140.047 195.752 139.049 195.952C138.051 196.153 137.259 196.693 136.674 197.572C136.089 198.451 135.897 199.39 136.097 200.388C136.298 201.386 136.851 202.187 137.757 202.789C138.663 203.392 139.615 203.593 140.613 203.393ZM142.881 183.695C143.643 182.549 144.625 181.867 145.828 181.648C147.03 181.43 148.271 181.746 149.55 182.597L155.684 186.679L154.248 188.836L148.333 184.901C147.587 184.405 146.882 184.223 146.216 184.357C145.551 184.491 144.988 184.904 144.527 185.597C144.021 186.356 143.853 187.128 144.023 187.914C144.179 188.69 144.743 189.402 145.715 190.049L151.07 193.612L149.634 195.77L139.644 189.122L141.08 186.964L142.359 187.815C141.767 186.48 141.941 185.107 142.881 183.695ZM155.043 165.979L156.479 163.821L166.47 170.468L165.034 172.626L163.755 171.775C164.347 173.11 164.172 174.484 163.233 175.896C162.471 177.042 161.488 177.724 160.286 177.942C159.084 178.161 157.843 177.844 156.564 176.994L150.43 172.912L151.866 170.754L157.78 174.689C158.526 175.186 159.232 175.367 159.898 175.233C160.563 175.1 161.126 174.686 161.587 173.994C162.092 173.234 162.267 172.467 162.111 171.69C161.942 170.905 161.371 170.189 160.398 169.542L155.043 165.979ZM171.546 163.402C170.545 164.907 169.201 165.829 167.515 166.168C165.838 166.493 164.26 166.164 162.781 165.18C161.289 164.188 160.376 162.859 160.042 161.196C159.703 159.51 160.035 157.914 161.036 156.409C161.683 155.436 162.506 154.706 163.504 154.217C164.502 153.728 165.527 153.545 166.579 153.668L166.421 156.244C165.791 156.152 165.187 156.25 164.611 156.539C164.03 156.806 163.54 157.239 163.141 157.838C162.556 158.717 162.364 159.656 162.564 160.654C162.774 161.639 163.325 162.429 164.217 163.022C165.11 163.616 166.051 163.82 167.04 163.632C168.038 163.432 168.83 162.892 169.415 162.013C169.805 161.427 170.015 160.807 170.046 160.155C170.085 159.489 169.951 158.882 169.645 158.332L171.94 157.178C172.456 158.136 172.681 159.17 172.615 160.279C172.55 161.389 172.193 162.43 171.546 163.402ZM168.562 145.098C169.324 143.953 170.307 143.271 171.509 143.052C172.711 142.834 173.952 143.15 175.231 144.001L181.365 148.082L179.929 150.24L174.015 146.305C173.269 145.809 172.563 145.627 171.897 145.761C171.232 145.895 170.669 146.308 170.208 147.001C169.703 147.76 169.535 148.532 169.704 149.317C169.86 150.094 170.424 150.806 171.397 151.453L176.752 155.016L175.316 157.174L161.329 147.867L162.765 145.709L168.04 149.219C167.448 147.884 167.622 146.51 168.562 145.098ZM177.401 132.378L178.837 130.22L188.827 136.867L187.391 139.025L186.113 138.174C186.704 139.509 186.53 140.883 185.59 142.295C184.828 143.441 183.846 144.123 182.643 144.341C181.441 144.56 180.2 144.243 178.922 143.393L172.788 139.311L174.223 137.153L180.138 141.088C180.884 141.585 181.589 141.766 182.255 141.632C182.921 141.499 183.484 141.085 183.945 140.393C184.45 139.633 184.624 138.866 184.468 138.089C184.299 137.304 183.728 136.588 182.756 135.941L177.401 132.378ZM183.753 122.268C184.515 121.123 185.497 120.441 186.7 120.222C187.902 120.004 189.143 120.32 190.421 121.171L196.556 125.252L195.12 127.41L189.205 123.475C188.459 122.979 187.754 122.797 187.088 122.931C186.423 123.065 185.859 123.478 185.398 124.171C184.893 124.93 184.725 125.702 184.895 126.488C185.051 127.264 185.615 127.976 186.587 128.623L191.942 132.186L190.506 134.344L180.516 127.696L181.952 125.538L183.23 126.389C182.639 125.054 182.813 123.68 183.753 122.268ZM197.222 107.094L195.574 109.572L200.369 112.762C200.782 113.037 201.144 113.143 201.454 113.081C201.752 113.01 202.033 112.803 202.299 112.461C202.561 112.097 202.86 111.633 203.197 111.069L205.135 112.359C204.235 114.144 203.307 115.236 202.349 115.636C201.377 116.028 200.239 115.789 198.933 114.92L194.138 111.73L192.915 113.568L190.837 112.185L192.06 110.347L189.902 108.911L190.698 106.328L193.496 108.189L195.144 105.711L197.222 107.094ZM209.562 106.269C208.587 107.734 207.252 108.643 205.557 108.995C203.862 109.347 202.275 109.031 200.797 108.047C199.318 107.063 198.414 105.722 198.084 104.022C197.754 102.323 198.077 100.741 199.052 99.2755C200.035 97.7969 201.37 96.8883 203.056 96.5495C204.751 96.1974 206.338 96.5133 207.817 97.4971C209.295 98.481 210.199 99.8225 210.529 101.522C210.868 103.208 210.546 104.79 209.562 106.269ZM205.089 106.492C206.087 106.292 206.879 105.752 207.464 104.873C208.049 103.994 208.241 103.055 208.04 102.057C207.84 101.058 207.287 100.258 206.381 99.6551C205.475 99.0524 204.523 98.8513 203.525 99.0519C202.526 99.2525 201.735 99.7923 201.15 100.672C200.565 101.551 200.372 102.489 200.573 103.488C200.774 104.486 201.327 105.286 202.233 105.889C203.138 106.492 204.091 106.693 205.089 106.492ZM201.183 87.9709L205.447 92.8262L204.251 94.6245L199.587 90.3686L201.183 87.9709ZM216.694 94.9866L202.108 85.2812L203.544 83.1233L218.13 92.8286L216.694 94.9866ZM223.194 85.7803C222.219 87.2456 220.884 88.1543 219.19 88.5064C217.495 88.8585 215.908 88.5426 214.429 87.5587C212.951 86.5749 212.047 85.2333 211.717 83.534C211.387 81.8347 211.709 80.2524 212.684 78.7872C213.668 77.3086 215.003 76.3999 216.689 76.0611C218.384 75.709 219.971 76.0249 221.449 77.0088C222.928 77.9926 223.832 79.3342 224.162 81.0335C224.501 82.7195 224.178 84.3017 223.194 85.7803ZM218.721 86.004C219.72 85.8034 220.511 85.2635 221.096 84.3844C221.681 83.5052 221.873 82.5665 221.673 81.5682C221.472 80.5699 220.919 79.7694 220.013 79.1667C219.107 78.564 218.155 78.3629 217.157 78.5635C216.159 78.7641 215.367 79.304 214.782 80.1831C214.197 81.0623 214.005 82.001 214.206 82.9993C214.406 83.9976 214.959 84.7981 215.865 85.4008C216.771 86.0035 217.723 86.2046 218.721 86.004ZM222 65.3504L223.568 62.9926L230.966 73.5365L229.305 76.0341L216.721 73.2829L218.29 70.9251L227.744 73.1799L222 65.3504Z" fill="white"/>
</svg>
