<svg width="448" height="427" viewBox="0 0 448 427" fill="none" xmlns="http://www.w3.org/2000/svg">
<rect x="65.4727" width="522" height="96" rx="48" transform="rotate(43 65.4727 0)" fill="#2424FF"/>
<path d="M59.6615 71.3812C58.5147 70.3119 57.7125 69.0606 57.2549 67.6276C56.7974 66.1945 56.7297 64.7422 57.0518 63.2706C57.3849 61.7873 58.1135 60.443 59.2374 59.2377C60.3504 58.0441 61.6297 57.2353 63.0753 56.8113C64.5317 56.3755 65.9907 56.3359 67.4522 56.6924C68.9137 57.0489 70.2178 57.7618 71.3646 58.8312C72.523 59.9115 73.3252 61.1627 73.7711 62.5849C74.2287 64.0179 74.2851 65.4706 73.9402 66.943C73.6181 68.4147 72.9005 69.7472 71.7874 70.9408C70.6635 72.1461 69.3733 72.9666 67.9168 73.4024C66.483 73.8373 65.0353 73.8766 63.5738 73.5201C62.1123 73.1636 60.8082 72.4506 59.6615 71.3812ZM61.7075 69.1872C62.4447 69.8746 63.2469 70.3164 64.1141 70.5126C64.9922 70.697 65.8784 70.6264 66.7727 70.3008C67.667 69.9753 68.496 69.4029 69.2599 68.5838C70.0237 67.7647 70.5314 66.9036 70.7828 66.0005C71.0452 65.0857 71.0484 64.2026 70.7922 63.3511C70.5361 62.4997 70.0394 61.7303 69.3022 61.0428C68.565 60.3554 67.7569 59.9081 66.878 59.7011C66.0108 59.505 65.13 59.5697 64.2358 59.8952C63.3524 60.2091 62.5288 60.7756 61.765 61.5947C61.0011 62.4138 60.488 63.2808 60.2256 64.1956C59.9632 65.1104 59.9546 65.9994 60.1999 66.8625C60.4677 67.7248 60.9702 68.4997 61.7075 69.1872ZM79.7868 67.0132L82.367 69.4193L76.3466 72.0748L74.6616 70.5035L79.7868 67.0132ZM91.0749 82.2651L71.6982 90.9737L69.0829 88.5349L75.7067 85.6545L80.6488 72.5425L83.4045 75.1123L79.5801 84.2457L88.4596 79.8263L91.0749 82.2651ZM94.7261 83.504C94.2932 83.1003 94.0559 82.6274 94.0143 82.0855C93.9954 81.5428 94.1769 81.0666 94.5588 80.6571C94.9407 80.2475 95.3976 80.0391 95.9294 80.0318C96.4838 80.0238 96.9775 80.2217 97.4105 80.6254C97.8434 81.0291 98.0694 81.5024 98.0883 82.0451C98.1299 82.587 97.9597 83.0628 97.5778 83.4724C97.1959 83.8819 96.7277 84.0907 96.1733 84.0988C95.6415 84.106 95.1591 83.9078 94.7261 83.504ZM94.857 85.7919L85.7891 95.5159L83.3318 93.2244L92.3996 83.5004L94.857 85.7919ZM102.804 92.9404C103.963 94.0207 104.555 95.2623 104.582 96.6651C104.619 98.0562 104.026 99.4071 102.804 100.718L97.4847 106.422L95.0273 104.131L100.036 98.7597C100.756 97.9874 101.114 97.2164 101.11 96.4467C101.117 95.6654 100.786 94.9637 100.119 94.3417C99.4407 93.7088 98.706 93.4175 97.9153 93.4678C97.1472 93.5172 96.4031 93.9281 95.6829 94.7004L90.6743 100.071L88.217 97.78L97.2848 88.0559L99.7422 90.3474L98.6128 91.5585C99.3333 91.4428 100.054 91.5025 100.776 91.7377C101.52 91.9721 102.196 92.373 102.804 92.9404ZM114.391 97.904L102.279 110.893L99.8215 108.601L111.934 95.6125L114.391 97.904ZM108.641 107.671C109.558 106.688 110.564 105.996 111.66 105.595C112.767 105.206 113.845 105.117 114.894 105.33C115.954 105.553 116.9 106.052 117.731 106.827C118.456 107.503 118.952 108.239 119.217 109.033C119.494 109.839 119.589 110.616 119.502 111.367L120.796 109.98L123.27 112.288L114.203 122.012L111.728 119.704L113.054 118.282C112.312 118.444 111.519 118.415 110.673 118.196C109.85 117.975 109.076 117.527 108.351 116.85C107.532 116.087 106.979 115.178 106.693 114.123C106.419 113.08 106.438 111.993 106.749 110.861C107.083 109.729 107.714 108.665 108.641 107.671ZM116.262 114.842C116.818 114.245 117.176 113.627 117.335 112.988C117.504 112.336 117.494 111.714 117.303 111.121C117.124 110.516 116.806 110 116.349 109.575C115.893 109.149 115.368 108.868 114.775 108.73C114.181 108.592 113.56 108.625 112.91 108.829C112.283 109.032 111.697 109.426 111.151 110.011C110.606 110.596 110.243 111.22 110.062 111.883C109.904 112.545 109.909 113.173 110.077 113.767C110.257 114.373 110.569 114.882 111.013 115.297C111.47 115.723 112.001 116.01 112.606 116.158C113.222 116.295 113.843 116.262 114.47 116.059C115.108 115.845 115.705 115.439 116.262 114.842ZM126.72 118.327C127.516 118.107 128.302 118.085 129.078 118.262C129.866 118.449 130.587 118.849 131.243 119.46L128.837 122.04L128.187 121.434C127.415 120.714 126.661 120.35 125.925 120.342C125.2 120.344 124.418 120.796 123.578 121.697L119.06 126.542L116.603 124.25L125.67 114.526L128.128 116.817L126.72 118.327ZM134.048 136.284L143.461 131.116L146.077 133.555L133.411 139.924L130.427 137.141L135.914 124.078L138.547 126.533L134.048 136.284ZM142.324 139.08C143.24 138.097 144.246 137.405 145.342 137.005C146.449 136.615 147.527 136.526 148.576 136.739C149.637 136.962 150.582 137.461 151.413 138.236C152.139 138.912 152.634 139.648 152.9 140.442C153.177 141.248 153.272 142.026 153.185 142.776L154.478 141.389L156.953 143.697L147.885 153.421L145.41 151.113L146.736 149.692C145.994 149.853 145.201 149.824 144.355 149.605C143.533 149.385 142.759 148.936 142.033 148.26C141.214 147.496 140.661 146.587 140.376 145.533C140.101 144.489 140.12 143.402 140.431 142.27C140.765 141.138 141.396 140.074 142.324 139.08ZM149.944 146.251C150.5 145.654 150.858 145.036 151.017 144.397C151.187 143.746 151.176 143.123 150.986 142.53C150.806 141.925 150.488 141.41 150.032 140.984C149.575 140.559 149.05 140.277 148.457 140.139C147.863 140.001 147.242 140.034 146.592 140.238C145.966 140.441 145.379 140.835 144.834 141.42C144.288 142.005 143.925 142.629 143.744 143.292C143.586 143.954 143.591 144.583 143.759 145.177C143.939 145.782 144.251 146.292 144.696 146.706C145.152 147.132 145.683 147.419 146.288 147.568C146.904 147.705 147.526 147.672 148.152 147.469C148.79 147.254 149.387 146.848 149.944 146.251ZM161.383 166.008L162.015 156.392L156.925 161.851L154.467 159.559L165.892 147.308L168.35 149.599L163.226 155.093L172.808 153.757L175.774 156.523L165.056 157.882L164.49 168.906L161.383 166.008ZM170.277 174.597C169.341 173.724 168.689 172.734 168.322 171.626C167.966 170.506 167.926 169.364 168.202 168.2C168.49 167.047 169.098 165.973 170.026 164.978C170.953 163.983 171.988 163.307 173.13 162.951C174.284 162.605 175.433 162.582 176.575 162.881C177.729 163.169 178.773 163.75 179.709 164.623C180.646 165.496 181.298 166.497 181.665 167.628C182.044 168.747 182.095 169.888 181.819 171.053C181.554 172.228 180.958 173.313 180.031 174.308C179.103 175.302 178.057 175.967 176.891 176.302C175.737 176.648 174.577 176.672 173.412 176.373C172.27 176.073 171.225 175.481 170.277 174.597ZM172.274 172.456C172.718 172.871 173.232 173.153 173.814 173.302C174.42 173.451 175.041 173.418 175.679 173.203C176.317 172.988 176.925 172.571 177.503 171.951C178.365 171.026 178.78 170.089 178.746 169.139C178.736 168.189 178.38 167.386 177.677 166.731C176.975 166.077 176.15 165.777 175.201 165.833C174.274 165.888 173.38 166.378 172.518 167.302C171.656 168.227 171.219 169.153 171.206 170.082C171.216 171.01 171.572 171.801 172.274 172.456ZM191.887 176.011C193.045 177.091 193.638 178.333 193.664 179.736C193.701 181.127 193.109 182.478 191.887 183.788L186.567 189.493L184.11 187.201L189.118 181.83C189.838 181.058 190.196 180.287 190.192 179.517C190.199 178.736 189.869 178.034 189.202 177.412C188.523 176.779 187.788 176.488 186.998 176.538C186.23 176.588 185.485 176.999 184.765 177.771L179.757 183.142L177.299 180.851L186.367 171.126L188.824 173.418L187.695 174.629C188.416 174.513 189.137 174.573 189.858 174.808C190.602 175.043 191.278 175.444 191.887 176.011ZM201.928 185.342C202.653 186.018 203.155 186.759 203.432 187.565C203.72 188.358 203.809 189.131 203.7 189.882L204.993 188.495L207.468 190.803L198.334 200.597C197.494 201.498 196.565 202.131 195.548 202.495C194.519 202.87 193.451 202.924 192.344 202.657C191.226 202.402 190.152 201.794 189.122 200.834C187.741 199.546 186.906 198.166 186.617 196.693C186.339 195.231 186.661 193.89 187.58 192.669L190.02 194.944C189.734 195.509 189.682 196.116 189.863 196.767C190.045 197.44 190.44 198.06 191.049 198.627C191.762 199.293 192.543 199.616 193.392 199.598C194.229 199.592 195.052 199.155 195.859 198.289L197.267 196.78C196.525 196.942 195.732 196.913 194.887 196.693C194.053 196.485 193.279 196.047 192.565 195.382C191.746 194.618 191.194 193.709 190.908 192.655C190.622 191.601 190.635 190.508 190.946 189.376C191.28 188.244 191.911 187.18 192.839 186.186C193.755 185.203 194.761 184.511 195.857 184.11C196.964 183.721 198.042 183.632 199.091 183.845C200.151 184.068 201.097 184.567 201.928 185.342ZM200.459 193.357C201.015 192.76 201.373 192.142 201.532 191.503C201.701 190.851 201.691 190.229 201.5 189.636C201.321 189.031 201.003 188.516 200.547 188.09C200.09 187.664 199.565 187.383 198.972 187.245C198.378 187.107 197.757 187.14 197.107 187.344C196.48 187.547 195.894 187.941 195.349 188.526C194.803 189.111 194.44 189.735 194.259 190.398C194.101 191.06 194.106 191.688 194.274 192.283C194.454 192.888 194.766 193.397 195.211 193.812C195.667 194.238 196.198 194.525 196.803 194.673C197.419 194.81 198.04 194.777 198.667 194.574C199.305 194.36 199.902 193.954 200.459 193.357ZM212.194 193.045C211.761 192.641 211.524 192.168 211.482 191.626C211.463 191.083 211.645 190.607 212.027 190.198C212.409 189.788 212.866 189.58 213.397 189.573C213.952 189.564 214.445 189.762 214.878 190.166C215.311 190.57 215.537 191.043 215.556 191.586C215.598 192.128 215.428 192.603 215.046 193.013C214.664 193.423 214.196 193.631 213.641 193.639C213.109 193.647 212.627 193.448 212.194 193.045ZM212.325 195.333L203.257 205.057L200.8 202.765L209.868 193.041L212.325 195.333ZM220.255 196.623L208.142 209.612L205.685 207.321L217.797 194.332L220.255 196.623ZM218.923 219.961C217.987 219.088 217.336 218.097 216.969 216.99C216.612 215.87 216.573 214.728 216.849 213.564C217.137 212.41 217.745 211.336 218.672 210.341C219.6 209.347 220.635 208.671 221.777 208.314C222.931 207.968 224.079 207.945 225.222 208.245C226.375 208.533 227.42 209.113 228.356 209.986C229.292 210.859 229.944 211.861 230.312 212.992C230.69 214.11 230.742 215.252 230.465 216.416C230.201 217.592 229.605 218.677 228.677 219.671C227.75 220.666 226.703 221.331 225.537 221.666C224.383 222.012 223.224 222.035 222.059 221.736C220.916 221.437 219.871 220.845 218.923 219.961ZM220.92 217.819C221.365 218.234 221.878 218.516 222.461 218.666C223.066 218.814 223.688 218.781 224.325 218.567C224.963 218.352 225.571 217.934 226.15 217.314C227.012 216.39 227.426 215.453 227.393 214.503C227.382 213.552 227.026 212.75 226.324 212.095C225.622 211.44 224.796 211.141 223.847 211.197C222.921 211.252 222.027 211.741 221.165 212.666C220.303 213.59 219.865 214.517 219.852 215.445C219.862 216.373 220.218 217.165 220.92 217.819ZM229.848 220.763C230.786 219.756 231.809 219.07 232.917 218.703C234.036 218.324 235.149 218.268 236.257 218.535C237.375 218.791 238.402 219.355 239.338 220.228C240.544 221.352 241.255 222.583 241.471 223.923C241.71 225.262 241.457 226.601 240.711 227.94L238.061 225.468C238.313 224.916 238.379 224.365 238.258 223.814C238.16 223.263 237.865 222.758 237.373 222.3C236.671 221.645 235.875 221.384 234.985 221.517C234.107 221.639 233.231 222.167 232.358 223.103C231.496 224.028 231.029 224.939 230.959 225.835C230.899 226.72 231.22 227.49 231.923 228.145C232.917 229.073 233.981 229.233 235.115 228.628L237.765 231.099C236.514 231.902 235.201 232.242 233.827 232.12C232.453 231.998 231.169 231.381 229.976 230.268C229.04 229.395 228.4 228.415 228.056 227.329C227.724 226.231 227.702 225.117 227.991 223.986C228.29 222.844 228.909 221.769 229.848 220.763ZM251.18 231.303C251.917 231.99 252.42 232.765 252.687 233.627C252.966 234.478 252.969 235.367 252.696 236.293C252.445 237.219 251.91 238.121 251.092 238.998L245.772 244.703L243.315 242.411L248.324 237.04C249.044 236.268 249.402 235.497 249.398 234.727C249.404 233.946 249.074 233.244 248.407 232.622C247.728 231.989 246.994 231.698 246.203 231.748C245.435 231.798 244.691 232.209 243.971 232.981L238.962 238.352L236.505 236.06L248.617 223.072L251.074 225.363L246.9 229.839C247.609 229.712 248.336 229.778 249.081 230.035C249.837 230.28 250.536 230.703 251.18 231.303ZM252.044 241.395C252.961 240.413 253.967 239.721 255.062 239.32C256.169 238.931 257.247 238.842 258.296 239.055C259.357 239.278 260.302 239.777 261.133 240.552C261.859 241.228 262.354 241.964 262.62 242.758C262.897 243.564 262.992 244.341 262.905 245.092L264.198 243.705L266.673 246.013L257.605 255.737L255.13 253.429L256.456 252.007C255.714 252.169 254.921 252.14 254.076 251.921C253.253 251.7 252.479 251.252 251.753 250.575C250.934 249.811 250.382 248.902 250.096 247.848C249.822 246.805 249.84 245.718 250.152 244.586C250.486 243.454 251.116 242.39 252.044 241.395ZM259.664 248.567C260.221 247.97 260.578 247.352 260.737 246.713C260.907 246.061 260.896 245.439 260.706 244.846C260.526 244.241 260.208 243.725 259.752 243.3C259.296 242.874 258.771 242.593 258.177 242.455C257.584 242.317 256.962 242.35 256.313 242.554C255.686 242.757 255.1 243.151 254.554 243.736C254.008 244.321 253.645 244.945 253.465 245.608C253.307 246.27 253.312 246.898 253.48 247.492C253.659 248.097 253.971 248.607 254.416 249.022C254.872 249.448 255.403 249.735 256.008 249.883C256.624 250.02 257.246 249.987 257.873 249.784C258.51 249.57 259.108 249.164 259.664 248.567ZM270.123 252.052C270.919 251.832 271.705 251.81 272.481 251.987C273.268 252.174 273.99 252.574 274.645 253.185L272.239 255.765L271.59 255.159C270.817 254.439 270.063 254.075 269.327 254.067C268.603 254.069 267.82 254.521 266.98 255.422L262.462 260.267L260.005 257.975L269.073 248.251L271.53 250.542L270.123 252.052ZM288.108 268.364C287.496 269.019 286.766 269.486 285.915 269.765C285.076 270.054 284.159 270.064 283.165 269.793C282.182 269.533 281.188 268.934 280.182 267.995L278.128 266.08L273.741 270.784L271.284 268.493L282.709 256.241L287.22 260.448C288.168 261.331 288.822 262.248 289.184 263.198C289.545 264.148 289.622 265.062 289.415 265.941C289.22 266.831 288.784 267.638 288.108 268.364ZM281.926 265.914C282.605 266.546 283.25 266.864 283.861 266.865C284.483 266.854 285.056 266.568 285.58 266.007C286.693 264.813 286.583 263.594 285.249 262.35L283.3 260.534L279.978 264.097L281.926 265.914ZM296.533 267.754L284.42 280.742L281.963 278.451L294.075 265.462L296.533 267.754ZM290.783 277.52C291.699 276.537 292.705 275.845 293.801 275.445C294.908 275.055 295.986 274.967 297.035 275.179C298.096 275.402 299.041 275.902 299.872 276.676C300.598 277.353 301.093 278.088 301.359 278.883C301.636 279.688 301.731 280.466 301.644 281.216L302.937 279.83L305.412 282.137L296.344 291.862L293.869 289.554L295.195 288.132C294.453 288.294 293.66 288.265 292.815 288.045C291.992 287.825 291.218 287.376 290.492 286.7C289.673 285.936 289.121 285.027 288.835 283.973C288.56 282.93 288.579 281.842 288.891 280.711C289.225 279.578 289.855 278.515 290.783 277.52ZM298.403 284.692C298.96 284.095 299.317 283.477 299.476 282.837C299.646 282.186 299.635 281.564 299.445 280.97C299.265 280.365 298.947 279.85 298.491 279.424C298.034 278.999 297.509 278.717 296.916 278.579C296.323 278.442 295.701 278.475 295.052 278.679C294.425 278.882 293.838 279.276 293.293 279.861C292.747 280.446 292.384 281.07 292.204 281.733C292.046 282.395 292.05 283.023 292.218 283.617C292.398 284.222 292.71 284.732 293.155 285.147C293.611 285.572 294.142 285.859 294.747 286.008C295.363 286.145 295.985 286.112 296.612 285.909C297.249 285.694 297.847 285.288 298.403 284.692ZM308.791 289.062L304.404 293.766C304.098 294.094 303.951 294.405 303.961 294.699C303.994 294.992 304.198 295.313 304.572 295.662L305.713 296.726L303.782 298.797L302.237 297.357C300.166 295.425 300.069 293.453 301.945 291.441L306.316 286.754L305.157 285.674L307.04 283.655L308.198 284.736L310.44 282.331L312.915 284.639L310.673 287.044L312.849 289.073L310.967 291.092L308.791 289.062ZM317.193 296.897L315.49 295.31L308.305 303.015L305.812 300.691L312.998 292.985L311.892 291.954L313.774 289.936L314.88 290.967L315.338 290.475C316.452 289.282 317.609 288.721 318.812 288.792C320.014 288.863 321.284 289.555 322.62 290.866L320.689 292.938C320.103 292.369 319.595 292.081 319.164 292.074C318.734 292.066 318.262 292.337 317.749 292.887L317.373 293.291L319.075 294.879L317.193 296.897ZM315.77 310.272C314.834 309.399 314.183 308.409 313.816 307.301C313.46 306.181 313.42 305.039 313.696 303.875C313.984 302.722 314.592 301.648 315.519 300.653C316.447 299.658 317.482 298.983 318.624 298.626C319.778 298.28 320.926 298.257 322.069 298.556C323.222 298.844 324.267 299.425 325.203 300.298C326.139 301.171 326.791 302.173 327.159 303.303C327.538 304.422 327.589 305.563 327.313 306.728C327.048 307.903 326.452 308.988 325.524 309.983C324.597 310.977 323.55 311.642 322.385 311.977C321.231 312.323 320.071 312.347 318.906 312.048C317.763 311.748 316.718 311.156 315.77 310.272ZM317.767 308.131C318.212 308.546 318.726 308.828 319.308 308.977C319.913 309.126 320.535 309.093 321.173 308.878C321.81 308.663 322.418 308.246 322.997 307.626C323.859 306.701 324.273 305.764 324.24 304.814C324.23 303.864 323.873 303.061 323.171 302.406C322.469 301.752 321.643 301.452 320.695 301.508C319.768 301.563 318.874 302.053 318.012 302.977C317.15 303.902 316.712 304.828 316.7 305.757C316.709 306.685 317.065 307.476 317.767 308.131ZM332.911 310.603C333.707 310.382 334.493 310.361 335.269 310.537C336.056 310.725 336.778 311.124 337.433 311.735L335.027 314.315L334.378 313.71C333.605 312.99 332.851 312.625 332.115 312.617C331.39 312.62 330.608 313.072 329.768 313.973L325.25 318.817L322.793 316.526L331.861 306.802L334.318 309.093L332.911 310.603ZM351.164 324.54C352.358 325.653 352.974 326.916 353.012 328.33C353.072 329.743 352.492 331.105 351.27 332.415L345.95 338.12L343.493 335.828L348.501 330.457C349.21 329.697 349.558 328.937 349.542 328.179C349.538 327.41 349.203 326.714 348.536 326.092C347.869 325.47 347.145 325.178 346.365 325.217C345.608 325.255 344.875 325.654 344.166 326.414L339.157 331.785L336.7 329.494L341.708 324.123C342.418 323.362 342.765 322.603 342.75 321.845C342.745 321.075 342.41 320.38 341.743 319.758C341.064 319.125 340.335 318.828 339.555 318.866C338.798 318.904 338.065 319.303 337.355 320.064L332.347 325.435L329.889 323.143L338.957 313.419L341.415 315.711L340.318 316.887C341.016 316.772 341.72 316.826 342.429 317.051C343.151 317.286 343.81 317.682 344.407 318.238C345.167 318.947 345.693 319.744 345.984 320.628C346.287 321.501 346.323 322.388 346.094 323.29C346.934 323.023 347.811 322.998 348.724 323.216C349.649 323.444 350.462 323.885 351.164 324.54ZM352.217 334.808C353.133 333.825 354.139 333.133 355.235 332.733C356.342 332.343 357.42 332.255 358.469 332.467C359.529 332.69 360.475 333.189 361.306 333.964C362.031 334.641 362.527 335.376 362.792 336.171C363.07 336.976 363.165 337.754 363.078 338.504L364.371 337.117L366.846 339.425L357.778 349.149L355.303 346.842L356.629 345.42C355.887 345.582 355.094 345.553 354.248 345.333C353.425 345.113 352.651 344.664 351.926 343.988C351.107 343.224 350.554 342.315 350.268 341.261C349.994 340.218 350.013 339.13 350.324 337.999C350.658 336.866 351.289 335.803 352.217 334.808ZM359.837 341.979C360.393 341.383 360.751 340.765 360.91 340.125C361.079 339.474 361.069 338.852 360.878 338.258C360.699 337.653 360.381 337.138 359.924 336.712C359.468 336.287 358.943 336.005 358.35 335.867C357.756 335.73 357.135 335.763 356.485 335.966C355.858 336.169 355.272 336.563 354.727 337.149C354.181 337.734 353.818 338.358 353.637 339.021C353.479 339.683 353.484 340.311 353.652 340.905C353.832 341.51 354.144 342.02 354.589 342.434C355.045 342.86 355.576 343.147 356.181 343.296C356.797 343.433 357.418 343.4 358.045 343.197C358.683 342.982 359.28 342.576 359.837 341.979ZM374.747 340.69L362.635 353.679L360.178 351.387L372.29 338.399L374.747 340.69ZM368.998 350.457C369.914 349.474 370.92 348.782 372.016 348.381C373.123 347.992 374.201 347.903 375.25 348.116C376.31 348.339 377.256 348.838 378.087 349.613C378.813 350.289 379.308 351.025 379.573 351.819C379.851 352.625 379.946 353.403 379.859 354.153L381.152 352.766L383.627 355.074L374.559 364.798L372.084 362.49L373.41 361.068C372.668 361.23 371.875 361.201 371.029 360.982C370.207 360.761 369.432 360.313 368.707 359.636C367.888 358.873 367.335 357.964 367.05 356.909C366.775 355.866 366.794 354.779 367.105 353.647C367.439 352.515 368.07 351.451 368.998 350.457ZM376.618 357.628C377.174 357.031 377.532 356.413 377.691 355.774C377.861 355.123 377.85 354.5 377.66 353.907C377.48 353.302 377.162 352.787 376.706 352.361C376.249 351.935 375.724 351.654 375.131 351.516C374.537 351.378 373.916 351.411 373.266 351.615C372.64 351.818 372.053 352.212 371.508 352.797C370.962 353.382 370.599 354.006 370.418 354.669C370.26 355.331 370.265 355.959 370.433 356.554C370.613 357.159 370.925 357.668 371.37 358.083C371.826 358.509 372.357 358.796 372.962 358.944C373.578 359.081 374.2 359.048 374.826 358.845C375.464 358.631 376.061 358.225 376.618 357.628ZM387.076 361.113C387.873 360.893 388.659 360.871 389.435 361.048C390.222 361.235 390.944 361.635 391.599 362.246L389.193 364.826L388.543 364.22C387.771 363.5 387.017 363.136 386.281 363.128C385.556 363.13 384.774 363.582 383.934 364.483L379.416 369.328L376.959 367.036L386.027 357.312L388.484 359.604L387.076 361.113Z" fill="white"/>
</svg>
