<svg width="504" height="109" viewBox="0 0 504 109" fill="none" xmlns="http://www.w3.org/2000/svg">
<rect width="504" height="109" rx="54.5" fill="#23FBC7"/>
<path d="M56.04 61H52.896L49.2 54.928L45.504 61H42.36L47.64 52.36L42.672 44.2H45.792L49.2 49.792L52.608 44.2H55.752L50.784 52.36L56.04 61ZM66.5394 49H69.1314V61H66.5394V59.272C65.5634 60.632 64.1634 61.312 62.3394 61.312C60.6914 61.312 59.2834 60.704 58.1154 59.488C56.9474 58.256 56.3634 56.76 56.3634 55C56.3634 53.224 56.9474 51.728 58.1154 50.512C59.2834 49.296 60.6914 48.688 62.3394 48.688C64.1634 48.688 65.5634 49.36 66.5394 50.704V49ZM60.0354 57.76C60.7554 58.48 61.6594 58.84 62.7474 58.84C63.8354 58.84 64.7394 58.48 65.4594 57.76C66.1794 57.024 66.5394 56.104 66.5394 55C66.5394 53.896 66.1794 52.984 65.4594 52.264C64.7394 51.528 63.8354 51.16 62.7474 51.16C61.6594 51.16 60.7554 51.528 60.0354 52.264C59.3154 52.984 58.9554 53.896 58.9554 55C58.9554 56.104 59.3154 57.024 60.0354 57.76ZM72.1526 61V43.48H74.7446V61H72.1526ZM87.2582 49H89.8502V65.8H87.2582V59.296C86.2822 60.64 84.8822 61.312 83.0582 61.312C81.4102 61.312 80.0022 60.704 78.8342 59.488C77.6662 58.272 77.0822 56.776 77.0822 55C77.0822 53.24 77.6662 51.752 78.8342 50.536C80.0022 49.304 81.4102 48.688 83.0582 48.688C84.8822 48.688 86.2822 49.368 87.2582 50.728V49ZM80.7542 57.76C81.4742 58.48 82.3782 58.84 83.4662 58.84C84.5542 58.84 85.4582 58.48 86.1782 57.76C86.8982 57.024 87.2582 56.104 87.2582 55C87.2582 53.896 86.8982 52.984 86.1782 52.264C85.4582 51.528 84.5542 51.16 83.4662 51.16C82.3782 51.16 81.4742 51.528 80.7542 52.264C80.0342 52.984 79.6742 53.896 79.6742 55C79.6742 56.104 80.0342 57.024 80.7542 57.76ZM102.375 49H104.967V61H102.375V59.272C101.399 60.632 99.9994 61.312 98.1754 61.312C96.5274 61.312 95.1194 60.704 93.9514 59.488C92.7834 58.256 92.1994 56.76 92.1994 55C92.1994 53.224 92.7834 51.728 93.9514 50.512C95.1194 49.296 96.5274 48.688 98.1754 48.688C99.9994 48.688 101.399 49.36 102.375 50.704V49ZM95.8714 57.76C96.5914 58.48 97.4954 58.84 98.5834 58.84C99.6714 58.84 100.575 58.48 101.295 57.76C102.015 57.024 102.375 56.104 102.375 55C102.375 53.896 102.015 52.984 101.295 52.264C100.575 51.528 99.6714 51.16 98.5834 51.16C97.4954 51.16 96.5914 51.528 95.8714 52.264C95.1514 52.984 94.7914 53.896 94.7914 55C94.7914 56.104 95.1514 57.024 95.8714 57.76ZM110.581 51.016C111.237 49.528 112.469 48.784 114.277 48.784V51.592C113.285 51.528 112.421 51.768 111.685 52.312C110.949 52.84 110.581 53.72 110.581 54.952V61H107.989V49H110.581V51.016ZM121.293 61.312C119.533 61.312 118.037 60.704 116.805 59.488C115.573 58.272 114.957 56.776 114.957 55C114.957 53.224 115.573 51.728 116.805 50.512C118.037 49.296 119.533 48.688 121.293 48.688C123.069 48.688 124.565 49.296 125.781 50.512C127.013 51.728 127.629 53.224 127.629 55C127.629 56.776 127.013 58.272 125.781 59.488C124.565 60.704 123.069 61.312 121.293 61.312ZM118.629 57.712C119.349 58.432 120.237 58.792 121.293 58.792C122.349 58.792 123.237 58.432 123.957 57.712C124.677 56.992 125.037 56.088 125.037 55C125.037 53.912 124.677 53.008 123.957 52.288C123.237 51.568 122.349 51.208 121.293 51.208C120.237 51.208 119.349 51.568 118.629 52.288C117.909 53.008 117.549 53.912 117.549 55C117.549 56.088 117.909 56.992 118.629 57.712ZM138.013 56.104C138.205 57.016 138.645 57.72 139.333 58.216C140.021 58.696 140.861 58.936 141.853 58.936C143.229 58.936 144.261 58.44 144.949 57.448L147.085 58.696C145.901 60.44 144.149 61.312 141.829 61.312C139.877 61.312 138.301 60.72 137.101 59.536C135.901 58.336 135.301 56.824 135.301 55C135.301 53.208 135.893 51.712 137.077 50.512C138.261 49.296 139.781 48.688 141.637 48.688C143.397 48.688 144.837 49.304 145.957 50.536C147.093 51.768 147.661 53.264 147.661 55.024C147.661 55.296 147.629 55.656 147.565 56.104H138.013ZM137.989 53.992H145.045C144.869 53.016 144.461 52.28 143.821 51.784C143.197 51.288 142.461 51.04 141.613 51.04C140.653 51.04 139.853 51.304 139.213 51.832C138.573 52.36 138.165 53.08 137.989 53.992ZM149.942 61V43.48H152.534V61H149.942ZM157.583 56.104C157.775 57.016 158.215 57.72 158.903 58.216C159.591 58.696 160.431 58.936 161.423 58.936C162.799 58.936 163.831 58.44 164.519 57.448L166.655 58.696C165.471 60.44 163.719 61.312 161.399 61.312C159.447 61.312 157.871 60.72 156.671 59.536C155.471 58.336 154.871 56.824 154.871 55C154.871 53.208 155.463 51.712 156.647 50.512C157.831 49.296 159.351 48.688 161.207 48.688C162.967 48.688 164.407 49.304 165.527 50.536C166.663 51.768 167.231 53.264 167.231 55.024C167.231 55.296 167.199 55.656 167.135 56.104H157.583ZM157.559 53.992H164.615C164.439 53.016 164.031 52.28 163.391 51.784C162.767 51.288 162.031 51.04 161.183 51.04C160.223 51.04 159.423 51.304 158.783 51.832C158.143 52.36 157.735 53.08 157.559 53.992ZM180.12 61H177.024L172.104 55.456V61H169.512V44.2H172.104V54.304L176.76 49H179.928L174.648 54.88L180.12 61ZM188.325 51.496H185.349V57.256C185.349 57.752 185.461 58.112 185.685 58.336C185.909 58.544 186.237 58.664 186.669 58.696C187.117 58.712 187.669 58.704 188.325 58.672V61C186.341 61.24 184.917 61.072 184.053 60.496C183.189 59.904 182.757 58.824 182.757 57.256V51.496H180.549V49H182.757V46.408L185.349 45.64V49H188.325V51.496ZM193.385 51.016C194.041 49.528 195.273 48.784 197.081 48.784V51.592C196.089 51.528 195.225 51.768 194.489 52.312C193.753 52.84 193.385 53.72 193.385 54.952V61H190.793V49H193.385V51.016ZM204.098 61.312C202.338 61.312 200.842 60.704 199.61 59.488C198.378 58.272 197.762 56.776 197.762 55C197.762 53.224 198.378 51.728 199.61 50.512C200.842 49.296 202.338 48.688 204.098 48.688C205.874 48.688 207.37 49.296 208.586 50.512C209.818 51.728 210.434 53.224 210.434 55C210.434 56.776 209.818 58.272 208.586 59.488C207.37 60.704 205.874 61.312 204.098 61.312ZM201.434 57.712C202.154 58.432 203.042 58.792 204.098 58.792C205.154 58.792 206.042 58.432 206.762 57.712C207.482 56.992 207.842 56.088 207.842 55C207.842 53.912 207.482 53.008 206.762 52.288C206.042 51.568 205.154 51.208 204.098 51.208C203.042 51.208 202.154 51.568 201.434 52.288C200.714 53.008 200.354 53.912 200.354 55C200.354 56.088 200.714 56.992 201.434 57.712ZM219.09 48.688C220.466 48.688 221.578 49.128 222.426 50.008C223.274 50.888 223.698 52.096 223.698 53.632V61H221.106V53.896C221.106 53 220.866 52.312 220.386 51.832C219.906 51.352 219.25 51.112 218.418 51.112C217.506 51.112 216.77 51.4 216.21 51.976C215.65 52.536 215.37 53.4 215.37 54.568V61H212.778V49H215.37V50.536C216.154 49.304 217.394 48.688 219.09 48.688ZM238.801 48.688C240.177 48.688 241.289 49.128 242.137 50.008C242.985 50.888 243.409 52.096 243.409 53.632V61H240.817V53.896C240.817 53 240.577 52.312 240.097 51.832C239.617 51.352 238.961 51.112 238.129 51.112C237.217 51.112 236.481 51.4 235.921 51.976C235.361 52.536 235.081 53.4 235.081 54.568V61H232.489V44.2H235.081V50.536C235.865 49.304 237.105 48.688 238.801 48.688ZM255.704 49H258.296V61H255.704V59.272C254.728 60.632 253.328 61.312 251.504 61.312C249.856 61.312 248.448 60.704 247.28 59.488C246.112 58.256 245.528 56.76 245.528 55C245.528 53.224 246.112 51.728 247.28 50.512C248.448 49.296 249.856 48.688 251.504 48.688C253.328 48.688 254.728 49.36 255.704 50.704V49ZM249.2 57.76C249.92 58.48 250.824 58.84 251.912 58.84C253 58.84 253.904 58.48 254.624 57.76C255.344 57.024 255.704 56.104 255.704 55C255.704 53.896 255.344 52.984 254.624 52.264C253.904 51.528 253 51.16 251.912 51.16C250.824 51.16 249.92 51.528 249.2 52.264C248.48 52.984 248.12 53.896 248.12 55C248.12 56.104 248.48 57.024 249.2 57.76ZM274.421 48.688C275.781 48.688 276.877 49.128 277.709 50.008C278.541 50.888 278.957 52.072 278.957 53.56V61H276.365V53.728C276.365 52.896 276.157 52.256 275.741 51.808C275.325 51.344 274.757 51.112 274.037 51.112C273.237 51.112 272.597 51.376 272.117 51.904C271.653 52.432 271.421 53.224 271.421 54.28V61H268.829V53.728C268.829 52.896 268.629 52.256 268.229 51.808C267.845 51.344 267.293 51.112 266.573 51.112C265.789 51.112 265.149 51.384 264.653 51.928C264.157 52.456 263.909 53.24 263.909 54.28V61H261.317V49H263.909V50.44C264.677 49.272 265.821 48.688 267.341 48.688C268.877 48.688 270.013 49.32 270.749 50.584C271.549 49.32 272.773 48.688 274.421 48.688ZM289.584 49H292.344L287.736 61.384C286.584 64.488 284.632 65.96 281.88 65.8V63.376C282.696 63.424 283.352 63.248 283.848 62.848C284.344 62.464 284.752 61.856 285.072 61.024L285.192 60.784L280.104 49H282.936L286.512 57.712L289.584 49ZM299.16 61.312C297.4 61.312 295.904 60.704 294.672 59.488C293.44 58.272 292.824 56.776 292.824 55C292.824 53.224 293.44 51.728 294.672 50.512C295.904 49.296 297.4 48.688 299.16 48.688C300.936 48.688 302.432 49.296 303.648 50.512C304.88 51.728 305.496 53.224 305.496 55C305.496 56.776 304.88 58.272 303.648 59.488C302.432 60.704 300.936 61.312 299.16 61.312ZM296.496 57.712C297.216 58.432 298.104 58.792 299.16 58.792C300.216 58.792 301.104 58.432 301.824 57.712C302.544 56.992 302.904 56.088 302.904 55C302.904 53.912 302.544 53.008 301.824 52.288C301.104 51.568 300.216 51.208 299.16 51.208C298.104 51.208 297.216 51.568 296.496 52.288C295.776 53.008 295.416 53.912 295.416 55C295.416 56.088 295.776 56.992 296.496 57.712ZM314.152 48.688C315.528 48.688 316.64 49.128 317.488 50.008C318.336 50.888 318.76 52.096 318.76 53.632V61H316.168V53.896C316.168 53 315.928 52.312 315.448 51.832C314.968 51.352 314.312 51.112 313.48 51.112C312.568 51.112 311.832 51.4 311.272 51.976C310.712 52.536 310.432 53.4 310.432 54.568V61H307.84V49H310.432V50.536C311.216 49.304 312.456 48.688 314.152 48.688ZM321.551 61V43.48H324.143V61H321.551ZM336.657 49H339.249V61H336.657V59.272C335.681 60.632 334.281 61.312 332.457 61.312C330.809 61.312 329.401 60.704 328.233 59.488C327.065 58.256 326.481 56.76 326.481 55C326.481 53.224 327.065 51.728 328.233 50.512C329.401 49.296 330.809 48.688 332.457 48.688C334.281 48.688 335.681 49.36 336.657 50.704V49ZM330.153 57.76C330.873 58.48 331.777 58.84 332.865 58.84C333.953 58.84 334.857 58.48 335.577 57.76C336.297 57.024 336.657 56.104 336.657 55C336.657 53.896 336.297 52.984 335.577 52.264C334.857 51.528 333.953 51.16 332.865 51.16C331.777 51.16 330.873 51.528 330.153 52.264C329.433 52.984 329.073 53.896 329.073 55C329.073 56.104 329.433 57.024 330.153 57.76ZM344.862 51.016C345.518 49.528 346.75 48.784 348.558 48.784V51.592C347.566 51.528 346.702 51.768 345.966 52.312C345.23 52.84 344.862 53.72 344.862 54.952V61H342.27V49H344.862V51.016ZM356.785 48.688C358.161 48.688 359.273 49.128 360.121 50.008C360.969 50.888 361.393 52.096 361.393 53.632V61H358.801V53.896C358.801 53 358.561 52.312 358.081 51.832C357.601 51.352 356.945 51.112 356.113 51.112C355.201 51.112 354.465 51.4 353.905 51.976C353.345 52.536 353.065 53.4 353.065 54.568V61H350.473V49H353.065V50.536C353.849 49.304 355.089 48.688 356.785 48.688ZM366.632 46.72C366.312 47.04 365.928 47.2 365.48 47.2C365.032 47.2 364.64 47.04 364.304 46.72C363.984 46.384 363.824 45.992 363.824 45.544C363.824 45.096 363.984 44.712 364.304 44.392C364.624 44.056 365.016 43.888 365.48 43.888C365.944 43.888 366.336 44.056 366.656 44.392C366.976 44.712 367.136 45.096 367.136 45.544C367.136 45.992 366.968 46.384 366.632 46.72ZM364.184 61V49H366.776V61H364.184ZM382.481 51.496H379.505V57.256C379.505 57.752 379.617 58.112 379.841 58.336C380.065 58.544 380.393 58.664 380.825 58.696C381.273 58.712 381.825 58.704 382.481 58.672V61C380.497 61.24 379.073 61.072 378.209 60.496C377.345 59.904 376.913 58.824 376.913 57.256V51.496H374.705V49H376.913V46.408L379.505 45.64V49H382.481V51.496ZM390.004 61.312C388.244 61.312 386.748 60.704 385.516 59.488C384.284 58.272 383.668 56.776 383.668 55C383.668 53.224 384.284 51.728 385.516 50.512C386.748 49.296 388.244 48.688 390.004 48.688C391.78 48.688 393.276 49.296 394.492 50.512C395.724 51.728 396.34 53.224 396.34 55C396.34 56.776 395.724 58.272 394.492 59.488C393.276 60.704 391.78 61.312 390.004 61.312ZM387.34 57.712C388.06 58.432 388.948 58.792 390.004 58.792C391.06 58.792 391.948 58.432 392.668 57.712C393.388 56.992 393.748 56.088 393.748 55C393.748 53.912 393.388 53.008 392.668 52.288C391.948 51.568 391.06 51.208 390.004 51.208C388.948 51.208 388.06 51.568 387.34 52.288C386.62 53.008 386.26 53.912 386.26 55C386.26 56.088 386.62 56.992 387.34 57.712ZM398.684 61V43.48H401.276V61H398.684ZM413.789 44.2H416.381V61H413.789V59.272C412.813 60.632 411.413 61.312 409.589 61.312C407.941 61.312 406.533 60.704 405.365 59.488C404.197 58.256 403.613 56.76 403.613 55C403.613 53.224 404.197 51.728 405.365 50.512C406.533 49.296 407.941 48.688 409.589 48.688C411.413 48.688 412.813 49.36 413.789 50.704V44.2ZM407.285 57.76C408.005 58.48 408.909 58.84 409.997 58.84C411.085 58.84 411.989 58.48 412.709 57.76C413.429 57.024 413.789 56.104 413.789 55C413.789 53.896 413.429 52.984 412.709 52.264C411.989 51.528 411.085 51.16 409.997 51.16C408.909 51.16 408.005 51.528 407.285 52.264C406.565 52.984 406.205 53.896 406.205 55C406.205 56.104 406.565 57.024 407.285 57.76ZM421.851 46.72C421.531 47.04 421.147 47.2 420.699 47.2C420.251 47.2 419.859 47.04 419.523 46.72C419.203 46.384 419.043 45.992 419.043 45.544C419.043 45.096 419.203 44.712 419.523 44.392C419.843 44.056 420.235 43.888 420.699 43.888C421.163 43.888 421.555 44.056 421.875 44.392C422.195 44.712 422.355 45.096 422.355 45.544C422.355 45.992 422.187 46.384 421.851 46.72ZM419.403 61V49H421.995V61H419.403ZM427.596 51.016C428.252 49.528 429.484 48.784 431.292 48.784V51.592C430.3 51.528 429.436 51.768 428.7 52.312C427.964 52.84 427.596 53.72 427.596 54.952V61H425.004V49H427.596V51.016ZM435.655 46.72C435.335 47.04 434.951 47.2 434.503 47.2C434.055 47.2 433.663 47.04 433.327 46.72C433.007 46.384 432.847 45.992 432.847 45.544C432.847 45.096 433.007 44.712 433.327 44.392C433.647 44.056 434.039 43.888 434.503 43.888C434.967 43.888 435.359 44.056 435.679 44.392C435.999 44.712 436.159 45.096 436.159 45.544C436.159 45.992 435.991 46.384 435.655 46.72ZM433.207 61V49H435.799V61H433.207ZM441.067 52.312C441.067 52.712 441.283 53.032 441.715 53.272C442.163 53.496 442.699 53.696 443.323 53.872C443.963 54.032 444.603 54.224 445.243 54.448C445.883 54.672 446.419 55.056 446.851 55.6C447.299 56.128 447.523 56.8 447.523 57.616C447.523 58.768 447.075 59.672 446.179 60.328C445.299 60.984 444.187 61.312 442.843 61.312C441.659 61.312 440.643 61.064 439.795 60.568C438.947 60.072 438.331 59.384 437.947 58.504L440.179 57.208C440.595 58.36 441.483 58.936 442.843 58.936C444.203 58.936 444.883 58.488 444.883 57.592C444.883 57.208 444.659 56.896 444.211 56.656C443.779 56.416 443.243 56.216 442.603 56.056C441.979 55.88 441.347 55.68 440.707 55.456C440.067 55.232 439.523 54.864 439.075 54.352C438.643 53.824 438.427 53.16 438.427 52.36C438.427 51.256 438.843 50.368 439.675 49.696C440.523 49.024 441.571 48.688 442.819 48.688C443.811 48.688 444.691 48.912 445.459 49.36C446.243 49.792 446.843 50.4 447.259 51.184L445.075 52.408C444.659 51.496 443.907 51.04 442.819 51.04C442.323 51.04 441.907 51.152 441.571 51.376C441.235 51.584 441.067 51.896 441.067 52.312ZM455.972 48.688C457.348 48.688 458.46 49.128 459.308 50.008C460.156 50.888 460.58 52.096 460.58 53.632V61H457.988V53.896C457.988 53 457.748 52.312 457.268 51.832C456.788 51.352 456.132 51.112 455.3 51.112C454.388 51.112 453.652 51.4 453.092 51.976C452.532 52.536 452.252 53.4 452.252 54.568V61H449.66V44.2H452.252V50.536C453.036 49.304 454.276 48.688 455.972 48.688Z" fill="#00008C"/>
</svg>
