<svg width="612" height="179" viewBox="0 0 612 179" fill="none" xmlns="http://www.w3.org/2000/svg">
<rect x="12.7383" width="603" height="109" rx="54.5" transform="rotate(6.71175 12.7383 0)" fill="#23FBC7"/>
<path d="M66.9228 50.8815L64.9593 67.5664L62.2182 67.2438L63.6179 55.3499L57.5536 63.1425L57.2199 63.1032L53.1331 54.0918L51.7306 66.0096L48.9895 65.687L50.953 49.0022L53.9086 49.35L57.9562 58.2843L63.991 50.5365L66.9228 50.8815ZM78.9606 57.1312L81.5348 57.4342L80.1323 69.3519L77.5581 69.049L77.76 67.3328C76.6318 68.5695 75.1619 69.0812 73.3504 68.868C71.7137 68.6754 70.3864 67.907 69.3685 66.5628C68.3525 65.2027 67.9473 63.6487 68.153 61.9008C68.3606 60.137 69.1155 58.7195 70.4176 57.6483C71.7197 56.5772 73.1891 56.1379 74.8258 56.3305C76.6373 56.5437 77.9492 57.3747 78.7614 58.8236L78.9606 57.1312ZM71.4773 65.0711C72.1082 65.8703 72.964 66.3335 74.0445 66.4606C75.125 66.5878 76.0649 66.3359 76.8641 65.705C77.6652 65.0582 78.1303 64.1866 78.2593 63.0901C78.3883 61.9937 78.1374 61.0459 77.5065 60.2466C76.8774 59.4315 76.0226 58.9604 74.9421 58.8332C73.8616 58.7061 72.9207 58.9659 72.1197 59.6127C71.3204 60.2436 70.8563 61.1073 70.7273 62.2037C70.5983 63.3002 70.8483 64.2559 71.4773 65.0711ZM86.3904 61.3404C86.3437 61.7377 86.5208 62.0808 86.9218 62.3696C87.3405 62.6444 87.8495 62.9057 88.4486 63.1534C89.0655 63.3871 89.6787 63.6526 90.2881 63.9499C90.8976 64.2471 91.385 64.6912 91.7505 65.2819C92.1337 65.8587 92.2776 66.5522 92.1823 67.3626C92.0476 68.5067 91.497 69.3522 90.5305 69.899C89.5799 70.4476 88.4372 70.6434 87.1024 70.4863C85.9265 70.348 84.9464 69.9829 84.1622 69.3912C83.378 68.7995 82.8466 68.0442 82.5681 67.1254L84.9363 66.0991C85.2148 67.2918 86.0294 67.9677 87.3801 68.1266C88.7307 68.2856 89.4584 67.9201 89.5632 67.0303C89.608 66.6489 89.422 66.3128 89.0052 66.0221C88.6042 65.7333 88.0952 65.472 87.4783 65.2383C86.8791 64.9906 86.2749 64.7181 85.6654 64.4208C85.056 64.1236 84.5587 63.6945 84.1736 63.1336C83.8063 62.5588 83.6694 61.8741 83.7629 61.0796C83.8919 59.9831 84.4088 59.1498 85.3137 58.5797C86.2344 58.0114 87.3145 57.8002 88.5539 57.946C89.5391 58.062 90.3869 58.3873 91.0973 58.922C91.8255 59.4427 92.3503 60.1166 92.6718 60.9439L90.3597 61.9042C90.0532 60.9498 89.3596 60.4091 88.2791 60.2819C87.7865 60.224 87.3602 60.2866 87.0003 60.4698C86.6423 60.6371 86.439 60.9273 86.3904 61.3404ZM101.618 59.4834C102.984 59.6442 104.037 60.2112 104.777 61.1842C105.516 62.1573 105.796 63.4066 105.616 64.9321L104.755 72.2496L102.181 71.9466L103.011 64.8913C103.116 64.0015 102.958 63.2901 102.537 62.7573C102.117 62.2245 101.493 61.9095 100.667 61.8122C99.7612 61.7057 98.9966 61.9057 98.3731 62.4123C97.7515 62.903 97.3725 63.7283 97.2359 64.8883L96.4842 71.2762L93.91 70.9733L95.8735 54.2884L98.4477 54.5914L97.7072 60.884C98.6298 59.752 99.9333 59.2852 101.618 59.4834ZM115.235 61.0859C116.601 61.2467 117.654 61.8136 118.394 62.7867C119.133 63.7598 119.413 65.0091 119.233 66.5345L118.372 73.852L115.798 73.5491L116.628 66.4938C116.733 65.6039 116.575 64.8926 116.154 64.3598C115.734 63.827 115.11 63.5119 114.284 63.4147C113.378 63.3081 112.614 63.5081 111.99 64.0147C111.368 64.5054 110.989 65.3308 110.853 66.4908L110.101 72.8787L107.527 72.5758L109.49 55.8909L112.065 56.1938L111.324 62.4864C112.247 61.3545 113.55 60.8876 115.235 61.0859ZM130.579 63.2057L133.153 63.5087L131.751 75.4264L129.176 75.1235L129.356 73.598C128.433 74.73 127.13 75.1968 125.446 74.9986C124.079 74.8378 123.026 74.2708 122.287 73.2977C121.547 72.3247 121.267 71.0754 121.447 69.5499L122.308 62.2324L124.882 62.5353L124.052 69.5907C123.947 70.4805 124.105 71.1919 124.526 71.7247C124.946 72.2575 125.57 72.5725 126.396 72.6697C127.302 72.7763 128.066 72.5843 128.687 72.0936C129.311 71.587 129.691 70.7537 129.827 69.5937L130.579 63.2057ZM138.502 66.168C139.327 64.7669 140.638 64.172 142.434 64.3833L142.105 67.1721C141.128 66.9926 140.242 67.1299 139.447 67.5842C138.654 68.0225 138.186 68.8535 138.042 70.0771L137.335 76.0836L134.761 75.7807L136.163 63.8629L138.738 64.1659L138.502 66.168ZM154.455 78.4125C152.707 78.2068 151.293 77.4281 150.211 76.0765C149.13 74.7248 148.693 73.1671 148.901 71.4032C149.108 69.6394 149.895 68.2257 151.26 67.162C152.626 66.0983 154.183 65.6693 155.931 65.875C157.695 66.0826 159.109 66.8613 160.175 68.211C161.256 69.5627 161.693 71.1204 161.486 72.8843C161.278 74.6481 160.491 76.0619 159.126 77.1255C157.776 78.1911 156.219 78.6201 154.455 78.4125ZM152.23 74.5258C152.861 75.325 153.701 75.7863 154.75 75.9098C155.799 76.0332 156.723 75.7794 157.522 75.1485C158.321 74.5176 158.784 73.6619 158.911 72.5813C159.039 71.5008 158.787 70.5609 158.156 69.7617C157.525 68.9625 156.685 68.5012 155.636 68.3777C154.588 68.2543 153.664 68.5081 152.864 69.139C152.065 69.7699 151.602 70.6256 151.475 71.7062C151.348 72.7867 151.599 73.7266 152.23 74.5258ZM171.297 67.6833C172.933 67.8759 174.261 68.6443 175.278 69.9884C176.296 71.3326 176.701 72.8866 176.494 74.6504C176.288 76.3984 175.533 77.8159 174.229 78.9029C172.927 79.9741 171.458 80.4134 169.821 80.2207C168.01 80.0076 166.699 79.1686 165.888 77.7039L165.686 79.42L163.112 79.1171L165.076 62.4322L167.65 62.7351L166.89 69.1946C168.016 67.9739 169.485 67.4701 171.297 67.6833ZM167.138 76.3284C167.769 77.1277 168.624 77.5908 169.705 77.718C170.785 77.8452 171.725 77.5933 172.524 76.9624C173.326 76.3156 173.791 75.4439 173.92 74.3475C174.049 73.2511 173.798 72.3033 173.167 71.504C172.538 70.6889 171.683 70.2178 170.602 70.0906C169.522 69.9635 168.581 70.2233 167.78 70.8701C166.981 71.501 166.517 72.3647 166.388 73.4611C166.259 74.5576 166.509 75.5133 167.138 76.3284ZM187.561 69.9114L190.135 70.2143L188.733 82.1321L186.158 81.8292L186.338 80.3037C185.415 81.4356 184.112 81.9025 182.427 81.7043C181.061 81.5434 180.008 80.9765 179.268 80.0034C178.529 79.0303 178.249 77.7811 178.429 76.2556L179.29 68.9381L181.864 69.241L181.034 76.2963C180.929 77.1862 181.087 77.8975 181.508 78.4303C181.928 78.9631 182.552 79.2782 183.378 79.3754C184.284 79.482 185.047 79.2899 185.669 78.7992C186.293 78.2926 186.673 77.4593 186.809 76.2993L187.561 69.9114ZM199.45 70.9964C200.817 71.1573 201.87 71.7242 202.609 72.6973C203.349 73.6704 203.628 74.9196 203.449 76.4451L202.588 83.7626L200.014 83.4597L200.844 76.4044C200.949 75.5145 200.791 74.8032 200.37 74.2704C199.949 73.7375 199.326 73.4225 198.5 73.3253C197.594 73.2187 196.829 73.4187 196.206 73.9253C195.584 74.416 195.205 75.2414 195.069 76.4014L194.317 82.7893L191.743 82.4863L193.145 70.5686L195.719 70.8715L195.54 72.397C196.463 71.2651 197.766 70.7982 199.45 70.9964ZM216.201 73.2818L218.775 73.5848L217.373 85.5025L214.799 85.1996L215 83.4834C213.872 84.72 212.402 85.2317 210.591 85.0186C208.954 84.826 207.627 84.0576 206.609 82.7134C205.593 81.3533 205.188 79.7993 205.394 78.0514C205.601 76.2876 206.356 74.8701 207.658 73.7989C208.96 72.7277 210.43 72.2885 212.066 72.4811C213.878 72.6943 215.19 73.5253 216.002 74.9741L216.201 73.2818ZM208.718 81.2216C209.349 82.0208 210.204 82.484 211.285 82.6112C212.366 82.7384 213.305 82.4865 214.105 81.8556C214.906 81.2087 215.371 80.3371 215.5 79.2407C215.629 78.1443 215.378 77.1964 214.747 76.3972C214.118 75.5821 213.263 75.111 212.183 74.9838C211.102 74.8567 210.161 75.1165 209.36 75.7633C208.561 76.3942 208.097 77.2579 207.968 78.3543C207.839 79.4508 208.089 80.4065 208.718 81.2216ZM220.373 85.8556L222.421 68.4557L224.995 68.7586L222.947 86.1586L220.373 85.8556ZM236.778 75.7033L239.352 76.0062L237.95 87.924L235.375 87.6211L235.577 85.9049C234.449 87.1415 232.979 87.6532 231.168 87.4401C229.531 87.2474 228.204 86.4791 227.186 85.1349C226.17 83.7748 225.765 82.2208 225.97 80.4729C226.178 78.709 226.933 77.2916 228.235 76.2204C229.537 75.1492 231.006 74.71 232.643 74.9026C234.455 75.1158 235.766 75.9468 236.579 77.3956L236.778 75.7033ZM229.295 83.6431C229.925 84.4423 230.781 84.9055 231.862 85.0327C232.942 85.1598 233.882 84.908 234.681 84.277C235.482 83.6302 235.948 82.7586 236.077 81.6622C236.206 80.5658 235.955 79.6179 235.324 78.8187C234.695 78.0036 233.84 77.5325 232.759 77.4053C231.679 77.2782 230.738 77.538 229.937 78.1848C229.138 78.8157 228.674 79.6794 228.545 80.7758C228.415 81.8722 228.665 82.828 229.295 83.6431ZM244.691 78.6645C245.517 77.2633 246.827 76.6684 248.623 76.8797L248.294 79.6685C247.317 79.489 246.431 79.6264 245.636 80.0806C244.843 80.519 244.375 81.3499 244.231 82.5735L243.524 88.58L240.95 88.2771L242.352 76.3593L244.927 76.6623L244.691 78.6645ZM264.539 78.9702L267.351 79.3012L261.301 90.672L258.321 90.3214L255.076 77.8566L257.888 78.1876L260.159 87.6378L264.539 78.9702ZM277.955 80.549L280.529 80.852L279.126 92.7697L276.552 92.4668L276.754 90.7506C275.626 91.9872 274.156 92.499 272.344 92.2858C270.708 92.0932 269.38 91.3248 268.363 89.9806C267.347 88.6205 266.941 87.0665 267.147 85.3186C267.355 83.5548 268.109 82.1373 269.412 81.0661C270.714 79.995 272.183 79.5557 273.82 79.7483C275.631 79.9615 276.943 80.7925 277.755 82.2413L277.955 80.549ZM270.471 88.4888C271.102 89.2881 271.958 89.7512 273.039 89.8784C274.119 90.0056 275.059 89.7537 275.858 89.1228C276.659 88.476 277.124 87.6043 277.253 86.5079C277.382 85.4115 277.131 84.4636 276.5 83.6644C275.871 82.8493 275.017 82.3782 273.936 82.251C272.856 82.1239 271.915 82.3837 271.114 83.0305C270.314 83.6614 269.85 84.5251 269.721 85.6215C269.592 86.718 269.842 87.6737 270.471 88.4888ZM305.5 87.1254L305.365 88.2695C305.096 90.5578 304.121 92.344 302.439 93.6283C300.759 94.8966 298.704 95.3878 296.272 95.1017C293.698 94.7987 291.667 93.7139 290.179 91.8472C288.707 89.9824 288.114 87.8343 288.4 85.4031C288.684 82.9878 289.759 81.044 291.624 79.5719C293.506 78.0857 295.687 77.4885 298.166 77.7802C299.723 77.9635 301.103 78.4884 302.306 79.3549C303.509 80.2215 304.397 81.3006 304.97 82.5925L302.45 83.6734C302.099 82.8265 301.514 82.1133 300.697 81.5337C299.881 80.9383 298.932 80.577 297.852 80.4498C296.104 80.2441 294.598 80.6469 293.336 81.6583C292.073 82.6696 291.34 84.0334 291.138 85.7495C290.936 87.4657 291.333 88.9542 292.329 90.2152C293.34 91.4781 294.767 92.218 296.61 92.4349C298.088 92.6088 299.328 92.4083 300.33 91.8335C301.35 91.2447 302.055 90.3852 302.446 89.2551L296.869 88.5988L297.157 86.1437L305.5 87.1254ZM310.924 82.1331C310.569 82.4135 310.168 82.5276 309.724 82.4752C309.279 82.4228 308.908 82.2181 308.612 81.8611C308.333 81.49 308.22 81.0819 308.272 80.637C308.325 80.1921 308.529 79.8294 308.884 79.549C309.241 79.2527 309.65 79.1317 310.111 79.1859C310.571 79.2401 310.941 79.4528 311.22 79.8239C311.5 80.1791 311.614 80.5792 311.562 81.0241C311.509 81.469 311.297 81.8387 310.924 82.1331ZM306.824 96.0292L308.226 84.1114L310.8 84.4143L309.398 96.3321L306.824 96.0292ZM320.34 82.9029C318.485 82.5075 317.455 83.1837 317.25 84.9316L317.222 85.17L320.034 85.501L319.742 87.9799L316.93 87.6489L315.819 97.0878L313.245 96.7848L314.356 87.346L312.544 87.1328L312.836 84.6539L314.647 84.8671L314.675 84.6287C314.868 82.992 315.467 81.8058 316.472 81.0702C317.494 80.3206 318.881 80.1052 320.632 80.424L320.34 82.9029ZM328.318 88.989L325.362 88.6412L324.689 94.3617C324.631 94.8543 324.7 95.225 324.896 95.4736C325.095 95.7064 325.406 95.8639 325.832 95.9462C326.275 96.0144 326.824 96.071 327.479 96.1159L327.207 98.4279C325.209 98.4344 323.814 98.1011 323.023 97.4281C322.234 96.7392 321.932 95.6161 322.115 94.0588L322.788 88.3383L320.595 88.0802L320.887 85.6013L323.08 85.8594L323.383 83.2852L326.047 82.8254L325.654 86.1623L328.61 86.5101L328.318 88.989ZM346.152 100.657L343.078 100.296L338.839 94.2145L338.191 99.7205L335.617 99.4176L337.581 82.7327L340.155 83.0357L338.974 93.0704L344.218 88.347L347.364 88.7172L341.433 93.9398L346.152 100.657ZM357.771 89.9419L360.345 90.2448L358.943 102.163L356.368 101.86L356.57 100.143C355.442 101.38 353.972 101.892 352.161 101.679C350.524 101.486 349.197 100.718 348.179 99.3735C347.163 98.0134 346.758 96.4594 346.963 94.7115C347.171 92.9476 347.926 91.5301 349.228 90.459C350.53 89.3878 352 88.9485 353.636 89.1412C355.448 89.3543 356.76 90.1854 357.572 91.6342L357.771 89.9419ZM350.288 97.8817C350.919 98.6809 351.774 99.1441 352.855 99.2713C353.935 99.3984 354.875 99.1465 355.675 98.5156C356.476 97.8688 356.941 96.9972 357.07 95.9008C357.199 94.8043 356.948 93.8565 356.317 93.0573C355.688 92.2422 354.833 91.7711 353.753 91.6439C352.672 91.5167 351.731 91.7766 350.93 92.4234C350.131 93.0543 349.667 93.918 349.538 95.0144C349.409 96.1108 349.659 97.0666 350.288 97.8817ZM365.684 92.9031C366.51 91.5019 367.82 90.907 369.616 91.1183L369.288 93.9071C368.31 93.7276 367.424 93.8649 366.629 94.3192C365.837 94.7576 365.368 95.5885 365.224 96.8121L364.517 102.819L361.943 102.516L363.346 90.5979L365.92 90.9009L365.684 92.9031ZM378.154 94.8538L375.198 94.5059L374.525 100.226C374.467 100.719 374.536 101.09 374.732 101.338C374.93 101.571 375.242 101.729 375.667 101.811C376.111 101.879 376.66 101.936 377.315 101.981L377.043 104.293C375.044 104.299 373.65 103.966 372.859 103.293C372.07 102.604 371.767 101.481 371.951 99.9235L372.624 94.203L370.431 93.9449L370.723 91.466L372.915 91.7241L373.218 89.1499L375.882 88.6901L375.49 92.027L378.445 92.3749L378.154 94.8538ZM389.73 93.7029L392.304 94.0058L390.902 105.924L388.328 105.621L388.53 103.904C387.401 105.141 385.931 105.653 384.12 105.44C382.483 105.247 381.156 104.479 380.138 103.134C379.122 101.774 378.717 100.22 378.923 98.4724C379.13 96.7086 379.885 95.2911 381.187 94.22C382.489 93.1488 383.959 92.7095 385.595 92.9021C387.407 93.1153 388.719 93.9463 389.531 95.3952L389.73 93.7029ZM382.247 101.643C382.878 102.442 383.734 102.905 384.814 103.032C385.895 103.159 386.834 102.908 387.634 102.277C388.435 101.63 388.9 100.758 389.029 99.6618C389.158 98.5653 388.907 97.6175 388.276 96.8183C387.647 96.0032 386.792 95.532 385.712 95.4049C384.631 95.2777 383.69 95.5375 382.889 96.1844C382.09 96.8153 381.626 97.6789 381.497 98.7754C381.368 99.8718 381.618 100.828 382.247 101.643ZM393.902 106.277L395.95 88.8767L398.524 89.1797L396.477 106.58L393.902 106.277ZM410.307 96.1244L412.881 96.4273L411.479 108.345L408.904 108.042L409.106 106.326C407.978 107.563 406.508 108.074 404.697 107.861C403.06 107.669 401.733 106.9 400.715 105.556C399.699 104.196 399.294 102.642 399.499 100.894C399.707 99.1301 400.462 97.7126 401.764 96.6415C403.066 95.5703 404.535 95.131 406.172 95.3236C407.984 95.5368 409.296 96.3678 410.108 97.8167L410.307 96.1244ZM402.824 104.064C403.455 104.863 404.31 105.327 405.391 105.454C406.471 105.581 407.411 105.329 408.21 104.698C409.012 104.051 409.477 103.18 409.606 102.083C409.735 100.987 409.484 100.039 408.853 99.2398C408.224 98.4247 407.369 97.9535 406.288 97.8264C405.208 97.6992 404.267 97.959 403.466 98.6058C402.667 99.2368 402.203 100.1 402.074 101.197C401.945 102.293 402.195 103.249 402.824 104.064ZM418.22 99.0855C419.046 97.6844 420.356 97.0895 422.152 97.3008L421.824 100.09C420.846 99.91 419.96 100.047 419.165 100.502C418.373 100.94 417.904 101.771 417.76 102.995L417.053 109.001L414.479 108.698L415.882 96.7804L418.456 97.0833L418.22 99.0855ZM426.726 95.7609C426.371 96.0413 425.971 96.1553 425.526 96.1029C425.081 96.0506 424.71 95.8459 424.414 95.4888C424.136 95.1177 424.023 94.7097 424.075 94.2647C424.127 93.8198 424.331 93.4571 424.686 93.1767C425.043 92.8804 425.452 92.7594 425.913 92.8136C426.374 92.8679 426.744 93.0805 427.022 93.4516C427.303 93.8068 427.417 94.2069 427.364 94.6518C427.312 95.0968 427.099 95.4664 426.726 95.7609ZM422.626 109.657L424.029 97.7391L426.603 98.0421L425.2 109.96L422.626 109.657ZM435.897 98.8217C437.263 98.9825 438.316 99.5494 439.056 100.523C439.795 101.496 440.075 102.745 439.895 104.27L439.034 111.588L436.46 111.285L437.29 104.23C437.395 103.34 437.237 102.628 436.817 102.096C436.396 101.563 435.772 101.248 434.946 101.151C434.04 101.044 433.276 101.244 432.652 101.751C432.031 102.241 431.652 103.067 431.515 104.227L430.763 110.615L428.189 110.312L429.592 98.3938L432.166 98.6968L431.986 100.222C432.909 99.0903 434.213 98.6234 435.897 98.8217ZM445.906 98.018C445.551 98.2984 445.151 98.4124 444.706 98.3601C444.261 98.3077 443.891 98.103 443.594 97.7459C443.316 97.3748 443.203 96.9668 443.255 96.5219C443.307 96.077 443.511 95.7143 443.866 95.4339C444.223 95.1376 444.632 95.0165 445.093 95.0708C445.554 95.125 445.924 95.3377 446.202 95.7088C446.483 96.064 446.597 96.464 446.544 96.909C446.492 97.3539 446.279 97.7236 445.906 98.018ZM441.806 111.914L443.209 99.9963L445.783 100.299L444.38 112.217L441.806 111.914ZM456.656 104.914C456.609 105.311 456.786 105.654 457.187 105.943C457.606 106.218 458.115 106.479 458.714 106.727C459.331 106.96 459.944 107.226 460.553 107.523C461.163 107.82 461.65 108.264 462.016 108.855C462.399 109.432 462.543 110.125 462.448 110.936C462.313 112.08 461.762 112.925 460.796 113.472C459.845 114.021 458.702 114.217 457.368 114.059C456.192 113.921 455.212 113.556 454.427 112.964C453.643 112.373 453.112 111.617 452.833 110.698L455.202 109.672C455.48 110.865 456.295 111.541 457.645 111.7C458.996 111.859 459.724 111.493 459.828 110.603C459.873 110.222 459.687 109.886 459.27 109.595C458.869 109.306 458.36 109.045 457.744 108.811C457.144 108.564 456.54 108.291 455.931 107.994C455.321 107.697 454.824 107.268 454.439 106.707C454.072 106.132 453.935 105.447 454.028 104.653C454.157 103.556 454.674 102.723 455.579 102.153C456.5 101.585 457.58 101.373 458.819 101.519C459.804 101.635 460.652 101.96 461.363 102.495C462.091 103.016 462.616 103.69 462.937 104.517L460.625 105.477C460.318 104.523 459.625 103.982 458.544 103.855C458.052 103.797 457.625 103.86 457.266 104.043C456.908 104.21 456.704 104.5 456.656 104.914ZM469.601 115.499C467.853 115.293 466.438 114.515 465.357 113.163C464.276 111.811 463.839 110.254 464.046 108.49C464.254 106.726 465.04 105.312 466.406 104.249C467.772 103.185 469.329 102.756 471.076 102.962C472.84 103.169 474.255 103.948 475.321 105.298C476.402 106.649 476.839 108.207 476.631 109.971C476.424 111.735 475.637 113.148 474.271 114.212C472.922 115.278 471.365 115.707 469.601 115.499ZM467.376 111.612C468.007 112.412 468.847 112.873 469.896 112.996C470.944 113.12 471.868 112.866 472.668 112.235C473.467 111.604 473.93 110.748 474.057 109.668C474.184 108.587 473.932 107.648 473.301 106.848C472.671 106.049 471.831 105.588 470.782 105.464C469.733 105.341 468.809 105.595 468.01 106.226C467.211 106.857 466.748 107.712 466.62 108.793C466.493 109.873 466.745 110.813 467.376 111.612ZM485.786 107.52L482.83 107.172L482.157 112.893C482.099 113.385 482.168 113.756 482.365 114.005C482.563 114.237 482.874 114.395 483.3 114.477C483.743 114.545 484.292 114.602 484.947 114.647L484.675 116.959C482.677 116.965 481.282 116.632 480.491 115.959C479.702 115.27 479.4 114.147 479.583 112.59L480.256 106.869L478.063 106.611L478.355 104.132L480.548 104.39L480.851 101.816L483.515 101.356L483.122 104.693L486.078 105.041L485.786 107.52ZM491.11 103.338C490.755 103.618 490.355 103.732 489.91 103.68C489.465 103.627 489.094 103.423 488.798 103.066C488.519 102.694 488.406 102.286 488.459 101.841C488.511 101.397 488.715 101.034 489.07 100.753C489.427 100.457 489.836 100.336 490.297 100.39C490.758 100.445 491.127 100.657 491.406 101.028C491.686 101.384 491.8 101.784 491.748 102.229C491.696 102.674 491.483 103.043 491.11 103.338ZM487.01 117.234L488.412 105.316L490.987 105.619L489.584 117.537L487.01 117.234ZM500.757 106.455C502.394 106.647 503.721 107.416 504.739 108.76C505.757 110.104 506.162 111.658 505.955 113.422C505.749 115.17 504.994 116.587 503.69 117.674C502.388 118.745 500.919 119.185 499.282 118.992C497.471 118.779 496.16 117.94 495.349 116.475L495.147 118.191L492.573 117.888L494.537 101.203L497.111 101.506L496.351 107.966C497.477 106.745 498.946 106.241 500.757 106.455ZM496.599 115.1C497.229 115.899 498.085 116.362 499.166 116.489C500.246 116.616 501.186 116.365 501.985 115.734C502.786 115.087 503.252 114.215 503.381 113.119C503.51 112.022 503.259 111.074 502.628 110.275C501.999 109.46 501.144 108.989 500.063 108.862C498.983 108.735 498.042 108.995 497.241 109.641C496.442 110.272 495.978 111.136 495.849 112.232C495.719 113.329 495.969 114.285 496.599 115.1ZM519.134 121.328C517.386 121.123 515.972 120.344 514.89 118.992C513.809 117.641 513.372 116.083 513.579 114.319C513.787 112.555 514.574 111.141 515.939 110.078C517.305 109.014 518.862 108.585 520.61 108.791C522.373 108.998 523.788 109.777 524.854 111.127C525.935 112.478 526.372 114.036 526.165 115.8C525.957 117.564 525.17 118.978 523.805 120.041C522.455 121.107 520.898 121.536 519.134 121.328ZM516.909 117.442C517.54 118.241 518.38 118.702 519.429 118.825C520.478 118.949 521.401 118.695 522.201 118.064C523 117.433 523.463 116.578 523.59 115.497C523.717 114.417 523.466 113.477 522.835 112.677C522.204 111.878 521.364 111.417 520.315 111.293C519.266 111.17 518.342 111.424 517.543 112.055C516.744 112.686 516.281 113.541 516.154 114.622C516.026 115.702 516.278 116.642 516.909 117.442ZM527.791 122.033L529.839 104.633L532.413 104.936L530.365 122.336L527.791 122.033ZM537.454 108.791C537.099 109.072 536.699 109.186 536.254 109.134C535.809 109.081 535.439 108.876 535.142 108.519C534.864 108.148 534.751 107.74 534.803 107.295C534.855 106.85 535.059 106.488 535.414 106.207C535.771 105.911 536.18 105.79 536.641 105.844C537.102 105.898 537.472 106.111 537.75 106.482C538.031 106.837 538.145 107.237 538.092 107.682C538.04 108.127 537.827 108.497 537.454 108.791ZM533.354 122.687L534.757 110.77L537.331 111.073L535.928 122.99L533.354 122.687ZM542.175 114.978C542.128 115.375 542.305 115.718 542.706 116.007C543.125 116.282 543.634 116.543 544.233 116.791C544.85 117.024 545.463 117.29 546.073 117.587C546.682 117.884 547.17 118.328 547.535 118.919C547.918 119.496 548.062 120.189 547.967 121C547.832 122.144 547.282 122.989 546.315 123.536C545.364 124.085 544.222 124.281 542.887 124.123C541.711 123.985 540.731 123.62 539.947 123.028C539.162 122.437 538.631 121.681 538.353 120.762L540.721 119.736C540.999 120.929 541.814 121.605 543.165 121.764C544.515 121.923 545.243 121.557 545.348 120.667C545.393 120.286 545.207 119.95 544.79 119.659C544.389 119.37 543.88 119.109 543.263 118.875C542.664 118.628 542.059 118.355 541.45 118.058C540.84 117.761 540.343 117.332 539.958 116.771C539.591 116.196 539.454 115.511 539.547 114.717C539.676 113.62 540.193 112.787 541.098 112.217C542.019 111.649 543.099 111.437 544.338 111.583C545.324 111.699 546.171 112.024 546.882 112.559C547.61 113.08 548.135 113.754 548.456 114.581L546.144 115.541C545.838 114.587 545.144 114.046 544.064 113.919C543.571 113.861 543.145 113.924 542.785 114.107C542.427 114.274 542.224 114.564 542.175 114.978ZM557.402 113.121C558.769 113.281 559.822 113.848 560.561 114.821C561.3 115.794 561.58 117.044 561.401 118.569L560.54 125.887L557.965 125.584L558.796 118.528C558.9 117.639 558.742 116.927 558.322 116.394C557.901 115.862 557.278 115.547 556.451 115.449C555.546 115.343 554.781 115.543 554.158 116.049C553.536 116.54 553.157 117.365 553.02 118.525L552.269 124.913L549.694 124.61L551.658 107.926L554.232 108.228L553.492 114.521C554.414 113.389 555.718 112.922 557.402 113.121Z" fill="#00008C"/>
</svg>
