<svg width="760" height="343" viewBox="0 0 760 343" fill="none" xmlns="http://www.w3.org/2000/svg">
<rect y="239.254" width="764" height="109" rx="54.5" transform="rotate(-18.2498 0 239.254)" fill="#2424FF"/>
<path d="M73.2283 277.014C72.1589 279.135 70.4693 280.577 68.1597 281.338C65.85 282.1 63.6268 281.949 61.49 280.884C59.3633 279.8 57.9192 278.102 57.1576 275.793C56.396 273.483 56.5499 271.268 57.6193 269.146C58.6989 267.004 60.3935 265.552 62.7032 264.791C65.0128 264.029 67.231 264.191 69.3576 265.275C71.4944 266.34 72.9436 268.027 73.7052 270.336C74.4668 272.646 74.3078 274.872 73.2283 277.014ZM62.7499 278.498C64.1998 279.216 65.7224 279.312 67.3179 278.786C68.9134 278.259 70.0727 277.279 70.7958 275.844C71.5291 274.39 71.6252 272.842 71.084 271.201C70.5429 269.56 69.5474 268.38 68.0976 267.662C66.658 266.924 65.1404 266.817 63.5449 267.344C61.9494 267.87 60.7851 268.86 60.0518 270.315C59.3286 271.75 59.2377 273.287 59.7788 274.929C60.3199 276.57 61.3103 277.759 62.7499 278.498ZM74.7869 267.705L74.4282 261.253L76.4796 260.577L77.522 266.803L74.7869 267.705ZM86.5503 272.368L92.0889 270.542L92.8556 272.866L83.9664 275.798L83.4252 274.157L86.3086 264.967L81.203 266.651L80.4364 264.326L88.8697 261.545L89.4108 263.186L86.5503 272.368ZM97.7445 258.29C99.3096 257.774 100.837 257.911 102.327 258.7C103.817 259.489 104.84 260.727 105.397 262.413C105.948 264.085 105.862 265.688 105.138 267.224C104.41 268.745 103.263 269.763 101.698 270.279C99.9656 270.85 98.4231 270.643 97.0703 269.657L97.6114 271.298L95.1498 272.11L89.8887 256.155L92.3503 255.343L94.3871 261.52C94.8931 259.938 96.0123 258.861 97.7445 258.29ZM97.6225 267.883C98.5317 268.341 99.503 268.4 100.536 268.059C101.57 267.719 102.315 267.094 102.774 266.184C103.227 265.26 103.281 264.273 102.935 263.225C102.589 262.177 101.962 261.423 101.052 260.965C100.138 260.491 99.1645 260.425 98.1312 260.766C97.0979 261.106 96.3546 261.739 95.9013 262.663C95.443 263.573 95.3867 264.552 95.7325 265.6C96.0782 266.648 96.7082 267.409 97.6225 267.883ZM109.911 262.087C110.379 262.893 111.017 263.424 111.826 263.68C112.629 263.92 113.502 263.885 114.444 263.574C115.751 263.143 116.576 262.349 116.919 261.192L119.338 261.708C118.76 263.735 117.369 265.112 115.166 265.838C113.312 266.45 111.63 266.381 110.119 265.632C108.604 264.868 107.561 263.62 106.989 261.888C106.428 260.186 106.522 258.58 107.271 257.07C108.014 255.544 109.267 254.491 111.03 253.909C112.702 253.358 114.262 253.492 115.711 254.312C117.176 255.126 118.184 256.369 118.735 258.04C118.82 258.299 118.903 258.65 118.982 259.096L109.911 262.087ZM109.227 260.089L115.928 257.879C115.455 257.008 114.837 256.436 114.074 256.166C113.326 255.89 112.549 255.885 111.744 256.151C110.832 256.451 110.155 256.952 109.713 257.654C109.27 258.356 109.108 259.168 109.227 260.089ZM132.847 259.679L129.907 260.649L123.498 256.925L125.234 262.19L122.773 263.001L117.512 247.046L119.973 246.235L123.137 255.83L125.898 249.335L128.907 248.343L125.734 255.581L132.847 259.679ZM132.356 244.805C132.152 245.209 131.838 245.481 131.412 245.622C130.987 245.762 130.564 245.733 130.145 245.534C129.736 245.315 129.461 244.993 129.321 244.568C129.181 244.142 129.212 243.727 129.416 243.323C129.615 242.904 129.934 242.622 130.375 242.476C130.816 242.331 131.241 242.368 131.65 242.587C132.054 242.79 132.326 243.105 132.466 243.53C132.607 243.956 132.57 244.381 132.356 244.805ZM134.503 259.133L130.745 247.737L133.207 246.925L136.965 258.322L134.503 259.133ZM139.246 248.421C139.371 248.801 139.677 249.037 140.162 249.13C140.658 249.202 141.23 249.224 141.877 249.196C142.535 249.148 143.203 249.13 143.881 249.142C144.559 249.154 145.188 249.351 145.769 249.732C146.36 250.094 146.783 250.662 147.038 251.437C147.399 252.531 147.257 253.529 146.611 254.433C145.981 255.332 145.028 255.991 143.751 256.412C142.627 256.783 141.584 256.866 140.624 256.66C139.663 256.455 138.862 255.994 138.222 255.279L139.936 253.349C140.692 254.313 141.716 254.582 143.007 254.156C144.299 253.73 144.804 253.091 144.524 252.241C144.403 251.876 144.093 251.65 143.592 251.562C143.107 251.469 142.535 251.447 141.877 251.496C141.23 251.524 140.567 251.532 139.889 251.52C139.211 251.507 138.579 251.328 137.993 250.982C137.418 250.616 137.005 250.053 136.754 249.293C136.408 248.245 136.525 247.271 137.105 246.373C137.7 245.469 138.59 244.822 139.775 244.431C140.717 244.12 141.623 244.057 142.493 244.242C143.373 244.407 144.133 244.797 144.773 245.411L143.083 247.257C142.402 246.521 141.545 246.324 140.512 246.664C140.041 246.82 139.681 247.056 139.432 247.374C139.178 247.677 139.116 248.026 139.246 248.421ZM153.2 242.961L150.374 243.893L152.177 249.363C152.333 249.834 152.552 250.141 152.835 250.283C153.113 250.411 153.462 250.422 153.882 250.317C154.312 250.192 154.834 250.012 155.447 249.776L156.176 251.987C154.367 252.836 152.962 253.122 151.961 252.846C150.955 252.554 150.207 251.664 149.716 250.175L147.912 244.704L145.815 245.396L145.033 243.025L147.13 242.334L146.319 239.872L148.54 238.331L149.592 241.522L152.418 240.59L153.2 242.961ZM163.418 249.927C161.747 250.478 160.135 250.369 158.585 249.6C157.034 248.831 155.98 247.604 155.424 245.917C154.868 244.23 154.984 242.617 155.774 241.076C156.563 239.535 157.793 238.489 159.465 237.938C161.151 237.382 162.763 237.491 164.298 238.265C165.849 239.034 166.903 240.262 167.459 241.949C168.015 243.635 167.898 245.249 167.109 246.79C166.335 248.325 165.105 249.371 163.418 249.927ZM159.761 247.343C160.67 247.801 161.626 247.865 162.629 247.534C163.632 247.203 164.362 246.583 164.821 245.674C165.279 244.765 165.338 243.794 164.997 242.76C164.656 241.727 164.031 240.981 163.122 240.523C162.213 240.065 161.257 240.001 160.254 240.331C159.251 240.662 158.52 241.282 158.062 242.191C157.604 243.101 157.545 244.072 157.886 245.105C158.226 246.138 158.851 246.884 159.761 247.343ZM173.702 233.243C175.009 232.812 176.203 232.882 177.284 233.452C178.365 234.022 179.146 235.037 179.627 236.496L181.934 243.493L179.473 244.305L177.248 237.558C176.967 236.707 176.524 236.129 175.918 235.823C175.312 235.518 174.613 235.495 173.823 235.756C172.957 236.042 172.348 236.546 171.997 237.268C171.641 237.975 171.645 238.883 172.011 239.993L174.025 246.101L171.564 246.913L167.806 235.516L170.267 234.705L170.748 236.163C171.107 234.748 172.092 233.775 173.702 233.243ZM194.252 226.796L196.941 225.909L196.255 238.771L193.406 239.71L185.203 229.78L187.893 228.893L193.94 236.502L194.252 226.796ZM207.081 222.565L209.543 221.754L213.301 233.15L210.839 233.962L210.298 232.321C209.797 233.918 208.68 235.002 206.948 235.573C205.383 236.09 203.855 235.953 202.365 235.164C200.87 234.36 199.847 233.122 199.296 231.45C198.74 229.764 198.826 228.16 199.554 226.639C200.283 225.119 201.429 224.1 202.995 223.584C204.727 223.013 206.267 223.213 207.615 224.184L207.081 222.565ZM203.647 232.922C204.557 233.38 205.528 233.439 206.561 233.098C207.595 232.757 208.34 232.132 208.799 231.223C209.252 230.299 209.306 229.312 208.96 228.264C208.614 227.215 207.987 226.462 207.078 226.003C206.163 225.53 205.189 225.464 204.156 225.804C203.123 226.145 202.38 226.778 201.926 227.702C201.468 228.611 201.412 229.59 201.757 230.639C202.103 231.687 202.733 232.448 203.647 232.922ZM232.038 209.282L237.299 225.237L234.678 226.101L230.927 214.728L228.718 224.351L228.399 224.457L220.891 218.012L224.649 229.408L222.028 230.272L216.766 214.317L219.593 213.386L227.033 219.777L229.234 210.206L232.038 209.282ZM241.487 206.166C243.675 205.444 245.744 205.613 247.693 206.672C249.658 207.725 251.011 209.377 251.753 211.626C252.49 213.859 252.384 215.992 251.436 218.023C250.499 220.033 248.936 221.399 246.748 222.121L240.48 224.188L235.219 208.233L241.487 206.166ZM245.921 219.614C247.426 219.118 248.478 218.198 249.08 216.854C249.696 215.505 249.744 214.04 249.223 212.46C248.697 210.864 247.787 209.715 246.494 209.013C245.211 208.29 243.818 208.177 242.314 208.673L238.667 209.876L242.274 220.816L245.921 219.614ZM260.971 199.741L263.592 198.877L268.853 214.832L266.232 215.696L263.955 208.79L257.117 211.045L259.394 217.951L256.773 218.815L251.512 202.86L254.133 201.996L256.29 208.537L263.128 206.283L260.971 199.741ZM281.346 193.023L283.808 192.211L289.069 208.166L286.607 208.978L286.066 207.336C285.565 208.934 284.448 210.018 282.716 210.589C281.151 211.105 279.624 210.969 278.133 210.18C276.638 209.375 275.615 208.138 275.064 206.466C274.508 204.779 274.594 203.176 275.323 201.655C276.051 200.135 277.198 199.116 278.763 198.6C280.495 198.029 282.035 198.229 283.383 199.199L281.346 193.023ZM279.416 207.937C280.325 208.396 281.296 208.454 282.33 208.114C283.363 207.773 284.109 207.148 284.567 206.239C285.02 205.314 285.074 204.328 284.728 203.279C284.383 202.231 283.755 201.477 282.846 201.019C281.932 200.546 280.958 200.479 279.924 200.82C278.891 201.161 278.148 201.793 277.695 202.718C277.236 203.627 277.18 204.606 277.526 205.654C277.871 206.703 278.501 207.464 279.416 207.937ZM297.206 192.847L299.668 192.035L303.426 203.432L300.964 204.243L300.423 202.602C299.922 204.2 298.805 205.284 297.073 205.855C295.508 206.371 293.98 206.235 292.49 205.446C290.995 204.641 289.972 203.403 289.421 201.732C288.865 200.045 288.951 198.442 289.679 196.921C290.408 195.4 291.555 194.382 293.12 193.866C294.852 193.295 296.392 193.495 297.74 194.465L297.206 192.847ZM293.773 203.203C294.682 203.661 295.653 203.72 296.686 203.38C297.72 203.039 298.465 202.414 298.924 201.505C299.377 200.58 299.431 199.594 299.085 198.545C298.739 197.497 298.112 196.743 297.203 196.285C296.288 195.812 295.315 195.745 294.281 196.086C293.248 196.427 292.505 197.059 292.051 197.984C291.593 198.893 291.537 199.872 291.883 200.92C292.228 201.969 292.858 202.73 293.773 203.203ZM310.264 188.541L312.953 187.654L312.267 200.516L309.417 201.456L301.215 191.525L303.905 190.638L309.952 198.247L310.264 188.541ZM318.27 198.537L312.783 181.898L315.245 181.086L320.732 197.725L318.27 198.537ZM328.858 182.41L331.319 181.598L335.077 192.995L332.616 193.806L332.075 192.165C331.574 193.763 330.457 194.847 328.725 195.418C327.16 195.934 325.632 195.798 324.142 195.008C322.647 194.204 321.624 192.966 321.073 191.295C320.516 189.608 320.603 188.005 321.331 186.484C322.059 184.963 323.206 183.945 324.771 183.429C326.504 182.858 328.044 183.057 329.391 184.028L328.858 182.41ZM325.424 192.766C326.334 193.224 327.305 193.283 328.338 192.943C329.371 192.602 330.117 191.977 330.575 191.068C331.029 190.143 331.083 189.157 330.737 188.108C330.391 187.06 329.764 186.306 328.854 185.848C327.94 185.374 326.966 185.308 325.933 185.649C324.9 185.99 324.156 186.622 323.703 187.547C323.245 188.456 323.189 189.435 323.534 190.483C323.88 191.532 324.51 192.293 325.424 192.766ZM341.33 180.926L338.503 181.858L340.307 187.328C340.462 187.799 340.681 188.106 340.964 188.248C341.242 188.376 341.591 188.387 342.012 188.282C342.442 188.157 342.964 187.977 343.577 187.741L344.306 189.952C342.497 190.801 341.092 191.087 340.091 190.811C339.085 190.519 338.336 189.629 337.845 188.14L336.042 182.669L333.945 183.361L333.163 180.99L335.26 180.299L334.448 177.837L336.669 176.296L337.722 179.487L340.548 178.555L341.33 180.926ZM346.538 189.215L341.052 172.577L343.513 171.765L349 188.404L346.538 189.215ZM357.126 173.089L359.588 172.277L363.346 183.673L360.884 184.485L360.343 182.844C359.842 184.441 358.725 185.525 356.993 186.097C355.428 186.613 353.9 186.476 352.41 185.687C350.915 184.883 349.892 183.645 349.341 181.973C348.785 180.287 348.871 178.683 349.599 177.163C350.328 175.642 351.475 174.624 353.04 174.108C354.772 173.536 356.312 173.736 357.66 174.707L357.126 173.089ZM353.693 183.445C354.602 183.903 355.573 183.962 356.606 183.621C357.64 183.28 358.386 182.655 358.844 181.746C359.297 180.822 359.351 179.835 359.005 178.787C358.659 177.738 358.032 176.985 357.123 176.527C356.208 176.053 355.235 175.987 354.201 176.327C353.168 176.668 352.425 177.301 351.972 178.225C351.513 179.134 351.457 180.113 351.803 181.162C352.148 182.21 352.778 182.971 353.693 183.445ZM365.55 172.434C365.707 170.815 366.644 169.723 368.361 169.156L369.241 171.823C368.278 172.073 367.533 172.572 367.004 173.319C366.471 174.051 366.397 175.002 366.783 176.172L368.677 181.915L366.215 182.727L362.457 171.331L364.919 170.519L365.55 172.434ZM371.858 165.83C371.655 166.234 371.34 166.506 370.915 166.647C370.489 166.787 370.067 166.758 369.648 166.559C369.238 166.34 368.964 166.018 368.823 165.592C368.683 165.167 368.715 164.752 368.919 164.348C369.117 163.929 369.437 163.646 369.878 163.501C370.318 163.356 370.743 163.393 371.152 163.611C371.556 163.815 371.829 164.13 371.969 164.555C372.109 164.981 372.072 165.406 371.858 165.83ZM374.006 180.158L370.248 168.762L372.709 167.95L376.467 179.347L374.006 180.158ZM383.09 159.473L385.552 158.661L390.813 174.616L388.351 175.428L387.81 173.787C387.309 175.384 386.192 176.468 384.46 177.039C382.895 177.555 381.368 177.419 379.878 176.63C378.382 175.826 377.359 174.588 376.808 172.916C376.252 171.23 376.338 169.626 377.067 168.105C377.795 166.585 378.942 165.566 380.507 165.05C382.239 164.479 383.779 164.679 385.127 165.65L383.09 159.473ZM381.16 174.388C382.069 174.846 383.04 174.905 384.074 174.564C385.107 174.223 385.853 173.598 386.311 172.689C386.764 171.764 386.818 170.778 386.472 169.73C386.127 168.681 385.499 167.928 384.59 167.469C383.676 166.996 382.702 166.93 381.669 167.27C380.635 167.611 379.892 168.244 379.439 169.168C378.98 170.077 378.924 171.056 379.27 172.105C379.616 173.153 380.246 173.914 381.16 174.388ZM398.95 159.297L401.412 158.486L405.17 169.882L402.708 170.694L402.167 169.053C401.666 170.65 400.549 171.734 398.817 172.305C397.252 172.821 395.724 172.685 394.234 171.896C392.739 171.092 391.716 169.854 391.165 168.182C390.609 166.496 390.695 164.892 391.423 163.371C392.152 161.851 393.299 160.832 394.864 160.316C396.596 159.745 398.136 159.945 399.484 160.916L398.95 159.297ZM395.517 169.653C396.426 170.112 397.397 170.171 398.43 169.83C399.464 169.489 400.209 168.864 400.668 167.955C401.121 167.03 401.175 166.044 400.829 164.995C400.483 163.947 399.856 163.194 398.947 162.735C398.032 162.262 397.059 162.195 396.025 162.536C394.992 162.877 394.249 163.509 393.795 164.434C393.337 165.343 393.281 166.322 393.627 167.37C393.972 168.419 394.602 169.18 395.517 169.653ZM423.812 163.735L420.871 164.704L414.463 160.98L416.199 166.245L413.737 167.057L408.476 151.102L410.938 150.29L414.102 159.886L416.863 153.391L419.871 152.399L416.698 159.636L423.812 163.735ZM430.032 162.012C428.36 162.564 426.749 162.455 425.198 161.686C423.647 160.917 422.594 159.689 422.038 158.002C421.481 156.315 421.598 154.702 422.387 153.161C423.176 151.62 424.407 150.574 426.078 150.023C427.765 149.467 429.376 149.576 430.912 150.35C432.463 151.119 433.516 152.347 434.072 154.034C434.628 155.72 434.512 157.334 433.723 158.875C432.949 160.41 431.718 161.456 430.032 162.012ZM426.374 159.428C427.283 159.886 428.24 159.95 429.242 159.619C430.245 159.288 430.976 158.668 431.434 157.759C431.893 156.85 431.951 155.879 431.611 154.845C431.27 153.812 430.645 153.066 429.736 152.608C428.826 152.15 427.87 152.086 426.867 152.417C425.865 152.747 425.134 153.367 424.676 154.277C424.217 155.186 424.159 156.157 424.499 157.19C424.84 158.224 425.465 158.969 426.374 159.428ZM446.766 143.202C448.058 142.776 449.237 142.85 450.302 143.425C451.368 144.001 452.134 144.995 452.6 146.408L454.93 153.474L452.468 154.285L450.191 147.379C449.93 146.589 449.532 146.046 448.997 145.751C448.457 145.441 447.845 145.398 447.161 145.624C446.401 145.874 445.876 146.326 445.585 146.977C445.31 147.624 445.338 148.449 445.668 149.452L447.773 155.834L445.311 156.645L443.034 149.739C442.773 148.949 442.383 148.404 441.863 148.104C441.353 147.783 440.756 147.736 440.072 147.961C439.328 148.207 438.805 148.666 438.504 149.338C438.199 149.994 438.209 150.817 438.534 151.804L440.639 158.186L438.177 158.998L434.419 147.601L436.881 146.79L437.332 148.157C437.695 146.808 438.599 145.895 440.042 145.419C441.501 144.938 442.778 145.182 443.873 146.152C444.237 144.701 445.201 143.718 446.766 143.202ZM466.154 136.809C467.445 136.383 468.624 136.457 469.69 137.033C470.755 137.608 471.521 138.602 471.987 140.015L474.317 147.081L471.855 147.893L469.578 140.986C469.318 140.196 468.92 139.654 468.384 139.358C467.844 139.048 467.232 139.006 466.548 139.231C465.788 139.482 465.263 139.933 464.973 140.584C464.697 141.231 464.725 142.056 465.056 143.059L467.16 149.441L464.698 150.253L462.421 143.346C462.161 142.556 461.77 142.011 461.25 141.711C460.74 141.39 460.143 141.343 459.459 141.568C458.715 141.814 458.192 142.273 457.892 142.945C457.586 143.601 457.596 144.424 457.921 145.411L460.026 151.793L457.564 152.605L453.806 141.209L456.268 140.397L456.719 141.764C457.083 140.415 457.986 139.502 459.43 139.026C460.888 138.545 462.165 138.789 463.26 139.759C463.624 138.308 464.588 137.325 466.154 136.809ZM480.875 132.283L483.336 131.471L487.094 142.868L484.633 143.679L484.152 142.221C483.793 143.636 482.808 144.609 481.198 145.141C479.891 145.571 478.697 145.502 477.616 144.932C476.535 144.361 475.754 143.347 475.273 141.888L472.966 134.891L475.427 134.079L477.652 140.826C477.933 141.677 478.376 142.255 478.982 142.561C479.588 142.866 480.286 142.889 481.077 142.628C481.943 142.342 482.554 141.846 482.911 141.139C483.262 140.416 483.255 139.501 482.889 138.391L480.875 132.283ZM492.112 128.249C493.418 127.818 494.612 127.888 495.693 128.458C496.774 129.028 497.555 130.043 498.036 131.501L500.344 138.499L497.882 139.31L495.657 132.564C495.377 131.713 494.933 131.135 494.327 130.829C493.721 130.523 493.023 130.501 492.233 130.762C491.366 131.047 490.758 131.551 490.406 132.274C490.05 132.981 490.054 133.889 490.42 134.998L492.434 141.107L489.973 141.918L486.215 130.522L488.677 129.71L489.158 131.169C489.516 129.753 490.501 128.78 492.112 128.249ZM508.262 123.252L510.724 122.44L514.482 133.837L512.02 134.648L511.479 133.007C510.978 134.605 509.861 135.689 508.129 136.26C506.564 136.776 505.036 136.64 503.546 135.851C502.051 135.046 501.028 133.808 500.477 132.137C499.921 130.45 500.007 128.847 500.735 127.326C501.464 125.805 502.611 124.787 504.176 124.271C505.908 123.7 507.448 123.9 508.796 124.87L508.262 123.252ZM504.829 133.608C505.738 134.066 506.709 134.125 507.742 133.785C508.776 133.444 509.521 132.819 509.98 131.91C510.433 130.985 510.487 129.999 510.141 128.95C509.795 127.902 509.168 127.148 508.259 126.69C507.344 126.217 506.371 126.15 505.337 126.491C504.304 126.832 503.561 127.464 503.107 128.389C502.649 129.298 502.593 130.277 502.939 131.325C503.284 132.374 503.914 133.135 504.829 133.608ZM517.351 132.891L511.864 116.252L514.326 115.44L519.813 132.079L517.351 132.891ZM531.752 118.135L528.926 119.067L530.729 124.537C530.885 125.008 531.104 125.315 531.387 125.457C531.665 125.585 532.014 125.596 532.434 125.491C532.864 125.366 533.386 125.185 533.999 124.95L534.728 127.161C532.919 128.01 531.514 128.296 530.513 128.02C529.507 127.728 528.759 126.838 528.268 125.349L526.464 119.878L524.367 120.57L523.585 118.199L525.682 117.508L524.871 115.046L527.092 113.505L528.144 116.696L530.97 115.764L531.752 118.135ZM541.97 125.101C540.299 125.652 538.687 125.543 537.137 124.774C535.586 124.005 534.532 122.777 533.976 121.091C533.42 119.404 533.536 117.79 534.326 116.25C535.115 114.709 536.345 113.663 538.017 113.112C539.703 112.556 541.315 112.665 542.85 113.439C544.401 114.208 545.455 115.436 546.011 117.122C546.567 118.809 546.45 120.423 545.661 121.963C544.887 123.499 543.657 124.545 541.97 125.101ZM538.313 122.516C539.222 122.975 540.178 123.038 541.181 122.708C542.184 122.377 542.914 121.757 543.373 120.848C543.831 119.939 543.89 118.967 543.549 117.934C543.208 116.901 542.583 116.155 541.674 115.697C540.765 115.238 539.809 115.175 538.806 115.505C537.803 115.836 537.072 116.456 536.614 117.365C536.156 118.274 536.097 119.246 536.438 120.279C536.778 121.312 537.403 122.058 538.313 122.516ZM544.955 112.669L544.597 106.217L546.648 105.54L547.69 111.767L544.955 112.669ZM554.545 120.626L549.058 103.987L551.52 103.175L557.007 119.814L554.545 120.626ZM565.342 117.394C563.67 117.945 562.059 117.837 560.508 117.068C558.957 116.299 557.904 115.071 557.348 113.384C556.791 111.697 556.908 110.084 557.697 108.543C558.486 107.002 559.717 105.956 561.388 105.405C563.075 104.849 564.686 104.958 566.222 105.732C567.773 106.501 568.826 107.729 569.382 109.416C569.938 111.102 569.822 112.716 569.033 114.257C568.259 115.792 567.028 116.838 565.342 117.394ZM561.684 114.81C562.594 115.268 563.55 115.332 564.552 115.001C565.555 114.67 566.286 114.05 566.744 113.141C567.203 112.232 567.261 111.261 566.921 110.227C566.58 109.194 565.955 108.448 565.046 107.99C564.136 107.532 563.18 107.468 562.177 107.799C561.175 108.129 560.444 108.749 559.986 109.659C559.527 110.568 559.469 111.539 559.809 112.572C560.15 113.606 560.775 114.351 561.684 114.81ZM577.011 100.582L579.7 99.6955L579.014 112.558L576.165 113.497L567.962 103.566L570.652 102.679L576.699 110.288L577.011 100.582ZM585.017 110.578L579.53 93.9392L581.992 93.1275L587.479 109.766L585.017 110.578ZM595.605 94.451L598.067 93.6393L601.824 105.036L599.363 105.847L598.822 104.206C598.321 105.804 597.204 106.888 595.472 107.459C593.907 107.975 592.379 107.839 590.889 107.05C589.394 106.245 588.371 105.007 587.82 103.336C587.264 101.649 587.35 100.046 588.078 98.5251C588.807 97.0044 589.953 95.9861 591.518 95.47C593.251 94.8988 594.791 95.0986 596.139 96.0693L595.605 94.451ZM592.171 104.807C593.081 105.266 594.052 105.324 595.085 104.984C596.118 104.643 596.864 104.018 597.322 103.109C597.776 102.184 597.83 101.198 597.484 100.149C597.138 99.1008 596.511 98.3474 595.601 97.8891C594.687 97.4156 593.713 97.3492 592.68 97.6899C591.647 98.0306 590.903 98.6632 590.45 99.5877C589.992 100.497 589.936 101.476 590.281 102.524C590.627 103.573 591.257 104.334 592.171 104.807ZM604.029 93.7961C604.186 92.1775 605.123 91.0851 606.84 90.5189L607.719 93.1857C606.757 93.4356 606.012 93.9341 605.483 94.6812C604.949 95.4131 604.875 96.3641 605.261 97.5341L607.155 103.278L604.694 104.09L600.936 92.6932L603.397 91.8815L604.029 93.7961ZM614.623 87.8514C615.93 87.4204 617.124 87.4901 618.205 88.0603C619.286 88.6304 620.067 89.6449 620.548 91.1036L622.855 98.101L620.393 98.9127L618.169 92.1661C617.888 91.3151 617.445 90.7369 616.838 90.4314C616.232 90.1258 615.534 90.1033 614.744 90.3639C613.878 90.6495 613.269 91.1535 612.918 91.8759C612.561 92.5831 612.566 93.4913 612.932 94.6005L614.946 100.709L612.484 101.521L608.726 90.1243L611.188 89.3126L611.669 90.7714C612.028 89.3558 613.012 88.3825 614.623 87.8514ZM623.358 82.8987C623.155 83.3028 622.84 83.575 622.415 83.7153C621.989 83.8556 621.567 83.8264 621.147 83.6277C620.738 83.4088 620.464 83.0866 620.323 82.6612C620.183 82.2357 620.215 81.8209 620.418 81.4168C620.617 80.9975 620.937 80.7152 621.377 80.5699C621.818 80.4246 622.243 80.4614 622.652 80.6803C623.056 80.8839 623.328 81.1985 623.469 81.624C623.609 82.0495 623.572 82.4743 623.358 82.8987ZM625.505 97.227L621.748 85.8306L624.209 85.0189L627.967 96.4153L625.505 97.227ZM639.906 82.471L637.08 83.4029L638.884 88.8732C639.039 89.3443 639.258 89.6511 639.541 89.7937C639.819 89.9211 640.168 89.9323 640.588 89.8274C641.019 89.7023 641.541 89.5219 642.154 89.286L642.883 91.4969C641.074 92.3462 639.669 92.6326 638.668 92.3561C637.662 92.0645 636.913 91.1741 636.422 89.6849L634.618 84.2147L632.521 84.9061L631.74 82.5357L633.837 81.8442L633.025 79.3826L635.246 77.8415L636.298 81.0325L639.125 80.1005L639.906 82.471ZM650.125 89.4374C648.453 89.9886 646.842 89.8797 645.291 89.1106C643.74 88.3416 642.687 87.1138 642.131 85.4271C641.574 83.7404 641.691 82.1268 642.48 80.5861C643.269 79.0455 644.5 77.9996 646.171 77.4484C647.858 76.8922 649.469 77.0012 651.005 77.7752C652.556 78.5442 653.609 79.7721 654.165 81.4587C654.721 83.1454 654.605 84.7591 653.816 86.2997C653.042 87.8354 651.811 88.8813 650.125 89.4374ZM646.467 86.8528C647.377 87.3111 648.333 87.3749 649.335 87.0442C650.338 86.7135 651.069 86.0935 651.527 85.1843C651.986 84.275 652.044 83.3037 651.704 82.2705C651.363 81.2372 650.738 80.4914 649.829 80.0331C648.919 79.5748 647.963 79.511 646.96 79.8417C645.958 80.1724 645.227 80.7923 644.769 81.7016C644.31 82.6109 644.252 83.5821 644.592 84.6154C644.933 85.6487 645.558 86.3945 646.467 86.8528ZM653.11 77.0053L652.751 70.553L654.803 69.8766L655.845 76.1034L653.11 77.0053ZM662.7 84.9624L657.213 68.3236L659.675 67.5119L665.161 84.1507L662.7 84.9624ZM673.287 68.8355L675.749 68.0238L679.507 79.4202L677.045 80.2319L676.504 78.5908C676.003 80.1881 674.887 81.2723 673.154 81.8435C671.589 82.3596 670.062 82.2231 668.572 81.434C667.076 80.6298 666.053 79.3919 665.502 77.7204C664.946 76.0338 665.032 74.4301 665.761 72.9095C666.489 71.3889 667.636 70.3706 669.201 69.8545C670.933 69.2833 672.473 69.483 673.821 70.4538L673.287 68.8355ZM669.854 79.1917C670.763 79.65 671.734 79.7088 672.768 79.3681C673.801 79.0273 674.547 78.4024 675.005 77.4931C675.458 76.5686 675.512 75.5822 675.166 74.5337C674.821 73.4852 674.193 72.7319 673.284 72.2735C672.37 71.8 671.396 71.7336 670.363 72.0744C669.329 72.4151 668.586 73.0477 668.133 73.9721C667.674 74.8814 667.618 75.8602 667.964 76.9087C668.31 77.9572 668.94 78.7182 669.854 79.1917ZM681.8 69.5161C681.925 69.8959 682.23 70.1322 682.716 70.2249C683.211 70.2973 683.783 70.3194 684.431 70.2911C685.089 70.2426 685.756 70.2246 686.434 70.2369C687.112 70.2492 687.742 70.446 688.322 70.8274C688.913 71.1885 689.336 71.7566 689.592 72.5315C689.953 73.6256 689.81 74.6244 689.165 75.528C688.534 76.4266 687.581 77.0863 686.305 77.5072C685.18 77.878 684.138 77.9606 683.177 77.7551C682.216 77.5496 681.416 77.0892 680.776 76.3737L682.489 74.4439C683.245 75.4077 684.269 75.6766 685.561 75.2507C686.852 74.8248 687.358 74.1864 687.077 73.3355C686.957 72.9708 686.646 72.7446 686.146 72.657C685.66 72.5643 685.089 72.5423 684.431 72.5907C683.783 72.619 683.12 72.627 682.442 72.6147C681.764 72.6024 681.132 72.4232 680.547 72.0773C679.971 71.7111 679.558 71.1482 679.307 70.3884C678.962 69.3399 679.079 68.3663 679.658 67.4676C680.253 66.5638 681.143 65.9165 682.329 65.5257C683.271 65.215 684.177 65.1522 685.046 65.3372C685.926 65.5019 686.686 65.8914 687.327 66.5057L685.636 68.3521C684.955 67.6162 684.098 67.4187 683.065 67.7594C682.594 67.9147 682.234 68.1514 681.985 68.4693C681.731 68.7721 681.669 69.121 681.8 69.5161ZM694.821 61.4064C696.128 60.9755 697.321 61.0452 698.402 61.6153C699.483 62.1855 700.264 63.2 700.745 64.6587L703.053 71.6561L700.591 72.4678L698.366 65.7211C698.086 64.8702 697.642 64.292 697.036 63.9864C696.43 63.6809 695.732 63.6584 694.942 63.9189C694.076 64.2045 693.467 64.7085 693.115 65.4309C692.759 66.1381 692.763 67.0464 693.129 68.1556L695.144 74.2641L692.682 75.0758L687.421 59.1208L689.882 58.3091L691.867 64.3264C692.225 62.9109 693.21 61.9375 694.821 61.4064Z" fill="white"/>
</svg>
