<svg width="424" height="203" viewBox="0 0 424 203" fill="none" xmlns="http://www.w3.org/2000/svg">
<rect x="25.4844" y="0.621094" width="409" height="109" rx="54.5" transform="rotate(13.5 25.4844 0.621094)" fill="#009EFF"/>
<path d="M64.0571 55.3375C66.2974 55.8753 67.968 57.1074 69.0687 59.0336C70.185 60.9635 70.4668 63.0797 69.914 65.3823C69.3649 67.6693 68.1531 69.427 66.2786 70.6553C64.4233 71.8718 62.3755 72.2112 60.1352 71.6733L53.7176 70.1326L57.6394 53.7967L64.0571 55.3375ZM60.7515 69.1062C62.2917 69.476 63.6711 69.2477 64.8897 68.4214C66.1239 67.5987 66.9351 66.3784 67.3236 64.7604C67.7158 63.1268 67.5469 61.6712 66.817 60.3935C66.1064 59.104 64.981 58.2743 63.4408 57.9045L59.7069 57.0081L57.0176 68.2098L60.7515 69.1062ZM82.2792 64.6486L84.7996 65.2537L81.9982 76.9221L79.4778 76.3171L79.8812 74.6368C78.6147 75.7314 77.0946 76.0658 75.321 75.64C73.7186 75.2552 72.4914 74.3354 71.6395 72.8803C70.7914 71.4097 70.5728 69.8187 70.9837 68.1073C71.3983 66.3804 72.3154 65.062 73.735 64.1523C75.1546 63.2426 76.6656 62.98 78.268 63.3648C80.0417 63.7906 81.2461 64.7708 81.8814 66.3055L82.2792 64.6486ZM73.9099 71.6482C74.4419 72.5164 75.2369 73.0775 76.2948 73.3315C77.3528 73.5855 78.3158 73.4465 79.184 72.9145C80.0559 72.3669 80.6208 71.5563 80.8785 70.4828C81.1362 69.4093 80.9991 68.4385 80.467 67.5703C79.9388 66.6866 79.1456 66.1177 78.0877 65.8637C77.0298 65.6097 76.0648 65.7565 75.1929 66.3041C74.3247 66.8361 73.7618 67.6389 73.504 68.7124C73.2463 69.7859 73.3816 70.7645 73.9099 71.6482ZM95.6485 67.8583L98.4022 68.5194L91.0502 79.0953L88.1331 78.395L86.3837 65.634L89.1375 66.2951L90.2756 75.9475L95.6485 67.8583ZM97.1969 80.571L101.287 63.5351L103.807 64.1402L99.7173 81.1761L97.1969 80.571ZM114.686 72.4289L117.207 73.034L114.405 84.7024L111.885 84.0973L112.288 82.4171C111.022 83.5117 109.502 83.8461 107.728 83.4203C106.126 83.0355 104.899 82.1156 104.047 80.6606C103.199 79.19 102.98 77.599 103.391 75.8876C103.806 74.1607 104.723 72.8423 106.142 71.9326C107.562 71.0229 109.073 70.7603 110.675 71.1451C112.449 71.5709 113.653 72.5511 114.289 74.0858L114.686 72.4289ZM106.317 79.4285C106.849 80.2967 107.644 80.8578 108.702 81.1118C109.76 81.3658 110.723 81.2268 111.591 80.6947C112.463 80.1472 113.028 79.3366 113.286 78.2631C113.543 77.1896 113.406 76.2188 112.874 75.3506C112.346 74.4669 111.553 73.898 110.495 73.644C109.437 73.39 108.472 73.5368 107.6 74.0844C106.732 74.6164 106.169 75.4192 105.911 76.4927C105.654 77.5662 105.789 78.5448 106.317 79.4285ZM126.073 77.7295L123.179 77.0347L121.834 82.6356C121.719 83.1179 121.743 83.4941 121.909 83.7642C122.078 84.0187 122.369 84.212 122.782 84.3439C123.214 84.4641 123.752 84.5852 124.398 84.7072L123.854 86.9709C121.869 86.7411 120.524 86.2453 119.818 85.4835C119.116 84.7062 118.948 83.5552 119.314 82.0305L120.659 76.4296L118.512 75.9142L119.094 73.4872L121.241 74.0026L121.846 71.4822L124.546 71.3405L123.762 74.6077L126.656 75.3024L126.073 77.7295ZM142.52 91.4521L139.603 90.7518L137.667 86.0664L133.792 89.3567L130.851 88.6508L136.679 83.7065L133.886 77.0383L136.803 77.7387L138.602 82.0702L142.171 79.0273L145.111 79.7332L139.59 84.4302L142.52 91.4521ZM149.926 78.5445C149.541 78.781 149.13 78.8469 148.694 78.7423C148.259 78.6377 147.915 78.3906 147.663 78.001C147.43 77.5996 147.366 77.1811 147.471 76.7455C147.575 76.3099 147.82 75.9738 148.206 75.7374C148.596 75.4854 149.016 75.4135 149.467 75.5218C149.919 75.6301 150.261 75.885 150.493 76.2864C150.73 76.6723 150.796 77.083 150.691 77.5187C150.586 77.9543 150.332 78.2962 149.926 78.5445ZM144.212 91.8585L147.014 80.19L149.534 80.7951L146.733 92.4636L144.212 91.8585ZM153.241 91.5085L158.912 92.87L158.341 95.2503L149.239 93.0653L149.643 91.385L156.93 85.0882L151.702 83.8332L152.274 81.4529L160.909 83.5259L160.505 85.2061L153.241 91.5085ZM176.306 86.9015C177.628 87.219 178.591 87.9027 179.195 88.9526C179.798 90.0025 179.926 91.2509 179.579 92.6978L177.842 99.9323L175.322 99.3272L177.019 92.2561C177.214 91.4471 177.161 90.7762 176.861 90.2435C176.565 89.6952 176.067 89.337 175.366 89.1689C174.589 88.9822 173.905 89.0895 173.315 89.4908C172.74 89.8959 172.33 90.6119 172.083 91.6387L170.514 98.173L167.994 97.5679L169.692 90.4968C169.886 89.6878 169.841 89.0188 169.556 88.4898C169.291 87.949 168.809 87.5946 168.109 87.4265C167.346 87.2435 166.661 87.3585 166.051 87.7717C165.446 88.1693 165.022 88.8738 164.779 89.885L163.21 96.4194L160.69 95.8143L163.491 84.1458L166.011 84.7509L165.675 86.1511C166.695 85.1947 167.943 84.8939 169.421 85.2487C170.915 85.6073 171.872 86.487 172.293 87.8879C173.366 86.8456 174.703 86.5168 176.306 86.9015ZM192.582 91.1301L195.103 91.7352L192.301 103.404L189.781 102.799L190.184 101.118C188.918 102.213 187.398 102.547 185.624 102.121C184.022 101.737 182.795 100.817 181.943 99.3617C181.095 97.8911 180.876 96.3001 181.287 94.5888C181.701 92.8618 182.619 91.5435 184.038 90.6338C185.458 89.724 186.969 89.4615 188.571 89.8462C190.345 90.272 191.549 91.2523 192.185 92.787L192.582 91.1301ZM184.213 98.1297C184.745 98.9979 185.54 99.559 186.598 99.813C187.656 100.067 188.619 99.9279 189.487 99.3959C190.359 98.8483 190.924 98.0378 191.182 96.9643C191.439 95.8908 191.302 94.92 190.77 94.0518C190.242 93.168 189.449 92.5992 188.391 92.3452C187.333 92.0912 186.368 92.238 185.496 92.7856C184.628 93.3176 184.065 94.1203 183.807 95.1938C183.55 96.2673 183.685 97.246 184.213 98.1297ZM203.969 96.4306L201.075 95.7359L199.73 101.337C199.615 101.819 199.639 102.195 199.805 102.465C199.974 102.72 200.265 102.913 200.678 103.045C201.11 103.165 201.648 103.286 202.294 103.408L201.75 105.672C199.765 105.442 198.419 104.946 197.714 104.185C197.012 103.407 196.844 102.256 197.21 100.732L198.555 95.1308L196.408 94.6154L196.99 92.1883L199.137 92.7038L199.742 90.1834L202.442 90.0417L201.658 93.3089L204.551 94.0036L203.969 96.4306ZM204.036 106.221L208.126 89.1849L210.646 89.79L206.556 106.826L204.036 106.221ZM221.526 98.0787L224.046 98.6838L221.245 110.352L218.724 109.747L219.128 108.067C217.861 109.161 216.341 109.496 214.567 109.07C212.965 108.685 211.738 107.765 210.886 106.31C210.038 104.84 209.819 103.249 210.23 101.537C210.645 99.8105 211.562 98.4921 212.981 97.5824C214.401 96.6727 215.912 96.4102 217.514 96.7949C219.288 97.2207 220.493 98.2009 221.128 99.7356L221.526 98.0787ZM213.156 105.078C213.688 105.947 214.483 106.508 215.541 106.762C216.599 107.016 217.562 106.877 218.43 106.345C219.302 105.797 219.867 104.986 220.125 103.913C220.383 102.839 220.245 101.869 219.713 101C219.185 100.117 218.392 99.5478 217.334 99.2938C216.276 99.0398 215.311 99.1866 214.439 99.7342C213.571 100.266 213.008 101.069 212.75 102.142C212.493 103.216 212.628 104.195 213.156 105.078ZM229.033 101.954C230.019 100.661 231.39 100.225 233.148 100.647L232.493 103.377C231.543 103.084 230.647 103.115 229.804 103.472C228.965 103.814 228.402 104.584 228.115 105.782L226.703 111.663L224.182 111.058L226.984 99.3891L229.504 99.9942L229.033 101.954ZM237.873 99.6585C237.487 99.895 237.076 99.9609 236.641 99.8564C236.205 99.7518 235.861 99.5047 235.609 99.1151C235.376 98.7137 235.312 98.2951 235.417 97.8595C235.521 97.4239 235.767 97.0879 236.153 96.8514C236.542 96.5994 236.963 96.5275 237.414 96.6359C237.865 96.7442 238.207 96.9991 238.44 97.4005C238.676 97.7863 238.742 98.1971 238.637 98.6327C238.533 99.0683 238.278 99.4103 237.873 99.6585ZM232.159 112.973L234.96 101.304L237.481 101.909L234.679 113.578L232.159 112.973ZM254.106 105.901L256.626 106.506L253.825 118.174L251.304 117.569L251.663 116.075C250.613 117.09 249.263 117.4 247.614 117.004C246.276 116.683 245.298 115.995 244.679 114.942C244.059 113.888 243.929 112.614 244.288 111.121L246.008 103.956L248.528 104.561L246.87 111.469C246.661 112.34 246.733 113.065 247.088 113.644C247.443 114.223 248.025 114.61 248.834 114.804C249.72 115.017 250.501 114.916 251.177 114.502C251.856 114.073 252.331 113.291 252.604 112.155L254.106 105.901ZM262.207 120.507C260.449 120.085 259.12 119.141 258.222 117.675C257.339 116.212 257.105 114.617 257.519 112.891C257.937 111.148 258.87 109.833 260.317 108.947C261.783 108.048 263.396 107.81 265.154 108.232C266.289 108.505 267.259 109.025 268.061 109.794C268.864 110.563 269.389 111.462 269.635 112.492L267.162 113.231C267.032 112.607 266.732 112.075 266.262 111.633C265.812 111.179 265.236 110.868 264.536 110.7C263.51 110.454 262.562 110.596 261.694 111.128C260.841 111.664 260.29 112.453 260.04 113.496C259.789 114.538 259.922 115.491 260.439 116.356C260.971 117.224 261.75 117.781 262.777 118.028C263.462 118.192 264.115 118.176 264.738 117.98C265.377 117.788 265.902 117.453 266.312 116.976L268.186 118.734C267.464 119.548 266.571 120.115 265.506 120.436C264.442 120.756 263.342 120.78 262.207 120.507ZM278.364 111.403C279.702 111.725 280.68 112.412 281.299 113.466C281.919 114.519 282.049 115.793 281.69 117.287L279.97 124.451L277.45 123.846L279.108 116.938C279.317 116.067 279.245 115.342 278.89 114.763C278.535 114.184 277.953 113.798 277.144 113.604C276.258 113.391 275.475 113.499 274.796 113.928C274.12 114.342 273.647 115.117 273.374 116.253L271.872 122.507L269.352 121.902L273.274 105.566L275.794 106.171L274.315 112.332C275.365 111.317 276.715 111.008 278.364 111.403ZM293.35 115.322L295.87 115.927L293.069 127.596L290.549 126.991L290.907 125.497C289.857 126.512 288.508 126.822 286.859 126.426C285.521 126.104 284.542 125.417 283.923 124.363C283.304 123.31 283.173 122.036 283.532 120.543L285.252 113.378L287.772 113.983L286.114 120.891C285.905 121.762 285.978 122.487 286.332 123.066C286.687 123.645 287.269 124.031 288.078 124.225C288.965 124.438 289.746 124.338 290.421 123.924C291.1 123.495 291.576 122.712 291.848 121.577L293.35 115.322ZM305.028 117.805C306.366 118.126 307.344 118.814 307.964 119.867C308.583 120.921 308.713 122.195 308.354 123.688L306.634 130.853L304.114 130.247L305.772 123.34C305.982 122.468 305.909 121.743 305.554 121.165C305.199 120.586 304.618 120.199 303.809 120.005C302.922 119.792 302.139 119.9 301.46 120.33C300.785 120.744 300.311 121.518 300.038 122.654L298.537 128.908L296.016 128.303L298.817 116.635L301.338 117.24L300.979 118.734C302.029 117.719 303.379 117.409 305.028 117.805ZM323.912 125.226L321.018 124.532L319.674 130.133C319.558 130.615 319.583 130.991 319.748 131.261C319.918 131.516 320.208 131.709 320.621 131.841C321.053 131.961 321.592 132.082 322.237 132.204L321.693 134.468C319.708 134.238 318.363 133.742 317.657 132.981C316.955 132.203 316.787 131.052 317.153 129.528L318.498 123.927L316.351 123.411L316.934 120.984L319.081 121.5L319.686 118.979L322.385 118.838L321.601 122.105L324.495 122.799L323.912 125.226ZM328.935 136.527C327.224 136.117 325.911 135.176 324.997 133.706C324.083 132.236 323.833 130.638 324.248 128.911C324.663 127.184 325.611 125.873 327.093 124.978C328.575 124.083 330.171 123.841 331.882 124.252C333.609 124.667 334.922 125.607 335.821 127.074C336.735 128.544 336.985 130.142 336.57 131.869C336.155 133.596 335.207 134.907 333.725 135.802C332.259 136.7 330.662 136.942 328.935 136.527ZM327.185 132.405C327.718 133.273 328.497 133.831 329.524 134.077C330.551 134.324 331.498 134.181 332.366 133.649C333.234 133.117 333.796 132.322 334.05 131.264C334.304 130.206 334.164 129.243 333.632 128.375C333.1 127.506 332.321 126.949 331.294 126.703C330.267 126.456 329.32 126.599 328.452 127.131C327.583 127.663 327.022 128.458 326.768 129.516C326.514 130.574 326.653 131.537 327.185 132.405ZM337.448 138.25L341.538 121.214L344.059 121.819L339.969 138.855L337.448 138.25ZM348.33 141.184C346.618 140.773 345.306 139.832 344.391 138.362C343.477 136.892 343.228 135.294 343.642 133.567C344.057 131.84 345.005 130.529 346.487 129.634C347.969 128.739 349.565 128.497 351.277 128.908C353.004 129.323 354.316 130.263 355.215 131.73C356.129 133.2 356.379 134.798 355.964 136.525C355.55 138.252 354.601 139.563 353.119 140.458C351.653 141.356 350.057 141.598 348.33 141.184ZM346.58 137.061C347.112 137.929 347.891 138.487 348.918 138.733C349.945 138.98 350.892 138.837 351.76 138.305C352.629 137.773 353.19 136.978 353.444 135.92C353.698 134.862 353.559 133.899 353.027 133.031C352.495 132.163 351.715 131.605 350.688 131.359C349.662 131.112 348.714 131.255 347.846 131.787C346.978 132.319 346.417 133.114 346.163 134.172C345.909 135.23 346.048 136.193 346.58 137.061ZM367.099 133.028L369.853 133.689L362.501 144.265L359.584 143.565L357.834 130.804L360.588 131.465L361.726 141.117L367.099 133.028Z" fill="white"/>
</svg>
