<svg width="72" height="42" viewBox="0 0 72 42" fill="none" xmlns="http://www.w3.org/2000/svg">
<rect width="72" height="42" rx="21" fill="#FAFAFF" fill-opacity="0.32"/>
<circle cx="21" cy="21" r="13" fill="white"/>
<mask id="mask0_1_223" style="mask-type:alpha" maskUnits="userSpaceOnUse" x="8" y="8" width="26" height="26">
<circle cx="21" cy="21" r="13" fill="white"/>
</mask>
<g mask="url(#mask0_1_223)">
<mask id="path-4-outside-1_1_223" maskUnits="userSpaceOnUse" x="5.04541" y="7.57739" width="32" height="11" fill="black">
<rect fill="white" x="5.04541" y="7.57739" width="32" height="11"/>
<path d="M5.04541 7.57739H36.9545V16.8842H5.04541V7.57739Z"/>
</mask>
<path d="M5.04541 7.57739H36.9545V16.8842H5.04541V7.57739Z" fill="#0099B5"/>
<path d="M36.9545 15.8842H5.04541V17.8842H36.9545V15.8842Z" fill="#FF0000" mask="url(#path-4-outside-1_1_223)"/>
<mask id="path-6-outside-2_1_223" maskUnits="userSpaceOnUse" x="5.21436" y="24.2312" width="32" height="11" fill="black">
<rect fill="white" x="5.21436" y="24.2312" width="32" height="11"/>
<path d="M5.21436 25.2312H36.7858V34.4592H5.21436V25.2312Z"/>
</mask>
<path d="M5.21436 25.2312H36.7858V34.4592H5.21436V25.2312Z" fill="#1EB53A"/>
<path d="M5.21436 26.2312H36.7858V24.2312H5.21436V26.2312Z" fill="#FF0000" mask="url(#path-6-outside-2_1_223)"/>
</g>
<path d="M51.6662 16.3182H53.2074V23.0149C53.2074 23.7275 53.04 24.3589 52.7053 24.9091C52.3705 25.456 51.8999 25.8868 51.2933 26.2017C50.6868 26.5133 49.9759 26.669 49.1605 26.669C48.3485 26.669 47.6392 26.5133 47.0327 26.2017C46.4261 25.8868 45.9555 25.456 45.6207 24.9091C45.286 24.3589 45.1186 23.7275 45.1186 23.0149V16.3182H46.6548V22.8906C46.6548 23.3513 46.7559 23.7607 46.9581 24.1186C47.1636 24.4766 47.4536 24.7583 47.8281 24.9638C48.2027 25.166 48.6468 25.267 49.1605 25.267C49.6776 25.267 50.1233 25.166 50.4979 24.9638C50.8757 24.7583 51.1641 24.4766 51.3629 24.1186C51.5651 23.7607 51.6662 23.3513 51.6662 22.8906V16.3182ZM55.1625 26.5V25.4808L59.2988 20.2259V20.1562H55.2967V18.8636H61.1532V19.9474L57.176 25.1378V25.2074H61.2924V26.5H55.1625Z" fill="white"/>
</svg>
