<svg width="1281" height="422" viewBox="0 0 1281 422" fill="none" xmlns="http://www.w3.org/2000/svg">
<rect width="1281" height="422" rx="30" fill="#0303CB"/>
<path d="M107.848 96.936L104.456 92.872C103.517 93.1067 102.557 93.224 101.576 93.224C99.4853 93.224 97.5653 92.7333 95.816 91.752C94.0667 90.7707 92.68 89.416 91.656 87.688C90.632 85.9387 90.12 83.9653 90.12 81.768C90.12 79.592 90.632 77.64 91.656 75.912C92.68 74.1627 94.0667 72.7973 95.816 71.816C97.5653 70.8347 99.4853 70.344 101.576 70.344C103.688 70.344 105.608 70.8347 107.336 71.816C109.085 72.7973 110.461 74.1627 111.464 75.912C112.488 77.64 113 79.592 113 81.768C113 83.752 112.573 85.5653 111.72 87.208C110.888 88.8293 109.747 90.152 108.296 91.176L113.416 96.936H107.848ZM94.728 81.768C94.728 83.2613 95.016 84.5733 95.592 85.704C96.168 86.8347 96.968 87.7093 97.992 88.328C99.0373 88.9253 100.232 89.224 101.576 89.224C102.92 89.224 104.104 88.9253 105.128 88.328C106.152 87.7093 106.952 86.8347 107.528 85.704C108.104 84.5733 108.392 83.2613 108.392 81.768C108.392 80.2747 108.104 78.9733 107.528 77.864C106.952 76.7333 106.152 75.8693 105.128 75.272C104.104 74.6747 102.92 74.376 101.576 74.376C100.232 74.376 99.0373 74.6747 97.992 75.272C96.968 75.8693 96.168 76.7333 95.592 77.864C95.016 78.9733 94.728 80.2747 94.728 81.768ZM124.268 93.288C122.561 93.288 121.025 92.9147 119.66 92.168C118.294 91.4 117.217 90.3227 116.428 88.936C115.66 87.5493 115.276 85.9493 115.276 84.136C115.276 82.3227 115.67 80.7227 116.46 79.336C117.27 77.9493 118.369 76.8827 119.756 76.136C121.142 75.368 122.689 74.984 124.396 74.984C126.102 74.984 127.649 75.368 129.036 76.136C130.422 76.8827 131.51 77.9493 132.3 79.336C133.11 80.7227 133.516 82.3227 133.516 84.136C133.516 85.9493 133.1 87.5493 132.267 88.936C131.457 90.3227 130.348 91.4 128.94 92.168C127.553 92.9147 125.996 93.288 124.268 93.288ZM124.268 89.384C125.078 89.384 125.836 89.192 126.54 88.808C127.265 88.4027 127.841 87.8053 128.268 87.016C128.694 86.2267 128.908 85.2667 128.908 84.136C128.908 82.4507 128.46 81.16 127.564 80.264C126.689 79.3467 125.612 78.888 124.332 78.888C123.052 78.888 121.974 79.3467 121.1 80.264C120.246 81.16 119.82 82.4507 119.82 84.136C119.82 85.8213 120.236 87.1227 121.068 88.04C121.921 88.936 122.988 89.384 124.268 89.384ZM141.282 69.32V93H136.802V69.32H141.282ZM150.188 69.32V93H145.708V69.32H150.188ZM153.462 84.072C153.462 82.28 153.814 80.6907 154.518 79.304C155.244 77.9173 156.214 76.8507 157.43 76.104C158.668 75.3573 160.044 74.984 161.558 74.984C162.881 74.984 164.033 75.2507 165.014 75.784C166.017 76.3173 166.817 76.9893 167.414 77.8V75.272H171.926V93H167.414V90.408C166.838 91.24 166.038 91.9333 165.014 92.488C164.012 93.0213 162.849 93.288 161.526 93.288C160.033 93.288 158.668 92.904 157.43 92.136C156.214 91.368 155.244 90.2907 154.518 88.904C153.814 87.496 153.462 85.8853 153.462 84.072ZM167.414 84.136C167.414 83.048 167.201 82.12 166.774 81.352C166.348 80.5627 165.772 79.9653 165.046 79.56C164.321 79.1333 163.542 78.92 162.71 78.92C161.878 78.92 161.11 79.1227 160.406 79.528C159.702 79.9333 159.126 80.5307 158.678 81.32C158.252 82.088 158.038 83.0053 158.038 84.072C158.038 85.1387 158.252 86.0773 158.678 86.888C159.126 87.6773 159.702 88.2853 160.406 88.712C161.132 89.1387 161.9 89.352 162.71 89.352C163.542 89.352 164.321 89.1493 165.046 88.744C165.772 88.3173 166.348 87.72 166.774 86.952C167.201 86.1627 167.414 85.224 167.414 84.136ZM180.782 77.864C181.358 77.0107 182.147 76.3173 183.15 75.784C184.174 75.2507 185.336 74.984 186.638 74.984C188.152 74.984 189.518 75.3573 190.734 76.104C191.971 76.8507 192.942 77.9173 193.646 79.304C194.371 80.6693 194.734 82.2587 194.734 84.072C194.734 85.8853 194.371 87.496 193.646 88.904C192.942 90.2907 191.971 91.368 190.734 92.136C189.518 92.904 188.152 93.288 186.638 93.288C185.315 93.288 184.152 93.032 183.15 92.52C182.168 91.9867 181.379 91.304 180.782 90.472V93H176.302V69.32H180.782V77.864ZM190.158 84.072C190.158 83.0053 189.934 82.088 189.486 81.32C189.059 80.5307 188.483 79.9333 187.758 79.528C187.054 79.1227 186.286 78.92 185.454 78.92C184.643 78.92 183.875 79.1333 183.15 79.56C182.446 79.9653 181.87 80.5627 181.422 81.352C180.995 82.1413 180.782 83.0693 180.782 84.136C180.782 85.2027 180.995 86.1307 181.422 86.92C181.87 87.7093 182.446 88.3173 183.15 88.744C183.875 89.1493 184.643 89.352 185.454 89.352C186.286 89.352 187.054 89.1387 187.758 88.712C188.483 88.2853 189.059 87.6773 189.486 86.888C189.934 86.0987 190.158 85.16 190.158 84.072ZM211.621 79.688V83.464H198.053V79.688H211.621ZM215.493 84.104C215.493 82.3333 215.856 80.7653 216.582 79.4C217.328 78.0133 218.331 76.936 219.59 76.168C220.848 75.4 222.235 75.016 223.75 75.016C225.008 75.016 226.118 75.2613 227.078 75.752C228.059 76.2213 228.848 76.8293 229.446 77.576V75.272H233.958V101.448H229.446V90.568C228.848 91.336 228.048 91.976 227.046 92.488C226.043 93 224.912 93.256 223.654 93.256C222.16 93.256 220.784 92.872 219.526 92.104C218.288 91.3147 217.307 90.2267 216.582 88.84C215.856 87.4533 215.493 85.8747 215.493 84.104ZM229.446 84.136C229.446 83.048 229.222 82.1093 228.774 81.32C228.326 80.5307 227.739 79.9333 227.014 79.528C226.31 79.1227 225.552 78.92 224.742 78.92C223.952 78.92 223.195 79.1227 222.47 79.528C221.766 79.9333 221.19 80.5307 220.742 81.32C220.294 82.088 220.07 83.016 220.07 84.104C220.07 85.192 220.294 86.1413 220.742 86.952C221.19 87.7413 221.766 88.3387 222.47 88.744C223.195 89.1493 223.952 89.352 224.742 89.352C225.552 89.352 226.31 89.1493 227.014 88.744C227.739 88.3387 228.326 87.7413 228.774 86.952C229.222 86.1627 229.446 85.224 229.446 84.136ZM255.069 75.272V93H250.557V90.76C249.981 91.528 249.224 92.136 248.285 92.584C247.368 93.0107 246.365 93.224 245.277 93.224C243.89 93.224 242.664 92.936 241.597 92.36C240.53 91.7627 239.688 90.8987 239.069 89.768C238.472 88.616 238.173 87.2507 238.173 85.672V75.272H242.653V85.032C242.653 86.44 243.005 87.528 243.709 88.296C244.413 89.0427 245.373 89.416 246.589 89.416C247.826 89.416 248.797 89.0427 249.501 88.296C250.205 87.528 250.557 86.44 250.557 85.032V75.272H255.069ZM266.881 88.872L271.361 75.272H276.129L269.569 93H264.129L257.601 75.272H262.401L266.881 88.872ZM286.038 88.872L290.518 75.272H295.286L288.726 93H283.286L276.758 75.272H281.558L286.038 88.872ZM296.65 84.072C296.65 82.28 297.002 80.6907 297.706 79.304C298.431 77.9173 299.402 76.8507 300.618 76.104C301.855 75.3573 303.231 74.984 304.746 74.984C306.068 74.984 307.22 75.2507 308.202 75.784C309.204 76.3173 310.004 76.9893 310.602 77.8V75.272H315.114V93H310.602V90.408C310.026 91.24 309.226 91.9333 308.202 92.488C307.199 93.0213 306.036 93.288 304.714 93.288C303.22 93.288 301.855 92.904 300.618 92.136C299.402 91.368 298.431 90.2907 297.706 88.904C297.002 87.496 296.65 85.8853 296.65 84.072ZM310.602 84.136C310.602 83.048 310.388 82.12 309.962 81.352C309.535 80.5627 308.959 79.9653 308.234 79.56C307.508 79.1333 306.73 78.92 305.898 78.92C305.066 78.92 304.298 79.1227 303.594 79.528C302.89 79.9333 302.314 80.5307 301.866 81.32C301.439 82.088 301.226 83.0053 301.226 84.072C301.226 85.1387 301.439 86.0773 301.866 86.888C302.314 87.6773 302.89 88.2853 303.594 88.712C304.319 89.1387 305.087 89.352 305.898 89.352C306.73 89.352 307.508 89.1493 308.234 88.744C308.959 88.3173 309.535 87.72 309.962 86.952C310.388 86.1627 310.602 85.224 310.602 84.136ZM324.705 78.952V87.528C324.705 88.1253 324.844 88.5627 325.121 88.84C325.42 89.096 325.911 89.224 326.593 89.224H328.673V93H325.857C322.081 93 320.193 91.1653 320.193 87.496V78.952H318.081V75.272H320.193V70.888H324.705V75.272H328.673V78.952H324.705ZM336.376 69.32V93H331.896V69.32H336.376ZM339.65 84.072C339.65 82.28 340.002 80.6907 340.706 79.304C341.431 77.9173 342.402 76.8507 343.618 76.104C344.855 75.3573 346.231 74.984 347.746 74.984C349.068 74.984 350.22 75.2507 351.202 75.784C352.204 76.3173 353.004 76.9893 353.602 77.8V75.272H358.114V93H353.602V90.408C353.026 91.24 352.226 91.9333 351.202 92.488C350.199 93.0213 349.036 93.288 347.714 93.288C346.22 93.288 344.855 92.904 343.618 92.136C342.402 91.368 341.431 90.2907 340.706 88.904C340.002 87.496 339.65 85.8853 339.65 84.072ZM353.602 84.136C353.602 83.048 353.388 82.12 352.962 81.352C352.535 80.5627 351.959 79.9653 351.234 79.56C350.508 79.1333 349.73 78.92 348.898 78.92C348.066 78.92 347.298 79.1227 346.594 79.528C345.89 79.9333 345.314 80.5307 344.866 81.32C344.439 82.088 344.226 83.0053 344.226 84.072C344.226 85.1387 344.439 86.0773 344.866 86.888C345.314 87.6773 345.89 88.2853 346.594 88.712C347.319 89.1387 348.087 89.352 348.898 89.352C349.73 89.352 350.508 89.1493 351.234 88.744C351.959 88.3173 352.535 87.72 352.962 86.952C353.388 86.1627 353.602 85.224 353.602 84.136ZM369.273 93.288C367.823 93.288 366.521 93.032 365.369 92.52C364.217 91.9867 363.3 91.272 362.617 90.376C361.956 89.48 361.593 88.488 361.529 87.4H366.041C366.127 88.0827 366.457 88.648 367.033 89.096C367.631 89.544 368.367 89.768 369.241 89.768C370.095 89.768 370.756 89.5973 371.225 89.256C371.716 88.9147 371.961 88.4773 371.961 87.944C371.961 87.368 371.663 86.9413 371.065 86.664C370.489 86.3653 369.561 86.0453 368.281 85.704C366.959 85.384 365.871 85.0533 365.017 84.712C364.185 84.3707 363.46 83.848 362.841 83.144C362.244 82.44 361.945 81.4907 361.945 80.296C361.945 79.3147 362.223 78.4187 362.777 77.608C363.353 76.7973 364.164 76.1573 365.209 75.688C366.276 75.2187 367.524 74.984 368.953 74.984C371.065 74.984 372.751 75.5173 374.009 76.584C375.268 77.6293 375.961 79.048 376.089 80.84H371.801C371.737 80.136 371.439 79.5813 370.905 79.176C370.393 78.7493 369.7 78.536 368.825 78.536C368.015 78.536 367.385 78.6853 366.937 78.984C366.511 79.2827 366.297 79.6987 366.297 80.232C366.297 80.8293 366.596 81.288 367.193 81.608C367.791 81.9067 368.719 82.216 369.977 82.536C371.257 82.856 372.313 83.1867 373.145 83.528C373.977 83.8693 374.692 84.4027 375.289 85.128C375.908 85.832 376.228 86.7707 376.249 87.944C376.249 88.968 375.961 89.8853 375.385 90.696C374.831 91.5067 374.02 92.1467 372.953 92.616C371.908 93.064 370.681 93.288 369.273 93.288ZM389.911 75.016C391.255 75.016 392.449 75.3147 393.495 75.912C394.54 76.488 395.351 77.352 395.927 78.504C396.524 79.6347 396.823 81 396.823 82.6V93H392.343V83.208C392.343 81.8 391.991 80.7227 391.287 79.976C390.583 79.208 389.623 78.824 388.407 78.824C387.169 78.824 386.188 79.208 385.463 79.976C384.759 80.7227 384.407 81.8 384.407 83.208V93H379.927V69.32H384.407V77.48C384.983 76.712 385.751 76.1147 386.711 75.688C387.671 75.24 388.737 75.016 389.911 75.016ZM409.604 87.944C411.652 86.2373 413.284 84.8187 414.5 83.688C415.716 82.536 416.729 81.3413 417.54 80.104C418.351 78.8667 418.756 77.6507 418.756 76.456C418.756 75.368 418.5 74.5147 417.988 73.896C417.476 73.2773 416.687 72.968 415.62 72.968C414.553 72.968 413.732 73.3307 413.156 74.056C412.58 74.76 412.281 75.7307 412.26 76.968H407.908C407.993 74.408 408.751 72.4667 410.18 71.144C411.631 69.8213 413.465 69.16 415.684 69.16C418.116 69.16 419.983 69.8107 421.284 71.112C422.585 72.392 423.236 74.088 423.236 76.2C423.236 77.864 422.788 79.4533 421.892 80.968C420.996 82.4827 419.972 83.8053 418.82 84.936C417.668 86.0453 416.164 87.3893 414.308 88.968H423.748V92.68H407.94V89.352L409.604 87.944ZM426.379 88.456V84.936L436.843 69.96H442.059V84.552H444.875V88.456H442.059V93H437.579V88.456H426.379ZM437.867 74.76L431.307 84.552H437.867V74.76ZM460.239 62.696L451.599 98.792H447.215L455.855 62.696H460.239ZM478.138 73.064L469.626 93H465.082L473.658 73.576H462.714V69.736H478.138V73.064Z" fill="white"/>
<path opacity="0.7" d="M99.132 120.1L94.916 127.189V132H93.335V127.172L89.136 120.1H90.904L94.134 125.676L97.364 120.1H99.132ZM105.862 130.929C104.99 131.79 103.93 132.221 102.683 132.221C101.437 132.221 100.377 131.79 99.5044 130.929C98.6431 130.068 98.2124 129.008 98.2124 127.75C98.2124 126.492 98.6431 125.432 99.5044 124.571C100.377 123.71 101.437 123.279 102.683 123.279C103.93 123.279 104.99 123.71 105.862 124.571C106.735 125.432 107.171 126.492 107.171 127.75C107.171 129.008 106.735 130.068 105.862 130.929ZM102.683 130.776C103.533 130.776 104.247 130.487 104.825 129.909C105.403 129.331 105.692 128.611 105.692 127.75C105.692 126.889 105.403 126.169 104.825 125.591C104.247 125.013 103.533 124.724 102.683 124.724C101.845 124.724 101.136 125.013 100.558 125.591C99.9804 126.169 99.6914 126.889 99.6914 127.75C99.6914 128.611 99.9804 129.331 100.558 129.909C101.136 130.487 101.845 130.776 102.683 130.776ZM114.78 123.5H116.259V132H114.78V130.776C114.179 131.739 113.261 132.221 112.026 132.221C111.029 132.221 110.23 131.909 109.629 131.286C109.028 130.651 108.728 129.796 108.728 128.719V123.5H110.207V128.634C110.207 129.325 110.394 129.864 110.768 130.249C111.142 130.623 111.658 130.81 112.315 130.81C113.052 130.81 113.647 130.583 114.1 130.13C114.553 129.665 114.78 128.957 114.78 128.005V123.5ZM124.036 125.795C124.036 126.124 124.2 126.39 124.529 126.594C124.857 126.787 125.254 126.945 125.719 127.07C126.183 127.183 126.648 127.319 127.113 127.478C127.577 127.625 127.974 127.886 128.303 128.26C128.631 128.623 128.796 129.093 128.796 129.671C128.796 130.442 128.495 131.059 127.895 131.524C127.305 131.989 126.546 132.221 125.617 132.221C124.789 132.221 124.081 132.04 123.492 131.677C122.902 131.314 122.483 130.833 122.234 130.232L123.509 129.501C123.645 129.909 123.9 130.232 124.274 130.47C124.648 130.708 125.095 130.827 125.617 130.827C126.104 130.827 126.506 130.736 126.824 130.555C127.141 130.362 127.3 130.068 127.3 129.671C127.3 129.342 127.135 129.082 126.807 128.889C126.478 128.685 126.081 128.526 125.617 128.413C125.152 128.288 124.687 128.147 124.223 127.988C123.758 127.829 123.361 127.569 123.033 127.206C122.704 126.843 122.54 126.379 122.54 125.812C122.54 125.075 122.823 124.469 123.39 123.993C123.968 123.517 124.687 123.279 125.549 123.279C126.24 123.279 126.852 123.438 127.385 123.755C127.929 124.061 128.337 124.492 128.609 125.047L127.368 125.744C127.062 125.019 126.455 124.656 125.549 124.656C125.129 124.656 124.772 124.758 124.478 124.962C124.183 125.155 124.036 125.432 124.036 125.795ZM134.697 123.279C135.694 123.279 136.493 123.596 137.094 124.231C137.694 124.854 137.995 125.704 137.995 126.781V132H136.516V126.866C136.516 126.175 136.329 125.642 135.955 125.268C135.581 124.883 135.065 124.69 134.408 124.69C133.671 124.69 133.076 124.922 132.623 125.387C132.169 125.84 131.943 126.543 131.943 127.495V132H130.464V120.1H131.943V124.724C132.543 123.761 133.461 123.279 134.697 123.279ZM147.234 130.929C146.361 131.79 145.301 132.221 144.055 132.221C142.808 132.221 141.748 131.79 140.876 130.929C140.014 130.068 139.584 129.008 139.584 127.75C139.584 126.492 140.014 125.432 140.876 124.571C141.748 123.71 142.808 123.279 144.055 123.279C145.301 123.279 146.361 123.71 147.234 124.571C148.106 125.432 148.542 126.492 148.542 127.75C148.542 129.008 148.106 130.068 147.234 130.929ZM144.055 130.776C144.905 130.776 145.619 130.487 146.197 129.909C146.775 129.331 147.064 128.611 147.064 127.75C147.064 126.889 146.775 126.169 146.197 125.591C145.619 125.013 144.905 124.724 144.055 124.724C143.216 124.724 142.508 125.013 141.93 125.591C141.352 126.169 141.062 126.889 141.062 127.75C141.062 128.611 141.352 129.331 141.93 129.909C142.508 130.487 143.216 130.776 144.055 130.776ZM156.151 123.5H157.63V132H156.151V130.776C155.55 131.739 154.632 132.221 153.397 132.221C152.4 132.221 151.601 131.909 151 131.286C150.399 130.651 150.099 129.796 150.099 128.719V123.5H151.578V128.634C151.578 129.325 151.765 129.864 152.139 130.249C152.513 130.623 153.029 130.81 153.686 130.81C154.423 130.81 155.018 130.583 155.471 130.13C155.924 129.665 156.151 128.957 156.151 128.005V123.5ZM159.882 132V119.59H161.361V132H159.882ZM170.655 120.1H172.134V132H170.655V130.538C169.918 131.66 168.847 132.221 167.442 132.221C166.252 132.221 165.238 131.79 164.399 130.929C163.56 130.056 163.141 128.997 163.141 127.75C163.141 126.503 163.56 125.449 164.399 124.588C165.238 123.715 166.252 123.279 167.442 123.279C168.847 123.279 169.918 123.84 170.655 124.962V120.1ZM167.629 130.793C168.49 130.793 169.21 130.504 169.788 129.926C170.366 129.337 170.655 128.611 170.655 127.75C170.655 126.889 170.366 126.169 169.788 125.591C169.21 125.002 168.49 124.707 167.629 124.707C166.779 124.707 166.065 125.002 165.487 125.591C164.909 126.169 164.62 126.889 164.62 127.75C164.62 128.611 164.909 129.337 165.487 129.926C166.065 130.504 166.779 130.793 167.629 130.793ZM178.608 123.279C179.605 123.279 180.404 123.596 181.005 124.231C181.606 124.854 181.906 125.704 181.906 126.781V132H180.427V126.866C180.427 126.175 180.24 125.642 179.866 125.268C179.492 124.883 178.976 124.69 178.319 124.69C177.582 124.69 176.987 124.922 176.534 125.387C176.081 125.84 175.854 126.543 175.854 127.495V132H174.375V123.5H175.854V124.724C176.455 123.761 177.373 123.279 178.608 123.279ZM183.188 123.67L182.984 120.1H184.463L184.259 123.67H183.188ZM191.201 124.928H188.94V129.535C188.94 129.954 189.019 130.255 189.178 130.436C189.348 130.606 189.603 130.697 189.943 130.708C190.283 130.708 190.702 130.697 191.201 130.674V132C189.909 132.17 188.963 132.068 188.362 131.694C187.761 131.309 187.461 130.589 187.461 129.535V124.928H185.778V123.5H187.461V121.562L188.94 121.12V123.5H191.201V124.928ZM201.621 121.307C200.125 121.182 199.377 121.828 199.377 123.245V123.5H201.621V124.928H199.377V132H197.898V124.928H196.538V123.5H197.898V123.245C197.898 122.1 198.215 121.233 198.85 120.644C199.496 120.055 200.42 119.8 201.621 119.879V121.307ZM209.456 130.929C208.583 131.79 207.524 132.221 206.277 132.221C205.03 132.221 203.971 131.79 203.098 130.929C202.237 130.068 201.806 129.008 201.806 127.75C201.806 126.492 202.237 125.432 203.098 124.571C203.971 123.71 205.03 123.279 206.277 123.279C207.524 123.279 208.583 123.71 209.456 124.571C210.329 125.432 210.765 126.492 210.765 127.75C210.765 129.008 210.329 130.068 209.456 130.929ZM206.277 130.776C207.127 130.776 207.841 130.487 208.419 129.909C208.997 129.331 209.286 128.611 209.286 127.75C209.286 126.889 208.997 126.169 208.419 125.591C207.841 125.013 207.127 124.724 206.277 124.724C205.438 124.724 204.73 125.013 204.152 125.591C203.574 126.169 203.285 126.889 203.285 127.75C203.285 128.611 203.574 129.331 204.152 129.909C204.73 130.487 205.438 130.776 206.277 130.776ZM216.504 132.221C215.223 132.221 214.158 131.796 213.308 130.946C212.458 130.085 212.033 129.019 212.033 127.75C212.033 126.481 212.458 125.421 213.308 124.571C214.158 123.71 215.223 123.279 216.504 123.279C217.342 123.279 218.096 123.483 218.765 123.891C219.433 124.288 219.932 124.826 220.261 125.506L219.02 126.22C218.804 125.767 218.47 125.404 218.017 125.132C217.575 124.86 217.07 124.724 216.504 124.724C215.654 124.724 214.94 125.013 214.362 125.591C213.795 126.169 213.512 126.889 213.512 127.75C213.512 128.6 213.795 129.314 214.362 129.892C214.94 130.47 215.654 130.759 216.504 130.759C217.07 130.759 217.58 130.629 218.034 130.368C218.487 130.096 218.833 129.733 219.071 129.28L220.329 130.011C219.966 130.68 219.445 131.218 218.765 131.626C218.085 132.023 217.331 132.221 216.504 132.221ZM227.671 123.5H229.15V132H227.671V130.776C227.07 131.739 226.152 132.221 224.917 132.221C223.919 132.221 223.12 131.909 222.52 131.286C221.919 130.651 221.619 129.796 221.619 128.719V123.5H223.098V128.634C223.098 129.325 223.285 129.864 223.659 130.249C224.033 130.623 224.548 130.81 225.206 130.81C225.942 130.81 226.537 130.583 226.991 130.13C227.444 129.665 227.671 128.957 227.671 128.005V123.5ZM232.66 125.795C232.66 126.124 232.824 126.39 233.153 126.594C233.481 126.787 233.878 126.945 234.343 127.07C234.807 127.183 235.272 127.319 235.737 127.478C236.201 127.625 236.598 127.886 236.927 128.26C237.255 128.623 237.42 129.093 237.42 129.671C237.42 130.442 237.119 131.059 236.519 131.524C235.929 131.989 235.17 132.221 234.241 132.221C233.413 132.221 232.705 132.04 232.116 131.677C231.526 131.314 231.107 130.833 230.858 130.232L232.133 129.501C232.269 129.909 232.524 130.232 232.898 130.47C233.272 130.708 233.719 130.827 234.241 130.827C234.728 130.827 235.13 130.736 235.448 130.555C235.765 130.362 235.924 130.068 235.924 129.671C235.924 129.342 235.759 129.082 235.431 128.889C235.102 128.685 234.705 128.526 234.241 128.413C233.776 128.288 233.311 128.147 232.847 127.988C232.382 127.829 231.985 127.569 231.657 127.206C231.328 126.843 231.164 126.379 231.164 125.812C231.164 125.075 231.447 124.469 232.014 123.993C232.592 123.517 233.311 123.279 234.173 123.279C234.864 123.279 235.476 123.438 236.009 123.755C236.553 124.061 236.961 124.492 237.233 125.047L235.992 125.744C235.686 125.019 235.079 124.656 234.173 124.656C233.753 124.656 233.396 124.758 233.102 124.962C232.807 125.155 232.66 125.432 232.66 125.795ZM250.595 130.929C249.722 131.79 248.662 132.221 247.416 132.221C246.169 132.221 245.109 131.79 244.237 130.929C243.375 130.068 242.945 129.008 242.945 127.75C242.945 126.492 243.375 125.432 244.237 124.571C245.109 123.71 246.169 123.279 247.416 123.279C248.662 123.279 249.722 123.71 250.595 124.571C251.467 125.432 251.904 126.492 251.904 127.75C251.904 129.008 251.467 130.068 250.595 130.929ZM247.416 130.776C248.266 130.776 248.98 130.487 249.558 129.909C250.136 129.331 250.425 128.611 250.425 127.75C250.425 126.889 250.136 126.169 249.558 125.591C248.98 125.013 248.266 124.724 247.416 124.724C246.577 124.724 245.869 125.013 245.291 125.591C244.713 126.169 244.424 126.889 244.424 127.75C244.424 128.611 244.713 129.331 245.291 129.909C245.869 130.487 246.577 130.776 247.416 130.776ZM257.88 123.279C258.878 123.279 259.677 123.596 260.277 124.231C260.878 124.854 261.178 125.704 261.178 126.781V132H259.699V126.866C259.699 126.175 259.512 125.642 259.138 125.268C258.764 124.883 258.249 124.69 257.591 124.69C256.855 124.69 256.26 124.922 255.806 125.387C255.353 125.84 255.126 126.543 255.126 127.495V132H253.647V123.5H255.126V124.724C255.727 123.761 256.645 123.279 257.88 123.279ZM277.506 123.5H279.053L276.418 132H274.905L272.916 125.71L270.927 132H269.414L266.779 123.5H268.326L270.196 129.96L272.202 123.5H273.63L275.636 129.977L277.506 123.5ZM284.808 123.279C285.805 123.279 286.604 123.596 287.205 124.231C287.806 124.854 288.106 125.704 288.106 126.781V132H286.627V126.866C286.627 126.175 286.44 125.642 286.066 125.268C285.692 124.883 285.176 124.69 284.519 124.69C283.782 124.69 283.187 124.922 282.734 125.387C282.281 125.84 282.054 126.543 282.054 127.495V132H280.575V120.1H282.054V124.724C282.655 123.761 283.573 123.279 284.808 123.279ZM295.921 123.5H297.502L294.034 132.527C293.672 133.49 293.162 134.221 292.504 134.72C291.858 135.23 291.11 135.457 290.26 135.4V134.023C291.303 134.102 292.068 133.524 292.555 132.289L292.708 131.966L289.002 123.5H290.583L293.473 130.164L295.921 123.5ZM308.92 123.5H310.501L307.033 132.527C306.671 133.49 306.161 134.221 305.503 134.72C304.857 135.23 304.109 135.457 303.259 135.4V134.023C304.302 134.102 305.067 133.524 305.554 132.289L305.707 131.966L302.001 123.5H303.582L306.472 130.164L308.92 123.5ZM318.578 130.929C317.706 131.79 316.646 132.221 315.399 132.221C314.153 132.221 313.093 131.79 312.22 130.929C311.359 130.068 310.928 129.008 310.928 127.75C310.928 126.492 311.359 125.432 312.22 124.571C313.093 123.71 314.153 123.279 315.399 123.279C316.646 123.279 317.706 123.71 318.578 124.571C319.451 125.432 319.887 126.492 319.887 127.75C319.887 129.008 319.451 130.068 318.578 130.929ZM315.399 130.776C316.249 130.776 316.963 130.487 317.541 129.909C318.119 129.331 318.408 128.611 318.408 127.75C318.408 126.889 318.119 126.169 317.541 125.591C316.963 125.013 316.249 124.724 315.399 124.724C314.561 124.724 313.852 125.013 313.274 125.591C312.696 126.169 312.407 126.889 312.407 127.75C312.407 128.611 312.696 129.331 313.274 129.909C313.852 130.487 314.561 130.776 315.399 130.776ZM327.496 123.5H328.975V132H327.496V130.776C326.895 131.739 325.977 132.221 324.742 132.221C323.744 132.221 322.945 131.909 322.345 131.286C321.744 130.651 321.444 129.796 321.444 128.719V123.5H322.923V128.634C322.923 129.325 323.11 129.864 323.484 130.249C323.858 130.623 324.373 130.81 325.031 130.81C325.767 130.81 326.362 130.583 326.816 130.13C327.269 129.665 327.496 128.957 327.496 128.005V123.5ZM339.471 132.221C338.191 132.221 337.125 131.796 336.275 130.946C335.425 130.085 335 129.019 335 127.75C335 126.481 335.425 125.421 336.275 124.571C337.125 123.71 338.191 123.279 339.471 123.279C340.31 123.279 341.064 123.483 341.732 123.891C342.401 124.288 342.9 124.826 343.228 125.506L341.987 126.22C341.772 125.767 341.438 125.404 340.984 125.132C340.542 124.86 340.038 124.724 339.471 124.724C338.621 124.724 337.907 125.013 337.329 125.591C336.763 126.169 336.479 126.889 336.479 127.75C336.479 128.6 336.763 129.314 337.329 129.892C337.907 130.47 338.621 130.759 339.471 130.759C340.038 130.759 340.548 130.629 341.001 130.368C341.455 130.096 341.8 129.733 342.038 129.28L343.296 130.011C342.934 130.68 342.412 131.218 341.732 131.626C341.052 132.023 340.299 132.221 339.471 132.221ZM351.679 123.5H353.158V132H351.679V130.538C350.942 131.66 349.871 132.221 348.466 132.221C347.276 132.221 346.261 131.79 345.423 130.929C344.584 130.056 344.165 128.997 344.165 127.75C344.165 126.503 344.584 125.449 345.423 124.588C346.261 123.715 347.276 123.279 348.466 123.279C349.871 123.279 350.942 123.84 351.679 124.962V123.5ZM348.653 130.793C349.514 130.793 350.234 130.504 350.812 129.926C351.39 129.337 351.679 128.611 351.679 127.75C351.679 126.889 351.39 126.169 350.812 125.591C350.234 125.002 349.514 124.707 348.653 124.707C347.803 124.707 347.089 125.002 346.511 125.591C345.933 126.169 345.644 126.889 345.644 127.75C345.644 128.611 345.933 129.337 346.511 129.926C347.089 130.504 347.803 130.793 348.653 130.793ZM359.631 123.279C360.629 123.279 361.428 123.596 362.028 124.231C362.629 124.854 362.929 125.704 362.929 126.781V132H361.45V126.866C361.45 126.175 361.263 125.642 360.889 125.268C360.515 124.883 360 124.69 359.342 124.69C358.606 124.69 358.011 124.922 357.557 125.387C357.104 125.84 356.877 126.543 356.877 127.495V132H355.398V123.5H356.877V124.724C357.478 123.761 358.396 123.279 359.631 123.279ZM369.618 124.928H367.357V129.535C367.357 129.954 367.436 130.255 367.595 130.436C367.765 130.606 368.02 130.697 368.36 130.708C368.7 130.708 369.119 130.697 369.618 130.674V132C368.326 132.17 367.38 132.068 366.779 131.694C366.178 131.309 365.878 130.589 365.878 129.535V124.928H364.195V123.5H365.878V121.562L367.357 121.12V123.5H369.618V124.928ZM382.707 120.1H384.186V132H382.707V130.538C381.97 131.66 380.899 132.221 379.494 132.221C378.304 132.221 377.29 131.79 376.451 130.929C375.612 130.056 375.193 128.997 375.193 127.75C375.193 126.503 375.612 125.449 376.451 124.588C377.29 123.715 378.304 123.279 379.494 123.279C380.899 123.279 381.97 123.84 382.707 124.962V120.1ZM379.681 130.793C380.542 130.793 381.262 130.504 381.84 129.926C382.418 129.337 382.707 128.611 382.707 127.75C382.707 126.889 382.418 126.169 381.84 125.591C381.262 125.002 380.542 124.707 379.681 124.707C378.831 124.707 378.117 125.002 377.539 125.591C376.961 126.169 376.672 126.889 376.672 127.75C376.672 128.611 376.961 129.337 377.539 129.926C378.117 130.504 378.831 130.793 379.681 130.793ZM393.601 130.929C392.728 131.79 391.668 132.221 390.422 132.221C389.175 132.221 388.115 131.79 387.243 130.929C386.381 130.068 385.951 129.008 385.951 127.75C385.951 126.492 386.381 125.432 387.243 124.571C388.115 123.71 389.175 123.279 390.422 123.279C391.668 123.279 392.728 123.71 393.601 124.571C394.473 125.432 394.91 126.492 394.91 127.75C394.91 129.008 394.473 130.068 393.601 130.929ZM390.422 130.776C391.272 130.776 391.986 130.487 392.564 129.909C393.142 129.331 393.431 128.611 393.431 127.75C393.431 126.889 393.142 126.169 392.564 125.591C391.986 125.013 391.272 124.724 390.422 124.724C389.583 124.724 388.875 125.013 388.297 125.591C387.719 126.169 387.43 126.889 387.43 127.75C387.43 128.611 387.719 129.331 388.297 129.909C388.875 130.487 389.583 130.776 390.422 130.776ZM402.178 125.795C402.178 126.124 402.343 126.39 402.671 126.594C403 126.787 403.397 126.945 403.861 127.07C404.326 127.183 404.791 127.319 405.255 127.478C405.72 127.625 406.117 127.886 406.445 128.26C406.774 128.623 406.938 129.093 406.938 129.671C406.938 130.442 406.638 131.059 406.037 131.524C405.448 131.989 404.689 132.221 403.759 132.221C402.932 132.221 402.224 132.04 401.634 131.677C401.045 131.314 400.626 130.833 400.376 130.232L401.651 129.501C401.787 129.909 402.042 130.232 402.416 130.47C402.79 130.708 403.238 130.827 403.759 130.827C404.247 130.827 404.649 130.736 404.966 130.555C405.284 130.362 405.442 130.068 405.442 129.671C405.442 129.342 405.278 129.082 404.949 128.889C404.621 128.685 404.224 128.526 403.759 128.413C403.295 128.288 402.83 128.147 402.365 127.988C401.901 127.829 401.504 127.569 401.175 127.206C400.847 126.843 400.682 126.379 400.682 125.812C400.682 125.075 400.966 124.469 401.532 123.993C402.11 123.517 402.83 123.279 403.691 123.279C404.383 123.279 404.995 123.438 405.527 123.755C406.071 124.061 406.479 124.492 406.751 125.047L405.51 125.744C405.204 125.019 404.598 124.656 403.691 124.656C403.272 124.656 402.915 124.758 402.62 124.962C402.326 125.155 402.178 125.432 402.178 125.795ZM415.631 130.929C414.758 131.79 413.699 132.221 412.452 132.221C411.205 132.221 410.146 131.79 409.273 130.929C408.412 130.068 407.981 129.008 407.981 127.75C407.981 126.492 408.412 125.432 409.273 124.571C410.146 123.71 411.205 123.279 412.452 123.279C413.699 123.279 414.758 123.71 415.631 124.571C416.504 125.432 416.94 126.492 416.94 127.75C416.94 129.008 416.504 130.068 415.631 130.929ZM412.452 130.776C413.302 130.776 414.016 130.487 414.594 129.909C415.172 129.331 415.461 128.611 415.461 127.75C415.461 126.889 415.172 126.169 414.594 125.591C414.016 125.013 413.302 124.724 412.452 124.724C411.613 124.724 410.905 125.013 410.327 125.591C409.749 126.169 409.46 126.889 409.46 127.75C409.46 128.611 409.749 129.331 410.327 129.909C410.905 130.487 411.613 130.776 412.452 130.776ZM427.864 123.279C428.816 123.279 429.586 123.591 430.176 124.214C430.765 124.826 431.06 125.659 431.06 126.713V132H429.581V126.764C429.581 126.107 429.411 125.597 429.071 125.234C428.731 124.871 428.277 124.69 427.711 124.69C427.076 124.69 426.566 124.905 426.181 125.336C425.807 125.755 425.62 126.401 425.62 127.274V132H424.141V126.764C424.141 126.107 423.976 125.597 423.648 125.234C423.33 124.871 422.894 124.69 422.339 124.69C421.715 124.69 421.194 124.905 420.775 125.336C420.367 125.767 420.163 126.413 420.163 127.274V132H418.684V123.5H420.163V124.639C420.741 123.732 421.585 123.279 422.696 123.279C423.84 123.279 424.673 123.761 425.195 124.724C425.784 123.761 426.674 123.279 427.864 123.279ZM434.147 128.43C434.295 129.189 434.64 129.779 435.184 130.198C435.74 130.617 436.42 130.827 437.224 130.827C438.346 130.827 439.162 130.413 439.672 129.586L440.93 130.3C440.103 131.581 438.856 132.221 437.19 132.221C435.842 132.221 434.742 131.802 433.892 130.963C433.054 130.113 432.634 129.042 432.634 127.75C432.634 126.469 433.048 125.404 433.875 124.554C434.703 123.704 435.774 123.279 437.088 123.279C438.335 123.279 439.349 123.721 440.131 124.605C440.925 125.478 441.321 126.532 441.321 127.767C441.321 127.982 441.304 128.203 441.27 128.43H434.147ZM437.088 124.673C436.295 124.673 435.638 124.9 435.116 125.353C434.595 125.795 434.272 126.39 434.147 127.138H439.825C439.701 126.333 439.383 125.721 438.873 125.302C438.363 124.883 437.768 124.673 437.088 124.673ZM447.396 124.928H445.135V129.535C445.135 129.954 445.215 130.255 445.373 130.436C445.543 130.606 445.798 130.697 446.138 130.708C446.478 130.708 446.898 130.697 447.396 130.674V132C446.104 132.17 445.158 132.068 444.557 131.694C443.957 131.309 443.656 130.589 443.656 129.535V124.928H441.973V123.5H443.656V121.562L445.135 121.12V123.5H447.396V124.928ZM453.38 123.279C454.378 123.279 455.177 123.596 455.777 124.231C456.378 124.854 456.678 125.704 456.678 126.781V132H455.199V126.866C455.199 126.175 455.012 125.642 454.638 125.268C454.264 124.883 453.749 124.69 453.091 124.69C452.355 124.69 451.76 124.922 451.306 125.387C450.853 125.84 450.626 126.543 450.626 127.495V132H449.147V120.1H450.626V124.724C451.227 123.761 452.145 123.279 453.38 123.279ZM459.491 121.953C459.208 121.953 458.97 121.857 458.777 121.664C458.584 121.471 458.488 121.239 458.488 120.967C458.488 120.695 458.584 120.463 458.777 120.27C458.97 120.066 459.208 119.964 459.491 119.964C459.763 119.964 459.995 120.066 460.188 120.27C460.381 120.463 460.477 120.695 460.477 120.967C460.477 121.239 460.381 121.471 460.188 121.664C459.995 121.857 459.763 121.953 459.491 121.953ZM458.743 132V123.5H460.222V132H458.743ZM466.711 123.279C467.709 123.279 468.508 123.596 469.108 124.231C469.709 124.854 470.009 125.704 470.009 126.781V132H468.53V126.866C468.53 126.175 468.343 125.642 467.969 125.268C467.595 124.883 467.08 124.69 466.422 124.69C465.686 124.69 465.091 124.922 464.637 125.387C464.184 125.84 463.957 126.543 463.957 127.495V132H462.478V123.5H463.957V124.724C464.558 123.761 465.476 123.279 466.711 123.279ZM479.129 123.5H480.591V131.643C480.591 132.901 480.166 133.876 479.316 134.567C478.466 135.27 477.446 135.621 476.256 135.621C475.304 135.621 474.482 135.44 473.791 135.077C473.1 134.726 472.578 134.216 472.227 133.547L473.519 132.816C473.984 133.768 474.907 134.244 476.29 134.244C477.174 134.244 477.865 134.012 478.364 133.547C478.874 133.082 479.129 132.448 479.129 131.643V130.436C478.381 131.569 477.316 132.136 475.933 132.136C474.72 132.136 473.695 131.705 472.856 130.844C472.017 129.983 471.598 128.934 471.598 127.699C471.598 126.464 472.017 125.421 472.856 124.571C473.695 123.71 474.72 123.279 475.933 123.279C477.327 123.279 478.392 123.84 479.129 124.962V123.5ZM473.944 129.858C474.522 130.436 475.242 130.725 476.103 130.725C476.964 130.725 477.684 130.436 478.262 129.858C478.84 129.28 479.129 128.56 479.129 127.699C479.129 126.849 478.84 126.135 478.262 125.557C477.684 124.979 476.964 124.69 476.103 124.69C475.242 124.69 474.522 124.979 473.944 125.557C473.366 126.135 473.077 126.849 473.077 127.699C473.077 128.56 473.366 129.28 473.944 129.858ZM485.042 130.249L483.937 134.38H482.662L483.342 130.249H485.042ZM501.395 123.5H502.942L500.307 132H498.794L496.805 125.71L494.816 132H493.303L490.668 123.5H492.215L494.085 129.96L496.091 123.5H497.519L499.525 129.977L501.395 123.5ZM508.697 123.279C509.694 123.279 510.493 123.596 511.094 124.231C511.694 124.854 511.995 125.704 511.995 126.781V132H510.516V126.866C510.516 126.175 510.329 125.642 509.955 125.268C509.581 124.883 509.065 124.69 508.408 124.69C507.671 124.69 507.076 124.922 506.623 125.387C506.169 125.84 505.943 126.543 505.943 127.495V132H504.464V120.1H505.943V124.724C506.543 123.761 507.461 123.279 508.697 123.279ZM514.808 121.953C514.524 121.953 514.286 121.857 514.094 121.664C513.901 121.471 513.805 121.239 513.805 120.967C513.805 120.695 513.901 120.463 514.094 120.27C514.286 120.066 514.524 119.964 514.808 119.964C515.08 119.964 515.312 120.066 515.505 120.27C515.697 120.463 515.794 120.695 515.794 120.967C515.794 121.239 515.697 121.471 515.505 121.664C515.312 121.857 515.08 121.953 514.808 121.953ZM514.059 132V123.5H515.539V132H514.059ZM521.79 132.221C520.509 132.221 519.444 131.796 518.594 130.946C517.744 130.085 517.319 129.019 517.319 127.75C517.319 126.481 517.744 125.421 518.594 124.571C519.444 123.71 520.509 123.279 521.79 123.279C522.629 123.279 523.382 123.483 524.051 123.891C524.72 124.288 525.218 124.826 525.547 125.506L524.306 126.22C524.091 125.767 523.756 125.404 523.303 125.132C522.861 124.86 522.357 124.724 521.79 124.724C520.94 124.724 520.226 125.013 519.648 125.591C519.081 126.169 518.798 126.889 518.798 127.75C518.798 128.6 519.081 129.314 519.648 129.892C520.226 130.47 520.94 130.759 521.79 130.759C522.357 130.759 522.867 130.629 523.32 130.368C523.773 130.096 524.119 129.733 524.357 129.28L525.615 130.011C525.252 130.68 524.731 131.218 524.051 131.626C523.371 132.023 522.617 132.221 521.79 132.221ZM531.308 123.279C532.305 123.279 533.104 123.596 533.705 124.231C534.306 124.854 534.606 125.704 534.606 126.781V132H533.127V126.866C533.127 126.175 532.94 125.642 532.566 125.268C532.192 124.883 531.676 124.69 531.019 124.69C530.282 124.69 529.687 124.922 529.234 125.387C528.781 125.84 528.554 126.543 528.554 127.495V132H527.075V120.1H528.554V124.724C529.155 123.761 530.073 123.279 531.308 123.279ZM541.669 121.953C541.385 121.953 541.147 121.857 540.955 121.664C540.762 121.471 540.666 121.239 540.666 120.967C540.666 120.695 540.762 120.463 540.955 120.27C541.147 120.066 541.385 119.964 541.669 119.964C541.941 119.964 542.173 120.066 542.366 120.27C542.558 120.463 542.655 120.695 542.655 120.967C542.655 121.239 542.558 121.471 542.366 121.664C542.173 121.857 541.941 121.953 541.669 121.953ZM540.921 132V123.5H542.4V132H540.921ZM545.915 125.795C545.915 126.124 546.079 126.39 546.408 126.594C546.736 126.787 547.133 126.945 547.598 127.07C548.062 127.183 548.527 127.319 548.992 127.478C549.456 127.625 549.853 127.886 550.182 128.26C550.51 128.623 550.675 129.093 550.675 129.671C550.675 130.442 550.374 131.059 549.774 131.524C549.184 131.989 548.425 132.221 547.496 132.221C546.668 132.221 545.96 132.04 545.371 131.677C544.781 131.314 544.362 130.833 544.113 130.232L545.388 129.501C545.524 129.909 545.779 130.232 546.153 130.47C546.527 130.708 546.974 130.827 547.496 130.827C547.983 130.827 548.385 130.736 548.703 130.555C549.02 130.362 549.179 130.068 549.179 129.671C549.179 129.342 549.014 129.082 548.686 128.889C548.357 128.685 547.96 128.526 547.496 128.413C547.031 128.288 546.566 128.147 546.102 127.988C545.637 127.829 545.24 127.569 544.912 127.206C544.583 126.843 544.419 126.379 544.419 125.812C544.419 125.075 544.702 124.469 545.269 123.993C545.847 123.517 546.566 123.279 547.428 123.279C548.119 123.279 548.731 123.438 549.264 123.755C549.808 124.061 550.216 124.492 550.488 125.047L549.247 125.744C548.941 125.019 548.334 124.656 547.428 124.656C547.008 124.656 546.651 124.758 546.357 124.962C546.062 125.155 545.915 125.432 545.915 125.795ZM566.689 123.5H568.236L565.601 132H564.088L562.099 125.71L560.11 132H558.597L555.962 123.5H557.509L559.379 129.96L561.385 123.5H562.813L564.819 129.977L566.689 123.5ZM573.991 123.279C574.988 123.279 575.787 123.596 576.388 124.231C576.988 124.854 577.289 125.704 577.289 126.781V132H575.81V126.866C575.81 126.175 575.623 125.642 575.249 125.268C574.875 124.883 574.359 124.69 573.702 124.69C572.965 124.69 572.37 124.922 571.917 125.387C571.463 125.84 571.237 126.543 571.237 127.495V132H569.758V120.1H571.237V124.724C571.837 123.761 572.755 123.279 573.991 123.279ZM586.391 123.5H587.87V132H586.391V130.538C585.655 131.66 584.584 132.221 583.178 132.221C581.988 132.221 580.974 131.79 580.135 130.929C579.297 130.056 578.877 128.997 578.877 127.75C578.877 126.503 579.297 125.449 580.135 124.588C580.974 123.715 581.988 123.279 583.178 123.279C584.584 123.279 585.655 123.84 586.391 124.962V123.5ZM583.365 130.793C584.227 130.793 584.946 130.504 585.524 129.926C586.102 129.337 586.391 128.611 586.391 127.75C586.391 126.889 586.102 126.169 585.524 125.591C584.946 125.002 584.227 124.707 583.365 124.707C582.515 124.707 581.801 125.002 581.223 125.591C580.645 126.169 580.356 126.889 580.356 127.75C580.356 128.611 580.645 129.337 581.223 129.926C581.801 130.504 582.515 130.793 583.365 130.793ZM594.735 124.928H592.474V129.535C592.474 129.954 592.554 130.255 592.712 130.436C592.882 130.606 593.137 130.697 593.477 130.708C593.817 130.708 594.237 130.697 594.735 130.674V132C593.443 132.17 592.497 132.068 591.896 131.694C591.296 131.309 590.995 130.589 590.995 129.535V124.928H589.312V123.5H590.995V121.562L592.474 121.12V123.5H594.735V124.928ZM99.302 145.279C100.254 145.279 101.025 145.591 101.614 146.214C102.203 146.826 102.498 147.659 102.498 148.713V154H101.019V148.764C101.019 148.107 100.849 147.597 100.509 147.234C100.169 146.871 99.7157 146.69 99.149 146.69C98.5143 146.69 98.0043 146.905 97.619 147.336C97.245 147.755 97.058 148.401 97.058 149.274V154H95.579V148.764C95.579 148.107 95.4147 147.597 95.086 147.234C94.7687 146.871 94.3323 146.69 93.777 146.69C93.1537 146.69 92.6323 146.905 92.213 147.336C91.805 147.767 91.601 148.413 91.601 149.274V154H90.122V145.5H91.601V146.639C92.179 145.732 93.0233 145.279 94.134 145.279C95.2787 145.279 96.1117 145.761 96.633 146.724C97.2223 145.761 98.112 145.279 99.302 145.279ZM111.723 152.929C110.85 153.79 109.79 154.221 108.544 154.221C107.297 154.221 106.237 153.79 105.365 152.929C104.503 152.068 104.073 151.008 104.073 149.75C104.073 148.492 104.503 147.432 105.365 146.571C106.237 145.71 107.297 145.279 108.544 145.279C109.79 145.279 110.85 145.71 111.723 146.571C112.595 147.432 113.032 148.492 113.032 149.75C113.032 151.008 112.595 152.068 111.723 152.929ZM108.544 152.776C109.394 152.776 110.108 152.487 110.686 151.909C111.264 151.331 111.553 150.611 111.553 149.75C111.553 148.889 111.264 148.169 110.686 147.591C110.108 147.013 109.394 146.724 108.544 146.724C107.705 146.724 106.997 147.013 106.419 147.591C105.841 148.169 105.552 148.889 105.552 149.75C105.552 150.611 105.841 151.331 106.419 151.909C106.997 152.487 107.705 152.776 108.544 152.776ZM115.868 147.795C115.868 148.124 116.032 148.39 116.361 148.594C116.689 148.787 117.086 148.945 117.551 149.07C118.015 149.183 118.48 149.319 118.945 149.478C119.409 149.625 119.806 149.886 120.135 150.26C120.463 150.623 120.628 151.093 120.628 151.671C120.628 152.442 120.327 153.059 119.727 153.524C119.137 153.989 118.378 154.221 117.449 154.221C116.621 154.221 115.913 154.04 115.324 153.677C114.734 153.314 114.315 152.833 114.066 152.232L115.341 151.501C115.477 151.909 115.732 152.232 116.106 152.47C116.48 152.708 116.927 152.827 117.449 152.827C117.936 152.827 118.338 152.736 118.656 152.555C118.973 152.362 119.132 152.068 119.132 151.671C119.132 151.342 118.967 151.082 118.639 150.889C118.31 150.685 117.913 150.526 117.449 150.413C116.984 150.288 116.519 150.147 116.055 149.988C115.59 149.829 115.193 149.569 114.865 149.206C114.536 148.843 114.372 148.379 114.372 147.812C114.372 147.075 114.655 146.469 115.222 145.993C115.8 145.517 116.519 145.279 117.381 145.279C118.072 145.279 118.684 145.438 119.217 145.755C119.761 146.061 120.169 146.492 120.441 147.047L119.2 147.744C118.894 147.019 118.287 146.656 117.381 146.656C116.961 146.656 116.604 146.758 116.31 146.962C116.015 147.155 115.868 147.432 115.868 147.795ZM126.671 146.928H124.41V151.535C124.41 151.954 124.489 152.255 124.648 152.436C124.818 152.606 125.073 152.697 125.413 152.708C125.753 152.708 126.172 152.697 126.671 152.674V154C125.379 154.17 124.432 154.068 123.832 153.694C123.231 153.309 122.931 152.589 122.931 151.535V146.928H121.248V145.5H122.931V143.562L124.41 143.12V145.5H126.671V146.928ZM137.414 145.279C138.604 145.279 139.618 145.715 140.457 146.588C141.295 147.449 141.715 148.503 141.715 149.75C141.715 150.997 141.295 152.056 140.457 152.929C139.618 153.79 138.604 154.221 137.414 154.221C136.008 154.221 134.937 153.66 134.201 152.538V157.4H132.722V145.5H134.201V146.962C134.937 145.84 136.008 145.279 137.414 145.279ZM137.227 152.793C138.077 152.793 138.791 152.504 139.369 151.926C139.947 151.337 140.236 150.611 140.236 149.75C140.236 148.889 139.947 148.169 139.369 147.591C138.791 147.002 138.077 146.707 137.227 146.707C136.365 146.707 135.646 147.002 135.068 147.591C134.49 148.169 134.201 148.889 134.201 149.75C134.201 150.611 134.49 151.337 135.068 151.926C135.646 152.504 136.365 152.793 137.227 152.793ZM144.516 150.43C144.664 151.189 145.009 151.779 145.553 152.198C146.109 152.617 146.789 152.827 147.593 152.827C148.715 152.827 149.531 152.413 150.041 151.586L151.299 152.3C150.472 153.581 149.225 154.221 147.559 154.221C146.211 154.221 145.111 153.802 144.261 152.963C143.423 152.113 143.003 151.042 143.003 149.75C143.003 148.469 143.417 147.404 144.244 146.554C145.072 145.704 146.143 145.279 147.457 145.279C148.704 145.279 149.718 145.721 150.5 146.605C151.294 147.478 151.69 148.532 151.69 149.767C151.69 149.982 151.673 150.203 151.639 150.43H144.516ZM147.457 146.673C146.664 146.673 146.007 146.9 145.485 147.353C144.964 147.795 144.641 148.39 144.516 149.138H150.194C150.07 148.333 149.752 147.721 149.242 147.302C148.732 146.883 148.137 146.673 147.457 146.673ZM160.548 152.929C159.675 153.79 158.616 154.221 157.369 154.221C156.122 154.221 155.063 153.79 154.19 152.929C153.329 152.068 152.898 151.008 152.898 149.75C152.898 148.492 153.329 147.432 154.19 146.571C155.063 145.71 156.122 145.279 157.369 145.279C158.616 145.279 159.675 145.71 160.548 146.571C161.421 147.432 161.857 148.492 161.857 149.75C161.857 151.008 161.421 152.068 160.548 152.929ZM157.369 152.776C158.219 152.776 158.933 152.487 159.511 151.909C160.089 151.331 160.378 150.611 160.378 149.75C160.378 148.889 160.089 148.169 159.511 147.591C158.933 147.013 158.219 146.724 157.369 146.724C156.53 146.724 155.822 147.013 155.244 147.591C154.666 148.169 154.377 148.889 154.377 149.75C154.377 150.611 154.666 151.331 155.244 151.909C155.822 152.487 156.53 152.776 157.369 152.776ZM168.293 145.279C169.483 145.279 170.497 145.715 171.336 146.588C172.174 147.449 172.594 148.503 172.594 149.75C172.594 150.997 172.174 152.056 171.336 152.929C170.497 153.79 169.483 154.221 168.293 154.221C166.887 154.221 165.816 153.66 165.08 152.538V157.4H163.601V145.5H165.08V146.962C165.816 145.84 166.887 145.279 168.293 145.279ZM168.106 152.793C168.956 152.793 169.67 152.504 170.248 151.926C170.826 151.337 171.115 150.611 171.115 149.75C171.115 148.889 170.826 148.169 170.248 147.591C169.67 147.002 168.956 146.707 168.106 146.707C167.244 146.707 166.525 147.002 165.947 147.591C165.369 148.169 165.08 148.889 165.08 149.75C165.08 150.611 165.369 151.337 165.947 151.926C166.525 152.504 167.244 152.793 168.106 152.793ZM174.358 154V141.59H175.837V154H174.358ZM179.131 150.43C179.278 151.189 179.624 151.779 180.168 152.198C180.723 152.617 181.403 152.827 182.208 152.827C183.33 152.827 184.146 152.413 184.656 151.586L185.914 152.3C185.086 153.581 183.84 154.221 182.174 154.221C180.825 154.221 179.726 153.802 178.876 152.963C178.037 152.113 177.618 151.042 177.618 149.75C177.618 148.469 178.031 147.404 178.859 146.554C179.686 145.704 180.757 145.279 182.072 145.279C183.318 145.279 184.333 145.721 185.115 146.605C185.908 147.478 186.305 148.532 186.305 149.767C186.305 149.982 186.288 150.203 186.254 150.43H179.131ZM182.072 146.673C181.278 146.673 180.621 146.9 180.1 147.353C179.578 147.795 179.255 148.39 179.131 149.138H184.809C184.684 148.333 184.367 147.721 183.857 147.302C183.347 146.883 182.752 146.673 182.072 146.673ZM199.293 142.1H200.772V154H199.293V152.538C198.556 153.66 197.485 154.221 196.08 154.221C194.89 154.221 193.875 153.79 193.037 152.929C192.198 152.056 191.779 150.997 191.779 149.75C191.779 148.503 192.198 147.449 193.037 146.588C193.875 145.715 194.89 145.279 196.08 145.279C197.485 145.279 198.556 145.84 199.293 146.962V142.1ZM196.267 152.793C197.128 152.793 197.848 152.504 198.426 151.926C199.004 151.337 199.293 150.611 199.293 149.75C199.293 148.889 199.004 148.169 198.426 147.591C197.848 147.002 197.128 146.707 196.267 146.707C195.417 146.707 194.703 147.002 194.125 147.591C193.547 148.169 193.258 148.889 193.258 149.75C193.258 150.611 193.547 151.337 194.125 151.926C194.703 152.504 195.417 152.793 196.267 152.793ZM210.187 152.929C209.314 153.79 208.254 154.221 207.008 154.221C205.761 154.221 204.701 153.79 203.829 152.929C202.967 152.068 202.537 151.008 202.537 149.75C202.537 148.492 202.967 147.432 203.829 146.571C204.701 145.71 205.761 145.279 207.008 145.279C208.254 145.279 209.314 145.71 210.187 146.571C211.059 147.432 211.496 148.492 211.496 149.75C211.496 151.008 211.059 152.068 210.187 152.929ZM207.008 152.776C207.858 152.776 208.572 152.487 209.15 151.909C209.728 151.331 210.017 150.611 210.017 149.75C210.017 148.889 209.728 148.169 209.15 147.591C208.572 147.013 207.858 146.724 207.008 146.724C206.169 146.724 205.461 147.013 204.883 147.591C204.305 148.169 204.016 148.889 204.016 149.75C204.016 150.611 204.305 151.331 204.883 151.909C205.461 152.487 206.169 152.776 207.008 152.776ZM213.494 154.187C213.188 154.187 212.927 154.079 212.712 153.864C212.496 153.649 212.389 153.388 212.389 153.082C212.389 152.776 212.496 152.515 212.712 152.3C212.927 152.085 213.188 151.977 213.494 151.977C213.811 151.977 214.072 152.085 214.276 152.3C214.491 152.515 214.599 152.776 214.599 153.082C214.599 153.388 214.491 153.649 214.276 153.864C214.072 154.079 213.811 154.187 213.494 154.187ZM229.952 142.1L225.736 149.189V154H224.155V149.172L219.956 142.1H221.724L224.954 147.676L228.184 142.1H229.952ZM236.683 152.929C235.81 153.79 234.75 154.221 233.504 154.221C232.257 154.221 231.197 153.79 230.325 152.929C229.463 152.068 229.033 151.008 229.033 149.75C229.033 148.492 229.463 147.432 230.325 146.571C231.197 145.71 232.257 145.279 233.504 145.279C234.75 145.279 235.81 145.71 236.683 146.571C237.555 147.432 237.992 148.492 237.992 149.75C237.992 151.008 237.555 152.068 236.683 152.929ZM233.504 152.776C234.354 152.776 235.068 152.487 235.646 151.909C236.224 151.331 236.513 150.611 236.513 149.75C236.513 148.889 236.224 148.169 235.646 147.591C235.068 147.013 234.354 146.724 233.504 146.724C232.665 146.724 231.957 147.013 231.379 147.591C230.801 148.169 230.512 148.889 230.512 149.75C230.512 150.611 230.801 151.331 231.379 151.909C231.957 152.487 232.665 152.776 233.504 152.776ZM245.6 145.5H247.079V154H245.6V152.776C245 153.739 244.082 154.221 242.846 154.221C241.849 154.221 241.05 153.909 240.449 153.286C239.849 152.651 239.548 151.796 239.548 150.719V145.5H241.027V150.634C241.027 151.325 241.214 151.864 241.588 152.249C241.962 152.623 242.478 152.81 243.135 152.81C243.872 152.81 244.467 152.583 244.92 152.13C245.374 151.665 245.6 150.957 245.6 150.005V145.5ZM254.856 147.795C254.856 148.124 255.02 148.39 255.349 148.594C255.678 148.787 256.074 148.945 256.539 149.07C257.004 149.183 257.468 149.319 257.933 149.478C258.398 149.625 258.794 149.886 259.123 150.26C259.452 150.623 259.616 151.093 259.616 151.671C259.616 152.442 259.316 153.059 258.715 153.524C258.126 153.989 257.366 154.221 256.437 154.221C255.61 154.221 254.901 154.04 254.312 153.677C253.723 153.314 253.303 152.833 253.054 152.232L254.329 151.501C254.465 151.909 254.72 152.232 255.094 152.47C255.468 152.708 255.916 152.827 256.437 152.827C256.924 152.827 257.327 152.736 257.644 152.555C257.961 152.362 258.12 152.068 258.12 151.671C258.12 151.342 257.956 151.082 257.627 150.889C257.298 150.685 256.902 150.526 256.437 150.413C255.972 150.288 255.508 150.147 255.043 149.988C254.578 149.829 254.182 149.569 253.853 149.206C253.524 148.843 253.36 148.379 253.36 147.812C253.36 147.075 253.643 146.469 254.21 145.993C254.788 145.517 255.508 145.279 256.369 145.279C257.06 145.279 257.672 145.438 258.205 145.755C258.749 146.061 259.157 146.492 259.429 147.047L258.188 147.744C257.882 147.019 257.276 146.656 256.369 146.656C255.95 146.656 255.593 146.758 255.298 146.962C255.003 147.155 254.856 147.432 254.856 147.795ZM265.517 145.279C266.514 145.279 267.313 145.596 267.914 146.231C268.515 146.854 268.815 147.704 268.815 148.781V154H267.336V148.866C267.336 148.175 267.149 147.642 266.775 147.268C266.401 146.883 265.885 146.69 265.228 146.69C264.491 146.69 263.896 146.922 263.443 147.387C262.99 147.84 262.763 148.543 262.763 149.495V154H261.284V142.1H262.763V146.724C263.364 145.761 264.282 145.279 265.517 145.279ZM278.054 152.929C277.181 153.79 276.121 154.221 274.875 154.221C273.628 154.221 272.568 153.79 271.696 152.929C270.834 152.068 270.404 151.008 270.404 149.75C270.404 148.492 270.834 147.432 271.696 146.571C272.568 145.71 273.628 145.279 274.875 145.279C276.121 145.279 277.181 145.71 278.054 146.571C278.926 147.432 279.363 148.492 279.363 149.75C279.363 151.008 278.926 152.068 278.054 152.929ZM274.875 152.776C275.725 152.776 276.439 152.487 277.017 151.909C277.595 151.331 277.884 150.611 277.884 149.75C277.884 148.889 277.595 148.169 277.017 147.591C276.439 147.013 275.725 146.724 274.875 146.724C274.036 146.724 273.328 147.013 272.75 147.591C272.172 148.169 271.883 148.889 271.883 149.75C271.883 150.611 272.172 151.331 272.75 151.909C273.328 152.487 274.036 152.776 274.875 152.776ZM286.971 145.5H288.45V154H286.971V152.776C286.371 153.739 285.453 154.221 284.217 154.221C283.22 154.221 282.421 153.909 281.82 153.286C281.22 152.651 280.919 151.796 280.919 150.719V145.5H282.398V150.634C282.398 151.325 282.585 151.864 282.959 152.249C283.333 152.623 283.849 152.81 284.506 152.81C285.243 152.81 285.838 152.583 286.291 152.13C286.745 151.665 286.971 150.957 286.971 150.005V145.5ZM290.702 154V141.59H292.181V154H290.702ZM301.475 142.1H302.954V154H301.475V152.538C300.739 153.66 299.668 154.221 298.262 154.221C297.072 154.221 296.058 153.79 295.219 152.929C294.381 152.056 293.961 150.997 293.961 149.75C293.961 148.503 294.381 147.449 295.219 146.588C296.058 145.715 297.072 145.279 298.262 145.279C299.668 145.279 300.739 145.84 301.475 146.962V142.1ZM298.449 152.793C299.311 152.793 300.03 152.504 300.608 151.926C301.186 151.337 301.475 150.611 301.475 149.75C301.475 148.889 301.186 148.169 300.608 147.591C300.03 147.002 299.311 146.707 298.449 146.707C297.599 146.707 296.885 147.002 296.307 147.591C295.729 148.169 295.44 148.889 295.44 149.75C295.44 150.611 295.729 151.337 296.307 151.926C296.885 152.504 297.599 152.793 298.449 152.793ZM313.814 143.307C312.318 143.182 311.57 143.828 311.57 145.245V145.5H313.814V146.928H311.57V154H310.091V146.928H308.731V145.5H310.091V145.245C310.091 144.1 310.409 143.233 311.043 142.644C311.689 142.055 312.613 141.8 313.814 141.879V143.307ZM321.65 152.929C320.777 153.79 319.717 154.221 318.471 154.221C317.224 154.221 316.164 153.79 315.292 152.929C314.43 152.068 314 151.008 314 149.75C314 148.492 314.43 147.432 315.292 146.571C316.164 145.71 317.224 145.279 318.471 145.279C319.717 145.279 320.777 145.71 321.65 146.571C322.522 147.432 322.959 148.492 322.959 149.75C322.959 151.008 322.522 152.068 321.65 152.929ZM318.471 152.776C319.321 152.776 320.035 152.487 320.613 151.909C321.191 151.331 321.48 150.611 321.48 149.75C321.48 148.889 321.191 148.169 320.613 147.591C320.035 147.013 319.321 146.724 318.471 146.724C317.632 146.724 316.924 147.013 316.346 147.591C315.768 148.169 315.479 148.889 315.479 149.75C315.479 150.611 315.768 151.331 316.346 151.909C316.924 152.487 317.632 152.776 318.471 152.776ZM328.697 154.221C327.416 154.221 326.351 153.796 325.501 152.946C324.651 152.085 324.226 151.019 324.226 149.75C324.226 148.481 324.651 147.421 325.501 146.571C326.351 145.71 327.416 145.279 328.697 145.279C329.536 145.279 330.289 145.483 330.958 145.891C331.627 146.288 332.125 146.826 332.454 147.506L331.213 148.22C330.998 147.767 330.663 147.404 330.21 147.132C329.768 146.86 329.264 146.724 328.697 146.724C327.847 146.724 327.133 147.013 326.555 147.591C325.988 148.169 325.705 148.889 325.705 149.75C325.705 150.6 325.988 151.314 326.555 151.892C327.133 152.47 327.847 152.759 328.697 152.759C329.264 152.759 329.774 152.629 330.227 152.368C330.68 152.096 331.026 151.733 331.264 151.28L332.522 152.011C332.159 152.68 331.638 153.218 330.958 153.626C330.278 154.023 329.524 154.221 328.697 154.221ZM339.864 145.5H341.343V154H339.864V152.776C339.263 153.739 338.345 154.221 337.11 154.221C336.113 154.221 335.314 153.909 334.713 153.286C334.112 152.651 333.812 151.796 333.812 150.719V145.5H335.291V150.634C335.291 151.325 335.478 151.864 335.852 152.249C336.226 152.623 336.742 152.81 337.399 152.81C338.136 152.81 338.731 152.583 339.184 152.13C339.637 151.665 339.864 150.957 339.864 150.005V145.5ZM344.853 147.795C344.853 148.124 345.017 148.39 345.346 148.594C345.675 148.787 346.071 148.945 346.536 149.07C347.001 149.183 347.465 149.319 347.93 149.478C348.395 149.625 348.791 149.886 349.12 150.26C349.449 150.623 349.613 151.093 349.613 151.671C349.613 152.442 349.313 153.059 348.712 153.524C348.123 153.989 347.363 154.221 346.434 154.221C345.607 154.221 344.898 154.04 344.309 153.677C343.72 153.314 343.3 152.833 343.051 152.232L344.326 151.501C344.462 151.909 344.717 152.232 345.091 152.47C345.465 152.708 345.913 152.827 346.434 152.827C346.921 152.827 347.324 152.736 347.641 152.555C347.958 152.362 348.117 152.068 348.117 151.671C348.117 151.342 347.953 151.082 347.624 150.889C347.295 150.685 346.899 150.526 346.434 150.413C345.969 150.288 345.505 150.147 345.04 149.988C344.575 149.829 344.179 149.569 343.85 149.206C343.521 148.843 343.357 148.379 343.357 147.812C343.357 147.075 343.64 146.469 344.207 145.993C344.785 145.517 345.505 145.279 346.366 145.279C347.057 145.279 347.669 145.438 348.202 145.755C348.746 146.061 349.154 146.492 349.426 147.047L348.185 147.744C347.879 147.019 347.273 146.656 346.366 146.656C345.947 146.656 345.59 146.758 345.295 146.962C345 147.155 344.853 147.432 344.853 147.795ZM362.788 152.929C361.916 153.79 360.856 154.221 359.609 154.221C358.363 154.221 357.303 153.79 356.43 152.929C355.569 152.068 355.138 151.008 355.138 149.75C355.138 148.492 355.569 147.432 356.43 146.571C357.303 145.71 358.363 145.279 359.609 145.279C360.856 145.279 361.916 145.71 362.788 146.571C363.661 147.432 364.097 148.492 364.097 149.75C364.097 151.008 363.661 152.068 362.788 152.929ZM359.609 152.776C360.459 152.776 361.173 152.487 361.751 151.909C362.329 151.331 362.618 150.611 362.618 149.75C362.618 148.889 362.329 148.169 361.751 147.591C361.173 147.013 360.459 146.724 359.609 146.724C358.771 146.724 358.062 147.013 357.484 147.591C356.906 148.169 356.617 148.889 356.617 149.75C356.617 150.611 356.906 151.331 357.484 151.909C358.062 152.487 358.771 152.776 359.609 152.776ZM370.074 145.279C371.071 145.279 371.87 145.596 372.471 146.231C373.071 146.854 373.372 147.704 373.372 148.781V154H371.893V148.866C371.893 148.175 371.706 147.642 371.332 147.268C370.958 146.883 370.442 146.69 369.785 146.69C369.048 146.69 368.453 146.922 368 147.387C367.546 147.84 367.32 148.543 367.32 149.495V154H365.841V145.5H367.32V146.724C367.92 145.761 368.838 145.279 370.074 145.279ZM389.699 145.5H391.246L388.611 154H387.098L385.109 147.71L383.12 154H381.607L378.972 145.5H380.519L382.389 151.96L384.395 145.5H385.823L387.829 151.977L389.699 145.5ZM397.001 145.279C397.999 145.279 398.798 145.596 399.398 146.231C399.999 146.854 400.299 147.704 400.299 148.781V154H398.82V148.866C398.82 148.175 398.633 147.642 398.259 147.268C397.885 146.883 397.37 146.69 396.712 146.69C395.976 146.69 395.381 146.922 394.927 147.387C394.474 147.84 394.247 148.543 394.247 149.495V154H392.768V142.1H394.247V146.724C394.848 145.761 395.766 145.279 397.001 145.279ZM408.115 145.5H409.696L406.228 154.527C405.865 155.49 405.355 156.221 404.698 156.72C404.052 157.23 403.304 157.457 402.454 157.4V156.023C403.496 156.102 404.261 155.524 404.749 154.289L404.902 153.966L401.196 145.5H402.777L405.667 152.164L408.115 145.5ZM419.873 145.279C421.063 145.279 422.077 145.715 422.916 146.588C423.754 147.449 424.174 148.503 424.174 149.75C424.174 150.997 423.754 152.056 422.916 152.929C422.077 153.79 421.063 154.221 419.873 154.221C418.467 154.221 417.396 153.66 416.66 152.538V157.4H415.181V145.5H416.66V146.962C417.396 145.84 418.467 145.279 419.873 145.279ZM419.686 152.793C420.536 152.793 421.25 152.504 421.828 151.926C422.406 151.337 422.695 150.611 422.695 149.75C422.695 148.889 422.406 148.169 421.828 147.591C421.25 147.002 420.536 146.707 419.686 146.707C418.824 146.707 418.105 147.002 417.527 147.591C416.949 148.169 416.66 148.889 416.66 149.75C416.66 150.611 416.949 151.337 417.527 151.926C418.105 152.504 418.824 152.793 419.686 152.793ZM426.975 150.43C427.123 151.189 427.468 151.779 428.012 152.198C428.568 152.617 429.248 152.827 430.052 152.827C431.174 152.827 431.99 152.413 432.5 151.586L433.758 152.3C432.931 153.581 431.684 154.221 430.018 154.221C428.67 154.221 427.57 153.802 426.72 152.963C425.882 152.113 425.462 151.042 425.462 149.75C425.462 148.469 425.876 147.404 426.703 146.554C427.531 145.704 428.602 145.279 429.916 145.279C431.163 145.279 432.177 145.721 432.959 146.605C433.753 147.478 434.149 148.532 434.149 149.767C434.149 149.982 434.132 150.203 434.098 150.43H426.975ZM429.916 146.673C429.123 146.673 428.466 146.9 427.944 147.353C427.423 147.795 427.1 148.39 426.975 149.138H432.653C432.529 148.333 432.211 147.721 431.701 147.302C431.191 146.883 430.596 146.673 429.916 146.673ZM437.329 146.928C437.816 145.874 438.7 145.347 439.981 145.347V146.894C439.255 146.86 438.632 147.053 438.111 147.472C437.589 147.891 437.329 148.566 437.329 149.495V154H435.85V145.5H437.329V146.928ZM445.661 145.279C446.658 145.279 447.457 145.596 448.058 146.231C448.658 146.854 448.959 147.704 448.959 148.781V154H447.48V148.866C447.48 148.175 447.293 147.642 446.919 147.268C446.545 146.883 446.029 146.69 445.372 146.69C444.635 146.69 444.04 146.922 443.587 147.387C443.133 147.84 442.907 148.543 442.907 149.495V154H441.428V142.1H442.907V146.724C443.507 145.761 444.425 145.279 445.661 145.279ZM458.061 145.5H459.54V154H458.061V152.538C457.325 153.66 456.254 154.221 454.848 154.221C453.658 154.221 452.644 153.79 451.805 152.929C450.967 152.056 450.547 150.997 450.547 149.75C450.547 148.503 450.967 147.449 451.805 146.588C452.644 145.715 453.658 145.279 454.848 145.279C456.254 145.279 457.325 145.84 458.061 146.962V145.5ZM455.035 152.793C455.897 152.793 456.616 152.504 457.194 151.926C457.772 151.337 458.061 150.611 458.061 149.75C458.061 148.889 457.772 148.169 457.194 147.591C456.616 147.002 455.897 146.707 455.035 146.707C454.185 146.707 453.471 147.002 452.893 147.591C452.315 148.169 452.026 148.889 452.026 149.75C452.026 150.611 452.315 151.337 452.893 151.926C453.471 152.504 454.185 152.793 455.035 152.793ZM466.473 145.279C467.663 145.279 468.678 145.715 469.516 146.588C470.355 147.449 470.774 148.503 470.774 149.75C470.774 150.997 470.355 152.056 469.516 152.929C468.678 153.79 467.663 154.221 466.473 154.221C465.068 154.221 463.997 153.66 463.26 152.538V157.4H461.781V145.5H463.26V146.962C463.997 145.84 465.068 145.279 466.473 145.279ZM466.286 152.793C467.136 152.793 467.85 152.504 468.428 151.926C469.006 151.337 469.295 150.611 469.295 149.75C469.295 148.889 469.006 148.169 468.428 147.591C467.85 147.002 467.136 146.707 466.286 146.707C465.425 146.707 464.705 147.002 464.127 147.591C463.549 148.169 463.26 148.889 463.26 149.75C463.26 150.611 463.549 151.337 464.127 151.926C464.705 152.504 465.425 152.793 466.286 152.793ZM473.631 147.795C473.631 148.124 473.796 148.39 474.124 148.594C474.453 148.787 474.85 148.945 475.314 149.07C475.779 149.183 476.244 149.319 476.708 149.478C477.173 149.625 477.57 149.886 477.898 150.26C478.227 150.623 478.391 151.093 478.391 151.671C478.391 152.442 478.091 153.059 477.49 153.524C476.901 153.989 476.142 154.221 475.212 154.221C474.385 154.221 473.677 154.04 473.087 153.677C472.498 153.314 472.079 152.833 471.829 152.232L473.104 151.501C473.24 151.909 473.495 152.232 473.869 152.47C474.243 152.708 474.691 152.827 475.212 152.827C475.7 152.827 476.102 152.736 476.419 152.555C476.737 152.362 476.895 152.068 476.895 151.671C476.895 151.342 476.731 151.082 476.402 150.889C476.074 150.685 475.677 150.526 475.212 150.413C474.748 150.288 474.283 150.147 473.818 149.988C473.354 149.829 472.957 149.569 472.628 149.206C472.3 148.843 472.135 148.379 472.135 147.812C472.135 147.075 472.419 146.469 472.985 145.993C473.563 145.517 474.283 145.279 475.144 145.279C475.836 145.279 476.448 145.438 476.98 145.755C477.524 146.061 477.932 146.492 478.204 147.047L476.963 147.744C476.657 147.019 476.051 146.656 475.144 146.656C474.725 146.656 474.368 146.758 474.073 146.962C473.779 147.155 473.631 147.432 473.631 147.795ZM490.326 145.5H491.907L488.439 154.527C488.076 155.49 487.566 156.221 486.909 156.72C486.263 157.23 485.515 157.457 484.665 157.4V156.023C485.707 156.102 486.472 155.524 486.96 154.289L487.113 153.966L483.407 145.5H484.988L487.878 152.164L490.326 145.5ZM499.984 152.929C499.111 153.79 498.051 154.221 496.805 154.221C495.558 154.221 494.498 153.79 493.626 152.929C492.764 152.068 492.334 151.008 492.334 149.75C492.334 148.492 492.764 147.432 493.626 146.571C494.498 145.71 495.558 145.279 496.805 145.279C498.051 145.279 499.111 145.71 499.984 146.571C500.856 147.432 501.292 148.492 501.292 149.75C501.292 151.008 500.856 152.068 499.984 152.929ZM496.805 152.776C497.655 152.776 498.369 152.487 498.947 151.909C499.525 151.331 499.814 150.611 499.814 149.75C499.814 148.889 499.525 148.169 498.947 147.591C498.369 147.013 497.655 146.724 496.805 146.724C495.966 146.724 495.258 147.013 494.68 147.591C494.102 148.169 493.812 148.889 493.812 149.75C493.812 150.611 494.102 151.331 494.68 151.909C495.258 152.487 495.966 152.776 496.805 152.776ZM508.901 145.5H510.38V154H508.901V152.776C508.3 153.739 507.382 154.221 506.147 154.221C505.15 154.221 504.351 153.909 503.75 153.286C503.149 152.651 502.849 151.796 502.849 150.719V145.5H504.328V150.634C504.328 151.325 504.515 151.864 504.889 152.249C505.263 152.623 505.779 152.81 506.436 152.81C507.173 152.81 507.768 152.583 508.221 152.13C508.674 151.665 508.901 150.957 508.901 150.005V145.5ZM520.877 154.221C519.596 154.221 518.531 153.796 517.681 152.946C516.831 152.085 516.406 151.019 516.406 149.75C516.406 148.481 516.831 147.421 517.681 146.571C518.531 145.71 519.596 145.279 520.877 145.279C521.715 145.279 522.469 145.483 523.138 145.891C523.806 146.288 524.305 146.826 524.634 147.506L523.393 148.22C523.177 147.767 522.843 147.404 522.39 147.132C521.948 146.86 521.443 146.724 520.877 146.724C520.027 146.724 519.313 147.013 518.735 147.591C518.168 148.169 517.885 148.889 517.885 149.75C517.885 150.6 518.168 151.314 518.735 151.892C519.313 152.47 520.027 152.759 520.877 152.759C521.443 152.759 521.953 152.629 522.407 152.368C522.86 152.096 523.206 151.733 523.444 151.28L524.702 152.011C524.339 152.68 523.818 153.218 523.138 153.626C522.458 154.023 521.704 154.221 520.877 154.221ZM533.084 145.5H534.563V154H533.084V152.538C532.347 153.66 531.276 154.221 529.871 154.221C528.681 154.221 527.666 153.79 526.828 152.929C525.989 152.056 525.57 150.997 525.57 149.75C525.57 148.503 525.989 147.449 526.828 146.588C527.666 145.715 528.681 145.279 529.871 145.279C531.276 145.279 532.347 145.84 533.084 146.962V145.5ZM530.058 152.793C530.919 152.793 531.639 152.504 532.217 151.926C532.795 151.337 533.084 150.611 533.084 149.75C533.084 148.889 532.795 148.169 532.217 147.591C531.639 147.002 530.919 146.707 530.058 146.707C529.208 146.707 528.494 147.002 527.916 147.591C527.338 148.169 527.049 148.889 527.049 149.75C527.049 150.611 527.338 151.337 527.916 151.926C528.494 152.504 529.208 152.793 530.058 152.793ZM541.037 145.279C542.034 145.279 542.833 145.596 543.434 146.231C544.034 146.854 544.335 147.704 544.335 148.781V154H542.856V148.866C542.856 148.175 542.669 147.642 542.295 147.268C541.921 146.883 541.405 146.69 540.748 146.69C540.011 146.69 539.416 146.922 538.963 147.387C538.509 147.84 538.283 148.543 538.283 149.495V154H536.804V145.5H538.283V146.724C538.883 145.761 539.801 145.279 541.037 145.279ZM548.609 152.249L547.504 156.38H546.229L546.909 152.249H548.609ZM561.987 145.5H563.466V154H561.987V152.538C561.25 153.66 560.179 154.221 558.774 154.221C557.584 154.221 556.57 153.79 555.731 152.929C554.892 152.056 554.473 150.997 554.473 149.75C554.473 148.503 554.892 147.449 555.731 146.588C556.57 145.715 557.584 145.279 558.774 145.279C560.179 145.279 561.25 145.84 561.987 146.962V145.5ZM558.961 152.793C559.822 152.793 560.542 152.504 561.12 151.926C561.698 151.337 561.987 150.611 561.987 149.75C561.987 148.889 561.698 148.169 561.12 147.591C560.542 147.002 559.822 146.707 558.961 146.707C558.111 146.707 557.397 147.002 556.819 147.591C556.241 148.169 555.952 148.889 555.952 149.75C555.952 150.611 556.241 151.337 556.819 151.926C557.397 152.504 558.111 152.793 558.961 152.793ZM569.94 145.279C570.937 145.279 571.736 145.596 572.337 146.231C572.938 146.854 573.238 147.704 573.238 148.781V154H571.759V148.866C571.759 148.175 571.572 147.642 571.198 147.268C570.824 146.883 570.308 146.69 569.651 146.69C568.914 146.69 568.319 146.922 567.866 147.387C567.413 147.84 567.186 148.543 567.186 149.495V154H565.707V145.5H567.186V146.724C567.787 145.761 568.705 145.279 569.94 145.279ZM582.341 142.1H583.82V154H582.341V152.538C581.604 153.66 580.533 154.221 579.128 154.221C577.938 154.221 576.923 153.79 576.085 152.929C575.246 152.056 574.827 150.997 574.827 149.75C574.827 148.503 575.246 147.449 576.085 146.588C576.923 145.715 577.938 145.279 579.128 145.279C580.533 145.279 581.604 145.84 582.341 146.962V142.1ZM579.315 152.793C580.176 152.793 580.896 152.504 581.474 151.926C582.052 151.337 582.341 150.611 582.341 149.75C582.341 148.889 582.052 148.169 581.474 147.591C580.896 147.002 580.176 146.707 579.315 146.707C578.465 146.707 577.751 147.002 577.173 147.591C576.595 148.169 576.306 148.889 576.306 149.75C576.306 150.611 576.595 151.337 577.173 151.926C577.751 152.504 578.465 152.793 579.315 152.793ZM595.002 145.279C596.192 145.279 597.207 145.715 598.045 146.588C598.884 147.449 599.303 148.503 599.303 149.75C599.303 150.997 598.884 152.056 598.045 152.929C597.207 153.79 596.192 154.221 595.002 154.221C593.597 154.221 592.526 153.66 591.789 152.538V154H590.31V142.1H591.789V146.962C592.526 145.84 593.597 145.279 595.002 145.279ZM594.815 152.793C595.665 152.793 596.379 152.504 596.957 151.926C597.535 151.337 597.824 150.611 597.824 149.75C597.824 148.889 597.535 148.169 596.957 147.591C596.379 147.002 595.665 146.707 594.815 146.707C593.954 146.707 593.234 147.002 592.656 147.591C592.078 148.169 591.789 148.889 591.789 149.75C591.789 150.611 592.078 151.337 592.656 151.926C593.234 152.504 593.954 152.793 594.815 152.793ZM602.105 150.43C602.253 151.189 602.598 151.779 603.142 152.198C603.698 152.617 604.378 152.827 605.182 152.827C606.304 152.827 607.12 152.413 607.63 151.586L608.888 152.3C608.061 153.581 606.814 154.221 605.148 154.221C603.8 154.221 602.7 153.802 601.85 152.963C601.012 152.113 600.592 151.042 600.592 149.75C600.592 148.469 601.006 147.404 601.833 146.554C602.661 145.704 603.732 145.279 605.046 145.279C606.293 145.279 607.307 145.721 608.089 146.605C608.883 147.478 609.279 148.532 609.279 149.767C609.279 149.982 609.262 150.203 609.228 150.43H602.105ZM605.046 146.673C604.253 146.673 603.596 146.9 603.074 147.353C602.553 147.795 602.23 148.39 602.105 149.138H607.783C607.659 148.333 607.341 147.721 606.831 147.302C606.321 146.883 605.726 146.673 605.046 146.673ZM97.296 174.929C96.4233 175.79 95.3637 176.221 94.117 176.221C92.8703 176.221 91.8107 175.79 90.938 174.929C90.0767 174.068 89.646 173.008 89.646 171.75C89.646 170.492 90.0767 169.432 90.938 168.571C91.8107 167.71 92.8703 167.279 94.117 167.279C95.3637 167.279 96.4233 167.71 97.296 168.571C98.1687 169.432 98.605 170.492 98.605 171.75C98.605 173.008 98.1687 174.068 97.296 174.929ZM94.117 174.776C94.967 174.776 95.681 174.487 96.259 173.909C96.837 173.331 97.126 172.611 97.126 171.75C97.126 170.889 96.837 170.169 96.259 169.591C95.681 169.013 94.967 168.724 94.117 168.724C93.2783 168.724 92.57 169.013 91.992 169.591C91.414 170.169 91.125 170.889 91.125 171.75C91.125 172.611 91.414 173.331 91.992 173.909C92.57 174.487 93.2783 174.776 94.117 174.776ZM104.582 167.279C105.579 167.279 106.378 167.596 106.979 168.231C107.579 168.854 107.88 169.704 107.88 170.781V176H106.401V170.866C106.401 170.175 106.214 169.642 105.84 169.268C105.466 168.883 104.95 168.69 104.293 168.69C103.556 168.69 102.961 168.922 102.508 169.387C102.054 169.84 101.828 170.543 101.828 171.495V176H100.349V167.5H101.828V168.724C102.428 167.761 103.346 167.279 104.582 167.279ZM110.981 172.43C111.129 173.189 111.474 173.779 112.018 174.198C112.574 174.617 113.254 174.827 114.058 174.827C115.18 174.827 115.996 174.413 116.506 173.586L117.764 174.3C116.937 175.581 115.69 176.221 114.024 176.221C112.676 176.221 111.576 175.802 110.726 174.963C109.888 174.113 109.468 173.042 109.468 171.75C109.468 170.469 109.882 169.404 110.709 168.554C111.537 167.704 112.608 167.279 113.922 167.279C115.169 167.279 116.183 167.721 116.965 168.605C117.759 169.478 118.155 170.532 118.155 171.767C118.155 171.982 118.138 172.203 118.104 172.43H110.981ZM113.922 168.673C113.129 168.673 112.472 168.9 111.95 169.353C111.429 169.795 111.106 170.39 110.981 171.138H116.659C116.535 170.333 116.217 169.721 115.707 169.302C115.197 168.883 114.602 168.673 113.922 168.673ZM131.279 174.929C130.407 175.79 129.347 176.221 128.1 176.221C126.854 176.221 125.794 175.79 124.921 174.929C124.06 174.068 123.629 173.008 123.629 171.75C123.629 170.492 124.06 169.432 124.921 168.571C125.794 167.71 126.854 167.279 128.1 167.279C129.347 167.279 130.407 167.71 131.279 168.571C132.152 169.432 132.588 170.492 132.588 171.75C132.588 173.008 132.152 174.068 131.279 174.929ZM128.1 174.776C128.95 174.776 129.664 174.487 130.242 173.909C130.82 173.331 131.109 172.611 131.109 171.75C131.109 170.889 130.82 170.169 130.242 169.591C129.664 169.013 128.95 168.724 128.1 168.724C127.262 168.724 126.553 169.013 125.975 169.591C125.397 170.169 125.108 170.889 125.108 171.75C125.108 172.611 125.397 173.331 125.975 173.909C126.553 174.487 127.262 174.776 128.1 174.776ZM138.386 165.307C136.89 165.182 136.142 165.828 136.142 167.245V167.5H138.386V168.928H136.142V176H134.663V168.928H133.303V167.5H134.663V167.245C134.663 166.1 134.98 165.233 135.615 164.644C136.261 164.055 137.184 163.8 138.386 163.879V165.307ZM148.386 168.928H146.125V173.535C146.125 173.954 146.204 174.255 146.363 174.436C146.533 174.606 146.788 174.697 147.128 174.708C147.468 174.708 147.887 174.697 148.386 174.674V176C147.094 176.17 146.147 176.068 145.547 175.694C144.946 175.309 144.646 174.589 144.646 173.535V168.928H142.963V167.5H144.646V165.562L146.125 165.12V167.5H148.386V168.928ZM154.37 167.279C155.367 167.279 156.166 167.596 156.767 168.231C157.367 168.854 157.668 169.704 157.668 170.781V176H156.189V170.866C156.189 170.175 156.002 169.642 155.628 169.268C155.254 168.883 154.738 168.69 154.081 168.69C153.344 168.69 152.749 168.922 152.296 169.387C151.842 169.84 151.616 170.543 151.616 171.495V176H150.137V164.1H151.616V168.724C152.216 167.761 153.134 167.279 154.37 167.279ZM160.769 172.43C160.917 173.189 161.262 173.779 161.806 174.198C162.362 174.617 163.042 174.827 163.846 174.827C164.968 174.827 165.784 174.413 166.294 173.586L167.552 174.3C166.725 175.581 165.478 176.221 163.812 176.221C162.464 176.221 161.364 175.802 160.514 174.963C159.676 174.113 159.256 173.042 159.256 171.75C159.256 170.469 159.67 169.404 160.497 168.554C161.325 167.704 162.396 167.279 163.71 167.279C164.957 167.279 165.971 167.721 166.753 168.605C167.547 169.478 167.943 170.532 167.943 171.767C167.943 171.982 167.926 172.203 167.892 172.43H160.769ZM163.71 168.673C162.917 168.673 162.26 168.9 161.738 169.353C161.217 169.795 160.894 170.39 160.769 171.138H166.447C166.323 170.333 166.005 169.721 165.495 169.302C164.985 168.883 164.39 168.673 163.71 168.673ZM174.93 172.43C175.078 173.189 175.423 173.779 175.967 174.198C176.523 174.617 177.203 174.827 178.007 174.827C179.129 174.827 179.945 174.413 180.455 173.586L181.713 174.3C180.886 175.581 179.639 176.221 177.973 176.221C176.625 176.221 175.525 175.802 174.675 174.963C173.837 174.113 173.417 173.042 173.417 171.75C173.417 170.469 173.831 169.404 174.658 168.554C175.486 167.704 176.557 167.279 177.871 167.279C179.118 167.279 180.132 167.721 180.914 168.605C181.708 169.478 182.104 170.532 182.104 171.767C182.104 171.982 182.087 172.203 182.053 172.43H174.93ZM177.871 168.673C177.078 168.673 176.421 168.9 175.899 169.353C175.378 169.795 175.055 170.39 174.93 171.138H180.608C180.484 170.333 180.166 169.721 179.656 169.302C179.146 168.883 178.551 168.673 177.871 168.673ZM190.784 176H189.05L186.67 172.787L184.273 176H182.539L185.803 171.631L182.726 167.5H184.477L186.67 170.458L188.863 167.5H190.597L187.537 171.614L190.784 176ZM195.553 176.221C194.272 176.221 193.207 175.796 192.357 174.946C191.507 174.085 191.082 173.019 191.082 171.75C191.082 170.481 191.507 169.421 192.357 168.571C193.207 167.71 194.272 167.279 195.553 167.279C196.391 167.279 197.145 167.483 197.814 167.891C198.482 168.288 198.981 168.826 199.31 169.506L198.069 170.22C197.853 169.767 197.519 169.404 197.066 169.132C196.624 168.86 196.119 168.724 195.553 168.724C194.703 168.724 193.989 169.013 193.411 169.591C192.844 170.169 192.561 170.889 192.561 171.75C192.561 172.6 192.844 173.314 193.411 173.892C193.989 174.47 194.703 174.759 195.553 174.759C196.119 174.759 196.629 174.629 197.083 174.368C197.536 174.096 197.882 173.733 198.12 173.28L199.378 174.011C199.015 174.68 198.494 175.218 197.814 175.626C197.134 176.023 196.38 176.221 195.553 176.221ZM201.759 172.43C201.906 173.189 202.252 173.779 202.796 174.198C203.351 174.617 204.031 174.827 204.836 174.827C205.958 174.827 206.774 174.413 207.284 173.586L208.542 174.3C207.714 175.581 206.468 176.221 204.802 176.221C203.453 176.221 202.354 175.802 201.504 174.963C200.665 174.113 200.246 173.042 200.246 171.75C200.246 170.469 200.659 169.404 201.487 168.554C202.314 167.704 203.385 167.279 204.7 167.279C205.946 167.279 206.961 167.721 207.743 168.605C208.536 169.478 208.933 170.532 208.933 171.767C208.933 171.982 208.916 172.203 208.882 172.43H201.759ZM204.7 168.673C203.906 168.673 203.249 168.9 202.728 169.353C202.206 169.795 201.883 170.39 201.759 171.138H207.437C207.312 170.333 206.995 169.721 206.485 169.302C205.975 168.883 205.38 168.673 204.7 168.673ZM215.325 167.279C216.515 167.279 217.529 167.715 218.368 168.588C219.206 169.449 219.626 170.503 219.626 171.75C219.626 172.997 219.206 174.056 218.368 174.929C217.529 175.79 216.515 176.221 215.325 176.221C213.919 176.221 212.848 175.66 212.112 174.538V179.4H210.633V167.5H212.112V168.962C212.848 167.84 213.919 167.279 215.325 167.279ZM215.138 174.793C215.988 174.793 216.702 174.504 217.28 173.926C217.858 173.337 218.147 172.611 218.147 171.75C218.147 170.889 217.858 170.169 217.28 169.591C216.702 169.002 215.988 168.707 215.138 168.707C214.276 168.707 213.557 169.002 212.979 169.591C212.401 170.169 212.112 170.889 212.112 171.75C212.112 172.611 212.401 173.337 212.979 173.926C213.557 174.504 214.276 174.793 215.138 174.793ZM225.832 168.928H223.571V173.535C223.571 173.954 223.65 174.255 223.809 174.436C223.979 174.606 224.234 174.697 224.574 174.708C224.914 174.708 225.333 174.697 225.832 174.674V176C224.54 176.17 223.594 176.068 222.993 175.694C222.392 175.309 222.092 174.589 222.092 173.535V168.928H220.409V167.5H222.092V165.562L223.571 165.12V167.5H225.832V168.928ZM228.331 165.953C228.048 165.953 227.81 165.857 227.617 165.664C227.424 165.471 227.328 165.239 227.328 164.967C227.328 164.695 227.424 164.463 227.617 164.27C227.81 164.066 228.048 163.964 228.331 163.964C228.603 163.964 228.835 164.066 229.028 164.27C229.221 164.463 229.317 164.695 229.317 164.967C229.317 165.239 229.221 165.471 229.028 165.664C228.835 165.857 228.603 165.953 228.331 165.953ZM227.583 176V167.5H229.062V176H227.583ZM238.492 174.929C237.62 175.79 236.56 176.221 235.313 176.221C234.067 176.221 233.007 175.79 232.134 174.929C231.273 174.068 230.842 173.008 230.842 171.75C230.842 170.492 231.273 169.432 232.134 168.571C233.007 167.71 234.067 167.279 235.313 167.279C236.56 167.279 237.62 167.71 238.492 168.571C239.365 169.432 239.801 170.492 239.801 171.75C239.801 173.008 239.365 174.068 238.492 174.929ZM235.313 174.776C236.163 174.776 236.877 174.487 237.455 173.909C238.033 173.331 238.322 172.611 238.322 171.75C238.322 170.889 238.033 170.169 237.455 169.591C236.877 169.013 236.163 168.724 235.313 168.724C234.475 168.724 233.766 169.013 233.188 169.591C232.61 170.169 232.321 170.889 232.321 171.75C232.321 172.611 232.61 173.331 233.188 173.909C233.766 174.487 234.475 174.776 235.313 174.776ZM245.778 167.279C246.775 167.279 247.574 167.596 248.175 168.231C248.776 168.854 249.076 169.704 249.076 170.781V176H247.597V170.866C247.597 170.175 247.41 169.642 247.036 169.268C246.662 168.883 246.146 168.69 245.489 168.69C244.752 168.69 244.157 168.922 243.704 169.387C243.251 169.84 243.024 170.543 243.024 171.495V176H241.545V167.5H243.024V168.724C243.625 167.761 244.543 167.279 245.778 167.279ZM252.416 169.795C252.416 170.124 252.58 170.39 252.909 170.594C253.237 170.787 253.634 170.945 254.099 171.07C254.563 171.183 255.028 171.319 255.493 171.478C255.957 171.625 256.354 171.886 256.683 172.26C257.011 172.623 257.176 173.093 257.176 173.671C257.176 174.442 256.875 175.059 256.275 175.524C255.685 175.989 254.926 176.221 253.997 176.221C253.169 176.221 252.461 176.04 251.872 175.677C251.282 175.314 250.863 174.833 250.614 174.232L251.889 173.501C252.025 173.909 252.28 174.232 252.654 174.47C253.028 174.708 253.475 174.827 253.997 174.827C254.484 174.827 254.886 174.736 255.204 174.555C255.521 174.362 255.68 174.068 255.68 173.671C255.68 173.342 255.515 173.082 255.187 172.889C254.858 172.685 254.461 172.526 253.997 172.413C253.532 172.288 253.067 172.147 252.603 171.988C252.138 171.829 251.741 171.569 251.413 171.206C251.084 170.843 250.92 170.379 250.92 169.812C250.92 169.075 251.203 168.469 251.77 167.993C252.348 167.517 253.067 167.279 253.929 167.279C254.62 167.279 255.232 167.438 255.765 167.755C256.309 168.061 256.717 168.492 256.989 169.047L255.748 169.744C255.442 169.019 254.835 168.656 253.929 168.656C253.509 168.656 253.152 168.758 252.858 168.962C252.563 169.155 252.416 169.432 252.416 169.795ZM259.679 176.187C259.373 176.187 259.112 176.079 258.897 175.864C258.682 175.649 258.574 175.388 258.574 175.082C258.574 174.776 258.682 174.515 258.897 174.3C259.112 174.085 259.373 173.977 259.679 173.977C259.996 173.977 260.257 174.085 260.461 174.3C260.676 174.515 260.784 174.776 260.784 175.082C260.784 175.388 260.676 175.649 260.461 175.864C260.257 176.079 259.996 176.187 259.679 176.187Z" fill="white"/>
<path d="M242.5 332.752C224 332.752 211.5 323.824 211.5 302" stroke="white" stroke-width="6"/>
<path d="M242.5 333.248C224 333.248 211.5 342.176 211.5 364" stroke="white" stroke-width="6"/>
<path d="M229 332.752H89" stroke="white" stroke-width="6"/>
</svg>
