<svg width="1162" height="164" viewBox="0 0 1162 164" fill="none" xmlns="http://www.w3.org/2000/svg">
<rect width="1162" height="164" rx="30" fill="#009EFF"/>
<path d="M95.624 70.664V84.488C95.624 86.0027 96.0187 87.1653 96.808 87.976C97.5973 88.7653 98.7067 89.16 100.136 89.16C101.587 89.16 102.707 88.7653 103.496 87.976C104.285 87.1653 104.68 86.0027 104.68 84.488V70.664H109.192V84.456C109.192 86.3547 108.776 87.9653 107.944 89.288C107.133 90.5893 106.035 91.5707 104.648 92.232C103.283 92.8933 101.757 93.224 100.072 93.224C98.408 93.224 96.8933 92.8933 95.528 92.232C94.184 91.5707 93.1173 90.5893 92.328 89.288C91.5387 87.9653 91.144 86.3547 91.144 84.456V70.664H95.624ZM118.001 69.32V93H113.521V69.32H118.001ZM121.275 84.072C121.275 82.28 121.627 80.6907 122.331 79.304C123.056 77.9173 124.027 76.8507 125.243 76.104C126.48 75.3573 127.856 74.984 129.371 74.984C130.693 74.984 131.845 75.2507 132.827 75.784C133.829 76.3173 134.629 76.9893 135.227 77.8V75.272H139.739V93H135.227V90.408C134.651 91.24 133.851 91.9333 132.827 92.488C131.824 93.0213 130.661 93.288 129.339 93.288C127.845 93.288 126.48 92.904 125.243 92.136C124.027 91.368 123.056 90.2907 122.331 88.904C121.627 87.496 121.275 85.8853 121.275 84.072ZM135.227 84.136C135.227 83.048 135.013 82.12 134.587 81.352C134.16 80.5627 133.584 79.9653 132.859 79.56C132.133 79.1333 131.355 78.92 130.523 78.92C129.691 78.92 128.923 79.1227 128.219 79.528C127.515 79.9333 126.939 80.5307 126.491 81.32C126.064 82.088 125.851 83.0053 125.851 84.072C125.851 85.1387 126.064 86.0773 126.491 86.888C126.939 87.6773 127.515 88.2853 128.219 88.712C128.944 89.1387 129.712 89.352 130.523 89.352C131.355 89.352 132.133 89.1493 132.859 88.744C133.584 88.3173 134.16 87.72 134.587 86.952C135.013 86.1627 135.227 85.224 135.227 84.136ZM153.938 75.016C156.05 75.016 157.757 75.688 159.058 77.032C160.36 78.3547 161.01 80.2107 161.01 82.6V93H156.53V83.208C156.53 81.8 156.178 80.7227 155.474 79.976C154.77 79.208 153.81 78.824 152.594 78.824C151.357 78.824 150.376 79.208 149.65 79.976C148.946 80.7227 148.594 81.8 148.594 83.208V93H144.114V75.272H148.594V77.48C149.192 76.712 149.949 76.1147 150.866 75.688C151.805 75.24 152.829 75.016 153.938 75.016ZM167.543 73.16C166.753 73.16 166.092 72.9147 165.559 72.424C165.047 71.912 164.791 71.2827 164.791 70.536C164.791 69.7893 165.047 69.1707 165.559 68.68C166.092 68.168 166.753 67.912 167.543 67.912C168.332 67.912 168.983 68.168 169.495 68.68C170.028 69.1707 170.295 69.7893 170.295 70.536C170.295 71.2827 170.028 71.912 169.495 72.424C168.983 72.9147 168.332 73.16 167.543 73.16ZM169.751 75.272V93H165.271V75.272H169.751ZM180.961 93.288C179.51 93.288 178.209 93.032 177.057 92.52C175.905 91.9867 174.987 91.272 174.305 90.376C173.643 89.48 173.281 88.488 173.217 87.4H177.729C177.814 88.0827 178.145 88.648 178.721 89.096C179.318 89.544 180.054 89.768 180.929 89.768C181.782 89.768 182.443 89.5973 182.913 89.256C183.403 88.9147 183.649 88.4773 183.649 87.944C183.649 87.368 183.35 86.9413 182.753 86.664C182.177 86.3653 181.249 86.0453 179.969 85.704C178.646 85.384 177.558 85.0533 176.705 84.712C175.873 84.3707 175.147 83.848 174.529 83.144C173.931 82.44 173.633 81.4907 173.633 80.296C173.633 79.3147 173.91 78.4187 174.465 77.608C175.041 76.7973 175.851 76.1573 176.897 75.688C177.963 75.2187 179.211 74.984 180.641 74.984C182.753 74.984 184.438 75.5173 185.697 76.584C186.955 77.6293 187.649 79.048 187.777 80.84H183.489C183.425 80.136 183.126 79.5813 182.593 79.176C182.081 78.7493 181.387 78.536 180.513 78.536C179.702 78.536 179.073 78.6853 178.625 78.984C178.198 79.2827 177.985 79.6987 177.985 80.232C177.985 80.8293 178.283 81.288 178.881 81.608C179.478 81.9067 180.406 82.216 181.665 82.536C182.945 82.856 184.001 83.1867 184.833 83.528C185.665 83.8693 186.379 84.4027 186.977 85.128C187.595 85.832 187.915 86.7707 187.937 87.944C187.937 88.968 187.649 89.8853 187.073 90.696C186.518 91.5067 185.707 92.1467 184.641 92.616C183.595 93.064 182.369 93.288 180.961 93.288ZM201.598 75.016C202.942 75.016 204.137 75.3147 205.182 75.912C206.228 76.488 207.038 77.352 207.614 78.504C208.212 79.6347 208.51 81 208.51 82.6V93H204.03V83.208C204.03 81.8 203.678 80.7227 202.974 79.976C202.27 79.208 201.31 78.824 200.094 78.824C198.857 78.824 197.876 79.208 197.15 79.976C196.446 80.7227 196.094 81.8 196.094 83.208V93H191.614V69.32H196.094V77.48C196.67 76.712 197.438 76.1147 198.398 75.688C199.358 75.24 200.425 75.016 201.598 75.016ZM221.292 87.944C223.34 86.2373 224.972 84.8187 226.188 83.688C227.404 82.536 228.417 81.3413 229.228 80.104C230.038 78.8667 230.444 77.6507 230.444 76.456C230.444 75.368 230.188 74.5147 229.676 73.896C229.164 73.2773 228.374 72.968 227.308 72.968C226.241 72.968 225.42 73.3307 224.844 74.056C224.268 74.76 223.969 75.7307 223.948 76.968H219.596C219.681 74.408 220.438 72.4667 221.868 71.144C223.318 69.8213 225.153 69.16 227.372 69.16C229.804 69.16 231.67 69.8107 232.972 71.112C234.273 72.392 234.924 74.088 234.924 76.2C234.924 77.864 234.476 79.4533 233.58 80.968C232.684 82.4827 231.66 83.8053 230.508 84.936C229.356 86.0453 227.852 87.3893 225.996 88.968H235.436V92.68H219.628V89.352L221.292 87.944ZM252.403 79.688V83.464H238.835V79.688H252.403ZM256.979 75.816C257.085 73.6827 257.832 72.04 259.219 70.888C260.627 69.7147 262.472 69.128 264.755 69.128C266.312 69.128 267.645 69.4053 268.755 69.96C269.864 70.4933 270.696 71.2293 271.251 72.168C271.827 73.0853 272.115 74.1307 272.115 75.304C272.115 76.648 271.763 77.7893 271.059 78.728C270.376 79.6453 269.555 80.264 268.595 80.584V80.712C269.832 81.096 270.792 81.7787 271.475 82.76C272.179 83.7413 272.531 85 272.531 86.536C272.531 87.816 272.232 88.9573 271.635 89.96C271.059 90.9627 270.195 91.752 269.043 92.328C267.912 92.8827 266.547 93.16 264.947 93.16C262.536 93.16 260.573 92.552 259.059 91.336C257.544 90.12 256.744 88.328 256.659 85.96H261.011C261.053 87.0053 261.405 87.848 262.067 88.488C262.749 89.1067 263.677 89.416 264.851 89.416C265.939 89.416 266.771 89.1173 267.347 88.52C267.944 87.9013 268.243 87.112 268.243 86.152C268.243 84.872 267.837 83.9547 267.027 83.4C266.216 82.8453 264.957 82.568 263.251 82.568H262.323V78.888H263.251C266.28 78.888 267.795 77.8747 267.795 75.848C267.795 74.9307 267.517 74.216 266.963 73.704C266.429 73.192 265.651 72.936 264.627 72.936C263.624 72.936 262.845 73.2133 262.291 73.768C261.757 74.3013 261.448 74.984 261.363 75.816H256.979ZM286.48 73.16C285.691 73.16 285.029 72.9147 284.496 72.424C283.984 71.912 283.728 71.2827 283.728 70.536C283.728 69.7893 283.984 69.1707 284.496 68.68C285.029 68.168 285.691 67.912 286.48 67.912C287.269 67.912 287.92 68.168 288.432 68.68C288.965 69.1707 289.232 69.7893 289.232 70.536C289.232 71.2827 288.965 71.912 288.432 72.424C287.92 72.9147 287.269 73.16 286.48 73.16ZM288.688 75.272V93H284.208V75.272H288.688ZM299.898 93.288C298.448 93.288 297.146 93.032 295.994 92.52C294.842 91.9867 293.925 91.272 293.242 90.376C292.581 89.48 292.218 88.488 292.154 87.4H296.666C296.752 88.0827 297.082 88.648 297.658 89.096C298.256 89.544 298.992 89.768 299.866 89.768C300.72 89.768 301.381 89.5973 301.85 89.256C302.341 88.9147 302.586 88.4773 302.586 87.944C302.586 87.368 302.288 86.9413 301.69 86.664C301.114 86.3653 300.186 86.0453 298.906 85.704C297.584 85.384 296.496 85.0533 295.642 84.712C294.81 84.3707 294.085 83.848 293.466 83.144C292.869 82.44 292.57 81.4907 292.57 80.296C292.57 79.3147 292.848 78.4187 293.402 77.608C293.978 76.7973 294.789 76.1573 295.834 75.688C296.901 75.2187 298.149 74.984 299.578 74.984C301.69 74.984 303.376 75.5173 304.634 76.584C305.893 77.6293 306.586 79.048 306.714 80.84H302.426C302.362 80.136 302.064 79.5813 301.53 79.176C301.018 78.7493 300.325 78.536 299.45 78.536C298.64 78.536 298.01 78.6853 297.562 78.984C297.136 79.2827 296.922 79.6987 296.922 80.232C296.922 80.8293 297.221 81.288 297.818 81.608C298.416 81.9067 299.344 82.216 300.602 82.536C301.882 82.856 302.938 83.1867 303.77 83.528C304.602 83.8693 305.317 84.4027 305.914 85.128C306.533 85.832 306.853 86.7707 306.874 87.944C306.874 88.968 306.586 89.8853 306.01 90.696C305.456 91.5067 304.645 92.1467 303.578 92.616C302.533 93.064 301.306 93.288 299.898 93.288ZM320.536 75.016C321.88 75.016 323.074 75.3147 324.12 75.912C325.165 76.488 325.976 77.352 326.552 78.504C327.149 79.6347 327.448 81 327.448 82.6V93H322.968V83.208C322.968 81.8 322.616 80.7227 321.912 79.976C321.208 79.208 320.248 78.824 319.032 78.824C317.794 78.824 316.813 79.208 316.088 79.976C315.384 80.7227 315.032 81.8 315.032 83.208V93H310.552V69.32H315.032V77.48C315.608 76.712 316.376 76.1147 317.336 75.688C318.296 75.24 319.362 75.016 320.536 75.016ZM349.829 93L343.813 85.448V93H339.333V69.32H343.813V82.792L349.765 75.272H355.589L347.781 84.168L355.653 93H349.829ZM374.757 75.272V93H370.245V90.76C369.669 91.528 368.911 92.136 367.973 92.584C367.055 93.0107 366.053 93.224 364.965 93.224C363.578 93.224 362.351 92.936 361.285 92.36C360.218 91.7627 359.375 90.8987 358.757 89.768C358.159 88.616 357.861 87.2507 357.861 85.672V75.272H362.341V85.032C362.341 86.44 362.693 87.528 363.397 88.296C364.101 89.0427 365.061 89.416 366.277 89.416C367.514 89.416 368.485 89.0427 369.189 88.296C369.893 87.528 370.245 86.44 370.245 85.032V75.272H374.757ZM389.001 75.016C391.113 75.016 392.819 75.688 394.121 77.032C395.422 78.3547 396.073 80.2107 396.073 82.6V93H391.593V83.208C391.593 81.8 391.241 80.7227 390.537 79.976C389.833 79.208 388.873 78.824 387.657 78.824C386.419 78.824 385.438 79.208 384.713 79.976C384.009 80.7227 383.657 81.8 383.657 83.208V93H379.177V75.272H383.657V77.48C384.254 76.712 385.011 76.1147 385.929 75.688C386.867 75.24 387.891 75.016 389.001 75.016ZM402.605 73.16C401.816 73.16 401.154 72.9147 400.621 72.424C400.109 71.912 399.853 71.2827 399.853 70.536C399.853 69.7893 400.109 69.1707 400.621 68.68C401.154 68.168 401.816 67.912 402.605 67.912C403.394 67.912 404.045 68.168 404.557 68.68C405.09 69.1707 405.357 69.7893 405.357 70.536C405.357 71.2827 405.09 71.912 404.557 72.424C404.045 72.9147 403.394 73.16 402.605 73.16ZM404.813 75.272V93H400.333V75.272H404.813ZM419.136 73.16C418.347 73.16 417.686 72.9147 417.152 72.424C416.64 71.912 416.384 71.2827 416.384 70.536C416.384 69.7893 416.64 69.1707 417.152 68.68C417.686 68.168 418.347 67.912 419.136 67.912C419.926 67.912 420.576 68.168 421.088 68.68C421.622 69.1707 421.888 69.7893 421.888 70.536C421.888 71.2827 421.622 71.912 421.088 72.424C420.576 72.9147 419.926 73.16 419.136 73.16ZM421.344 75.272V93H416.864V75.272H421.344ZM424.618 84.136C424.618 82.3013 424.992 80.7013 425.739 79.336C426.485 77.9493 427.52 76.8827 428.843 76.136C430.165 75.368 431.68 74.984 433.387 74.984C435.584 74.984 437.397 75.5387 438.827 76.648C440.277 77.736 441.248 79.272 441.739 81.256H436.907C436.651 80.488 436.213 79.8907 435.595 79.464C434.997 79.016 434.251 78.792 433.355 78.792C432.075 78.792 431.061 79.2613 430.315 80.2C429.568 81.1173 429.195 82.4293 429.195 84.136C429.195 85.8213 429.568 87.1333 430.315 88.072C431.061 88.9893 432.075 89.448 433.355 89.448C435.168 89.448 436.352 88.6373 436.907 87.016H441.739C441.248 88.936 440.277 90.4613 438.827 91.592C437.376 92.7227 435.563 93.288 433.387 93.288C431.68 93.288 430.165 92.9147 428.843 92.168C427.52 91.4 426.485 90.3333 425.739 88.968C424.992 87.5813 424.618 85.9707 424.618 84.136ZM455.005 75.016C456.349 75.016 457.543 75.3147 458.589 75.912C459.634 76.488 460.445 77.352 461.021 78.504C461.618 79.6347 461.917 81 461.917 82.6V93H457.437V83.208C457.437 81.8 457.085 80.7227 456.381 79.976C455.677 79.208 454.717 78.824 453.501 78.824C452.263 78.824 451.282 79.208 450.557 79.976C449.853 80.7227 449.501 81.8 449.501 83.208V93H445.021V69.32H449.501V77.48C450.077 76.712 450.845 76.1147 451.805 75.688C452.765 75.24 453.831 75.016 455.005 75.016ZM468.449 73.16C467.659 73.16 466.998 72.9147 466.465 72.424C465.953 71.912 465.697 71.2827 465.697 70.536C465.697 69.7893 465.953 69.1707 466.465 68.68C466.998 68.168 467.659 67.912 468.449 67.912C469.238 67.912 469.889 68.168 470.401 68.68C470.934 69.1707 471.201 69.7893 471.201 70.536C471.201 71.2827 470.934 71.912 470.401 72.424C469.889 72.9147 469.238 73.16 468.449 73.16ZM470.657 75.272V93H466.177V75.272H470.657ZM473.931 84.072C473.931 82.28 474.283 80.6907 474.987 79.304C475.712 77.9173 476.694 76.8507 477.931 76.104C479.168 75.3573 480.544 74.984 482.059 74.984C483.211 74.984 484.31 75.24 485.355 75.752C486.4 76.2427 487.232 76.904 487.851 77.736V69.32H492.395V93H487.851V90.376C487.296 91.2507 486.518 91.9547 485.515 92.488C484.512 93.0213 483.35 93.288 482.027 93.288C480.534 93.288 479.168 92.904 477.931 92.136C476.694 91.368 475.712 90.2907 474.987 88.904C474.283 87.496 473.931 85.8853 473.931 84.072ZM487.883 84.136C487.883 83.048 487.67 82.12 487.243 81.352C486.816 80.5627 486.24 79.9653 485.515 79.56C484.79 79.1333 484.011 78.92 483.179 78.92C482.347 78.92 481.579 79.1227 480.875 79.528C480.171 79.9333 479.595 80.5307 479.147 81.32C478.72 82.088 478.507 83.0053 478.507 84.072C478.507 85.1387 478.72 86.0773 479.147 86.888C479.595 87.6773 480.171 88.2853 480.875 88.712C481.6 89.1387 482.368 89.352 483.179 89.352C484.011 89.352 484.79 89.1493 485.515 88.744C486.24 88.3173 486.816 87.72 487.243 86.952C487.67 86.1627 487.883 85.224 487.883 84.136ZM495.618 84.072C495.618 82.28 495.97 80.6907 496.674 79.304C497.4 77.9173 498.371 76.8507 499.587 76.104C500.824 75.3573 502.2 74.984 503.715 74.984C505.037 74.984 506.189 75.2507 507.171 75.784C508.173 76.3173 508.973 76.9893 509.571 77.8V75.272H514.083V93H509.571V90.408C508.995 91.24 508.195 91.9333 507.171 92.488C506.168 93.0213 505.005 93.288 503.683 93.288C502.189 93.288 500.824 92.904 499.587 92.136C498.371 91.368 497.4 90.2907 496.674 88.904C495.97 87.496 495.618 85.8853 495.618 84.072ZM509.571 84.136C509.571 83.048 509.357 82.12 508.931 81.352C508.504 80.5627 507.928 79.9653 507.203 79.56C506.477 79.1333 505.699 78.92 504.867 78.92C504.035 78.92 503.267 79.1227 502.562 79.528C501.859 79.9333 501.283 80.5307 500.835 81.32C500.408 82.088 500.195 83.0053 500.195 84.072C500.195 85.1387 500.408 86.0773 500.835 86.888C501.283 87.6773 501.859 88.2853 502.562 88.712C503.288 89.1387 504.056 89.352 504.867 89.352C505.699 89.352 506.477 89.1493 507.203 88.744C507.928 88.3173 508.504 87.72 508.931 86.952C509.357 86.1627 509.571 85.224 509.571 84.136Z" fill="white"/>
</svg>
