<svg width="103" height="27" viewBox="0 0 103 27" fill="none" xmlns="http://www.w3.org/2000/svg">
<path d="M13.184 26.252C10.808 26.252 8.624 25.7 6.632 24.596C4.664 23.492 3.092 21.956 1.916 19.988C0.764 17.996 0.188 15.764 0.188 13.292C0.188 10.82 0.764 8.6 1.916 6.632C3.092 4.664 4.664 3.128 6.632 2.024C8.624 0.92 10.808 0.368 13.184 0.368C15.56 0.368 17.732 0.92 19.7 2.024C21.692 3.128 23.252 4.664 24.38 6.632C25.532 8.6 26.108 10.82 26.108 13.292C26.108 15.764 25.532 17.996 24.38 19.988C23.228 21.956 21.668 23.492 19.7 24.596C17.732 25.7 15.56 26.252 13.184 26.252ZM13.184 20.636C15.2 20.636 16.808 19.964 18.008 18.62C19.232 17.276 19.844 15.5 19.844 13.292C19.844 11.06 19.232 9.284 18.008 7.964C16.808 6.62 15.2 5.948 13.184 5.948C11.144 5.948 9.512 6.608 8.288 7.928C7.088 9.248 6.488 11.036 6.488 13.292C6.488 15.524 7.088 17.312 8.288 18.656C9.512 19.976 11.144 20.636 13.184 20.636ZM38.6768 26.252C36.8288 26.252 35.1728 25.952 33.7088 25.352C32.2448 24.752 31.0688 23.864 30.1808 22.688C29.3168 21.512 28.8608 20.096 28.8128 18.44H35.3648C35.4608 19.376 35.7848 20.096 36.3368 20.6C36.8888 21.08 37.6088 21.32 38.4968 21.32C39.4088 21.32 40.1288 21.116 40.6568 20.708C41.1848 20.276 41.4488 19.688 41.4488 18.944C41.4488 18.32 41.2328 17.804 40.8008 17.396C40.3928 16.988 39.8768 16.652 39.2528 16.388C38.6528 16.124 37.7888 15.824 36.6608 15.488C35.0288 14.984 33.6968 14.48 32.6648 13.976C31.6328 13.472 30.7448 12.728 30.0008 11.744C29.2568 10.76 28.8848 9.476 28.8848 7.892C28.8848 5.54 29.7368 3.704 31.4408 2.384C33.1448 1.04 35.3648 0.368 38.1008 0.368C40.8848 0.368 43.1288 1.04 44.8328 2.384C46.5368 3.704 47.4488 5.552 47.5688 7.928H40.9088C40.8608 7.112 40.5608 6.476 40.0088 6.02C39.4568 5.54 38.7488 5.3 37.8848 5.3C37.1408 5.3 36.5408 5.504 36.0848 5.912C35.6288 6.296 35.4008 6.86 35.4008 7.604C35.4008 8.42 35.7848 9.056 36.5528 9.512C37.3208 9.968 38.5208 10.46 40.1528 10.988C41.7848 11.54 43.1048 12.068 44.1128 12.572C45.1448 13.076 46.0328 13.808 46.7768 14.768C47.5208 15.728 47.8928 16.964 47.8928 18.476C47.8928 19.916 47.5208 21.224 46.7768 22.4C46.0568 23.576 45.0008 24.512 43.6088 25.208C42.2168 25.904 40.5728 26.252 38.6768 26.252ZM63.6332 26.252C61.2572 26.252 59.0732 25.7 57.0812 24.596C55.1132 23.492 53.5412 21.956 52.3652 19.988C51.2132 17.996 50.6372 15.764 50.6372 13.292C50.6372 10.82 51.2132 8.6 52.3652 6.632C53.5412 4.664 55.1132 3.128 57.0812 2.024C59.0732 0.92 61.2572 0.368 63.6332 0.368C66.0092 0.368 68.1812 0.92 70.1492 2.024C72.1412 3.128 73.7012 4.664 74.8292 6.632C75.9812 8.6 76.5572 10.82 76.5572 13.292C76.5572 15.764 75.9812 17.996 74.8292 19.988C73.6772 21.956 72.1172 23.492 70.1492 24.596C68.1812 25.7 66.0092 26.252 63.6332 26.252ZM63.6332 20.636C65.6492 20.636 67.2572 19.964 68.4572 18.62C69.6812 17.276 70.2932 15.5 70.2932 13.292C70.2932 11.06 69.6812 9.284 68.4572 7.964C67.2572 6.62 65.6492 5.948 63.6332 5.948C61.5932 5.948 59.9612 6.608 58.7372 7.928C57.5372 9.248 56.9372 11.036 56.9372 13.292C56.9372 15.524 57.5372 17.312 58.7372 18.656C59.9612 19.976 61.5932 20.636 63.6332 20.636ZM102.59 26H96.434L86.138 10.412V26H79.982V0.727999H86.138L96.434 16.388V0.727999H102.59V26Z" fill="white"/>
</svg>
