<svg width="313" height="56" viewBox="0 0 313 56" fill="none" xmlns="http://www.w3.org/2000/svg">
<path d="M54.634 23.5694C55.1788 23.4787 55.5488 22.963 55.4387 22.4218C54.1464 16.0641 50.6827 10.3406 45.6256 6.24365C40.309 1.93649 33.5993 -0.274831 26.7636 0.0273119C19.9279 0.329454 13.4395 3.12414 8.52361 7.88359C3.60776 12.643 0.604815 19.0378 0.0818901 25.8601C-0.441035 32.6825 1.55226 39.4601 5.68533 44.9132C9.8184 50.3662 15.8051 54.1171 22.5149 55.4575C29.2247 56.7979 36.1931 55.635 42.104 52.1884C47.7264 48.91 52.0219 43.7813 54.2681 37.6948C54.4593 37.1767 54.1722 36.6106 53.6476 36.438L51.5578 35.7504C51.0332 35.5778 50.47 35.8642 50.2755 36.3811C48.3523 41.493 44.7241 45.7988 39.9884 48.5601C34.9641 51.4897 29.041 52.4782 23.3377 51.3389C17.6344 50.1995 12.5456 47.0113 9.03253 42.3762C5.51942 37.7411 3.82512 31.9801 4.26961 26.1811C4.71409 20.3821 7.2666 14.9466 11.4451 10.901C15.6235 6.85552 21.1387 4.48004 26.949 4.22321C32.7594 3.96639 38.4626 5.84601 42.9817 9.5071C47.2413 12.9579 50.1709 17.7664 51.2926 23.1117C51.406 23.6522 51.919 24.021 52.4638 23.9304L54.634 23.5694Z" fill="#B2E2FF"/>
<mask id="path-2-outside-1_1_130" maskUnits="userSpaceOnUse" x="14" y="10" width="300" height="41" fill="black">
<rect fill="white" x="14" y="10" width="300" height="41"/>
<path d="M28.608 39.224C26.496 39.224 24.5547 38.7333 22.784 37.752C21.0347 36.7707 19.6373 35.4053 18.592 33.656C17.568 31.8853 17.056 29.9013 17.056 27.704C17.056 25.5067 17.568 23.5333 18.592 21.784C19.6373 20.0347 21.0347 18.6693 22.784 17.688C24.5547 16.7067 26.496 16.216 28.608 16.216C30.72 16.216 32.6507 16.7067 34.4 17.688C36.1707 18.6693 37.5573 20.0347 38.56 21.784C39.584 23.5333 40.096 25.5067 40.096 27.704C40.096 29.9013 39.584 31.8853 38.56 33.656C37.536 35.4053 36.1493 36.7707 34.4 37.752C32.6507 38.7333 30.72 39.224 28.608 39.224ZM28.608 34.232C30.4 34.232 31.8293 33.6347 32.896 32.44C33.984 31.2453 34.528 29.6667 34.528 27.704C34.528 25.72 33.984 24.1413 32.896 22.968C31.8293 21.7733 30.4 21.176 28.608 21.176C26.7947 21.176 25.344 21.7627 24.256 22.936C23.1893 24.1093 22.656 25.6987 22.656 27.704C22.656 29.688 23.1893 31.2773 24.256 32.472C25.344 33.6453 26.7947 34.232 28.608 34.232ZM50.4043 39.256C48.8469 39.256 47.4603 38.9893 46.2443 38.456C45.0283 37.9227 44.0683 37.1973 43.3643 36.28C42.6603 35.3413 42.2656 34.296 42.1803 33.144H47.5883C47.6523 33.7627 47.9403 34.264 48.4523 34.648C48.9643 35.032 49.5936 35.224 50.3403 35.224C51.0229 35.224 51.5456 35.096 51.9083 34.84C52.2923 34.5627 52.4843 34.2107 52.4843 33.784C52.4843 33.272 52.2176 32.8987 51.6843 32.664C51.1509 32.408 50.2869 32.1307 49.0923 31.832C47.8123 31.5333 46.7456 31.224 45.8923 30.904C45.0389 30.5627 44.3029 30.04 43.6843 29.336C43.0656 28.6107 42.7563 27.64 42.7563 26.424C42.7563 25.4 43.0336 24.472 43.5883 23.64C44.1643 22.7867 44.9963 22.1147 46.0843 21.624C47.1936 21.1333 48.5056 20.888 50.0203 20.888C52.2603 20.888 54.0203 21.4427 55.3003 22.552C56.6016 23.6613 57.3483 25.1333 57.5403 26.968H52.4843C52.3989 26.3493 52.1216 25.8587 51.6523 25.496C51.2043 25.1333 50.6069 24.952 49.8603 24.952C49.2203 24.952 48.7296 25.08 48.3883 25.336C48.0469 25.5707 47.8763 25.9013 47.8763 26.328C47.8763 26.84 48.1429 27.224 48.6763 27.48C49.2309 27.736 50.0843 27.992 51.2363 28.248C52.5589 28.5893 53.6363 28.9307 54.4683 29.272C55.3003 29.592 56.0256 30.1253 56.6443 30.872C57.2843 31.5973 57.6149 32.5787 57.6363 33.816C57.6363 34.8613 57.3376 35.8 56.7403 36.632C56.1643 37.4427 55.3216 38.0827 54.2123 38.552C53.1243 39.0213 51.8549 39.256 50.4043 39.256ZM69.112 39.256C67.3627 39.256 65.784 38.8827 64.376 38.136C62.9893 37.3893 61.8907 36.3227 61.08 34.936C60.2907 33.5493 59.896 31.928 59.896 30.072C59.896 28.2373 60.3013 26.6267 61.112 25.24C61.9227 23.832 63.032 22.7547 64.44 22.008C65.848 21.2613 67.4267 20.888 69.176 20.888C70.9253 20.888 72.504 21.2613 73.912 22.008C75.32 22.7547 76.4293 23.832 77.24 25.24C78.0507 26.6267 78.456 28.2373 78.456 30.072C78.456 31.9067 78.04 33.528 77.208 34.936C76.3973 36.3227 75.2773 37.3893 73.848 38.136C72.44 38.8827 70.8613 39.256 69.112 39.256ZM69.112 34.52C70.1573 34.52 71.0427 34.136 71.768 33.368C72.5147 32.6 72.888 31.5013 72.888 30.072C72.888 28.6427 72.5253 27.544 71.8 26.776C71.096 26.008 70.2213 25.624 69.176 25.624C68.1093 25.624 67.224 26.008 66.52 26.776C65.816 27.5227 65.464 28.6213 65.464 30.072C65.464 31.5013 65.8053 32.6 66.488 33.368C67.192 34.136 68.0667 34.52 69.112 34.52ZM92.239 20.952C94.3297 20.952 95.9937 21.6347 97.231 23C98.4897 24.344 99.119 26.2 99.119 28.568V39H93.679V29.304C93.679 28.1093 93.3697 27.1813 92.751 26.52C92.1323 25.8587 91.3003 25.528 90.255 25.528C89.2097 25.528 88.3777 25.8587 87.759 26.52C87.1403 27.1813 86.831 28.1093 86.831 29.304V39H81.359V21.144H86.831V23.512C87.3857 22.7227 88.1323 22.104 89.071 21.656C90.0097 21.1867 91.0657 20.952 92.239 20.952ZM115.175 23.672C115.687 22.84 116.423 22.168 117.383 21.656C118.343 21.144 119.441 20.888 120.679 20.888C122.151 20.888 123.484 21.2613 124.679 22.008C125.873 22.7547 126.812 23.8213 127.495 25.208C128.199 26.5947 128.551 28.2053 128.551 30.04C128.551 31.8747 128.199 33.496 127.495 34.904C126.812 36.2907 125.873 37.368 124.679 38.136C123.484 38.8827 122.151 39.256 120.679 39.256C119.42 39.256 118.321 39.0107 117.383 38.52C116.444 38.008 115.708 37.336 115.175 36.504V39H109.703V15.32H115.175V23.672ZM122.983 30.04C122.983 28.6747 122.599 27.608 121.831 26.84C121.084 26.0507 120.156 25.656 119.047 25.656C117.959 25.656 117.031 26.0507 116.263 26.84C115.516 27.6293 115.143 28.7067 115.143 30.072C115.143 31.4373 115.516 32.5147 116.263 33.304C117.031 34.0933 117.959 34.488 119.047 34.488C120.135 34.488 121.063 34.0933 121.831 33.304C122.599 32.4933 122.983 31.4053 122.983 30.04ZM134.174 19.288C133.214 19.288 132.424 19.0107 131.806 18.456C131.208 17.88 130.91 17.176 130.91 16.344C130.91 15.4907 131.208 14.7867 131.806 14.232C132.424 13.656 133.214 13.368 134.174 13.368C135.112 13.368 135.88 13.656 136.478 14.232C137.096 14.7867 137.406 15.4907 137.406 16.344C137.406 17.176 137.096 17.88 136.478 18.456C135.88 19.0107 135.112 19.288 134.174 19.288ZM136.894 21.144V39H131.422V21.144H136.894ZM146.331 15.32V39H140.859V15.32H146.331ZM149.209 30.04C149.209 28.2053 149.55 26.5947 150.233 25.208C150.937 23.8213 151.886 22.7547 153.081 22.008C154.275 21.2613 155.609 20.888 157.081 20.888C158.339 20.888 159.438 21.144 160.377 21.656C161.337 22.168 162.073 22.84 162.585 23.672V21.144H168.057V39H162.585V36.472C162.051 37.304 161.305 37.976 160.345 38.488C159.406 39 158.307 39.256 157.049 39.256C155.598 39.256 154.275 38.8827 153.081 38.136C151.886 37.368 150.937 36.2907 150.233 34.904C149.55 33.496 149.209 31.8747 149.209 30.04ZM162.585 30.072C162.585 28.7067 162.201 27.6293 161.433 26.84C160.686 26.0507 159.769 25.656 158.681 25.656C157.593 25.656 156.665 26.0507 155.897 26.84C155.15 27.608 154.777 28.6747 154.777 30.04C154.777 31.4053 155.15 32.4933 155.897 33.304C156.665 34.0933 157.593 34.488 158.681 34.488C159.769 34.488 160.686 34.0933 161.433 33.304C162.201 32.5147 162.585 31.4373 162.585 30.072ZM182.895 20.952C184.986 20.952 186.65 21.6347 187.887 23C189.146 24.344 189.775 26.2 189.775 28.568V39H184.335V29.304C184.335 28.1093 184.026 27.1813 183.407 26.52C182.789 25.8587 181.957 25.528 180.911 25.528C179.866 25.528 179.034 25.8587 178.415 26.52C177.797 27.1813 177.487 28.1093 177.487 29.304V39H172.015V21.144H177.487V23.512C178.042 22.7227 178.789 22.104 179.727 21.656C180.666 21.1867 181.722 20.952 182.895 20.952ZM213.959 27.48C215.26 27.7573 216.306 28.408 217.095 29.432C217.884 30.4347 218.279 31.5867 218.279 32.888C218.279 34.7653 217.618 36.2587 216.295 37.368C214.994 38.456 213.17 39 210.823 39H200.359V16.536H210.471C212.754 16.536 214.535 17.0587 215.815 18.104C217.116 19.1493 217.767 20.568 217.767 22.36C217.767 23.6827 217.415 24.7813 216.711 25.656C216.028 26.5307 215.111 27.1387 213.959 27.48ZM205.831 25.624H209.415C210.311 25.624 210.994 25.432 211.463 25.048C211.954 24.6427 212.199 24.056 212.199 23.288C212.199 22.52 211.954 21.9333 211.463 21.528C210.994 21.1227 210.311 20.92 209.415 20.92H205.831V25.624ZM209.863 34.584C210.78 34.584 211.484 34.3813 211.975 33.976C212.487 33.5493 212.743 32.9413 212.743 32.152C212.743 31.3627 212.476 30.744 211.943 30.296C211.431 29.848 210.716 29.624 209.799 29.624H205.831V34.584H209.863ZM229.581 39.256C227.831 39.256 226.253 38.8827 224.845 38.136C223.458 37.3893 222.359 36.3227 221.549 34.936C220.759 33.5493 220.365 31.928 220.365 30.072C220.365 28.2373 220.77 26.6267 221.581 25.24C222.391 23.832 223.501 22.7547 224.909 22.008C226.317 21.2613 227.895 20.888 229.645 20.888C231.394 20.888 232.973 21.2613 234.381 22.008C235.789 22.7547 236.898 23.832 237.709 25.24C238.519 26.6267 238.925 28.2373 238.925 30.072C238.925 31.9067 238.509 33.528 237.677 34.936C236.866 36.3227 235.746 37.3893 234.317 38.136C232.909 38.8827 231.33 39.256 229.581 39.256ZM229.581 34.52C230.626 34.52 231.511 34.136 232.237 33.368C232.983 32.6 233.357 31.5013 233.357 30.072C233.357 28.6427 232.994 27.544 232.269 26.776C231.565 26.008 230.69 25.624 229.645 25.624C228.578 25.624 227.693 26.008 226.989 26.776C226.285 27.5227 225.933 28.6213 225.933 30.072C225.933 31.5013 226.274 32.6 226.957 33.368C227.661 34.136 228.535 34.52 229.581 34.52ZM243.076 16.536H248.676L245.092 25.112H241.412L243.076 16.536ZM257.362 15.32V39H251.89V15.32H257.362ZM264.08 19.288C263.12 19.288 262.33 19.0107 261.712 18.456C261.114 17.88 260.816 17.176 260.816 16.344C260.816 15.4907 261.114 14.7867 261.712 14.232C262.33 13.656 263.12 13.368 264.08 13.368C265.018 13.368 265.786 13.656 266.384 14.232C267.002 14.7867 267.312 15.4907 267.312 16.344C267.312 17.176 267.002 17.88 266.384 18.456C265.786 19.0107 265.018 19.288 264.08 19.288ZM266.8 21.144V39H261.328V21.144H266.8ZM281.645 20.952C283.736 20.952 285.4 21.6347 286.637 23C287.896 24.344 288.525 26.2 288.525 28.568V39H283.085V29.304C283.085 28.1093 282.776 27.1813 282.157 26.52C281.539 25.8587 280.707 25.528 279.661 25.528C278.616 25.528 277.784 25.8587 277.165 26.52C276.547 27.1813 276.237 28.1093 276.237 29.304V39H270.765V21.144H276.237V23.512C276.792 22.7227 277.539 22.104 278.477 21.656C279.416 21.1867 280.472 20.952 281.645 20.952ZM299.112 20.888C300.37 20.888 301.469 21.144 302.408 21.656C303.368 22.168 304.104 22.84 304.616 23.672V21.144H310.088V38.968C310.088 40.6107 309.757 42.0933 309.096 43.416C308.456 44.76 307.464 45.8267 306.12 46.616C304.797 47.4053 303.144 47.8 301.16 47.8C298.514 47.8 296.37 47.1707 294.728 45.912C293.085 44.6747 292.146 42.9893 291.912 40.856H297.32C297.49 41.5387 297.896 42.072 298.536 42.456C299.176 42.8613 299.965 43.064 300.904 43.064C302.034 43.064 302.93 42.7333 303.592 42.072C304.274 41.432 304.616 40.3973 304.616 38.968V36.44C304.082 37.272 303.346 37.9547 302.408 38.488C301.469 39 300.37 39.256 299.112 39.256C297.64 39.256 296.306 38.8827 295.112 38.136C293.917 37.368 292.968 36.2907 292.264 34.904C291.581 33.496 291.24 31.8747 291.24 30.04C291.24 28.2053 291.581 26.5947 292.264 25.208C292.968 23.8213 293.917 22.7547 295.112 22.008C296.306 21.2613 297.64 20.888 299.112 20.888ZM304.616 30.072C304.616 28.7067 304.232 27.6293 303.464 26.84C302.717 26.0507 301.8 25.656 300.712 25.656C299.624 25.656 298.696 26.0507 297.928 26.84C297.181 27.608 296.808 28.6747 296.808 30.04C296.808 31.4053 297.181 32.4933 297.928 33.304C298.696 34.0933 299.624 34.488 300.712 34.488C301.8 34.488 302.717 34.0933 303.464 33.304C304.232 32.5147 304.616 31.4373 304.616 30.072Z"/>
</mask>
<path d="M28.608 39.224C26.496 39.224 24.5547 38.7333 22.784 37.752C21.0347 36.7707 19.6373 35.4053 18.592 33.656C17.568 31.8853 17.056 29.9013 17.056 27.704C17.056 25.5067 17.568 23.5333 18.592 21.784C19.6373 20.0347 21.0347 18.6693 22.784 17.688C24.5547 16.7067 26.496 16.216 28.608 16.216C30.72 16.216 32.6507 16.7067 34.4 17.688C36.1707 18.6693 37.5573 20.0347 38.56 21.784C39.584 23.5333 40.096 25.5067 40.096 27.704C40.096 29.9013 39.584 31.8853 38.56 33.656C37.536 35.4053 36.1493 36.7707 34.4 37.752C32.6507 38.7333 30.72 39.224 28.608 39.224ZM28.608 34.232C30.4 34.232 31.8293 33.6347 32.896 32.44C33.984 31.2453 34.528 29.6667 34.528 27.704C34.528 25.72 33.984 24.1413 32.896 22.968C31.8293 21.7733 30.4 21.176 28.608 21.176C26.7947 21.176 25.344 21.7627 24.256 22.936C23.1893 24.1093 22.656 25.6987 22.656 27.704C22.656 29.688 23.1893 31.2773 24.256 32.472C25.344 33.6453 26.7947 34.232 28.608 34.232ZM50.4043 39.256C48.8469 39.256 47.4603 38.9893 46.2443 38.456C45.0283 37.9227 44.0683 37.1973 43.3643 36.28C42.6603 35.3413 42.2656 34.296 42.1803 33.144H47.5883C47.6523 33.7627 47.9403 34.264 48.4523 34.648C48.9643 35.032 49.5936 35.224 50.3403 35.224C51.0229 35.224 51.5456 35.096 51.9083 34.84C52.2923 34.5627 52.4843 34.2107 52.4843 33.784C52.4843 33.272 52.2176 32.8987 51.6843 32.664C51.1509 32.408 50.2869 32.1307 49.0923 31.832C47.8123 31.5333 46.7456 31.224 45.8923 30.904C45.0389 30.5627 44.3029 30.04 43.6843 29.336C43.0656 28.6107 42.7563 27.64 42.7563 26.424C42.7563 25.4 43.0336 24.472 43.5883 23.64C44.1643 22.7867 44.9963 22.1147 46.0843 21.624C47.1936 21.1333 48.5056 20.888 50.0203 20.888C52.2603 20.888 54.0203 21.4427 55.3003 22.552C56.6016 23.6613 57.3483 25.1333 57.5403 26.968H52.4843C52.3989 26.3493 52.1216 25.8587 51.6523 25.496C51.2043 25.1333 50.6069 24.952 49.8603 24.952C49.2203 24.952 48.7296 25.08 48.3883 25.336C48.0469 25.5707 47.8763 25.9013 47.8763 26.328C47.8763 26.84 48.1429 27.224 48.6763 27.48C49.2309 27.736 50.0843 27.992 51.2363 28.248C52.5589 28.5893 53.6363 28.9307 54.4683 29.272C55.3003 29.592 56.0256 30.1253 56.6443 30.872C57.2843 31.5973 57.6149 32.5787 57.6363 33.816C57.6363 34.8613 57.3376 35.8 56.7403 36.632C56.1643 37.4427 55.3216 38.0827 54.2123 38.552C53.1243 39.0213 51.8549 39.256 50.4043 39.256ZM69.112 39.256C67.3627 39.256 65.784 38.8827 64.376 38.136C62.9893 37.3893 61.8907 36.3227 61.08 34.936C60.2907 33.5493 59.896 31.928 59.896 30.072C59.896 28.2373 60.3013 26.6267 61.112 25.24C61.9227 23.832 63.032 22.7547 64.44 22.008C65.848 21.2613 67.4267 20.888 69.176 20.888C70.9253 20.888 72.504 21.2613 73.912 22.008C75.32 22.7547 76.4293 23.832 77.24 25.24C78.0507 26.6267 78.456 28.2373 78.456 30.072C78.456 31.9067 78.04 33.528 77.208 34.936C76.3973 36.3227 75.2773 37.3893 73.848 38.136C72.44 38.8827 70.8613 39.256 69.112 39.256ZM69.112 34.52C70.1573 34.52 71.0427 34.136 71.768 33.368C72.5147 32.6 72.888 31.5013 72.888 30.072C72.888 28.6427 72.5253 27.544 71.8 26.776C71.096 26.008 70.2213 25.624 69.176 25.624C68.1093 25.624 67.224 26.008 66.52 26.776C65.816 27.5227 65.464 28.6213 65.464 30.072C65.464 31.5013 65.8053 32.6 66.488 33.368C67.192 34.136 68.0667 34.52 69.112 34.52ZM92.239 20.952C94.3297 20.952 95.9937 21.6347 97.231 23C98.4897 24.344 99.119 26.2 99.119 28.568V39H93.679V29.304C93.679 28.1093 93.3697 27.1813 92.751 26.52C92.1323 25.8587 91.3003 25.528 90.255 25.528C89.2097 25.528 88.3777 25.8587 87.759 26.52C87.1403 27.1813 86.831 28.1093 86.831 29.304V39H81.359V21.144H86.831V23.512C87.3857 22.7227 88.1323 22.104 89.071 21.656C90.0097 21.1867 91.0657 20.952 92.239 20.952ZM115.175 23.672C115.687 22.84 116.423 22.168 117.383 21.656C118.343 21.144 119.441 20.888 120.679 20.888C122.151 20.888 123.484 21.2613 124.679 22.008C125.873 22.7547 126.812 23.8213 127.495 25.208C128.199 26.5947 128.551 28.2053 128.551 30.04C128.551 31.8747 128.199 33.496 127.495 34.904C126.812 36.2907 125.873 37.368 124.679 38.136C123.484 38.8827 122.151 39.256 120.679 39.256C119.42 39.256 118.321 39.0107 117.383 38.52C116.444 38.008 115.708 37.336 115.175 36.504V39H109.703V15.32H115.175V23.672ZM122.983 30.04C122.983 28.6747 122.599 27.608 121.831 26.84C121.084 26.0507 120.156 25.656 119.047 25.656C117.959 25.656 117.031 26.0507 116.263 26.84C115.516 27.6293 115.143 28.7067 115.143 30.072C115.143 31.4373 115.516 32.5147 116.263 33.304C117.031 34.0933 117.959 34.488 119.047 34.488C120.135 34.488 121.063 34.0933 121.831 33.304C122.599 32.4933 122.983 31.4053 122.983 30.04ZM134.174 19.288C133.214 19.288 132.424 19.0107 131.806 18.456C131.208 17.88 130.91 17.176 130.91 16.344C130.91 15.4907 131.208 14.7867 131.806 14.232C132.424 13.656 133.214 13.368 134.174 13.368C135.112 13.368 135.88 13.656 136.478 14.232C137.096 14.7867 137.406 15.4907 137.406 16.344C137.406 17.176 137.096 17.88 136.478 18.456C135.88 19.0107 135.112 19.288 134.174 19.288ZM136.894 21.144V39H131.422V21.144H136.894ZM146.331 15.32V39H140.859V15.32H146.331ZM149.209 30.04C149.209 28.2053 149.55 26.5947 150.233 25.208C150.937 23.8213 151.886 22.7547 153.081 22.008C154.275 21.2613 155.609 20.888 157.081 20.888C158.339 20.888 159.438 21.144 160.377 21.656C161.337 22.168 162.073 22.84 162.585 23.672V21.144H168.057V39H162.585V36.472C162.051 37.304 161.305 37.976 160.345 38.488C159.406 39 158.307 39.256 157.049 39.256C155.598 39.256 154.275 38.8827 153.081 38.136C151.886 37.368 150.937 36.2907 150.233 34.904C149.55 33.496 149.209 31.8747 149.209 30.04ZM162.585 30.072C162.585 28.7067 162.201 27.6293 161.433 26.84C160.686 26.0507 159.769 25.656 158.681 25.656C157.593 25.656 156.665 26.0507 155.897 26.84C155.15 27.608 154.777 28.6747 154.777 30.04C154.777 31.4053 155.15 32.4933 155.897 33.304C156.665 34.0933 157.593 34.488 158.681 34.488C159.769 34.488 160.686 34.0933 161.433 33.304C162.201 32.5147 162.585 31.4373 162.585 30.072ZM182.895 20.952C184.986 20.952 186.65 21.6347 187.887 23C189.146 24.344 189.775 26.2 189.775 28.568V39H184.335V29.304C184.335 28.1093 184.026 27.1813 183.407 26.52C182.789 25.8587 181.957 25.528 180.911 25.528C179.866 25.528 179.034 25.8587 178.415 26.52C177.797 27.1813 177.487 28.1093 177.487 29.304V39H172.015V21.144H177.487V23.512C178.042 22.7227 178.789 22.104 179.727 21.656C180.666 21.1867 181.722 20.952 182.895 20.952ZM213.959 27.48C215.26 27.7573 216.306 28.408 217.095 29.432C217.884 30.4347 218.279 31.5867 218.279 32.888C218.279 34.7653 217.618 36.2587 216.295 37.368C214.994 38.456 213.17 39 210.823 39H200.359V16.536H210.471C212.754 16.536 214.535 17.0587 215.815 18.104C217.116 19.1493 217.767 20.568 217.767 22.36C217.767 23.6827 217.415 24.7813 216.711 25.656C216.028 26.5307 215.111 27.1387 213.959 27.48ZM205.831 25.624H209.415C210.311 25.624 210.994 25.432 211.463 25.048C211.954 24.6427 212.199 24.056 212.199 23.288C212.199 22.52 211.954 21.9333 211.463 21.528C210.994 21.1227 210.311 20.92 209.415 20.92H205.831V25.624ZM209.863 34.584C210.78 34.584 211.484 34.3813 211.975 33.976C212.487 33.5493 212.743 32.9413 212.743 32.152C212.743 31.3627 212.476 30.744 211.943 30.296C211.431 29.848 210.716 29.624 209.799 29.624H205.831V34.584H209.863ZM229.581 39.256C227.831 39.256 226.253 38.8827 224.845 38.136C223.458 37.3893 222.359 36.3227 221.549 34.936C220.759 33.5493 220.365 31.928 220.365 30.072C220.365 28.2373 220.77 26.6267 221.581 25.24C222.391 23.832 223.501 22.7547 224.909 22.008C226.317 21.2613 227.895 20.888 229.645 20.888C231.394 20.888 232.973 21.2613 234.381 22.008C235.789 22.7547 236.898 23.832 237.709 25.24C238.519 26.6267 238.925 28.2373 238.925 30.072C238.925 31.9067 238.509 33.528 237.677 34.936C236.866 36.3227 235.746 37.3893 234.317 38.136C232.909 38.8827 231.33 39.256 229.581 39.256ZM229.581 34.52C230.626 34.52 231.511 34.136 232.237 33.368C232.983 32.6 233.357 31.5013 233.357 30.072C233.357 28.6427 232.994 27.544 232.269 26.776C231.565 26.008 230.69 25.624 229.645 25.624C228.578 25.624 227.693 26.008 226.989 26.776C226.285 27.5227 225.933 28.6213 225.933 30.072C225.933 31.5013 226.274 32.6 226.957 33.368C227.661 34.136 228.535 34.52 229.581 34.52ZM243.076 16.536H248.676L245.092 25.112H241.412L243.076 16.536ZM257.362 15.32V39H251.89V15.32H257.362ZM264.08 19.288C263.12 19.288 262.33 19.0107 261.712 18.456C261.114 17.88 260.816 17.176 260.816 16.344C260.816 15.4907 261.114 14.7867 261.712 14.232C262.33 13.656 263.12 13.368 264.08 13.368C265.018 13.368 265.786 13.656 266.384 14.232C267.002 14.7867 267.312 15.4907 267.312 16.344C267.312 17.176 267.002 17.88 266.384 18.456C265.786 19.0107 265.018 19.288 264.08 19.288ZM266.8 21.144V39H261.328V21.144H266.8ZM281.645 20.952C283.736 20.952 285.4 21.6347 286.637 23C287.896 24.344 288.525 26.2 288.525 28.568V39H283.085V29.304C283.085 28.1093 282.776 27.1813 282.157 26.52C281.539 25.8587 280.707 25.528 279.661 25.528C278.616 25.528 277.784 25.8587 277.165 26.52C276.547 27.1813 276.237 28.1093 276.237 29.304V39H270.765V21.144H276.237V23.512C276.792 22.7227 277.539 22.104 278.477 21.656C279.416 21.1867 280.472 20.952 281.645 20.952ZM299.112 20.888C300.37 20.888 301.469 21.144 302.408 21.656C303.368 22.168 304.104 22.84 304.616 23.672V21.144H310.088V38.968C310.088 40.6107 309.757 42.0933 309.096 43.416C308.456 44.76 307.464 45.8267 306.12 46.616C304.797 47.4053 303.144 47.8 301.16 47.8C298.514 47.8 296.37 47.1707 294.728 45.912C293.085 44.6747 292.146 42.9893 291.912 40.856H297.32C297.49 41.5387 297.896 42.072 298.536 42.456C299.176 42.8613 299.965 43.064 300.904 43.064C302.034 43.064 302.93 42.7333 303.592 42.072C304.274 41.432 304.616 40.3973 304.616 38.968V36.44C304.082 37.272 303.346 37.9547 302.408 38.488C301.469 39 300.37 39.256 299.112 39.256C297.64 39.256 296.306 38.8827 295.112 38.136C293.917 37.368 292.968 36.2907 292.264 34.904C291.581 33.496 291.24 31.8747 291.24 30.04C291.24 28.2053 291.581 26.5947 292.264 25.208C292.968 23.8213 293.917 22.7547 295.112 22.008C296.306 21.2613 297.64 20.888 299.112 20.888ZM304.616 30.072C304.616 28.7067 304.232 27.6293 303.464 26.84C302.717 26.0507 301.8 25.656 300.712 25.656C299.624 25.656 298.696 26.0507 297.928 26.84C297.181 27.608 296.808 28.6747 296.808 30.04C296.808 31.4053 297.181 32.4933 297.928 33.304C298.696 34.0933 299.624 34.488 300.712 34.488C301.8 34.488 302.717 34.0933 303.464 33.304C304.232 32.5147 304.616 31.4373 304.616 30.072Z" fill="#191997"/>
<path d="M22.784 37.752L21.3162 40.3684L21.323 40.3722L21.3298 40.376L22.784 37.752ZM18.592 33.656L15.995 35.1579L16.0057 35.1764L16.0168 35.1949L18.592 33.656ZM18.592 21.784L16.0168 20.2451L16.0098 20.2568L16.003 20.2685L18.592 21.784ZM22.784 17.688L21.3298 15.064L21.323 15.0678L21.3162 15.0716L22.784 17.688ZM34.4 17.688L32.9322 20.3044L32.939 20.3082L32.9458 20.312L34.4 17.688ZM38.56 21.784L35.9572 23.2758L35.964 23.2877L35.971 23.2995L38.56 21.784ZM38.56 33.656L41.149 35.1715L41.153 35.1647L41.157 35.1579L38.56 33.656ZM34.4 37.752L35.8678 40.3684L35.8678 40.3684L34.4 37.752ZM32.896 32.44L30.678 30.42L30.668 30.4309L30.6582 30.442L32.896 32.44ZM32.896 22.968L30.6582 24.966L30.677 24.9871L30.6962 25.0078L32.896 22.968ZM24.256 22.936L22.0562 20.8962L22.0461 20.907L22.0362 20.918L24.256 22.936ZM24.256 32.472L22.0182 34.47L22.037 34.4911L22.0562 34.5118L24.256 32.472ZM28.608 36.224C26.9819 36.224 25.5443 35.8519 24.2382 35.128L21.3298 40.376C23.565 41.6148 26.0101 42.224 28.608 42.224V36.224ZM24.2518 35.1356C22.9669 34.4148 21.9483 33.4243 21.1672 32.1171L16.0168 35.1949C17.3263 37.3864 19.1024 39.1265 21.3162 40.3684L24.2518 35.1356ZM21.189 32.1541C20.4486 30.8738 20.056 29.4145 20.056 27.704H14.056C14.056 30.3882 14.6874 32.8969 15.995 35.1579L21.189 32.1541ZM20.056 27.704C20.056 25.9931 20.4486 24.5508 21.181 23.2995L16.003 20.2685C14.6874 22.5158 14.056 25.0202 14.056 27.704H20.056ZM21.1672 23.3229C21.9483 22.0157 22.9669 21.0252 24.2518 20.3044L21.3162 15.0716C19.1024 16.3135 17.3263 18.0536 16.0168 20.2451L21.1672 23.3229ZM24.2382 20.312C25.5443 19.5881 26.9819 19.216 28.608 19.216V13.216C26.0101 13.216 23.565 13.8252 21.3298 15.064L24.2382 20.312ZM28.608 19.216C30.2342 19.216 31.6552 19.588 32.9322 20.3044L35.8678 15.0716C33.6461 13.8253 31.2058 13.216 28.608 13.216V19.216ZM32.9458 20.312C34.2395 21.029 35.2281 22.0036 35.9572 23.2758L41.1628 20.2922C39.8866 18.0657 38.1019 16.3097 35.8542 15.064L32.9458 20.312ZM35.971 23.2995C36.7034 24.5508 37.096 25.9931 37.096 27.704H43.096C43.096 25.0202 42.4646 22.5158 41.149 20.2685L35.971 23.2995ZM37.096 27.704C37.096 29.4145 36.7034 30.8738 35.963 32.1541L41.157 35.1579C42.4646 32.8969 43.096 30.3882 43.096 27.704H37.096ZM35.971 32.1405C35.2133 33.4348 34.2115 34.4179 32.9322 35.1356L35.8678 40.3684C38.0872 39.1234 39.8587 37.3758 41.149 35.1715L35.971 32.1405ZM32.9322 35.1356C31.6552 35.852 30.2342 36.224 28.608 36.224V42.224C31.2058 42.224 33.6461 41.6147 35.8678 40.3684L32.9322 35.1356ZM28.608 37.232C31.1414 37.232 33.4267 36.35 35.1338 34.438L30.6582 30.442C30.232 30.9193 29.6586 31.232 28.608 31.232V37.232ZM35.114 34.46C36.8082 32.5997 37.528 30.2453 37.528 27.704H31.528C31.528 29.088 31.1598 29.8909 30.678 30.42L35.114 34.46ZM37.528 27.704C37.528 25.1535 36.8143 22.7814 35.0958 20.9282L30.6962 25.0078C31.1537 25.5013 31.528 26.2865 31.528 27.704H37.528ZM35.1338 20.97C33.4267 19.058 31.1414 18.176 28.608 18.176V24.176C29.6586 24.176 30.232 24.4887 30.6582 24.966L35.1338 20.97ZM28.608 18.176C26.0824 18.176 23.7902 19.0261 22.0562 20.8962L26.4558 24.9758C26.8978 24.4992 27.507 24.176 28.608 24.176V18.176ZM22.0362 20.918C20.3449 22.7784 19.656 25.1572 19.656 27.704H25.656C25.656 26.2401 26.0338 25.4403 26.4758 24.954L22.0362 20.918ZM19.656 27.704C19.656 30.2417 20.3509 32.6027 22.0182 34.47L26.4938 30.474C26.0278 29.952 25.656 29.1343 25.656 27.704H19.656ZM22.0562 34.5118C23.7902 36.3819 26.0824 37.232 28.608 37.232V31.232C27.507 31.232 26.8978 30.9088 26.4558 30.4322L22.0562 34.5118ZM46.2443 38.456L47.4492 35.7086L46.2443 38.456ZM43.3643 36.28L40.9643 38.08L40.9742 38.0933L40.9843 38.1065L43.3643 36.28ZM42.1803 33.144V30.144H38.9498L39.1884 33.3656L42.1803 33.144ZM47.5882 33.144L50.5723 32.8353L50.2939 30.144H47.5882V33.144ZM48.4523 34.648L50.2523 32.248L48.4523 34.648ZM51.9082 34.84L53.6383 37.2909L53.6516 37.2815L53.6647 37.272L51.9082 34.84ZM51.6842 32.664L50.3861 35.3686L50.4307 35.39L50.476 35.4099L51.6842 32.664ZM49.0923 31.832L49.8199 28.9216L49.7969 28.9158L49.7739 28.9105L49.0923 31.832ZM45.8923 30.904L44.7781 33.6894L44.8083 33.7015L44.8389 33.713L45.8923 30.904ZM43.6842 29.336L41.4017 31.2828L41.4161 31.2997L41.4308 31.3163L43.6842 29.336ZM43.5882 23.64L41.1017 21.9616L41.0969 21.9687L41.0921 21.9759L43.5882 23.64ZM46.0843 21.624L44.8707 18.8804L44.8608 18.8848L44.8509 18.8892L46.0843 21.624ZM55.3003 22.552L53.3355 24.8191L53.3447 24.8271L53.354 24.835L55.3003 22.552ZM57.5403 26.968V29.968H60.8706L60.524 26.6558L57.5403 26.968ZM52.4842 26.968L49.5124 27.3779L49.8696 29.968H52.4842V26.968ZM51.6523 25.496L49.7647 27.8277L49.791 27.8491L49.8179 27.8699L51.6523 25.496ZM48.3883 25.336L50.0878 27.8081L50.1388 27.7731L50.1883 27.736L48.3883 25.336ZM48.6763 27.48L47.3781 30.1846L47.3985 30.1944L47.4191 30.2039L48.6763 27.48ZM51.2363 28.248L51.9859 25.3432L51.9367 25.3305L51.887 25.3194L51.2363 28.248ZM54.4683 29.272L53.3296 32.0475L53.3603 32.0601L53.3913 32.072L54.4683 29.272ZM56.6442 30.872L54.3342 32.7861L54.3639 32.8219L54.3947 32.8569L56.6442 30.872ZM57.6363 33.816H60.6363V33.7901L60.6358 33.7643L57.6363 33.816ZM56.7402 36.632L54.3033 34.8824L54.299 34.8884L54.2947 34.8944L56.7402 36.632ZM54.2122 38.552L53.0433 35.7891L53.0336 35.7932L53.024 35.7974L54.2122 38.552ZM50.4043 36.256C49.1909 36.256 48.2254 36.0491 47.4492 35.7086L45.0393 41.2034C46.6951 41.9296 48.503 42.256 50.4043 42.256V36.256ZM47.4492 35.7086C46.6269 35.3479 46.0973 34.9137 45.7442 34.4535L40.9843 38.1065C42.0392 39.4809 43.4296 40.4974 45.0393 41.2034L47.4492 35.7086ZM45.7642 34.48C45.3986 33.9924 45.2143 33.493 45.1721 32.9224L39.1884 33.3656C39.3168 35.099 39.9219 36.6902 40.9643 38.08L45.7642 34.48ZM42.1803 36.144H47.5882V30.144H42.1803V36.144ZM44.6042 33.4527C44.757 34.9299 45.4934 36.1788 46.6523 37.048L50.2523 32.248C50.2871 32.2741 50.374 32.3511 50.4536 32.4896C50.5342 32.63 50.5644 32.7591 50.5723 32.8353L44.6042 33.4527ZM46.6523 37.048C47.7667 37.8838 49.0567 38.224 50.3402 38.224V32.224C50.2243 32.224 50.1793 32.2092 50.1837 32.2106C50.1854 32.2111 50.1952 32.2143 50.2099 32.2217C50.2248 32.2292 50.2394 32.2384 50.2523 32.248L46.6523 37.048ZM50.3402 38.224C51.331 38.224 52.5637 38.0494 53.6383 37.2909L50.1782 32.3891C50.3612 32.2599 50.5025 32.221 50.5306 32.2141C50.5555 32.208 50.5021 32.224 50.3402 32.224V38.224ZM53.6647 37.272C54.7299 36.5027 55.4842 35.2907 55.4842 33.784H49.4842C49.4842 33.5286 49.5468 33.2244 49.7066 32.9314C49.8605 32.6493 50.046 32.4843 50.1518 32.408L53.6647 37.272ZM55.4842 33.784C55.4842 32.9785 55.2639 32.1301 54.7255 31.3763C54.2046 30.6471 53.5214 30.1948 52.8925 29.9181L50.476 35.4099C50.3804 35.3679 50.0972 35.2195 49.843 34.8637C49.5713 34.4832 49.4842 34.0775 49.4842 33.784H55.4842ZM52.9824 29.9594C52.1598 29.5646 51.0478 29.2285 49.8199 28.9216L48.3646 34.7424C49.5261 35.0328 50.142 35.2514 50.3861 35.3686L52.9824 29.9594ZM49.7739 28.9105C48.5701 28.6296 47.6375 28.3545 46.9456 28.095L44.8389 33.713C45.8536 34.0935 47.0544 34.4371 48.4106 34.7535L49.7739 28.9105ZM47.0064 28.1186C46.5997 27.9559 46.2516 27.7127 45.9377 27.3557L41.4308 31.3163C42.3543 32.3673 43.4781 33.1694 44.7781 33.6894L47.0064 28.1186ZM45.9668 27.3892C45.9271 27.3426 45.7563 27.1279 45.7563 26.424H39.7563C39.7563 28.1521 40.2041 29.8787 41.4017 31.2828L45.9668 27.3892ZM45.7563 26.424C45.7563 25.9771 45.8666 25.6309 46.0844 25.3041L41.0921 21.9759C40.2006 23.3131 39.7563 24.8229 39.7563 26.424H45.7563ZM46.0748 25.3184C46.2923 24.9962 46.655 24.6576 47.3176 24.3588L44.8509 18.8892C43.3375 19.5717 42.0362 20.5771 41.1017 21.9616L46.0748 25.3184ZM47.2978 24.3676C47.9424 24.0825 48.8228 23.888 50.0202 23.888V17.888C48.1884 17.888 46.4448 18.1842 44.8707 18.8804L47.2978 24.3676ZM50.0202 23.888C51.7746 23.888 52.7562 24.317 53.3355 24.8191L57.265 20.2849C55.2843 18.5683 52.7459 17.888 50.0202 17.888V23.888ZM53.354 24.835C54.0208 25.4034 54.4378 26.1452 54.5565 27.2802L60.524 26.6558C60.2587 24.1215 59.1824 21.9193 57.2465 20.269L53.354 24.835ZM57.5403 23.968H52.4842V29.968H57.5403V23.968ZM55.4561 26.5581C55.2697 25.2067 54.6132 23.9927 53.4866 23.1221L49.8179 27.8699C49.7531 27.8198 49.6688 27.7329 49.6006 27.6122C49.5339 27.4942 49.5159 27.403 49.5124 27.3779L55.4561 26.5581ZM53.5398 23.1643C52.4173 22.2555 51.0885 21.952 49.8603 21.952V27.952C49.9943 27.952 50.0297 27.9686 49.9968 27.9586C49.9793 27.9533 49.9464 27.9416 49.9033 27.9192C49.8598 27.8966 49.8122 27.8662 49.7647 27.8277L53.5398 23.1643ZM49.8603 21.952C48.8796 21.952 47.6508 22.1391 46.5883 22.936L50.1883 27.736C49.9944 27.8814 49.8314 27.9347 49.7695 27.9509C49.713 27.9656 49.7324 27.952 49.8603 27.952V21.952ZM46.6887 22.8639C45.5045 23.678 44.8763 24.9489 44.8763 26.328H50.8763C50.8763 26.5228 50.8346 26.8173 50.6701 27.1359C50.5039 27.458 50.2778 27.6775 50.0878 27.8081L46.6887 22.8639ZM44.8763 26.328C44.8763 27.1347 45.0967 27.9689 45.6121 28.7112C46.1103 29.4285 46.7654 29.8905 47.3781 30.1846L49.9744 24.7754C50.0538 24.8135 50.3089 24.9555 50.5404 25.2888C50.7892 25.6471 50.8763 26.0333 50.8763 26.328H44.8763ZM47.4191 30.2039C48.2727 30.5979 49.3797 30.9086 50.5855 31.1766L51.887 25.3194C50.7888 25.0754 50.1891 24.8741 49.9334 24.7561L47.4191 30.2039ZM50.4866 31.1528C51.7372 31.4756 52.6711 31.7774 53.3296 32.0475L55.6069 26.4965C54.6014 26.084 53.3806 25.7031 51.9859 25.3432L50.4866 31.1528ZM53.3913 32.072C53.7015 32.1914 54.0142 32.3998 54.3342 32.7861L58.9543 28.9579C58.037 27.8508 56.899 26.9926 55.5452 26.472L53.3913 32.072ZM54.3947 32.8569C54.4435 32.9122 54.6241 33.1395 54.6367 33.8677L60.6358 33.7643C60.6057 32.0178 60.125 30.2825 58.8938 28.8871L54.3947 32.8569ZM54.6363 33.816C54.6363 34.2474 54.5265 34.5715 54.3033 34.8824L59.1772 38.3816C60.1487 37.0285 60.6363 35.4752 60.6363 33.816H54.6363ZM54.2947 34.8944C54.1031 35.1641 53.749 35.4906 53.0433 35.7891L55.3812 41.3149C56.8942 40.6748 58.2254 39.7212 59.1858 38.3696L54.2947 34.8944ZM53.024 35.7974C52.3854 36.0729 51.5356 36.256 50.4043 36.256V42.256C52.1743 42.256 53.8631 41.9698 55.4005 41.3066L53.024 35.7974ZM64.376 38.136L62.9537 40.7774L62.9621 40.7819L62.9705 40.7864L64.376 38.136ZM61.08 34.936L58.4728 36.4201L58.4814 36.4351L58.4901 36.4501L61.08 34.936ZM61.112 25.24L63.7019 26.7541L63.7069 26.7455L63.7119 26.7369L61.112 25.24ZM64.44 22.008L65.8455 24.6584L64.44 22.008ZM73.912 22.008L72.5065 24.6584L73.912 22.008ZM77.24 25.24L74.6401 26.7369L74.6451 26.7455L74.6501 26.7541L77.24 25.24ZM77.208 34.936L74.6252 33.4098L74.6181 33.4219L77.208 34.936ZM73.848 38.136L72.4589 35.477L72.4507 35.4813L72.4425 35.4856L73.848 38.136ZM71.768 33.368L69.617 31.2768L69.6019 31.2923L69.587 31.3081L71.768 33.368ZM71.8 26.776L69.5885 28.8032L69.6036 28.8196L69.619 28.8359L71.8 26.776ZM66.52 26.776L68.7028 28.834L68.7172 28.8187L68.7315 28.8032L66.52 26.776ZM66.488 33.368L64.2458 35.3611L64.261 35.3783L64.2765 35.3952L66.488 33.368ZM69.112 36.256C67.8039 36.256 66.7154 35.9809 65.7815 35.4856L62.9705 40.7864C64.8526 41.7845 66.9215 42.256 69.112 42.256V36.256ZM65.7983 35.4946C64.9071 35.0147 64.2082 34.3426 63.6699 33.4219L58.4901 36.4501C59.5732 38.3027 61.0716 39.764 62.9537 40.7774L65.7983 35.4946ZM63.6872 33.4519C63.1946 32.5866 62.896 31.4933 62.896 30.072H56.896C56.896 32.3627 57.3867 34.5121 58.4728 36.4201L63.6872 33.4519ZM62.896 30.072C62.896 28.6925 63.1961 27.6192 63.7019 26.7541L58.5221 23.7259C57.4065 25.6342 56.896 27.7822 56.896 30.072H62.896ZM63.7119 26.7369C64.2467 25.8081 64.9464 25.1352 65.8455 24.6584L63.0345 19.3576C61.1176 20.3741 59.5987 21.8559 58.5121 23.7431L63.7119 26.7369ZM65.8455 24.6584C66.7794 24.1631 67.8679 23.888 69.176 23.888V17.888C66.9855 17.888 64.9166 18.3595 63.0345 19.3576L65.8455 24.6584ZM69.176 23.888C70.4841 23.888 71.5726 24.1631 72.5065 24.6584L75.3175 19.3576C73.4354 18.3595 71.3665 17.888 69.176 17.888V23.888ZM72.5065 24.6584C73.4056 25.1352 74.1054 25.8081 74.6401 26.7369L79.8399 23.7431C78.7533 21.8559 77.2344 20.3741 75.3175 19.3576L72.5065 24.6584ZM74.6501 26.7541C75.1559 27.6192 75.456 28.6925 75.456 30.072H81.456C81.456 27.7822 80.9455 25.6342 79.8299 23.7259L74.6501 26.7541ZM75.456 30.072C75.456 31.4367 75.1519 32.5185 74.6252 33.4098L79.7908 36.4622C80.9281 34.5375 81.456 32.3766 81.456 30.072H75.456ZM74.6181 33.4219C74.0933 34.3196 73.3904 34.9904 72.4589 35.477L75.2371 40.795C77.1642 39.7883 78.7014 38.3258 79.7979 36.4501L74.6181 33.4219ZM72.4425 35.4856C71.5086 35.9809 70.4201 36.256 69.112 36.256V42.256C71.3025 42.256 73.3714 41.7845 75.2535 40.7864L72.4425 35.4856ZM69.112 37.52C70.9926 37.52 72.6638 36.7887 73.949 35.4279L69.587 31.3081C69.4216 31.4833 69.3221 31.52 69.112 31.52V37.52ZM73.919 35.4592C75.3723 33.9644 75.888 32.0138 75.888 30.072H69.888C69.888 30.9889 69.657 31.2356 69.617 31.2768L73.919 35.4592ZM75.888 30.072C75.888 28.1522 75.3951 26.2134 73.981 24.7161L69.619 28.8359C69.6555 28.8746 69.888 29.1331 69.888 30.072H75.888ZM74.0115 24.7488C72.7371 23.3586 71.059 22.624 69.176 22.624V28.624C69.323 28.624 69.3874 28.649 69.41 28.6589C69.4324 28.6688 69.4923 28.6982 69.5885 28.8032L74.0115 24.7488ZM69.176 22.624C67.2912 22.624 65.596 23.3444 64.3085 24.7488L68.7315 28.8032C68.8218 28.7046 68.8795 28.6757 68.9058 28.6643C68.9337 28.6521 69.0099 28.624 69.176 28.624V22.624ZM64.3372 24.718C62.9251 26.2157 62.464 28.1734 62.464 30.072H68.464C68.464 29.5811 68.5245 29.264 68.5849 29.0753C68.6414 28.8992 68.6942 28.8432 68.7028 28.834L64.3372 24.718ZM62.464 30.072C62.464 31.9488 62.913 33.8617 64.2458 35.3611L68.7302 31.3749C68.6977 31.3383 68.464 31.0538 68.464 30.072H62.464ZM64.2765 35.3952C65.5509 36.7854 67.229 37.52 69.112 37.52V31.52C68.965 31.52 68.9006 31.495 68.878 31.4851C68.8556 31.4752 68.7957 31.4458 68.6995 31.3408L64.2765 35.3952ZM97.231 23L95.008 25.0146L95.0245 25.0327L95.0413 25.0507L97.231 23ZM99.119 39V42H102.119V39H99.119ZM93.679 39H90.679V42H93.679V39ZM92.751 26.52L90.5602 28.5695V28.5695L92.751 26.52ZM87.759 26.52L89.9498 28.5695V28.5695L87.759 26.52ZM86.831 39V42H89.831V39H86.831ZM81.359 39H78.359V42H81.359V39ZM81.359 21.144V18.144H78.359V21.144H81.359ZM86.831 21.144H89.831V18.144H86.831V21.144ZM86.831 23.512H83.831V32.9991L89.2856 25.2368L86.831 23.512ZM89.071 21.656L90.3632 24.3634L90.388 24.3516L90.4126 24.3393L89.071 21.656ZM92.239 23.952C93.6089 23.952 94.4189 24.3645 95.008 25.0146L99.454 20.9854C97.5684 18.9048 95.0504 17.952 92.239 17.952V23.952ZM95.0413 25.0507C95.6433 25.6934 96.119 26.736 96.119 28.568H102.119C102.119 25.664 101.336 22.9946 99.4207 20.9493L95.0413 25.0507ZM96.119 28.568V39H102.119V28.568H96.119ZM99.119 36H93.679V42H99.119V36ZM96.679 39V29.304H90.679V39H96.679ZM96.679 29.304C96.679 27.5977 96.2289 25.8463 94.9418 24.4705L90.5602 28.5695C90.5604 28.5697 90.5606 28.5699 90.5611 28.5706C90.5617 28.5713 90.5634 28.5738 90.5663 28.5787C90.5716 28.5878 90.585 28.6127 90.601 28.6607C90.634 28.7597 90.679 28.9603 90.679 29.304H96.679ZM94.9418 24.4705C93.6667 23.1075 91.9904 22.528 90.255 22.528V28.528C90.4608 28.528 90.5454 28.5601 90.555 28.5639C90.5609 28.5662 90.5587 28.5659 90.5536 28.5624C90.5486 28.5589 90.5506 28.5593 90.5602 28.5695L94.9418 24.4705ZM90.255 22.528C88.5196 22.528 86.8433 23.1075 85.5682 24.4705L89.9498 28.5695C89.9594 28.5593 89.9614 28.5589 89.9564 28.5624C89.9513 28.5659 89.9491 28.5662 89.955 28.5639C89.9646 28.5601 90.0492 28.528 90.255 28.528V22.528ZM85.5682 24.4705C84.2811 25.8463 83.831 27.5977 83.831 29.304H89.831C89.831 28.9603 89.876 28.7597 89.909 28.6607C89.925 28.6127 89.9384 28.5878 89.9437 28.5787C89.9466 28.5738 89.9483 28.5713 89.9489 28.5706C89.9494 28.5699 89.9496 28.5697 89.9498 28.5695L85.5682 24.4705ZM83.831 29.304V39H89.831V29.304H83.831ZM86.831 36H81.359V42H86.831V36ZM84.359 39V21.144H78.359V39H84.359ZM81.359 24.144H86.831V18.144H81.359V24.144ZM83.831 21.144V23.512H89.831V21.144H83.831ZM89.2856 25.2368C89.5207 24.9022 89.8525 24.6072 90.3632 24.3634L87.7788 18.9486C86.4121 19.6008 85.2506 20.5431 84.3764 21.7872L89.2856 25.2368ZM90.4126 24.3393C90.8877 24.1017 91.4758 23.952 92.239 23.952V17.952C90.6555 17.952 89.1316 18.2716 87.7294 18.9727L90.4126 24.3393ZM115.175 23.672H112.175V34.2711L117.73 25.2443L115.175 23.672ZM117.383 21.656L115.971 19.0089V19.0089L117.383 21.656ZM124.679 22.008L123.089 24.552L124.679 22.008ZM127.495 25.208L124.803 26.5331L124.811 26.5496L124.82 26.5661L127.495 25.208ZM127.495 34.904L124.811 33.5624L124.807 33.5706L124.803 33.5789L127.495 34.904ZM124.679 38.136L126.269 40.68L126.285 40.6699L126.301 40.6595L124.679 38.136ZM117.383 38.52L115.946 41.1537L115.969 41.1664L115.993 41.1787L117.383 38.52ZM115.175 36.504L117.7 34.885L112.175 26.265V36.504H115.175ZM115.175 39V42H118.175V39H115.175ZM109.703 39H106.703V42H109.703V39ZM109.703 15.32V12.32H106.703V15.32H109.703ZM115.175 15.32H118.175V12.32H115.175V15.32ZM121.831 26.84L119.651 28.9016L119.68 28.9319L119.709 28.9613L121.831 26.84ZM116.263 26.84L114.113 24.7479L114.098 24.7631L114.083 24.7784L116.263 26.84ZM116.263 33.304L114.083 35.3656L114.098 35.3809L114.113 35.3961L116.263 33.304ZM121.831 33.304L123.981 35.3961L123.995 35.3817L124.009 35.3672L121.831 33.304ZM117.73 25.2443C117.932 24.9157 118.249 24.5938 118.795 24.3031L115.971 19.0089C114.596 19.7422 113.442 20.7643 112.62 22.0997L117.73 25.2443ZM118.795 24.3031C119.263 24.0529 119.866 23.888 120.679 23.888V17.888C119.017 17.888 117.422 18.2351 115.971 19.0089L118.795 24.3031ZM120.679 23.888C121.615 23.888 122.393 24.117 123.089 24.552L126.269 19.464C124.575 18.4056 122.687 17.888 120.679 17.888V23.888ZM123.089 24.552C123.765 24.9744 124.342 25.597 124.803 26.5331L130.186 23.8829C129.282 22.0457 127.982 20.535 126.269 19.464L123.089 24.552ZM124.82 26.5661C125.275 27.4625 125.551 28.5928 125.551 30.04H131.551C131.551 27.8179 131.123 25.7268 130.17 23.8499L124.82 26.5661ZM125.551 30.04C125.551 31.4859 125.275 32.6347 124.811 33.5624L130.178 36.2456C131.122 34.3573 131.551 32.2634 131.551 30.04H125.551ZM124.803 33.5789C124.339 34.521 123.752 35.1652 123.056 35.6125L126.301 40.6595C127.995 39.5708 129.285 38.0603 130.186 36.2291L124.803 33.5789ZM123.089 35.592C122.393 36.027 121.615 36.256 120.679 36.256V42.256C122.687 42.256 124.575 41.7384 126.269 40.68L123.089 35.592ZM120.679 36.256C119.813 36.256 119.208 36.0892 118.773 35.8613L115.993 41.1787C117.434 41.9322 119.027 42.256 120.679 42.256V36.256ZM118.819 35.8863C118.286 35.5954 117.94 35.2583 117.7 34.885L112.649 38.123C113.476 39.4137 114.602 40.4206 115.946 41.1537L118.819 35.8863ZM112.175 36.504V39H118.175V36.504H112.175ZM115.175 36H109.703V42H115.175V36ZM112.703 39V15.32H106.703V39H112.703ZM109.703 18.32H115.175V12.32H109.703V18.32ZM112.175 15.32V23.672H118.175V15.32H112.175ZM125.983 30.04C125.983 28.0947 125.419 26.1854 123.952 24.7187L119.709 28.9613C119.779 29.0306 119.983 29.2547 119.983 30.04H125.983ZM124.01 24.7784C122.684 23.376 120.961 22.656 119.047 22.656V28.656C119.351 28.656 119.485 28.7254 119.651 28.9016L124.01 24.7784ZM119.047 22.656C117.138 22.656 115.438 23.3861 114.113 24.7479L118.413 28.9321C118.624 28.7152 118.78 28.656 119.047 28.656V22.656ZM114.083 24.7784C112.684 26.2582 112.143 28.1456 112.143 30.072H118.143C118.143 29.2678 118.349 29.0005 118.442 28.9016L114.083 24.7784ZM112.143 30.072C112.143 31.9984 112.684 33.8858 114.083 35.3656L118.442 31.2424C118.349 31.1435 118.143 30.8762 118.143 30.072H112.143ZM114.113 35.3961C115.438 36.7579 117.138 37.488 119.047 37.488V31.488C118.78 31.488 118.624 31.4288 118.413 31.2119L114.113 35.3961ZM119.047 37.488C120.956 37.488 122.656 36.7579 123.981 35.3961L119.681 31.2119C119.47 31.4288 119.314 31.488 119.047 31.488V37.488ZM124.009 35.3672C125.417 33.8809 125.983 31.9926 125.983 30.04H119.983C119.983 30.8181 119.781 31.1058 119.653 31.2408L124.009 35.3672ZM131.805 18.456L129.723 20.6155L129.762 20.6533L129.803 20.6897L131.805 18.456ZM131.805 14.232L133.847 16.4304L133.85 16.4277L131.805 14.232ZM136.478 14.232L134.395 16.3915L134.434 16.4293L134.475 16.4657L136.478 14.232ZM136.478 18.456L138.519 20.6544L138.522 20.6517L136.478 18.456ZM136.894 21.144H139.894V18.144H136.894V21.144ZM136.894 39V42H139.894V39H136.894ZM131.422 39H128.422V42H131.422V39ZM131.422 21.144V18.144H128.422V21.144H131.422ZM134.174 16.288C133.983 16.288 133.888 16.2608 133.856 16.2496C133.831 16.2407 133.822 16.2346 133.808 16.2223L129.803 20.6897C131.057 21.8138 132.597 22.288 134.174 22.288V16.288ZM133.888 16.2965C133.869 16.2782 133.866 16.272 133.871 16.2796C133.877 16.2877 133.886 16.3032 133.895 16.3243C133.904 16.3455 133.909 16.3626 133.91 16.3714C133.912 16.3796 133.91 16.3719 133.91 16.344H127.91C127.91 17.9881 128.538 19.4724 129.723 20.6155L133.888 16.2965ZM133.91 16.344C133.91 16.306 133.913 16.292 133.912 16.297C133.911 16.3029 133.906 16.3215 133.895 16.3476C133.884 16.374 133.87 16.3976 133.857 16.4158C133.845 16.4335 133.839 16.4379 133.847 16.4304L129.764 12.0336C128.524 13.1852 127.91 14.7005 127.91 16.344H133.91ZM133.85 16.4277C133.867 16.4114 133.874 16.4079 133.89 16.4023C133.912 16.3943 133.995 16.368 134.174 16.368V10.368C132.566 10.368 131.011 10.8725 129.761 12.0363L133.85 16.4277ZM134.174 16.368C134.334 16.368 134.398 16.3921 134.4 16.393C134.403 16.3939 134.399 16.3927 134.393 16.3891C134.388 16.3855 134.388 16.3847 134.395 16.3915L138.56 12.0725C137.329 10.8852 135.779 10.368 134.174 10.368V16.368ZM134.475 16.4657C134.487 16.4762 134.482 16.4737 134.469 16.4563C134.456 16.4383 134.44 16.413 134.427 16.3828C134.414 16.3527 134.407 16.3288 134.405 16.3165C134.403 16.3049 134.406 16.3124 134.406 16.344H140.406C140.406 14.6644 139.753 13.1393 138.48 11.9983L134.475 16.4657ZM134.406 16.344C134.406 16.3653 134.404 16.3663 134.407 16.3517C134.41 16.3365 134.416 16.3141 134.427 16.2892C134.438 16.2643 134.449 16.2471 134.455 16.2391C134.46 16.2317 134.456 16.2394 134.433 16.2603L138.522 20.6517C139.739 19.5185 140.406 18.0238 140.406 16.344H134.406ZM134.436 16.2576C134.431 16.262 134.432 16.261 134.436 16.2582C134.441 16.2554 134.442 16.2558 134.435 16.2583C134.422 16.2628 134.347 16.288 134.174 16.288V22.288C135.746 22.288 137.283 21.8023 138.519 20.6544L134.436 16.2576ZM133.894 21.144V39H139.894V21.144H133.894ZM136.894 36H131.422V42H136.894V36ZM134.422 39V21.144H128.422V39H134.422ZM131.422 24.144H136.894V18.144H131.422V24.144ZM146.331 15.32H149.331V12.32H146.331V15.32ZM146.331 39V42H149.331V39H146.331ZM140.859 39H137.859V42H140.859V39ZM140.859 15.32V12.32H137.859V15.32H140.859ZM143.331 15.32V39H149.331V15.32H143.331ZM146.331 36H140.859V42H146.331V36ZM143.859 39V15.32H137.859V39H143.859ZM140.859 18.32H146.331V12.32H140.859V18.32ZM150.232 25.208L147.557 23.8499L147.549 23.8664L147.541 23.8829L150.232 25.208ZM153.081 22.008L154.671 24.552L153.081 22.008ZM160.376 21.656L158.94 24.2897L158.952 24.2964L158.965 24.3031L160.376 21.656ZM162.585 23.672L160.03 25.2443L165.585 34.2711V23.672H162.585ZM162.585 21.144V18.144H159.585V21.144H162.585ZM168.057 21.144H171.057V18.144H168.057V21.144ZM168.057 39V42H171.057V39H168.057ZM162.585 39H159.585V42H162.585V39ZM162.585 36.472H165.585V26.233L160.059 34.853L162.585 36.472ZM160.344 38.488L158.933 35.8409L158.92 35.8476L158.908 35.8543L160.344 38.488ZM153.081 38.136L151.458 40.6595L151.474 40.6699L151.491 40.68L153.081 38.136ZM150.232 34.904L147.533 36.2128L147.545 36.2376L147.557 36.2621L150.232 34.904ZM161.432 26.84L159.253 28.9016L159.268 28.9169L159.282 28.9321L161.432 26.84ZM155.896 26.84L153.746 24.7479L153.746 24.7488L155.896 26.84ZM155.896 33.304L153.69 35.3364L153.718 35.3666L153.746 35.3961L155.896 33.304ZM161.432 33.304L159.282 31.2119L159.268 31.2271L159.253 31.2424L161.432 33.304ZM152.208 30.04C152.208 28.5796 152.479 27.4373 152.924 26.5331L147.541 23.8829C146.621 25.7521 146.208 27.8311 146.208 30.04H152.208ZM152.908 26.5661C153.391 25.614 153.986 24.9799 154.671 24.552L151.491 19.464C149.786 20.5294 148.482 22.0287 147.557 23.8499L152.908 26.5661ZM154.671 24.552C155.366 24.117 156.144 23.888 157.081 23.888V17.888C155.073 17.888 153.184 18.4056 151.491 19.464L154.671 24.552ZM157.081 23.888C157.926 23.888 158.514 24.0574 158.94 24.2897L161.813 19.0223C160.362 18.2306 158.752 17.888 157.081 17.888V23.888ZM158.965 24.3031C159.51 24.5938 159.827 24.9157 160.03 25.2443L165.139 22.0997C164.318 20.7643 163.163 19.7422 161.788 19.0089L158.965 24.3031ZM165.585 23.672V21.144H159.585V23.672H165.585ZM162.585 24.144H168.057V18.144H162.585V24.144ZM165.057 21.144V39H171.057V21.144H165.057ZM168.057 36H162.585V42H168.057V36ZM165.585 39V36.472H159.585V39H165.585ZM160.059 34.853C159.83 35.21 159.486 35.5456 158.933 35.8409L161.756 41.1351C163.123 40.4064 164.272 39.398 165.11 38.091L160.059 34.853ZM158.908 35.8543C158.482 36.0866 157.894 36.256 157.048 36.256V42.256C158.72 42.256 160.33 41.9134 161.781 41.1217L158.908 35.8543ZM157.048 36.256C156.143 36.256 155.374 36.0315 154.671 35.592L151.491 40.68C153.177 41.7338 155.053 42.256 157.048 42.256V36.256ZM154.703 35.6125C153.998 35.1595 153.394 34.504 152.908 33.5459L147.557 36.2621C148.479 38.0773 149.773 39.5765 151.458 40.6595L154.703 35.6125ZM152.932 33.5952C152.478 32.6598 152.208 31.4991 152.208 30.04H146.208C146.208 32.2503 146.621 34.3322 147.533 36.2128L152.932 33.5952ZM165.585 30.072C165.585 28.1228 165.019 26.2246 163.583 24.7479L159.282 28.9321C159.382 29.0341 159.585 29.2905 159.585 30.072H165.585ZM163.612 24.7784C162.298 23.3891 160.592 22.656 158.68 22.656V28.656C158.945 28.656 159.074 28.7122 159.253 28.9016L163.612 24.7784ZM158.68 22.656C156.771 22.656 155.071 23.3861 153.746 24.7479L158.047 28.9321C158.258 28.7152 158.414 28.656 158.68 28.656V22.656ZM153.746 24.7488C152.316 26.2192 151.777 28.1178 151.777 30.04H157.777C157.777 29.2316 157.984 28.9968 158.047 28.9312L153.746 24.7488ZM151.777 30.04C151.777 31.9702 152.318 33.8475 153.69 35.3364L158.103 31.2716C157.981 31.1392 157.777 30.8405 157.777 30.04H151.777ZM153.746 35.3961C155.071 36.7579 156.771 37.488 158.68 37.488V31.488C158.414 31.488 158.258 31.4288 158.047 31.2119L153.746 35.3961ZM158.68 37.488C160.592 37.488 162.298 36.7549 163.612 35.3656L159.253 31.2424C159.074 31.4318 158.945 31.488 158.68 31.488V37.488ZM163.583 35.3961C165.019 33.9194 165.585 32.0212 165.585 30.072H159.585C159.585 30.8535 159.382 31.1099 159.282 31.2119L163.583 35.3961ZM187.887 23L185.664 25.0146L185.681 25.0327L185.698 25.0507L187.887 23ZM189.775 39V42H192.775V39H189.775ZM184.335 39H181.335V42H184.335V39ZM183.407 26.52L181.216 28.5695V28.5695L183.407 26.52ZM178.415 26.52L180.606 28.5695V28.5695L178.415 26.52ZM177.487 39V42H180.487V39H177.487ZM172.015 39H169.015V42H172.015V39ZM172.015 21.144V18.144H169.015V21.144H172.015ZM177.487 21.144H180.487V18.144H177.487V21.144ZM177.487 23.512H174.487V32.9991L179.942 25.2368L177.487 23.512ZM179.727 21.656L181.019 24.3634L181.044 24.3516L181.069 24.3393L179.727 21.656ZM182.895 23.952C184.265 23.952 185.075 24.3645 185.664 25.0146L190.11 20.9854C188.225 18.9048 185.707 17.952 182.895 17.952V23.952ZM185.698 25.0507C186.3 25.6934 186.775 26.736 186.775 28.568H192.775C192.775 25.664 191.992 22.9946 190.077 20.9493L185.698 25.0507ZM186.775 28.568V39H192.775V28.568H186.775ZM189.775 36H184.335V42H189.775V36ZM187.335 39V29.304H181.335V39H187.335ZM187.335 29.304C187.335 27.5977 186.885 25.8463 185.598 24.4705L181.216 28.5695C181.217 28.5697 181.217 28.5699 181.217 28.5706C181.218 28.5713 181.22 28.5738 181.223 28.5787C181.228 28.5878 181.241 28.6127 181.257 28.6607C181.29 28.7597 181.335 28.9603 181.335 29.304H187.335ZM185.598 24.4705C184.323 23.1075 182.647 22.528 180.911 22.528V28.528C181.117 28.528 181.202 28.5601 181.211 28.5639C181.217 28.5662 181.215 28.5659 181.21 28.5624C181.205 28.5589 181.207 28.5593 181.216 28.5695L185.598 24.4705ZM180.911 22.528C179.176 22.528 177.5 23.1075 176.224 24.4705L180.606 28.5695C180.616 28.5593 180.618 28.5589 180.613 28.5624C180.608 28.5659 180.605 28.5662 180.611 28.5639C180.621 28.5601 180.705 28.528 180.911 28.528V22.528ZM176.224 24.4705C174.937 25.8463 174.487 27.5977 174.487 29.304H180.487C180.487 28.9603 180.532 28.7597 180.565 28.6607C180.581 28.6127 180.595 28.5878 180.6 28.5787C180.603 28.5738 180.605 28.5713 180.605 28.5706C180.606 28.5699 180.606 28.5697 180.606 28.5695L176.224 24.4705ZM174.487 29.304V39H180.487V29.304H174.487ZM177.487 36H172.015V42H177.487V36ZM175.015 39V21.144H169.015V39H175.015ZM172.015 24.144H177.487V18.144H172.015V24.144ZM174.487 21.144V23.512H180.487V21.144H174.487ZM179.942 25.2368C180.177 24.9022 180.509 24.6072 181.019 24.3634L178.435 18.9486C177.068 19.6008 175.907 20.5431 175.033 21.7872L179.942 25.2368ZM181.069 24.3393C181.544 24.1017 182.132 23.952 182.895 23.952V17.952C181.312 17.952 179.788 18.2716 178.386 18.9727L181.069 24.3393ZM213.959 27.48L213.107 24.6036L213.334 30.4141L213.959 27.48ZM217.095 29.432L214.719 31.2635L214.728 31.2756L214.738 31.2877L217.095 29.432ZM216.295 37.368L218.219 39.6696L218.223 39.6666L216.295 37.368ZM200.359 39H197.359V42H200.359V39ZM200.359 16.536V13.536H197.359V16.536H200.359ZM215.815 18.104L213.917 20.4276L213.927 20.4353L213.936 20.4429L215.815 18.104ZM216.711 25.656L214.374 23.775L214.36 23.7925L214.346 23.8102L216.711 25.656ZM205.831 25.624H202.831V28.624H205.831V25.624ZM211.463 25.048L213.363 27.3699L213.368 27.3654L213.374 27.3609L211.463 25.048ZM211.463 21.528L209.502 23.7985L209.527 23.82L209.552 23.8409L211.463 21.528ZM205.831 20.92V17.92H202.831V20.92H205.831ZM211.975 33.976L213.886 36.2889L213.896 36.2807L211.975 33.976ZM211.943 30.296L209.967 32.5537L209.99 32.5737L210.013 32.5931L211.943 30.296ZM205.831 29.624V26.624H202.831V29.624H205.831ZM205.831 34.584H202.831V37.584H205.831V34.584ZM213.334 30.4141C213.961 30.5479 214.378 30.8207 214.719 31.2635L219.471 27.6005C218.234 25.9953 216.559 24.9668 214.584 24.5459L213.334 30.4141ZM214.738 31.2877C215.102 31.7502 215.279 32.2454 215.279 32.888H221.279C221.279 30.9279 220.667 29.1191 219.452 27.5763L214.738 31.2877ZM215.279 32.888C215.279 33.9664 214.945 34.5844 214.367 35.0694L218.223 39.6666C220.29 37.933 221.279 35.5643 221.279 32.888H215.279ZM214.371 35.0664C213.784 35.5569 212.734 36 210.823 36V42C213.605 42 216.203 41.3551 218.219 39.6696L214.371 35.0664ZM210.823 36H200.359V42H210.823V36ZM203.359 39V16.536H197.359V39H203.359ZM200.359 19.536H210.471V13.536H200.359V19.536ZM210.471 19.536C212.323 19.536 213.345 19.9605 213.917 20.4276L217.713 15.7804C215.725 14.1568 213.184 13.536 210.471 13.536V19.536ZM213.936 20.4429C214.471 20.8724 214.767 21.4005 214.767 22.36H220.767C220.767 19.7355 219.762 17.4263 217.694 15.7651L213.936 20.4429ZM214.767 22.36C214.767 23.1255 214.575 23.5246 214.374 23.775L219.048 27.537C220.255 26.0381 220.767 24.2398 220.767 22.36H214.767ZM214.346 23.8102C214.08 24.1508 213.712 24.4243 213.107 24.6036L214.811 30.3564C216.51 29.853 217.976 28.9106 219.076 27.5018L214.346 23.8102ZM205.831 28.624H209.415V22.624H205.831V28.624ZM209.415 28.624C210.684 28.624 212.153 28.3592 213.363 27.3699L209.563 22.7261C209.698 22.6161 209.797 22.5891 209.787 22.592C209.78 22.5939 209.748 22.6023 209.685 22.6099C209.622 22.6176 209.533 22.624 209.415 22.624V28.624ZM213.374 27.3609C214.697 26.2673 215.199 24.7468 215.199 23.288H209.199C209.199 23.3553 209.188 23.2876 209.247 23.1466C209.313 22.9905 209.423 22.8421 209.552 22.7351L213.374 27.3609ZM215.199 23.288C215.199 21.8292 214.697 20.3087 213.374 19.2151L209.552 23.8409C209.423 23.7339 209.313 23.5855 209.247 23.4294C209.188 23.2884 209.199 23.2207 209.199 23.288H215.199ZM213.424 19.2575C212.211 18.2103 210.717 17.92 209.415 17.92V23.92C209.527 23.92 209.609 23.9264 209.665 23.9336C209.721 23.9408 209.746 23.9481 209.745 23.9479C209.744 23.9476 209.716 23.9393 209.671 23.9152C209.624 23.8905 209.565 23.8527 209.502 23.7985L213.424 19.2575ZM209.415 17.92H205.831V23.92H209.415V17.92ZM202.831 20.92V25.624H208.831V20.92H202.831ZM209.863 37.584C211.177 37.584 212.664 37.2982 213.886 36.2889L210.064 31.6631C210.181 31.567 210.265 31.5445 210.249 31.5491C210.225 31.5561 210.108 31.584 209.863 31.584V37.584ZM213.896 36.2807C215.22 35.177 215.743 33.6499 215.743 32.152H209.743C209.743 32.2238 209.732 32.1652 209.786 32.0358C209.846 31.8929 209.946 31.7619 210.054 31.6713L213.896 36.2807ZM215.743 32.152C215.743 30.6088 215.18 29.0969 213.873 27.9989L210.013 32.5931C209.935 32.5271 209.846 32.418 209.788 32.2835C209.734 32.159 209.743 32.0965 209.743 32.152H215.743ZM213.919 28.0383C212.694 26.9668 211.188 26.624 209.799 26.624V32.624C210.019 32.624 210.115 32.6515 210.126 32.6547C210.129 32.6557 210.111 32.6504 210.08 32.6331C210.047 32.6153 210.008 32.5892 209.967 32.5537L213.919 28.0383ZM209.799 26.624H205.831V32.624H209.799V26.624ZM202.831 29.624V34.584H208.831V29.624H202.831ZM205.831 37.584H209.863V31.584H205.831V37.584ZM224.845 38.136L223.422 40.7774L223.431 40.7819L223.439 40.7864L224.845 38.136ZM221.549 34.936L218.942 36.4201L218.95 36.4351L218.959 36.4501L221.549 34.936ZM221.581 25.24L224.171 26.7541L224.176 26.7455L224.181 26.7369L221.581 25.24ZM224.909 22.008L226.314 24.6584L224.909 22.008ZM234.381 22.008L232.975 24.6584H232.975L234.381 22.008ZM237.709 25.24L235.109 26.7369L235.114 26.7455L235.119 26.7541L237.709 25.24ZM237.677 34.936L235.094 33.4098L235.087 33.4219L237.677 34.936ZM234.317 38.136L232.928 35.477L232.919 35.4813L232.911 35.4856L234.317 38.136ZM232.237 33.368L230.086 31.2768L230.071 31.2923L230.056 31.3081L232.237 33.368ZM232.269 26.776L230.057 28.8032L230.072 28.8196L230.088 28.8359L232.269 26.776ZM226.989 26.776L229.172 28.834L229.186 28.8187L229.2 28.8032L226.989 26.776ZM226.957 33.368L224.715 35.3611L224.73 35.3783L224.745 35.3952L226.957 33.368ZM229.581 36.256C228.273 36.256 227.184 35.9809 226.25 35.4856L223.439 40.7864C225.321 41.7845 227.39 42.256 229.581 42.256V36.256ZM226.267 35.4946C225.376 35.0147 224.677 34.3426 224.139 33.4219L218.959 36.4501C220.042 38.3027 221.54 39.764 223.422 40.7774L226.267 35.4946ZM224.156 33.4519C223.663 32.5866 223.365 31.4933 223.365 30.072H217.365C217.365 32.3627 217.855 34.5121 218.942 36.4201L224.156 33.4519ZM223.365 30.072C223.365 28.6925 223.665 27.6192 224.171 26.7541L218.991 23.7259C217.875 25.6342 217.365 27.7822 217.365 30.072H223.365ZM224.181 26.7369C224.715 25.8081 225.415 25.1352 226.314 24.6584L223.503 19.3576C221.586 20.3741 220.067 21.8559 218.981 23.7431L224.181 26.7369ZM226.314 24.6584C227.248 24.1631 228.337 23.888 229.645 23.888V17.888C227.454 17.888 225.385 18.3595 223.503 19.3576L226.314 24.6584ZM229.645 23.888C230.953 23.888 232.041 24.1631 232.975 24.6584L235.786 19.3576C233.904 18.3595 231.835 17.888 229.645 17.888V23.888ZM232.975 24.6584C233.874 25.1352 234.574 25.8081 235.109 26.7369L240.309 23.7431C239.222 21.8559 237.703 20.3741 235.786 19.3576L232.975 24.6584ZM235.119 26.7541C235.625 27.6192 235.925 28.6925 235.925 30.072H241.925C241.925 27.7822 241.414 25.6342 240.299 23.7259L235.119 26.7541ZM235.925 30.072C235.925 31.4367 235.621 32.5185 235.094 33.4098L240.26 36.4622C241.397 34.5375 241.925 32.3766 241.925 30.072H235.925ZM235.087 33.4219C234.562 34.3196 233.859 34.9904 232.928 35.477L235.706 40.795C237.633 39.7883 239.17 38.3258 240.267 36.4501L235.087 33.4219ZM232.911 35.4856C231.977 35.9809 230.889 36.256 229.581 36.256V42.256C231.771 42.256 233.84 41.7845 235.722 40.7864L232.911 35.4856ZM229.581 37.52C231.461 37.52 233.133 36.7887 234.418 35.4279L230.056 31.3081C229.89 31.4833 229.791 31.52 229.581 31.52V37.52ZM234.388 35.4592C235.841 33.9644 236.357 32.0138 236.357 30.072H230.357C230.357 30.9889 230.126 31.2356 230.086 31.2768L234.388 35.4592ZM236.357 30.072C236.357 28.1522 235.864 26.2134 234.45 24.7161L230.088 28.8359C230.124 28.8746 230.357 29.1331 230.357 30.072H236.357ZM234.48 24.7488C233.206 23.3586 231.528 22.624 229.645 22.624V28.624C229.792 28.624 229.856 28.649 229.879 28.6589C229.901 28.6688 229.961 28.6982 230.057 28.8032L234.48 24.7488ZM229.645 22.624C227.76 22.624 226.065 23.3444 224.777 24.7488L229.2 28.8032C229.291 28.7046 229.348 28.6757 229.374 28.6643C229.402 28.6521 229.479 28.624 229.645 28.624V22.624ZM224.806 24.718C223.394 26.2157 222.933 28.1734 222.933 30.072H228.933C228.933 29.5811 228.993 29.264 229.054 29.0753C229.11 28.8992 229.163 28.8432 229.172 28.834L224.806 24.718ZM222.933 30.072C222.933 31.9488 223.382 33.8617 224.715 35.3611L229.199 31.3749C229.166 31.3383 228.933 31.0538 228.933 30.072H222.933ZM224.745 35.3952C226.02 36.7854 227.698 37.52 229.581 37.52V31.52C229.434 31.52 229.369 31.495 229.347 31.4851C229.324 31.4752 229.264 31.4458 229.168 31.3408L224.745 35.3952ZM243.076 16.536V13.536H240.602L240.131 15.9646L243.076 16.536ZM248.676 16.536L251.444 17.6928L253.181 13.536H248.676V16.536ZM245.092 25.112V28.112H247.089L247.86 26.2688L245.092 25.112ZM241.412 25.112L238.467 24.5406L237.774 28.112H241.412V25.112ZM243.076 19.536H248.676V13.536H243.076V19.536ZM245.908 15.3792L242.324 23.9552L247.86 26.2688L251.444 17.6928L245.908 15.3792ZM245.092 22.112H241.412V28.112H245.092V22.112ZM244.357 25.6834L246.021 17.1074L240.131 15.9646L238.467 24.5406L244.357 25.6834ZM257.362 15.32H260.362V12.32H257.362V15.32ZM257.362 39V42H260.362V39H257.362ZM251.89 39H248.89V42H251.89V39ZM251.89 15.32V12.32H248.89V15.32H251.89ZM254.362 15.32V39H260.362V15.32H254.362ZM257.362 36H251.89V42H257.362V36ZM254.89 39V15.32H248.89V39H254.89ZM251.89 18.32H257.362V12.32H251.89V18.32ZM261.712 18.456L259.629 20.6155L259.669 20.6533L259.709 20.6897L261.712 18.456ZM261.712 14.232L263.753 16.4304L263.756 16.4277L261.712 14.232ZM266.384 14.232L264.301 16.3915L264.341 16.4293L264.381 16.4657L266.384 14.232ZM266.384 18.456L268.425 20.6544L268.428 20.6517L266.384 18.456ZM266.8 21.144H269.8V18.144H266.8V21.144ZM266.8 39V42H269.8V39H266.8ZM261.328 39H258.328V42H261.328V39ZM261.328 21.144V18.144H258.328V21.144H261.328ZM264.08 16.288C263.889 16.288 263.794 16.2608 263.762 16.2496C263.737 16.2407 263.728 16.2346 263.714 16.2223L259.709 20.6897C260.963 21.8138 262.503 22.288 264.08 22.288V16.288ZM263.794 16.2965C263.775 16.2782 263.772 16.272 263.777 16.2796C263.783 16.2877 263.793 16.3032 263.801 16.3243C263.81 16.3455 263.815 16.3626 263.817 16.3714C263.818 16.3796 263.816 16.3719 263.816 16.344H257.816C257.816 17.9881 258.444 19.4724 259.629 20.6155L263.794 16.2965ZM263.816 16.344C263.816 16.306 263.819 16.292 263.818 16.297C263.817 16.3029 263.813 16.3215 263.801 16.3476C263.79 16.374 263.777 16.3976 263.764 16.4158C263.751 16.4335 263.745 16.4379 263.753 16.4304L259.67 12.0336C258.43 13.1852 257.816 14.7005 257.816 16.344H263.816ZM263.756 16.4277C263.774 16.4114 263.781 16.4079 263.796 16.4023C263.818 16.3943 263.901 16.368 264.08 16.368V10.368C262.472 10.368 260.918 10.8725 259.667 12.0363L263.756 16.4277ZM264.08 16.368C264.241 16.368 264.304 16.3921 264.306 16.393C264.309 16.3939 264.305 16.3927 264.3 16.3891C264.294 16.3855 264.294 16.3847 264.301 16.3915L268.466 12.0725C267.235 10.8852 265.685 10.368 264.08 10.368V16.368ZM264.381 16.4657C264.393 16.4762 264.388 16.4737 264.375 16.4563C264.362 16.4383 264.346 16.413 264.333 16.3828C264.32 16.3527 264.314 16.3288 264.311 16.3165C264.309 16.3049 264.312 16.3124 264.312 16.344H270.312C270.312 14.6644 269.659 13.1393 268.386 11.9983L264.381 16.4657ZM264.312 16.344C264.312 16.3653 264.31 16.3663 264.313 16.3517C264.316 16.3365 264.322 16.3141 264.333 16.2892C264.344 16.2643 264.355 16.2471 264.361 16.2391C264.366 16.2317 264.362 16.2394 264.339 16.2603L268.428 20.6517C269.645 19.5185 270.312 18.0238 270.312 16.344H264.312ZM264.342 16.2576C264.338 16.262 264.338 16.261 264.343 16.2582C264.347 16.2554 264.348 16.2558 264.341 16.2583C264.328 16.2628 264.253 16.288 264.08 16.288V22.288C265.653 22.288 267.189 21.8023 268.425 20.6544L264.342 16.2576ZM263.8 21.144V39H269.8V21.144H263.8ZM266.8 36H261.328V42H266.8V36ZM264.328 39V21.144H258.328V39H264.328ZM261.328 24.144H266.8V18.144H261.328V24.144ZM286.637 23L284.414 25.0146L284.431 25.0327L284.448 25.0507L286.637 23ZM288.525 39V42H291.525V39H288.525ZM283.085 39H280.085V42H283.085V39ZM282.157 26.52L279.966 28.5695V28.5695L282.157 26.52ZM277.165 26.52L279.356 28.5695V28.5695L277.165 26.52ZM276.237 39V42H279.237V39H276.237ZM270.765 39H267.765V42H270.765V39ZM270.765 21.144V18.144H267.765V21.144H270.765ZM276.237 21.144H279.237V18.144H276.237V21.144ZM276.237 23.512H273.237V32.9991L278.692 25.2368L276.237 23.512ZM278.477 21.656L279.769 24.3634L279.794 24.3516L279.819 24.3393L278.477 21.656ZM281.645 23.952C283.015 23.952 283.825 24.3645 284.414 25.0146L288.86 20.9854C286.975 18.9048 284.457 17.952 281.645 17.952V23.952ZM284.448 25.0507C285.049 25.6934 285.525 26.736 285.525 28.568H291.525C291.525 25.664 290.742 22.9946 288.827 20.9493L284.448 25.0507ZM285.525 28.568V39H291.525V28.568H285.525ZM288.525 36H283.085V42H288.525V36ZM286.085 39V29.304H280.085V39H286.085ZM286.085 29.304C286.085 27.5977 285.635 25.8463 284.348 24.4705L279.966 28.5695C279.967 28.5697 279.967 28.5699 279.967 28.5706C279.968 28.5713 279.97 28.5738 279.973 28.5787C279.978 28.5878 279.991 28.6127 280.007 28.6607C280.04 28.7597 280.085 28.9603 280.085 29.304H286.085ZM284.348 24.4705C283.073 23.1075 281.397 22.528 279.661 22.528V28.528C279.867 28.528 279.952 28.5601 279.961 28.5639C279.967 28.5662 279.965 28.5659 279.96 28.5624C279.955 28.5589 279.957 28.5593 279.966 28.5695L284.348 24.4705ZM279.661 22.528C277.926 22.528 276.25 23.1075 274.974 24.4705L279.356 28.5695C279.366 28.5593 279.368 28.5589 279.363 28.5624C279.358 28.5659 279.355 28.5662 279.361 28.5639C279.371 28.5601 279.455 28.528 279.661 28.528V22.528ZM274.974 24.4705C273.687 25.8463 273.237 27.5977 273.237 29.304H279.237C279.237 28.9603 279.282 28.7597 279.315 28.6607C279.331 28.6127 279.345 28.5878 279.35 28.5787C279.353 28.5738 279.355 28.5713 279.355 28.5706C279.356 28.5699 279.356 28.5697 279.356 28.5695L274.974 24.4705ZM273.237 29.304V39H279.237V29.304H273.237ZM276.237 36H270.765V42H276.237V36ZM273.765 39V21.144H267.765V39H273.765ZM270.765 24.144H276.237V18.144H270.765V24.144ZM273.237 21.144V23.512H279.237V21.144H273.237ZM278.692 25.2368C278.927 24.9022 279.259 24.6072 279.769 24.3634L277.185 18.9486C275.818 19.6008 274.657 20.5431 273.783 21.7872L278.692 25.2368ZM279.819 24.3393C280.294 24.1017 280.882 23.952 281.645 23.952V17.952C280.062 17.952 278.538 18.2716 277.136 18.9727L279.819 24.3393ZM302.408 21.656L300.971 24.2897L300.984 24.2964L300.996 24.3031L302.408 21.656ZM304.616 23.672L302.061 25.2443L307.616 34.2711V23.672H304.616ZM304.616 21.144V18.144H301.616V21.144H304.616ZM310.088 21.144H313.088V18.144H310.088V21.144ZM309.096 43.416L306.412 42.0744L306.4 42.1002L306.387 42.1262L309.096 43.416ZM306.12 46.616L304.6 44.0291L304.591 44.0345L304.582 44.0399L306.12 46.616ZM294.728 45.912L296.552 43.5307L296.543 43.5232L296.533 43.5157L294.728 45.912ZM291.912 40.856V37.856H288.564L288.93 41.184L291.912 40.856ZM297.32 40.856L300.23 40.1284L299.662 37.856H297.32V40.856ZM298.536 42.456L300.141 39.9215L300.11 39.9022L300.079 39.8835L298.536 42.456ZM303.592 42.072L301.54 39.8834L301.505 39.9165L301.47 39.9507L303.592 42.072ZM304.616 36.44H307.616V26.201L302.09 34.821L304.616 36.44ZM302.408 38.488L303.844 41.1217L303.867 41.1092L303.89 41.0964L302.408 38.488ZM295.112 38.136L293.489 40.6595L293.506 40.6699L293.522 40.68L295.112 38.136ZM292.264 34.904L289.564 36.2128L289.576 36.2376L289.589 36.2621L292.264 34.904ZM292.264 25.208L289.589 23.8499L289.58 23.8664L289.572 23.8829L292.264 25.208ZM295.112 22.008L296.702 24.552L295.112 22.008ZM303.464 26.84L301.284 28.9016L301.299 28.9169L301.314 28.9321L303.464 26.84ZM297.928 26.84L295.778 24.7479L295.777 24.7488L297.928 26.84ZM297.928 33.304L295.721 35.3364L295.749 35.3666L295.778 35.3961L297.928 33.304ZM303.464 33.304L301.314 31.2119L301.299 31.2271L301.284 31.2424L303.464 33.304ZM299.112 23.888C299.958 23.888 300.545 24.0574 300.971 24.2897L303.844 19.0223C302.393 18.2306 300.783 17.888 299.112 17.888V23.888ZM300.996 24.3031C301.541 24.5938 301.859 24.9157 302.061 25.2443L307.171 22.0997C306.349 20.7643 305.194 19.7422 303.82 19.0089L300.996 24.3031ZM307.616 23.672V21.144H301.616V23.672H307.616ZM304.616 24.144H310.088V18.144H304.616V24.144ZM307.088 21.144V38.968H313.088V21.144H307.088ZM307.088 38.968C307.088 40.1972 306.843 41.2126 306.412 42.0744L311.779 44.7576C312.671 42.974 313.088 41.0241 313.088 38.968H307.088ZM306.387 42.1262C306.018 42.9023 305.453 43.5284 304.6 44.0291L307.639 49.2029C309.474 48.1249 310.894 46.6177 311.804 44.7058L306.387 42.1262ZM304.582 44.0399C303.84 44.4827 302.755 44.8 301.16 44.8V50.8C303.532 50.8 305.754 50.328 307.657 49.1921L304.582 44.0399ZM301.16 44.8C298.989 44.8 297.541 44.2883 296.552 43.5307L292.903 48.2933C295.2 50.053 298.04 50.8 301.16 50.8V44.8ZM296.533 43.5157C295.582 42.8 295.042 41.8795 294.894 40.528L288.93 41.184C289.25 44.0992 290.588 46.5494 292.923 48.3083L296.533 43.5157ZM291.912 43.856H297.32V37.856H291.912V43.856ZM294.409 41.5836C294.786 43.0886 295.716 44.2627 296.992 45.0285L300.079 39.8835C300.049 39.8655 300.087 39.8827 300.14 39.9528C300.165 39.9855 300.186 40.0209 300.203 40.0557C300.219 40.0903 300.227 40.1162 300.23 40.1284L294.409 41.5836ZM296.931 44.9905C298.154 45.7652 299.533 46.064 300.904 46.064V40.064C300.398 40.064 300.198 39.9575 300.141 39.9215L296.931 44.9905ZM300.904 46.064C302.653 46.064 304.375 45.5314 305.713 44.1933L301.47 39.9507C301.453 39.9682 301.435 39.983 301.385 40.0015C301.325 40.0239 301.178 40.064 300.904 40.064V46.064ZM305.644 44.2606C307.188 42.813 307.616 40.7932 307.616 38.968H301.616C301.616 39.4571 301.556 39.7398 301.511 39.8761C301.471 39.9958 301.459 39.959 301.54 39.8834L305.644 44.2606ZM307.616 38.968V36.44H301.616V38.968H307.616ZM302.09 34.821C301.843 35.2065 301.481 35.5639 300.926 35.8796L303.89 41.0964C305.211 40.3454 306.322 39.3375 307.141 38.059L302.09 34.821ZM300.971 35.8543C300.545 36.0866 299.958 36.256 299.112 36.256V42.256C300.783 42.256 302.393 41.9134 303.844 41.1217L300.971 35.8543ZM299.112 36.256C298.176 36.256 297.398 36.027 296.702 35.592L293.522 40.68C295.215 41.7384 297.104 42.256 299.112 42.256V36.256ZM296.734 35.6125C296.029 35.1595 295.425 34.504 294.939 33.5459L289.589 36.2621C290.51 38.0773 291.805 39.5765 293.489 40.6595L296.734 35.6125ZM294.963 33.5952C294.51 32.6598 294.24 31.4991 294.24 30.04H288.24C288.24 32.2503 288.652 34.3322 289.564 36.2128L294.963 33.5952ZM294.24 30.04C294.24 28.5796 294.51 27.4373 294.955 26.5331L289.572 23.8829C288.652 25.7521 288.24 27.8311 288.24 30.04H294.24ZM294.939 26.5661C295.422 25.614 296.017 24.9799 296.702 24.552L293.522 19.464C291.817 20.5294 290.513 22.0287 289.589 23.8499L294.939 26.5661ZM296.702 24.552C297.398 24.117 298.176 23.888 299.112 23.888V17.888C297.104 17.888 295.215 18.4056 293.522 19.464L296.702 24.552ZM307.616 30.072C307.616 28.1228 307.051 26.2246 305.614 24.7479L301.314 28.9321C301.413 29.0341 301.616 29.2905 301.616 30.072H307.616ZM305.643 24.7784C304.329 23.3891 302.623 22.656 300.712 22.656V28.656C300.976 28.656 301.105 28.7122 301.284 28.9016L305.643 24.7784ZM300.712 22.656C298.803 22.656 297.103 23.3861 295.778 24.7479L300.078 28.9321C300.289 28.7152 300.445 28.656 300.712 28.656V22.656ZM295.777 24.7488C294.347 26.2192 293.808 28.1178 293.808 30.04H299.808C299.808 29.2316 300.015 28.9968 300.079 28.9312L295.777 24.7488ZM293.808 30.04C293.808 31.9702 294.35 33.8475 295.721 35.3364L300.134 31.2716C300.012 31.1392 299.808 30.8405 299.808 30.04H293.808ZM295.778 35.3961C297.103 36.7579 298.803 37.488 300.712 37.488V31.488C300.445 31.488 300.289 31.4288 300.078 31.2119L295.778 35.3961ZM300.712 37.488C302.623 37.488 304.329 36.7549 305.643 35.3656L301.284 31.2424C301.105 31.4318 300.976 31.488 300.712 31.488V37.488ZM305.614 35.3961C307.051 33.9194 307.616 32.0212 307.616 30.072H301.616C301.616 30.8535 301.413 31.1099 301.314 31.2119L305.614 35.3961Z" fill="#FCFEFF" mask="url(#path-2-outside-1_1_130)"/>
</svg>
